<svg width="398" height="389" viewBox="0 0 398 389" fill="none" xmlns="http://www.w3.org/2000/svg">
<path d="M53.0548 239.483C-8.94952 97.7185 75.5041 38.3593 120.811 25.4414C166.118 12.5233 352.337 28.4463 377.319 121.439C402.301 214.431 291.071 311.844 232.333 348.926C198.408 371.514 115.059 381.248 53.0548 239.483Z" fill="#95F9DF" fill-opacity="0.3"/>
<g filter="url(#filter0_dd)">
<path d="M76.1343 76.7773H309.252C319.169 76.7773 327.22 84.4313 327.22 93.8601V274.893C327.22 288.981 315.202 300.406 300.384 300.406H76.1343C66.2169 300.406 58.1663 292.752 58.1663 283.434V93.7492C58.1663 84.3204 66.2169 76.7773 76.1343 76.7773Z" fill="white"/>
</g>
<g filter="url(#filter1_dd)">
<path d="M57.0017 93.666C75.9325 179.38 25.0636 289.311 212.239 300.406H281.213C255.218 301.65 232.354 301.599 212.239 300.406H72.0017C63.7174 300.406 57.0017 293.691 57.0017 285.406V93.666Z" fill="white"/>
</g>
<g filter="url(#filter2_d)">
<rect x="127" y="56" width="19" height="57" rx="9.5" fill="#2C4584"/>
</g>
<g filter="url(#filter3_d)">
<rect x="234" y="56" width="19" height="57" rx="9.5" fill="#2C4584"/>
</g>
<path d="M175.572 93.5495C175.572 102.867 183.142 110.322 192.344 110.322C201.662 110.322 209.116 102.867 209.116 93.5495C209.116 84.2316 201.662 76.7773 192.344 76.7773C183.142 76.7773 175.572 84.2316 175.572 93.5495Z" fill="white"/>
<path d="M162.765 186.495H176.16C179.188 186.495 180.586 188.009 180.586 190.921V204.432C180.586 207.46 179.072 208.858 176.16 208.858H162.765C159.737 208.858 158.339 207.344 158.339 204.432V191.038C158.223 188.009 159.737 186.495 162.765 186.495Z" fill="#50E6C5"/>
<path d="M162.765 136.179H176.16C179.188 136.179 180.586 137.693 180.586 140.605V153.999C180.586 157.027 179.072 158.425 176.16 158.425H162.765C159.737 158.425 158.339 156.911 158.339 153.999V140.605C158.223 137.693 159.737 136.179 162.765 136.179Z" fill="#50E6C5"/>
<path d="M218.673 186.495H232.067C235.095 186.495 236.493 188.009 236.493 190.921V204.432C236.493 207.46 234.979 208.858 232.067 208.858H218.673C215.644 208.858 214.247 207.344 214.247 204.432V191.038C214.13 188.009 215.644 186.495 218.673 186.495Z" fill="#50E6C5"/>
<path d="M218.673 136.179H232.067C235.095 136.179 236.493 137.693 236.493 140.605V153.999C236.493 157.027 234.979 158.425 232.067 158.425H218.673C215.644 158.425 214.247 156.911 214.247 153.999V140.605C214.13 137.693 215.644 136.179 218.673 136.179Z" fill="#50E6C5"/>
<path d="M274.58 136.179H287.974C291.003 136.179 292.4 137.693 292.4 140.605V153.999C292.4 157.027 290.886 158.425 287.974 158.425H274.58C271.552 158.425 270.154 156.911 270.154 153.999V140.605C270.154 137.693 271.552 136.179 274.58 136.179Z" fill="#50E6C5"/>
<path d="M106.858 231.221H120.253C123.281 231.221 124.679 232.735 124.679 235.647V249.041C124.679 252.069 123.165 253.467 120.253 253.467H106.858C103.83 253.467 102.432 251.953 102.432 249.041V235.647C102.316 232.735 103.83 231.221 106.858 231.221Z" fill="#50E6C5"/>
<path d="M106.858 186.495H120.253C123.281 186.495 124.679 188.009 124.679 190.921V204.432C124.679 207.46 123.165 208.858 120.253 208.858H106.858C103.83 208.858 102.432 207.344 102.432 204.432V191.038C102.316 188.009 103.83 186.495 106.858 186.495Z" fill="#50E6C5"/>
<path d="M162.765 231.221H176.16C179.188 231.221 180.586 232.735 180.586 235.647V249.041C180.586 252.069 179.072 253.467 176.16 253.467H162.765C159.737 253.467 158.339 251.953 158.339 249.041V235.647C158.223 232.735 159.737 231.221 162.765 231.221Z" fill="#50E6C5"/>
<g filter="url(#filter4_d)">
<path d="M250.347 266.862C250.347 282.819 258.85 297.611 272.71 305.648C286.571 313.684 303.576 313.684 317.436 305.648C331.296 297.611 339.799 282.935 339.799 266.862C339.799 250.905 331.296 236.113 317.436 228.076C303.576 220.04 286.571 220.04 272.71 228.076C258.85 236.113 250.347 250.905 250.347 266.862Z" fill="#50E6C5"/>
</g>
<path d="M291.696 252.652V274.782C297.519 274.782 309.167 274.782 309.167 274.782" stroke="#2C4584" stroke-width="6" stroke-linecap="round" stroke-linejoin="round"/>
<defs>
<filter id="filter0_dd" x="21.1663" y="39.7773" width="341.054" height="295.629" filterUnits="userSpaceOnUse" color-interpolation-filters="sRGB">
<feFlood flood-opacity="0" result="BackgroundImageFix"/>
<feColorMatrix in="SourceAlpha" type="matrix" values="0 0 0 0 0 0 0 0 0 0 0 0 0 0 0 0 0 0 127 0"/>
<feOffset dx="-8" dy="-8"/>
<feGaussianBlur stdDeviation="14.5"/>
<feColorMatrix type="matrix" values="0 0 0 0 0.759863 0 0 0 0 0.809954 0 0 0 0 0.943532 0 0 0 0.109488 0"/>
<feBlend mode="normal" in2="BackgroundImageFix" result="effect1_dropShadow"/>
<feColorMatrix in="SourceAlpha" type="matrix" values="0 0 0 0 0 0 0 0 0 0 0 0 0 0 0 0 0 0 127 0"/>
<feOffset dx="6" dy="6"/>
<feGaussianBlur stdDeviation="14.5"/>
<feColorMatrix type="matrix" values="0 0 0 0 0.760784 0 0 0 0 0.811765 0 0 0 0 0.945098 0 0 0 0.220533 0"/>
<feBlend mode="normal" in2="effect1_dropShadow" result="effect2_dropShadow"/>
<feBlend mode="normal" in="SourceGraphic" in2="effect2_dropShadow" result="shape"/>
</filter>
<filter id="filter1_dd" x="20.0017" y="56.666" width="296.211" height="279.654" filterUnits="userSpaceOnUse" color-interpolation-filters="sRGB">
<feFlood flood-opacity="0" result="BackgroundImageFix"/>
<feColorMatrix in="SourceAlpha" type="matrix" values="0 0 0 0 0 0 0 0 0 0 0 0 0 0 0 0 0 0 127 0"/>
<feOffset dx="-8" dy="-8"/>
<feGaussianBlur stdDeviation="14.5"/>
<feColorMatrix type="matrix" values="0 0 0 0 0.759863 0 0 0 0 0.809954 0 0 0 0 0.943532 0 0 0 0.109488 0"/>
<feBlend mode="normal" in2="BackgroundImageFix" result="effect1_dropShadow"/>
<feColorMatrix in="SourceAlpha" type="matrix" values="0 0 0 0 0 0 0 0 0 0 0 0 0 0 0 0 0 0 127 0"/>
<feOffset dx="6" dy="6"/>
<feGaussianBlur stdDeviation="14.5"/>
<feColorMatrix type="matrix" values="0 0 0 0 0.760784 0 0 0 0 0.811765 0 0 0 0 0.945098 0 0 0 0.220533 0"/>
<feBlend mode="normal" in2="effect1_dropShadow" result="effect2_dropShadow"/>
<feBlend mode="normal" in="SourceGraphic" in2="effect2_dropShadow" result="shape"/>
</filter>
<filter id="filter2_d" x="122" y="53" width="29" height="67" filterUnits="userSpaceOnUse" color-interpolation-filters="sRGB">
<feFlood flood-opacity="0" result="BackgroundImageFix"/>
<feColorMatrix in="SourceAlpha" type="matrix" values="0 0 0 0 0 0 0 0 0 0 0 0 0 0 0 0 0 0 127 0"/>
<feOffset dy="2"/>
<feGaussianBlur stdDeviation="2.5"/>
<feColorMatrix type="matrix" values="0 0 0 0 0.777344 0 0 0 0 0.791477 0 0 0 0 0.829167 0 0 0 1 0"/>
<feBlend mode="normal" in2="BackgroundImageFix" result="effect1_dropShadow"/>
<feBlend mode="normal" in="SourceGraphic" in2="effect1_dropShadow" result="shape"/>
</filter>
<filter id="filter3_d" x="229" y="53" width="29" height="67" filterUnits="userSpaceOnUse" color-interpolation-filters="sRGB">
<feFlood flood-opacity="0" result="BackgroundImageFix"/>
<feColorMatrix in="SourceAlpha" type="matrix" values="0 0 0 0 0 0 0 0 0 0 0 0 0 0 0 0 0 0 127 0"/>
<feOffset dy="2"/>
<feGaussianBlur stdDeviation="2.5"/>
<feColorMatrix type="matrix" values="0 0 0 0 0.777344 0 0 0 0 0.791477 0 0 0 0 0.829167 0 0 0 1 0"/>
<feBlend mode="normal" in2="BackgroundImageFix" result="effect1_dropShadow"/>
<feBlend mode="normal" in="SourceGraphic" in2="effect1_dropShadow" result="shape"/>
</filter>
<filter id="filter4_d" x="245.347" y="219.049" width="99.4516" height="99.6263" filterUnits="userSpaceOnUse" color-interpolation-filters="sRGB">
<feFlood flood-opacity="0" result="BackgroundImageFix"/>
<feColorMatrix in="SourceAlpha" type="matrix" values="0 0 0 0 0 0 0 0 0 0 0 0 0 0 0 0 0 0 127 0"/>
<feOffset dy="2"/>
<feGaussianBlur stdDeviation="2.5"/>
<feColorMatrix type="matrix" values="0 0 0 0 0.0558333 0 0 0 0 0.8375 0 0 0 0 0.665533 0 0 0 0.4 0"/>
<feBlend mode="normal" in2="BackgroundImageFix" result="effect1_dropShadow"/>
<feBlend mode="normal" in="SourceGraphic" in2="effect1_dropShadow" result="shape"/>
</filter>
</defs>
</svg>
