<svg width="354" height="311" viewBox="0 0 354 311" fill="none" xmlns="http://www.w3.org/2000/svg">
<rect x="15" y="58" width="269" height="75" rx="4" fill="url(#paint0_linear)"/>
<path d="M15 113.28L44.1803 58H75L38.6066 133H19C16.7909 133 15 131.209 15 129V113.28Z" fill="url(#paint1_linear)"/>
<path d="M74 133.198L111.599 58H142.332L106.041 133.198H82.5006H74Z" fill="url(#paint2_linear)"/>
<path d="M142 133.198L179.599 58H210.332L174.041 133.198H150.501H142Z" fill="url(#paint3_linear)"/>
<path d="M211 133L248.416 58H279L242.885 133H219.459H211Z" fill="url(#paint4_linear)"/>
<path d="M45 133H61.3473V234.666C61.3473 235.771 60.4519 236.666 59.3473 236.666H47C45.8954 236.666 45 235.771 45 234.666V133Z" fill="url(#paint5_linear)"/>
<path d="M238 133H254.347V234.969C254.347 236.073 253.452 236.969 252.347 236.969H240C238.895 236.969 238 236.073 238 234.969V133Z" fill="url(#paint6_linear)"/>
<path d="M81.9492 217.898C97.3475 216.451 154.5 214 167.5 217.898C184.945 223.127 146.067 225.75 131.508 228.195C101.886 233.17 116.258 244.002 222.747 232.836" stroke="#CCD6F1" stroke-linecap="round" stroke-linejoin="round"/>
<path d="M45.0664 15.2148L46.3086 4.9375H49.332L46.9648 22H43.9883L42.3711 11.9219L40.8125 22H37.8359L35.4922 4.9375H38.5039L39.7227 15.1445L41.1758 4.9375H43.5312L45.0664 15.2148ZM50.8086 15.543C50.8086 14.6211 50.9414 13.7695 51.207 12.9883C51.4727 12.1992 51.8594 11.5156 52.3672 10.9375C52.8828 10.3594 53.5078 9.90625 54.2422 9.57812C54.9844 9.25 55.832 9.08594 56.7852 9.08594C57.7383 9.08594 58.5859 9.25 59.3281 9.57812C60.0703 9.90625 60.6953 10.3594 61.2031 10.9375C61.7188 11.5156 62.1094 12.1992 62.375 12.9883C62.6406 13.7695 62.7734 14.6211 62.7734 15.543V15.7891C62.7734 16.7188 62.6406 17.5781 62.375 18.3672C62.1094 19.1484 61.7227 19.8281 61.2148 20.4062C60.707 20.9844 60.082 21.4375 59.3398 21.7656C58.5977 22.0859 57.7539 22.2461 56.8086 22.2461C55.8555 22.2461 55.0039 22.0859 54.2539 21.7656C53.5117 21.4375 52.8828 20.9844 52.3672 20.4062C51.8594 19.8281 51.4727 19.1484 51.207 18.3672C50.9414 17.5781 50.8086 16.7188 50.8086 15.7891V15.543ZM54.0664 15.7891C54.0664 16.3203 54.1172 16.8203 54.2188 17.2891C54.3203 17.75 54.4805 18.1562 54.6992 18.5078C54.918 18.8516 55.1992 19.125 55.543 19.3281C55.8945 19.5312 56.3164 19.6328 56.8086 19.6328C57.2852 19.6328 57.6953 19.5312 58.0391 19.3281C58.3828 19.125 58.6602 18.8516 58.8711 18.5078C59.0898 18.1562 59.25 17.75 59.3516 17.2891C59.4531 16.8203 59.5039 16.3203 59.5039 15.7891V15.543C59.5039 15.0273 59.4531 14.5391 59.3516 14.0781C59.25 13.6172 59.0898 13.2109 58.8711 12.8594C58.6602 12.5078 58.3828 12.2305 58.0391 12.0273C57.6953 11.8242 57.2773 11.7227 56.7852 11.7227C56.3008 11.7227 55.8867 11.8242 55.543 12.0273C55.1992 12.2305 54.918 12.5078 54.6992 12.8594C54.4805 13.2109 54.3203 13.6172 54.2188 14.0781C54.1172 14.5391 54.0664 15.0273 54.0664 15.543V15.7891ZM74.7734 9.08594C75.2656 9.08594 75.7188 9.12109 76.1328 9.19141C76.5547 9.25391 76.8945 9.32422 77.1523 9.40234L76.6719 12.6484C76.2422 12.5469 75.8008 12.4727 75.3477 12.4258C74.9023 12.3711 74.4766 12.3438 74.0703 12.3438C73.1562 12.3438 72.4219 12.5195 71.8672 12.8711C71.3203 13.2227 70.9102 13.7266 70.6367 14.3828V22H67.3789V9.32031H70.4141L70.5664 11.3945C71.082 10.6758 71.6992 10.1133 72.418 9.70703C73.1367 9.29297 73.9219 9.08594 74.7734 9.08594ZM84.8516 16.7617L83.375 18.1328V22H80.1172V4H83.375V14.2891L84.3594 13.1641L87.8633 9.32031H91.7773L86.9961 14.6055L92.4453 22H88.4492L84.8516 16.7617ZM109.777 9.32031H116.68V19.3516H120.113V22H109.777V19.3516H113.387V11.9805H109.777V9.32031ZM113.152 6.07422C113.152 5.82422 113.195 5.59375 113.281 5.38281C113.375 5.16406 113.504 4.98047 113.668 4.83203C113.832 4.67578 114.027 4.55469 114.254 4.46875C114.488 4.38281 114.746 4.33984 115.027 4.33984C115.605 4.33984 116.062 4.50391 116.398 4.83203C116.742 5.15234 116.914 5.56641 116.914 6.07422C116.914 6.58203 116.742 7 116.398 7.32812C116.062 7.64844 115.605 7.80859 115.027 7.80859C114.746 7.80859 114.488 7.76562 114.254 7.67969C114.027 7.59375 113.832 7.47656 113.668 7.32812C113.504 7.17188 113.375 6.98828 113.281 6.77734C113.195 6.55859 113.152 6.32422 113.152 6.07422ZM126.277 9.32031L126.477 11.0781C126.93 10.4453 127.48 9.95703 128.129 9.61328C128.777 9.26172 129.496 9.08594 130.285 9.08594C130.926 9.08594 131.512 9.17969 132.043 9.36719C132.574 9.55469 133.031 9.85547 133.414 10.2695C133.805 10.6758 134.105 11.2031 134.316 11.8516C134.535 12.4922 134.645 13.2734 134.645 14.1953V22H131.387V14.2422C131.387 13.7422 131.328 13.332 131.211 13.0117C131.102 12.6836 130.941 12.4258 130.73 12.2383C130.52 12.0508 130.266 11.9219 129.969 11.8516C129.672 11.7734 129.336 11.7344 128.961 11.7344C128.406 11.7344 127.934 11.8477 127.543 12.0742C127.152 12.293 126.836 12.5977 126.594 12.9883V22H123.324V9.32031H126.277ZM163.543 15.7773C163.543 16.6992 163.434 17.5547 163.215 18.3438C163.004 19.1328 162.688 19.8164 162.266 20.3945C161.852 20.9648 161.336 21.4141 160.719 21.7422C160.102 22.0703 159.395 22.2344 158.598 22.2344C157.918 22.2344 157.32 22.1172 156.805 21.8828C156.289 21.6484 155.84 21.3203 155.457 20.8984V26.875H152.199V9.32031H155.211L155.328 10.5625C155.719 10.0938 156.18 9.73047 156.711 9.47266C157.242 9.21484 157.863 9.08594 158.574 9.08594C159.379 9.08594 160.09 9.24219 160.707 9.55469C161.324 9.85938 161.844 10.2969 162.266 10.8672C162.688 11.4297 163.004 12.1094 163.215 12.9062C163.434 13.6953 163.543 14.5703 163.543 15.5312V15.7773ZM160.285 15.5312C160.285 15 160.234 14.5039 160.133 14.043C160.039 13.5742 159.887 13.1719 159.676 12.8359C159.473 12.4922 159.207 12.2227 158.879 12.0273C158.559 11.832 158.168 11.7344 157.707 11.7344C157.137 11.7344 156.668 11.8477 156.301 12.0742C155.941 12.293 155.66 12.6055 155.457 13.0117V18.3086C155.66 18.707 155.941 19.0273 156.301 19.2695C156.668 19.5039 157.145 19.6211 157.73 19.6211C158.191 19.6211 158.582 19.5195 158.902 19.3164C159.23 19.1133 159.496 18.8359 159.699 18.4844C159.902 18.1328 160.051 17.7266 160.145 17.2656C160.238 16.7969 160.285 16.3008 160.285 15.7773V15.5312ZM175.672 9.08594C176.164 9.08594 176.617 9.12109 177.031 9.19141C177.453 9.25391 177.793 9.32422 178.051 9.40234L177.57 12.6484C177.141 12.5469 176.699 12.4727 176.246 12.4258C175.801 12.3711 175.375 12.3438 174.969 12.3438C174.055 12.3438 173.32 12.5195 172.766 12.8711C172.219 13.2227 171.809 13.7266 171.535 14.3828V22H168.277V9.32031H171.312L171.465 11.3945C171.98 10.6758 172.598 10.1133 173.316 9.70703C174.035 9.29297 174.82 9.08594 175.672 9.08594ZM180.535 15.543C180.535 14.6211 180.668 13.7695 180.934 12.9883C181.199 12.1992 181.586 11.5156 182.094 10.9375C182.609 10.3594 183.234 9.90625 183.969 9.57812C184.711 9.25 185.559 9.08594 186.512 9.08594C187.465 9.08594 188.312 9.25 189.055 9.57812C189.797 9.90625 190.422 10.3594 190.93 10.9375C191.445 11.5156 191.836 12.1992 192.102 12.9883C192.367 13.7695 192.5 14.6211 192.5 15.543V15.7891C192.5 16.7188 192.367 17.5781 192.102 18.3672C191.836 19.1484 191.449 19.8281 190.941 20.4062C190.434 20.9844 189.809 21.4375 189.066 21.7656C188.324 22.0859 187.48 22.2461 186.535 22.2461C185.582 22.2461 184.73 22.0859 183.98 21.7656C183.238 21.4375 182.609 20.9844 182.094 20.4062C181.586 19.8281 181.199 19.1484 180.934 18.3672C180.668 17.5781 180.535 16.7188 180.535 15.7891V15.543ZM183.793 15.7891C183.793 16.3203 183.844 16.8203 183.945 17.2891C184.047 17.75 184.207 18.1562 184.426 18.5078C184.645 18.8516 184.926 19.125 185.27 19.3281C185.621 19.5312 186.043 19.6328 186.535 19.6328C187.012 19.6328 187.422 19.5312 187.766 19.3281C188.109 19.125 188.387 18.8516 188.598 18.5078C188.816 18.1562 188.977 17.75 189.078 17.2891C189.18 16.8203 189.23 16.3203 189.23 15.7891V15.543C189.23 15.0273 189.18 14.5391 189.078 14.0781C188.977 13.6172 188.816 13.2109 188.598 12.8594C188.387 12.5078 188.109 12.2305 187.766 12.0273C187.422 11.8242 187.004 11.7227 186.512 11.7227C186.027 11.7227 185.613 11.8242 185.27 12.0273C184.926 12.2305 184.645 12.5078 184.426 12.8594C184.207 13.2109 184.047 13.6172 183.945 14.0781C183.844 14.5391 183.793 15.0273 183.793 15.543V15.7891ZM195.066 15.5664C195.066 14.6055 195.184 13.7266 195.418 12.9297C195.66 12.1328 196.004 11.4492 196.449 10.8789C196.895 10.3086 197.434 9.86719 198.066 9.55469C198.699 9.24219 199.414 9.08594 200.211 9.08594C200.953 9.08594 201.59 9.21094 202.121 9.46094C202.652 9.71094 203.105 10.0664 203.48 10.5273L203.609 9.32031H206.574V21.5898C206.574 22.4492 206.426 23.2148 206.129 23.8867C205.84 24.5586 205.43 25.125 204.898 25.5859C204.375 26.0469 203.742 26.3945 203 26.6289C202.266 26.8711 201.453 26.9922 200.562 26.9922C200.18 26.9922 199.77 26.9531 199.332 26.875C198.895 26.7969 198.461 26.6758 198.031 26.5117C197.602 26.3477 197.195 26.1367 196.812 25.8789C196.43 25.6289 196.102 25.3281 195.828 24.9766L197.293 22.9961C197.707 23.4648 198.176 23.8203 198.699 24.0625C199.223 24.3125 199.789 24.4375 200.398 24.4375C201.312 24.4375 202.023 24.1914 202.531 23.6992C203.047 23.2148 203.305 22.5234 203.305 21.625V20.8984C202.922 21.3203 202.473 21.6484 201.957 21.8828C201.449 22.1172 200.859 22.2344 200.188 22.2344C199.398 22.2344 198.688 22.0742 198.055 21.7539C197.43 21.4258 196.895 20.9766 196.449 20.4062C196.004 19.8359 195.66 19.1602 195.418 18.3789C195.184 17.5898 195.066 16.7344 195.066 15.8125V15.5664ZM198.336 15.8125C198.336 16.3438 198.387 16.8398 198.488 17.3008C198.598 17.7539 198.762 18.1523 198.98 18.4961C199.199 18.832 199.477 19.0977 199.812 19.293C200.148 19.4883 200.547 19.5859 201.008 19.5859C201.578 19.5859 202.047 19.4766 202.414 19.2578C202.789 19.0391 203.086 18.7344 203.305 18.3438V12.9766C203.086 12.5781 202.789 12.2734 202.414 12.0625C202.047 11.8438 201.586 11.7344 201.031 11.7344C200.57 11.7344 200.172 11.8359 199.836 12.0391C199.5 12.2344 199.219 12.5078 198.992 12.8594C198.773 13.2031 198.609 13.6094 198.5 14.0781C198.391 14.5391 198.336 15.0352 198.336 15.5664V15.8125ZM218.914 9.08594C219.406 9.08594 219.859 9.12109 220.273 9.19141C220.695 9.25391 221.035 9.32422 221.293 9.40234L220.812 12.6484C220.383 12.5469 219.941 12.4727 219.488 12.4258C219.043 12.3711 218.617 12.3438 218.211 12.3438C217.297 12.3438 216.562 12.5195 216.008 12.8711C215.461 13.2227 215.051 13.7266 214.777 14.3828V22H211.52V9.32031H214.555L214.707 11.3945C215.223 10.6758 215.84 10.1133 216.559 9.70703C217.277 9.29297 218.062 9.08594 218.914 9.08594ZM230.375 22.2344C229.398 22.2344 228.512 22.0742 227.715 21.7539C226.918 21.4336 226.234 21 225.664 20.4531C225.094 19.8984 224.652 19.25 224.34 18.5078C224.035 17.7578 223.883 16.957 223.883 16.1055V15.6367C223.883 14.668 224.035 13.7852 224.34 12.9883C224.645 12.1836 225.07 11.4922 225.617 10.9141C226.164 10.3359 226.812 9.88672 227.562 9.56641C228.312 9.24609 229.129 9.08594 230.012 9.08594C230.926 9.08594 231.738 9.23828 232.449 9.54297C233.168 9.83984 233.773 10.2617 234.266 10.8086C234.766 11.3555 235.145 12.0156 235.402 12.7891C235.66 13.5547 235.789 14.4023 235.789 15.332V16.7148H227.188C227.25 17.1445 227.375 17.5391 227.562 17.8984C227.758 18.25 228.004 18.5547 228.301 18.8125C228.598 19.0703 228.938 19.2695 229.32 19.4102C229.703 19.5508 230.121 19.6211 230.574 19.6211C230.895 19.6211 231.211 19.5898 231.523 19.5273C231.844 19.4648 232.148 19.375 232.438 19.2578C232.727 19.1328 232.996 18.9805 233.246 18.8008C233.496 18.6211 233.715 18.4102 233.902 18.168L235.531 19.9258C235.328 20.2148 235.062 20.5 234.734 20.7812C234.414 21.0547 234.031 21.3008 233.586 21.5195C233.148 21.7305 232.66 21.9023 232.121 22.0352C231.582 22.168 231 22.2344 230.375 22.2344ZM229.988 11.7227C229.621 11.7227 229.285 11.7891 228.98 11.9219C228.676 12.0469 228.406 12.2305 228.172 12.4727C227.945 12.7148 227.754 13.0039 227.598 13.3398C227.441 13.6758 227.324 14.0508 227.246 14.4648H232.59V14.207C232.574 13.8633 232.508 13.5391 232.391 13.2344C232.273 12.9297 232.105 12.668 231.887 12.4492C231.668 12.2227 231.398 12.0469 231.078 11.9219C230.766 11.7891 230.402 11.7227 229.988 11.7227ZM246.816 18.5195C246.816 18.3242 246.77 18.1523 246.676 18.0039C246.59 17.8555 246.43 17.7188 246.195 17.5938C245.969 17.4609 245.664 17.3398 245.281 17.2305C244.898 17.1211 244.414 17.0117 243.828 16.9023C243.086 16.7539 242.406 16.5703 241.789 16.3516C241.18 16.125 240.656 15.8555 240.219 15.543C239.781 15.2227 239.438 14.8555 239.188 14.4414C238.945 14.0273 238.824 13.5508 238.824 13.0117C238.824 12.4883 238.949 11.9883 239.199 11.5117C239.449 11.0352 239.809 10.6172 240.277 10.2578C240.746 9.89844 241.316 9.61328 241.988 9.40234C242.66 9.19141 243.418 9.08594 244.262 9.08594C245.145 9.08594 245.938 9.19141 246.641 9.40234C247.344 9.60547 247.938 9.89062 248.422 10.2578C248.914 10.6172 249.289 11.0469 249.547 11.5469C249.805 12.0469 249.934 12.5898 249.934 13.1758H246.676C246.676 12.6836 246.477 12.2734 246.078 11.9453C245.68 11.6094 245.074 11.4414 244.262 11.4414C243.504 11.4414 242.93 11.5781 242.539 11.8516C242.156 12.125 241.965 12.4609 241.965 12.8594C241.965 13.0469 242.004 13.2227 242.082 13.3867C242.16 13.543 242.297 13.6875 242.492 13.8203C242.695 13.9453 242.969 14.0625 243.312 14.1719C243.656 14.2734 244.094 14.3633 244.625 14.4414C245.391 14.5664 246.102 14.7266 246.758 14.9219C247.414 15.1172 247.98 15.3711 248.457 15.6836C248.934 15.9883 249.305 16.3633 249.57 16.8086C249.844 17.2461 249.98 17.7695 249.98 18.3789C249.98 18.9414 249.844 19.4609 249.57 19.9375C249.305 20.4062 248.922 20.8125 248.422 21.1562C247.93 21.5 247.332 21.7695 246.629 21.9648C245.926 22.1523 245.141 22.2461 244.273 22.2461C243.32 22.2461 242.477 22.1211 241.742 21.8711C241.016 21.6211 240.406 21.2969 239.914 20.8984C239.422 20.4922 239.047 20.0352 238.789 19.5273C238.539 19.0117 238.414 18.4961 238.414 17.9805H241.52C241.543 18.3242 241.637 18.6211 241.801 18.8711C241.965 19.1133 242.176 19.3125 242.434 19.4688C242.691 19.6172 242.984 19.7266 243.312 19.7969C243.648 19.8672 243.992 19.9023 244.344 19.9023C245.148 19.9023 245.762 19.7734 246.184 19.5156C246.605 19.2578 246.816 18.9258 246.816 18.5195ZM261.23 18.5195C261.23 18.3242 261.184 18.1523 261.09 18.0039C261.004 17.8555 260.844 17.7188 260.609 17.5938C260.383 17.4609 260.078 17.3398 259.695 17.2305C259.312 17.1211 258.828 17.0117 258.242 16.9023C257.5 16.7539 256.82 16.5703 256.203 16.3516C255.594 16.125 255.07 15.8555 254.633 15.543C254.195 15.2227 253.852 14.8555 253.602 14.4414C253.359 14.0273 253.238 13.5508 253.238 13.0117C253.238 12.4883 253.363 11.9883 253.613 11.5117C253.863 11.0352 254.223 10.6172 254.691 10.2578C255.16 9.89844 255.73 9.61328 256.402 9.40234C257.074 9.19141 257.832 9.08594 258.676 9.08594C259.559 9.08594 260.352 9.19141 261.055 9.40234C261.758 9.60547 262.352 9.89062 262.836 10.2578C263.328 10.6172 263.703 11.0469 263.961 11.5469C264.219 12.0469 264.348 12.5898 264.348 13.1758H261.09C261.09 12.6836 260.891 12.2734 260.492 11.9453C260.094 11.6094 259.488 11.4414 258.676 11.4414C257.918 11.4414 257.344 11.5781 256.953 11.8516C256.57 12.125 256.379 12.4609 256.379 12.8594C256.379 13.0469 256.418 13.2227 256.496 13.3867C256.574 13.543 256.711 13.6875 256.906 13.8203C257.109 13.9453 257.383 14.0625 257.727 14.1719C258.07 14.2734 258.508 14.3633 259.039 14.4414C259.805 14.5664 260.516 14.7266 261.172 14.9219C261.828 15.1172 262.395 15.3711 262.871 15.6836C263.348 15.9883 263.719 16.3633 263.984 16.8086C264.258 17.2461 264.395 17.7695 264.395 18.3789C264.395 18.9414 264.258 19.4609 263.984 19.9375C263.719 20.4062 263.336 20.8125 262.836 21.1562C262.344 21.5 261.746 21.7695 261.043 21.9648C260.34 22.1523 259.555 22.2461 258.688 22.2461C257.734 22.2461 256.891 22.1211 256.156 21.8711C255.43 21.6211 254.82 21.2969 254.328 20.8984C253.836 20.4922 253.461 20.0352 253.203 19.5273C252.953 19.0117 252.828 18.4961 252.828 17.9805H255.934C255.957 18.3242 256.051 18.6211 256.215 18.8711C256.379 19.1133 256.59 19.3125 256.848 19.4688C257.105 19.6172 257.398 19.7266 257.727 19.7969C258.062 19.8672 258.406 19.9023 258.758 19.9023C259.562 19.9023 260.176 19.7734 260.598 19.5156C261.02 19.2578 261.23 18.9258 261.23 18.5195Z" fill="#2C4584"/>
<path d="M76.0703 286.547C76.0247 287.263 75.8685 287.908 75.6016 288.48C75.3411 289.053 74.9896 289.542 74.5469 289.945C74.1042 290.349 73.5768 290.661 72.9648 290.883C72.3529 291.098 71.6758 291.205 70.9336 291.205C70.0938 291.205 69.3483 291.052 68.6973 290.746C68.0462 290.434 67.4993 290.001 67.0566 289.447C66.6139 288.887 66.2754 288.217 66.041 287.436C65.8066 286.654 65.6895 285.795 65.6895 284.857V282.943C65.6895 281.999 65.8132 281.137 66.0605 280.355C66.3079 279.574 66.6595 278.904 67.1152 278.344C67.571 277.784 68.1211 277.351 68.7656 277.045C69.4167 276.732 70.1458 276.576 70.9531 276.576C71.7344 276.576 72.4277 276.687 73.0332 276.908C73.6452 277.13 74.166 277.445 74.5957 277.855C75.0254 278.266 75.3639 278.767 75.6113 279.359C75.8587 279.952 76.015 280.619 76.0801 281.361H73.3457C73.3197 280.938 73.2546 280.567 73.1504 280.248C73.0527 279.929 72.9062 279.665 72.7109 279.457C72.5221 279.242 72.2812 279.083 71.9883 278.979C71.7018 278.868 71.3568 278.812 70.9531 278.812C70.5299 278.812 70.1621 278.904 69.8496 279.086C69.5371 279.268 69.2767 279.535 69.0684 279.887C68.8665 280.238 68.7168 280.671 68.6191 281.186C68.5215 281.693 68.4727 282.273 68.4727 282.924V284.857C68.4727 286.257 68.668 287.292 69.0586 287.963C69.4557 288.633 70.0807 288.969 70.9336 288.969C71.6497 288.969 72.2161 288.78 72.6328 288.402C73.0495 288.018 73.2806 287.4 73.3262 286.547H76.0703ZM77.9355 285.619C77.9355 284.851 78.0462 284.141 78.2676 283.49C78.4889 282.833 78.8112 282.263 79.2344 281.781C79.6641 281.299 80.1849 280.922 80.7969 280.648C81.4154 280.375 82.1217 280.238 82.916 280.238C83.7103 280.238 84.4167 280.375 85.0352 280.648C85.6536 280.922 86.1745 281.299 86.5977 281.781C87.0273 282.263 87.3529 282.833 87.5742 283.49C87.7956 284.141 87.9062 284.851 87.9062 285.619V285.824C87.9062 286.599 87.7956 287.315 87.5742 287.973C87.3529 288.624 87.0306 289.19 86.6074 289.672C86.1842 290.154 85.6634 290.531 85.0449 290.805C84.4264 291.072 83.7233 291.205 82.9355 291.205C82.1413 291.205 81.4316 291.072 80.8066 290.805C80.1882 290.531 79.6641 290.154 79.2344 289.672C78.8112 289.19 78.4889 288.624 78.2676 287.973C78.0462 287.315 77.9355 286.599 77.9355 285.824V285.619ZM80.6504 285.824C80.6504 286.267 80.6927 286.684 80.7773 287.074C80.862 287.458 80.9954 287.797 81.1777 288.09C81.36 288.376 81.5944 288.604 81.8809 288.773C82.1738 288.943 82.5254 289.027 82.9355 289.027C83.3327 289.027 83.6745 288.943 83.9609 288.773C84.2474 288.604 84.4785 288.376 84.6543 288.09C84.8366 287.797 84.9701 287.458 85.0547 287.074C85.1393 286.684 85.1816 286.267 85.1816 285.824V285.619C85.1816 285.189 85.1393 284.783 85.0547 284.398C84.9701 284.014 84.8366 283.676 84.6543 283.383C84.4785 283.09 84.2474 282.859 83.9609 282.689C83.6745 282.52 83.3262 282.436 82.916 282.436C82.5124 282.436 82.1673 282.52 81.8809 282.689C81.5944 282.859 81.36 283.09 81.1777 283.383C80.9954 283.676 80.862 284.014 80.7773 284.398C80.6927 284.783 80.6504 285.189 80.6504 285.619V285.824ZM92.0078 280.434L92.0859 281.713C92.2878 281.257 92.5645 280.899 92.916 280.639C93.2741 280.372 93.707 280.238 94.2148 280.238C95.0677 280.238 95.6243 280.613 95.8848 281.361C96.0931 281.01 96.3568 280.736 96.6758 280.541C97.0013 280.339 97.3919 280.238 97.8477 280.238C98.1667 280.238 98.4629 280.297 98.7363 280.414C99.0163 280.531 99.2572 280.72 99.459 280.98C99.6673 281.234 99.8268 281.566 99.9375 281.977C100.055 282.38 100.113 282.875 100.113 283.461V291H97.6426V283.451C97.6426 283.249 97.6198 283.083 97.5742 282.953C97.5352 282.823 97.4798 282.722 97.4082 282.65C97.3366 282.572 97.252 282.52 97.1543 282.494C97.0632 282.462 96.9688 282.445 96.8711 282.445C96.6823 282.445 96.5228 282.491 96.3926 282.582C96.2624 282.667 96.1615 282.784 96.0898 282.934V291H93.6973V283.441C93.6973 283.24 93.6777 283.074 93.6387 282.943C93.5996 282.813 93.5443 282.712 93.4727 282.641C93.4076 282.569 93.3294 282.52 93.2383 282.494C93.1471 282.462 93.0495 282.445 92.9453 282.445C92.737 282.445 92.5677 282.504 92.4375 282.621C92.3138 282.738 92.2161 282.895 92.1445 283.09V291H89.6738V280.434H92.0078ZM103.053 280.434H108.805V288.793H111.666V291H103.053V288.793H106.061V282.65H103.053V280.434ZM105.865 277.729C105.865 277.52 105.901 277.328 105.973 277.152C106.051 276.97 106.158 276.817 106.295 276.693C106.432 276.563 106.594 276.462 106.783 276.391C106.979 276.319 107.193 276.283 107.428 276.283C107.91 276.283 108.29 276.42 108.57 276.693C108.857 276.96 109 277.305 109 277.729C109 278.152 108.857 278.5 108.57 278.773C108.29 279.04 107.91 279.174 107.428 279.174C107.193 279.174 106.979 279.138 106.783 279.066C106.594 278.995 106.432 278.897 106.295 278.773C106.158 278.643 106.051 278.49 105.973 278.314C105.901 278.132 105.865 277.937 105.865 277.729ZM116.803 280.434L116.969 281.898C117.346 281.371 117.805 280.964 118.346 280.678C118.886 280.385 119.485 280.238 120.143 280.238C120.676 280.238 121.165 280.316 121.607 280.473C122.05 280.629 122.431 280.88 122.75 281.225C123.076 281.563 123.326 282.003 123.502 282.543C123.684 283.077 123.775 283.728 123.775 284.496V291H121.061V284.535C121.061 284.118 121.012 283.777 120.914 283.51C120.823 283.236 120.689 283.021 120.514 282.865C120.338 282.709 120.126 282.602 119.879 282.543C119.632 282.478 119.352 282.445 119.039 282.445C118.577 282.445 118.183 282.54 117.857 282.729C117.532 282.911 117.268 283.165 117.066 283.49V291H114.342V280.434H116.803ZM126.08 285.639C126.08 284.838 126.178 284.105 126.373 283.441C126.575 282.777 126.861 282.208 127.232 281.732C127.604 281.257 128.053 280.889 128.58 280.629C129.107 280.368 129.703 280.238 130.367 280.238C130.986 280.238 131.516 280.342 131.959 280.551C132.402 280.759 132.779 281.055 133.092 281.439L133.199 280.434H135.67V290.658C135.67 291.374 135.546 292.012 135.299 292.572C135.058 293.132 134.716 293.604 134.273 293.988C133.837 294.372 133.31 294.662 132.691 294.857C132.079 295.059 131.402 295.16 130.66 295.16C130.341 295.16 129.999 295.128 129.635 295.062C129.27 294.997 128.909 294.896 128.551 294.76C128.193 294.623 127.854 294.447 127.535 294.232C127.216 294.024 126.943 293.773 126.715 293.48L127.936 291.83C128.281 292.221 128.671 292.517 129.107 292.719C129.544 292.927 130.016 293.031 130.523 293.031C131.285 293.031 131.878 292.826 132.301 292.416C132.73 292.012 132.945 291.436 132.945 290.688V290.082C132.626 290.434 132.252 290.707 131.822 290.902C131.399 291.098 130.908 291.195 130.348 291.195C129.69 291.195 129.098 291.062 128.57 290.795C128.049 290.521 127.604 290.147 127.232 289.672C126.861 289.197 126.575 288.633 126.373 287.982C126.178 287.325 126.08 286.612 126.08 285.844V285.639ZM128.805 285.844C128.805 286.286 128.847 286.7 128.932 287.084C129.023 287.462 129.16 287.794 129.342 288.08C129.524 288.36 129.755 288.581 130.035 288.744C130.315 288.907 130.647 288.988 131.031 288.988C131.507 288.988 131.897 288.897 132.203 288.715C132.516 288.533 132.763 288.279 132.945 287.953V283.48C132.763 283.148 132.516 282.895 132.203 282.719C131.897 282.536 131.513 282.445 131.051 282.445C130.667 282.445 130.335 282.53 130.055 282.699C129.775 282.862 129.54 283.09 129.352 283.383C129.169 283.669 129.033 284.008 128.941 284.398C128.85 284.783 128.805 285.196 128.805 285.639V285.844ZM157.193 288.1C157.193 287.937 157.154 287.794 157.076 287.67C157.005 287.546 156.871 287.432 156.676 287.328C156.487 287.217 156.233 287.117 155.914 287.025C155.595 286.934 155.191 286.843 154.703 286.752C154.085 286.628 153.518 286.475 153.004 286.293C152.496 286.104 152.06 285.88 151.695 285.619C151.331 285.352 151.044 285.046 150.836 284.701C150.634 284.356 150.533 283.959 150.533 283.51C150.533 283.074 150.637 282.657 150.846 282.26C151.054 281.863 151.354 281.514 151.744 281.215C152.135 280.915 152.61 280.678 153.17 280.502C153.73 280.326 154.361 280.238 155.064 280.238C155.8 280.238 156.461 280.326 157.047 280.502C157.633 280.671 158.128 280.909 158.531 281.215C158.941 281.514 159.254 281.872 159.469 282.289C159.684 282.706 159.791 283.158 159.791 283.646H157.076C157.076 283.236 156.91 282.895 156.578 282.621C156.246 282.341 155.742 282.201 155.064 282.201C154.433 282.201 153.954 282.315 153.629 282.543C153.31 282.771 153.15 283.051 153.15 283.383C153.15 283.539 153.183 283.686 153.248 283.822C153.313 283.952 153.427 284.073 153.59 284.184C153.759 284.288 153.987 284.385 154.273 284.477C154.56 284.561 154.924 284.636 155.367 284.701C156.005 284.805 156.598 284.939 157.145 285.102C157.691 285.264 158.163 285.476 158.561 285.736C158.958 285.99 159.267 286.303 159.488 286.674C159.716 287.038 159.83 287.475 159.83 287.982C159.83 288.451 159.716 288.884 159.488 289.281C159.267 289.672 158.948 290.01 158.531 290.297C158.121 290.583 157.623 290.808 157.037 290.971C156.451 291.127 155.797 291.205 155.074 291.205C154.28 291.205 153.577 291.101 152.965 290.893C152.359 290.684 151.852 290.414 151.441 290.082C151.031 289.743 150.719 289.363 150.504 288.939C150.296 288.51 150.191 288.08 150.191 287.65H152.779C152.799 287.937 152.877 288.184 153.014 288.393C153.15 288.594 153.326 288.76 153.541 288.891C153.756 289.014 154 289.105 154.273 289.164C154.553 289.223 154.84 289.252 155.133 289.252C155.803 289.252 156.314 289.145 156.666 288.93C157.018 288.715 157.193 288.438 157.193 288.1ZM162.018 285.619C162.018 284.851 162.128 284.141 162.35 283.49C162.571 282.833 162.893 282.263 163.316 281.781C163.746 281.299 164.267 280.922 164.879 280.648C165.497 280.375 166.204 280.238 166.998 280.238C167.792 280.238 168.499 280.375 169.117 280.648C169.736 280.922 170.257 281.299 170.68 281.781C171.109 282.263 171.435 282.833 171.656 283.49C171.878 284.141 171.988 284.851 171.988 285.619V285.824C171.988 286.599 171.878 287.315 171.656 287.973C171.435 288.624 171.113 289.19 170.689 289.672C170.266 290.154 169.745 290.531 169.127 290.805C168.508 291.072 167.805 291.205 167.018 291.205C166.223 291.205 165.514 291.072 164.889 290.805C164.27 290.531 163.746 290.154 163.316 289.672C162.893 289.19 162.571 288.624 162.35 287.973C162.128 287.315 162.018 286.599 162.018 285.824V285.619ZM164.732 285.824C164.732 286.267 164.775 286.684 164.859 287.074C164.944 287.458 165.077 287.797 165.26 288.09C165.442 288.376 165.676 288.604 165.963 288.773C166.256 288.943 166.607 289.027 167.018 289.027C167.415 289.027 167.757 288.943 168.043 288.773C168.329 288.604 168.561 288.376 168.736 288.09C168.919 287.797 169.052 287.458 169.137 287.074C169.221 286.684 169.264 286.267 169.264 285.824V285.619C169.264 285.189 169.221 284.783 169.137 284.398C169.052 284.014 168.919 283.676 168.736 283.383C168.561 283.09 168.329 282.859 168.043 282.689C167.757 282.52 167.408 282.436 166.998 282.436C166.594 282.436 166.249 282.52 165.963 282.689C165.676 282.859 165.442 283.09 165.26 283.383C165.077 283.676 164.944 284.014 164.859 284.398C164.775 284.783 164.732 285.189 164.732 285.619V285.824ZM174.029 285.619C174.029 284.851 174.14 284.141 174.361 283.49C174.583 282.833 174.905 282.263 175.328 281.781C175.758 281.299 176.279 280.922 176.891 280.648C177.509 280.375 178.215 280.238 179.01 280.238C179.804 280.238 180.51 280.375 181.129 280.648C181.747 280.922 182.268 281.299 182.691 281.781C183.121 282.263 183.447 282.833 183.668 283.49C183.889 284.141 184 284.851 184 285.619V285.824C184 286.599 183.889 287.315 183.668 287.973C183.447 288.624 183.124 289.19 182.701 289.672C182.278 290.154 181.757 290.531 181.139 290.805C180.52 291.072 179.817 291.205 179.029 291.205C178.235 291.205 177.525 291.072 176.9 290.805C176.282 290.531 175.758 290.154 175.328 289.672C174.905 289.19 174.583 288.624 174.361 287.973C174.14 287.315 174.029 286.599 174.029 285.824V285.619ZM176.744 285.824C176.744 286.267 176.786 286.684 176.871 287.074C176.956 287.458 177.089 287.797 177.271 288.09C177.454 288.376 177.688 288.604 177.975 288.773C178.268 288.943 178.619 289.027 179.029 289.027C179.426 289.027 179.768 288.943 180.055 288.773C180.341 288.604 180.572 288.376 180.748 288.09C180.93 287.797 181.064 287.458 181.148 287.074C181.233 286.684 181.275 286.267 181.275 285.824V285.619C181.275 285.189 181.233 284.783 181.148 284.398C181.064 284.014 180.93 283.676 180.748 283.383C180.572 283.09 180.341 282.859 180.055 282.689C179.768 282.52 179.42 282.436 179.01 282.436C178.606 282.436 178.261 282.52 177.975 282.689C177.688 282.859 177.454 283.09 177.271 283.383C177.089 283.676 176.956 284.014 176.871 284.398C176.786 284.783 176.744 285.189 176.744 285.619V285.824ZM188.873 280.434L189.039 281.898C189.417 281.371 189.876 280.964 190.416 280.678C190.956 280.385 191.555 280.238 192.213 280.238C192.747 280.238 193.235 280.316 193.678 280.473C194.12 280.629 194.501 280.88 194.82 281.225C195.146 281.563 195.396 282.003 195.572 282.543C195.755 283.077 195.846 283.728 195.846 284.496V291H193.131V284.535C193.131 284.118 193.082 283.777 192.984 283.51C192.893 283.236 192.76 283.021 192.584 282.865C192.408 282.709 192.197 282.602 191.949 282.543C191.702 282.478 191.422 282.445 191.109 282.445C190.647 282.445 190.253 282.54 189.928 282.729C189.602 282.911 189.339 283.165 189.137 283.49V291H186.412V280.434H188.873ZM201.168 289.428C201.168 289.174 201.21 288.939 201.295 288.725C201.38 288.503 201.503 288.314 201.666 288.158C201.829 287.995 202.027 287.868 202.262 287.777C202.496 287.68 202.76 287.631 203.053 287.631C203.346 287.631 203.609 287.68 203.844 287.777C204.078 287.868 204.273 287.995 204.43 288.158C204.592 288.314 204.716 288.503 204.801 288.725C204.892 288.939 204.938 289.174 204.938 289.428C204.938 289.675 204.892 289.906 204.801 290.121C204.716 290.336 204.592 290.525 204.43 290.688C204.273 290.844 204.078 290.967 203.844 291.059C203.609 291.15 203.346 291.195 203.053 291.195C202.76 291.195 202.496 291.15 202.262 291.059C202.027 290.967 201.829 290.844 201.666 290.688C201.503 290.525 201.38 290.336 201.295 290.121C201.21 289.906 201.168 289.675 201.168 289.428ZM213.18 289.428C213.18 289.174 213.222 288.939 213.307 288.725C213.391 288.503 213.515 288.314 213.678 288.158C213.84 287.995 214.039 287.868 214.273 287.777C214.508 287.68 214.771 287.631 215.064 287.631C215.357 287.631 215.621 287.68 215.855 287.777C216.09 287.868 216.285 287.995 216.441 288.158C216.604 288.314 216.728 288.503 216.812 288.725C216.904 288.939 216.949 289.174 216.949 289.428C216.949 289.675 216.904 289.906 216.812 290.121C216.728 290.336 216.604 290.525 216.441 290.688C216.285 290.844 216.09 290.967 215.855 291.059C215.621 291.15 215.357 291.195 215.064 291.195C214.771 291.195 214.508 291.15 214.273 291.059C214.039 290.967 213.84 290.844 213.678 290.688C213.515 290.525 213.391 290.336 213.307 290.121C213.222 289.906 213.18 289.675 213.18 289.428ZM225.191 289.428C225.191 289.174 225.234 288.939 225.318 288.725C225.403 288.503 225.527 288.314 225.689 288.158C225.852 287.995 226.051 287.868 226.285 287.777C226.52 287.68 226.783 287.631 227.076 287.631C227.369 287.631 227.633 287.68 227.867 287.777C228.102 287.868 228.297 287.995 228.453 288.158C228.616 288.314 228.74 288.503 228.824 288.725C228.915 288.939 228.961 289.174 228.961 289.428C228.961 289.675 228.915 289.906 228.824 290.121C228.74 290.336 228.616 290.525 228.453 290.688C228.297 290.844 228.102 290.967 227.867 291.059C227.633 291.15 227.369 291.195 227.076 291.195C226.783 291.195 226.52 291.15 226.285 291.059C226.051 290.967 225.852 290.844 225.689 290.688C225.527 290.525 225.403 290.336 225.318 290.121C225.234 289.906 225.191 289.675 225.191 289.428Z" fill="#2C4584"/>
<path d="M22 45L20 51" stroke="#D4DFFA" stroke-width="3" stroke-linecap="round" stroke-linejoin="round"/>
<path d="M8 61L2 62" stroke="#D4DFFA" stroke-width="3" stroke-linecap="round" stroke-linejoin="round"/>
<path d="M5 47L12 54" stroke="#D4DFFA" stroke-width="3" stroke-linecap="round" stroke-linejoin="round"/>
<path d="M343.084 251.537H294.72L302.16 231.967L305.157 224.094L305.984 221.957L307.328 218.471L307.638 217.796L310.635 209.923L311.151 208.461L316.422 194.514C317.352 192.04 320.659 192.04 321.589 194.514L326.859 208.461L327.376 209.923L330.373 217.796L330.683 218.471L332.027 221.957L332.853 224.094L335.85 231.967L343.084 251.537Z" fill="url(#paint7_linear)"/>
<path d="M332.57 223.5H305.234L308.837 215.088H329.091L332.57 223.5Z" fill="url(#paint8_linear)"/>
<path d="M339.58 242.425H298.225L301.379 234.014H336.426L339.58 242.425Z" fill="url(#paint9_linear)"/>
<rect x="285" y="251.423" width="69" height="8.84615" rx="4.42308" fill="url(#paint10_linear)"/>
<path d="M318.615 178L318.615 187.731" stroke="#D6E1FA" stroke-width="2.65385" stroke-linecap="round" stroke-linejoin="round"/>
<path d="M331.885 183.308L328.346 187.731" stroke="#D6E1FA" stroke-width="2.65385" stroke-linecap="round" stroke-linejoin="round"/>
<path d="M305.346 183.308L308.885 187.731" stroke="#D6E1FA" stroke-width="2.65385" stroke-linecap="round" stroke-linejoin="round"/>
<defs>
<linearGradient id="paint0_linear" x1="-23.8483" y1="110.212" x2="290.704" y2="50.2862" gradientUnits="userSpaceOnUse">
<stop stop-color="white"/>
<stop offset="1" stop-color="#8BA8F1" stop-opacity="0.1"/>
</linearGradient>
<linearGradient id="paint1_linear" x1="5.73529" y1="188" x2="74.8554" y2="66.6984" gradientUnits="userSpaceOnUse">
<stop stop-color="white"/>
<stop offset="1" stop-color="#8BA8F1" stop-opacity="0.1"/>
</linearGradient>
<linearGradient id="paint2_linear" x1="63.4488" y1="188.342" x2="128.021" y2="59.625" gradientUnits="userSpaceOnUse">
<stop stop-color="white"/>
<stop offset="1" stop-color="#8BA8F1" stop-opacity="0.1"/>
</linearGradient>
<linearGradient id="paint3_linear" x1="131.449" y1="188.342" x2="196.021" y2="59.625" gradientUnits="userSpaceOnUse">
<stop stop-color="white"/>
<stop offset="1" stop-color="#8BA8F1" stop-opacity="0.1"/>
</linearGradient>
<linearGradient id="paint4_linear" x1="200.5" y1="188" x2="264.989" y2="59.7362" gradientUnits="userSpaceOnUse">
<stop stop-color="white"/>
<stop offset="1" stop-color="#8BA8F1" stop-opacity="0.1"/>
</linearGradient>
<linearGradient id="paint5_linear" x1="42.4758" y1="312.688" x2="111.096" y2="288.951" gradientUnits="userSpaceOnUse">
<stop stop-color="white"/>
<stop offset="1" stop-color="#8BA8F1" stop-opacity="0.1"/>
</linearGradient>
<linearGradient id="paint6_linear" x1="235.476" y1="313.212" x2="304.139" y2="289.529" gradientUnits="userSpaceOnUse">
<stop stop-color="white"/>
<stop offset="1" stop-color="#8BA8F1" stop-opacity="0.1"/>
</linearGradient>
<linearGradient id="paint7_linear" x1="318.507" y1="168.323" x2="321.325" y2="256.341" gradientUnits="userSpaceOnUse">
<stop stop-color="white"/>
<stop offset="1" stop-color="#8BA8F1" stop-opacity="0.1"/>
</linearGradient>
<linearGradient id="paint8_linear" x1="305.369" y1="226.123" x2="307.463" y2="212.34" gradientUnits="userSpaceOnUse">
<stop stop-color="white"/>
<stop offset="1" stop-color="#8BA8F1" stop-opacity="0.1"/>
</linearGradient>
<linearGradient id="paint9_linear" x1="298.429" y1="245.048" x2="299.831" y2="231.088" gradientUnits="userSpaceOnUse">
<stop stop-color="white"/>
<stop offset="1" stop-color="#8BA8F1" stop-opacity="0.1"/>
</linearGradient>
<linearGradient id="paint10_linear" x1="357.386" y1="245.845" x2="355.492" y2="269.85" gradientUnits="userSpaceOnUse">
<stop stop-color="white"/>
<stop offset="1" stop-color="#8BA8F1" stop-opacity="0.1"/>
</linearGradient>
</defs>
</svg>
