<svg width="137" height="140" viewBox="0 0 137 140" fill="none" xmlns="http://www.w3.org/2000/svg">
<circle cx="68" cy="38" r="36.5" stroke="#2C4584" stroke-width="3"/>
<g clip-path="url(#clip0)">
<path d="M71.693 42.6787C72.6277 41.4399 73.9535 40.7667 75.441 40.7667C77.351 40.7667 79.0903 41.7406 81.2339 43.5494C81.3193 43.6212 81.3867 43.6751 81.6519 43.8816C84.209 45.8609 85.3325 47.3196 84.8741 49.6535C84.6719 50.6859 83.9574 51.7182 82.8967 52.7819C82.5327 53.1455 82.1507 53.4911 81.7552 53.8187C81.5305 54.0072 81.2969 54.1868 81.0587 54.3618C79.5756 55.3941 77.8589 55.8968 75.7017 55.9552H75.5804C74.0479 55.9552 71.0144 55.2011 69.6437 54.4426C65.4282 52.1491 63.8508 50.9641 59.9005 47.2029C56.822 44.2765 54.166 40.9327 52.0088 37.2702C50.2921 34.3573 49.6405 31.8753 50.1887 28.5763C50.6921 25.5647 53.4874 21.6464 56.476 21.0943C56.7232 21.0494 56.9748 21.027 57.2265 21.027C59.7926 21.027 61.6981 22.9974 63.9901 26.8798C65.0058 28.6033 65.2484 30.2146 64.8575 31.6823C64.5878 32.6877 64.1609 33.343 63.4418 34.1868L63.3429 34.299C62.925 34.9094 62.8351 35.062 62.8261 35.1203C62.8171 35.1652 62.889 35.3537 63.316 36.2334C63.9586 37.5351 65.244 39.2945 66.5697 40.6769C68.273 42.4453 69.8863 43.0826 71.2526 43.0826C71.32 43.1051 71.4143 43.0063 71.693 42.6787ZM57.231 23.0333C57.1007 23.0333 56.9748 23.0467 56.849 23.0692C54.8446 23.4417 52.5616 26.6374 52.1841 28.904C51.7212 31.6778 52.256 33.711 53.7526 36.2559C55.8153 39.7568 58.3545 42.9525 61.2981 45.7532C65.1271 49.3977 66.5607 50.4749 70.6234 52.6832C71.693 53.2756 74.3894 53.9444 75.5849 53.9444C77.4364 53.895 78.7667 53.5045 79.8857 52.7281C80.3351 52.4004 80.9149 51.9157 81.4721 51.3636C82.2721 50.5602 82.7934 49.8106 82.9012 49.2631C83.1529 47.9794 82.3844 46.983 80.4205 45.4614C80.1239 45.2325 80.052 45.1742 79.9351 45.0755C78.1375 43.5584 76.7309 42.7684 75.45 42.7684C74.6051 42.7684 73.8771 43.1365 73.3153 43.886L73.2344 43.9803C72.7581 44.5368 72.6412 44.658 72.3716 44.8241C72.039 45.0306 71.7604 45.0799 71.2705 45.0844C69.3695 45.0844 67.2214 44.2406 65.1226 42.0548C63.662 40.5333 62.2509 38.6078 61.5139 37.1042C60.8442 35.7307 60.7319 35.43 60.8487 34.7658C60.9296 34.299 61.0644 34.0656 61.6262 33.2397C61.7116 33.1141 61.7565 33.0557 61.815 32.9929C61.8374 32.9659 61.9048 32.8896 61.9183 32.8762C63.2081 31.3771 63.5542 30.0799 62.2644 27.8896C60.3274 24.6266 58.7814 23.0333 57.231 23.0333Z" fill="#50E6C5"/>
</g>
<path d="M5.19531 128.82H8.41406V129.898H5.19531V133.227H4.10938V129.898H0.90625V128.82H4.10938V125.477H5.19531V128.82ZM10.1641 130.117C10.1641 127.872 10.599 126.195 11.4688 125.086C12.3438 123.971 13.6354 123.414 15.3438 123.414C15.9323 123.414 16.3958 123.464 16.7344 123.562V124.68C16.3333 124.549 15.875 124.484 15.3594 124.484C14.1354 124.484 13.2005 124.867 12.5547 125.633C11.9089 126.393 11.5547 127.591 11.4922 129.227H11.5859C12.1589 128.331 13.0651 127.883 14.3047 127.883C15.3307 127.883 16.138 128.193 16.7266 128.812C17.3203 129.432 17.6172 130.273 17.6172 131.336C17.6172 132.523 17.2917 133.458 16.6406 134.141C15.9948 134.818 15.1198 135.156 14.0156 135.156C12.8333 135.156 11.8958 134.714 11.2031 133.828C10.5104 132.938 10.1641 131.701 10.1641 130.117ZM14 134.055C14.7396 134.055 15.3125 133.823 15.7188 133.359C16.1302 132.891 16.3359 132.216 16.3359 131.336C16.3359 130.581 16.1458 129.987 15.7656 129.555C15.3854 129.122 14.8177 128.906 14.0625 128.906C13.5938 128.906 13.1641 129.003 12.7734 129.195C12.3828 129.388 12.0703 129.654 11.8359 129.992C11.6068 130.331 11.4922 130.682 11.4922 131.047C11.4922 131.583 11.5964 132.083 11.8047 132.547C12.013 133.01 12.3073 133.378 12.6875 133.648C13.0729 133.919 13.5104 134.055 14 134.055ZM23.9922 135H22.7266V126.859C22.7266 126.182 22.7474 125.542 22.7891 124.938C22.6797 125.047 22.5573 125.161 22.4219 125.281C22.2865 125.401 21.6667 125.909 20.5625 126.805L19.875 125.914L22.8984 123.578H23.9922V135ZM32.3594 130.617C32.3594 129.237 32.5599 127.945 32.9609 126.742C33.3672 125.539 33.9505 124.484 34.7109 123.578H35.9766C35.2266 124.583 34.6615 125.688 34.2812 126.891C33.9062 128.094 33.7188 129.331 33.7188 130.602C33.7188 131.852 33.9115 133.073 34.2969 134.266C34.6823 135.458 35.237 136.547 35.9609 137.531H34.7109C33.9453 136.646 33.362 135.612 32.9609 134.43C32.5599 133.247 32.3594 131.977 32.3594 130.617ZM44.8047 129.273C44.8047 131.247 44.4922 132.721 43.8672 133.695C43.2474 134.669 42.2969 135.156 41.0156 135.156C39.7865 135.156 38.8516 134.659 38.2109 133.664C37.5703 132.664 37.25 131.201 37.25 129.273C37.25 127.284 37.5599 125.807 38.1797 124.844C38.7995 123.88 39.7448 123.398 41.0156 123.398C42.2552 123.398 43.1953 123.901 43.8359 124.906C44.4818 125.911 44.8047 127.367 44.8047 129.273ZM38.5625 129.273C38.5625 130.935 38.7578 132.146 39.1484 132.906C39.5391 133.661 40.1615 134.039 41.0156 134.039C41.8802 134.039 42.5052 133.656 42.8906 132.891C43.2812 132.12 43.4766 130.914 43.4766 129.273C43.4766 127.633 43.2812 126.432 42.8906 125.672C42.5052 124.906 41.8802 124.523 41.0156 124.523C40.1615 124.523 39.5391 124.901 39.1484 125.656C38.7578 126.406 38.5625 127.612 38.5625 129.273ZM49.7031 130.617C49.7031 131.987 49.5 133.263 49.0938 134.445C48.6927 135.628 48.112 136.656 47.3516 137.531H46.1016C46.8255 136.552 47.3802 135.466 47.7656 134.273C48.151 133.076 48.3438 131.852 48.3438 130.602C48.3438 129.331 48.1536 128.094 47.7734 126.891C47.3984 125.688 46.8359 124.583 46.0859 123.578H47.3516C48.1172 124.49 48.7005 125.549 49.1016 126.758C49.5026 127.961 49.7031 129.247 49.7031 130.617ZM58.2031 126.266C58.2031 126.995 57.9974 127.591 57.5859 128.055C57.1797 128.518 56.6016 128.828 55.8516 128.984V129.047C56.7682 129.161 57.4479 129.453 57.8906 129.922C58.3333 130.391 58.5547 131.005 58.5547 131.766C58.5547 132.854 58.1771 133.693 57.4219 134.281C56.6667 134.865 55.5938 135.156 54.2031 135.156C53.599 135.156 53.0443 135.109 52.5391 135.016C52.0391 134.927 51.5521 134.768 51.0781 134.539V133.305C51.5729 133.549 52.099 133.737 52.6562 133.867C53.2188 133.992 53.75 134.055 54.25 134.055C56.224 134.055 57.2109 133.281 57.2109 131.734C57.2109 130.349 56.1224 129.656 53.9453 129.656H52.8203V128.539H53.9609C54.8516 128.539 55.5573 128.344 56.0781 127.953C56.599 127.557 56.8594 127.01 56.8594 126.312C56.8594 125.755 56.6667 125.318 56.2812 125C55.901 124.682 55.3828 124.523 54.7266 124.523C54.2266 124.523 53.7552 124.591 53.3125 124.727C52.8698 124.862 52.3646 125.112 51.7969 125.477L51.1406 124.602C51.6094 124.232 52.1484 123.943 52.7578 123.734C53.3724 123.521 54.0182 123.414 54.6953 123.414C55.8047 123.414 56.6667 123.669 57.2812 124.18C57.8958 124.685 58.2031 125.38 58.2031 126.266ZM71.9453 128.453C71.9453 132.922 70.2161 135.156 66.7578 135.156C66.1536 135.156 65.6745 135.104 65.3203 135V133.883C65.737 134.018 66.2109 134.086 66.7422 134.086C67.9922 134.086 68.9349 133.701 69.5703 132.93C70.2109 132.154 70.5599 130.966 70.6172 129.367H70.5234C70.237 129.799 69.8568 130.13 69.3828 130.359C68.9089 130.583 68.375 130.695 67.7812 130.695C66.7708 130.695 65.9688 130.393 65.375 129.789C64.7812 129.185 64.4844 128.341 64.4844 127.258C64.4844 126.07 64.8151 125.133 65.4766 124.445C66.1432 123.758 67.0182 123.414 68.1016 123.414C68.8776 123.414 69.5547 123.615 70.1328 124.016C70.7161 124.411 71.1641 124.992 71.4766 125.758C71.7891 126.518 71.9453 127.417 71.9453 128.453ZM68.1016 124.523C67.3568 124.523 66.7812 124.763 66.375 125.242C65.9688 125.721 65.7656 126.388 65.7656 127.242C65.7656 127.992 65.9531 128.583 66.3281 129.016C66.7031 129.443 67.2734 129.656 68.0391 129.656C68.513 129.656 68.9479 129.56 69.3438 129.367C69.7448 129.174 70.0599 128.911 70.2891 128.578C70.5182 128.245 70.6328 127.896 70.6328 127.531C70.6328 126.984 70.526 126.479 70.3125 126.016C70.099 125.552 69.7995 125.188 69.4141 124.922C69.0339 124.656 68.5964 124.523 68.1016 124.523ZM81.1641 129.273C81.1641 131.247 80.8516 132.721 80.2266 133.695C79.6068 134.669 78.6562 135.156 77.375 135.156C76.1458 135.156 75.2109 134.659 74.5703 133.664C73.9297 132.664 73.6094 131.201 73.6094 129.273C73.6094 127.284 73.9193 125.807 74.5391 124.844C75.1589 123.88 76.1042 123.398 77.375 123.398C78.6146 123.398 79.5547 123.901 80.1953 124.906C80.8411 125.911 81.1641 127.367 81.1641 129.273ZM74.9219 129.273C74.9219 130.935 75.1172 132.146 75.5078 132.906C75.8984 133.661 76.5208 134.039 77.375 134.039C78.2396 134.039 78.8646 133.656 79.25 132.891C79.6406 132.12 79.8359 130.914 79.8359 129.273C79.8359 127.633 79.6406 126.432 79.25 125.672C78.8646 124.906 78.2396 124.523 77.375 124.523C76.5208 124.523 75.8984 124.901 75.5078 125.656C75.1172 126.406 74.9219 127.612 74.9219 129.273ZM90.3203 129.273C90.3203 131.247 90.0078 132.721 89.3828 133.695C88.763 134.669 87.8125 135.156 86.5312 135.156C85.3021 135.156 84.3672 134.659 83.7266 133.664C83.0859 132.664 82.7656 131.201 82.7656 129.273C82.7656 127.284 83.0755 125.807 83.6953 124.844C84.3151 123.88 85.2604 123.398 86.5312 123.398C87.7708 123.398 88.7109 123.901 89.3516 124.906C89.9974 125.911 90.3203 127.367 90.3203 129.273ZM84.0781 129.273C84.0781 130.935 84.2734 132.146 84.6641 132.906C85.0547 133.661 85.6771 134.039 86.5312 134.039C87.3958 134.039 88.0208 133.656 88.4062 132.891C88.7969 132.12 88.9922 130.914 88.9922 129.273C88.9922 127.633 88.7969 126.432 88.4062 125.672C88.0208 124.906 87.3958 124.523 86.5312 124.523C85.6771 124.523 85.0547 124.901 84.6641 125.656C84.2734 126.406 84.0781 127.612 84.0781 129.273ZM95.4766 128.023C96.6797 128.023 97.625 128.323 98.3125 128.922C99.0052 129.516 99.3516 130.331 99.3516 131.367C99.3516 132.549 98.974 133.477 98.2188 134.148C97.4688 134.82 96.4323 135.156 95.1094 135.156C93.8229 135.156 92.8411 134.951 92.1641 134.539V133.289C92.5286 133.523 92.9818 133.708 93.5234 133.844C94.0651 133.974 94.599 134.039 95.125 134.039C96.0417 134.039 96.7526 133.823 97.2578 133.391C97.7682 132.958 98.0234 132.333 98.0234 131.516C98.0234 129.922 97.0469 129.125 95.0938 129.125C94.599 129.125 93.9375 129.201 93.1094 129.352L92.4375 128.922L92.8672 123.578H98.5469V124.773H93.9766L93.6875 128.203C94.2865 128.083 94.8828 128.023 95.4766 128.023ZM104.633 128.023C105.836 128.023 106.781 128.323 107.469 128.922C108.161 129.516 108.508 130.331 108.508 131.367C108.508 132.549 108.13 133.477 107.375 134.148C106.625 134.82 105.589 135.156 104.266 135.156C102.979 135.156 101.997 134.951 101.32 134.539V133.289C101.685 133.523 102.138 133.708 102.68 133.844C103.221 133.974 103.755 134.039 104.281 134.039C105.198 134.039 105.909 133.823 106.414 133.391C106.924 132.958 107.18 132.333 107.18 131.516C107.18 129.922 106.203 129.125 104.25 129.125C103.755 129.125 103.094 129.201 102.266 129.352L101.594 128.922L102.023 123.578H107.703V124.773H103.133L102.844 128.203C103.443 128.083 104.039 128.023 104.633 128.023ZM117.297 126.266C117.297 126.995 117.091 127.591 116.68 128.055C116.273 128.518 115.695 128.828 114.945 128.984V129.047C115.862 129.161 116.542 129.453 116.984 129.922C117.427 130.391 117.648 131.005 117.648 131.766C117.648 132.854 117.271 133.693 116.516 134.281C115.76 134.865 114.688 135.156 113.297 135.156C112.693 135.156 112.138 135.109 111.633 135.016C111.133 134.927 110.646 134.768 110.172 134.539V133.305C110.667 133.549 111.193 133.737 111.75 133.867C112.312 133.992 112.844 134.055 113.344 134.055C115.318 134.055 116.305 133.281 116.305 131.734C116.305 130.349 115.216 129.656 113.039 129.656H111.914V128.539H113.055C113.945 128.539 114.651 128.344 115.172 127.953C115.693 127.557 115.953 127.01 115.953 126.312C115.953 125.755 115.76 125.318 115.375 125C114.995 124.682 114.477 124.523 113.82 124.523C113.32 124.523 112.849 124.591 112.406 124.727C111.964 124.862 111.458 125.112 110.891 125.477L110.234 124.602C110.703 124.232 111.242 123.943 111.852 123.734C112.466 123.521 113.112 123.414 113.789 123.414C114.898 123.414 115.76 123.669 116.375 124.18C116.99 124.685 117.297 125.38 117.297 126.266ZM126.945 129.273C126.945 131.247 126.633 132.721 126.008 133.695C125.388 134.669 124.438 135.156 123.156 135.156C121.927 135.156 120.992 134.659 120.352 133.664C119.711 132.664 119.391 131.201 119.391 129.273C119.391 127.284 119.701 125.807 120.32 124.844C120.94 123.88 121.885 123.398 123.156 123.398C124.396 123.398 125.336 123.901 125.977 124.906C126.622 125.911 126.945 127.367 126.945 129.273ZM120.703 129.273C120.703 130.935 120.898 132.146 121.289 132.906C121.68 133.661 122.302 134.039 123.156 134.039C124.021 134.039 124.646 133.656 125.031 132.891C125.422 132.12 125.617 130.914 125.617 129.273C125.617 127.633 125.422 126.432 125.031 125.672C124.646 124.906 124.021 124.523 123.156 124.523C122.302 124.523 121.68 124.901 121.289 125.656C120.898 126.406 120.703 127.612 120.703 129.273ZM132.312 123.414C133.354 123.414 134.18 123.656 134.789 124.141C135.398 124.625 135.703 125.294 135.703 126.148C135.703 126.711 135.529 127.224 135.18 127.688C134.831 128.151 134.273 128.573 133.508 128.953C134.435 129.396 135.094 129.862 135.484 130.352C135.875 130.836 136.07 131.398 136.07 132.039C136.07 132.987 135.74 133.745 135.078 134.312C134.417 134.875 133.51 135.156 132.359 135.156C131.141 135.156 130.203 134.891 129.547 134.359C128.891 133.823 128.562 133.065 128.562 132.086C128.562 130.779 129.359 129.76 130.953 129.031C130.234 128.625 129.719 128.188 129.406 127.719C129.094 127.245 128.938 126.716 128.938 126.133C128.938 125.305 129.242 124.646 129.852 124.156C130.466 123.661 131.286 123.414 132.312 123.414ZM129.844 132.117C129.844 132.742 130.06 133.229 130.492 133.578C130.93 133.927 131.542 134.102 132.328 134.102C133.104 134.102 133.708 133.919 134.141 133.555C134.573 133.19 134.789 132.69 134.789 132.055C134.789 131.549 134.586 131.102 134.18 130.711C133.773 130.315 133.065 129.932 132.055 129.562C131.279 129.896 130.716 130.266 130.367 130.672C130.018 131.073 129.844 131.555 129.844 132.117ZM132.297 124.469C131.646 124.469 131.135 124.625 130.766 124.938C130.396 125.25 130.211 125.667 130.211 126.188C130.211 126.667 130.365 127.078 130.672 127.422C130.979 127.766 131.547 128.109 132.375 128.453C133.12 128.141 133.646 127.805 133.953 127.445C134.266 127.086 134.422 126.667 134.422 126.188C134.422 125.661 134.232 125.245 133.852 124.938C133.477 124.625 132.958 124.469 132.297 124.469Z" fill="#203060" fill-opacity="0.5"/>
<defs>
<clipPath id="clip0">
<rect width="35" height="35" fill="white" transform="translate(50 21)"/>
</clipPath>
</defs>
</svg>
