<svg width="184" height="136" viewBox="0 0 184 136" fill="none" xmlns="http://www.w3.org/2000/svg">
<path d="M105.611 25H78.8264C76.7837 25 75 26.6872 75 28.9029V46.9841C75 49.1947 76.6591 50.887 78.8264 50.887H105.611C107.654 50.887 109.438 49.1947 109.438 46.9841V28.9029C109.438 26.8193 107.778 25 105.611 25ZM107.141 47.1162C107.141 48.0259 106.503 48.6764 105.611 48.6764H78.8264C77.9346 48.6764 77.2968 48.0259 77.2968 47.1162V29.0299C77.2968 28.1203 77.9346 27.4698 78.8264 27.4698H105.611C106.503 27.4698 107.141 28.1203 107.141 29.0299V47.1162Z" fill="#50E6C5"/>
<path d="M103.568 31.2403L92.2187 38.6598L80.8691 31.2403C80.3609 30.849 79.5936 31.1082 79.3395 31.6316C78.9559 32.15 79.21 32.9326 79.7231 33.1917L91.7105 40.9975C91.8401 41.1296 92.0942 41.1296 92.3482 41.1296C92.6023 41.1296 92.7319 41.1296 92.986 40.9975L104.973 33.1917C105.482 32.8004 105.611 32.15 105.357 31.6316C104.844 31.1132 104.206 30.8541 103.568 31.2403Z" fill="#50E6C5"/>
<path d="M3.04688 131H1.75V122.438H3.04688V131ZM1.64062 120.117C1.64062 119.82 1.71354 119.604 1.85938 119.469C2.00521 119.328 2.1875 119.258 2.40625 119.258C2.61458 119.258 2.79427 119.328 2.94531 119.469C3.09635 119.609 3.17188 119.826 3.17188 120.117C3.17188 120.409 3.09635 120.628 2.94531 120.773C2.79427 120.914 2.61458 120.984 2.40625 120.984C2.1875 120.984 2.00521 120.914 1.85938 120.773C1.71354 120.628 1.64062 120.409 1.64062 120.117ZM11.6562 131V125.461C11.6562 124.763 11.4974 124.242 11.1797 123.898C10.862 123.555 10.3646 123.383 9.6875 123.383C8.79167 123.383 8.13542 123.625 7.71875 124.109C7.30208 124.594 7.09375 125.393 7.09375 126.508V131H5.79688V122.438H6.85156L7.0625 123.609H7.125C7.39062 123.188 7.76302 122.862 8.24219 122.633C8.72135 122.398 9.25521 122.281 9.84375 122.281C10.875 122.281 11.651 122.531 12.1719 123.031C12.6927 123.526 12.9531 124.32 12.9531 125.414V131H11.6562ZM19.4844 123.445H17.3047V131H16.0078V123.445H14.4766V122.859L16.0078 122.391V121.914C16.0078 119.81 16.9271 118.758 18.7656 118.758C19.2188 118.758 19.75 118.849 20.3594 119.031L20.0234 120.07C19.5234 119.909 19.0964 119.828 18.7422 119.828C18.2526 119.828 17.8906 119.992 17.6562 120.32C17.4219 120.643 17.3047 121.164 17.3047 121.883V122.438H19.4844V123.445ZM28.4375 126.711C28.4375 128.107 28.0859 129.198 27.3828 129.984C26.6797 130.766 25.7083 131.156 24.4688 131.156C23.7031 131.156 23.0234 130.977 22.4297 130.617C21.8359 130.258 21.3776 129.742 21.0547 129.07C20.7318 128.398 20.5703 127.612 20.5703 126.711C20.5703 125.315 20.9193 124.229 21.6172 123.453C22.3151 122.672 23.2839 122.281 24.5234 122.281C25.7214 122.281 26.6719 122.68 27.375 123.477C28.0833 124.273 28.4375 125.352 28.4375 126.711ZM21.9141 126.711C21.9141 127.805 22.1328 128.638 22.5703 129.211C23.0078 129.784 23.651 130.07 24.5 130.07C25.349 130.07 25.9922 129.786 26.4297 129.219C26.8724 128.646 27.0938 127.81 27.0938 126.711C27.0938 125.622 26.8724 124.797 26.4297 124.234C25.9922 123.667 25.3438 123.383 24.4844 123.383C23.6354 123.383 22.9948 123.661 22.5625 124.219C22.1302 124.776 21.9141 125.607 21.9141 126.711ZM42.7812 125.305C42.7812 126.044 42.6667 126.721 42.4375 127.336C42.2083 127.951 41.8854 128.427 41.4688 128.766C41.0521 129.104 40.5729 129.273 40.0312 129.273C39.5833 129.273 39.2057 129.138 38.8984 128.867C38.5911 128.596 38.4089 128.25 38.3516 127.828H38.2891C38.0807 128.281 37.7812 128.635 37.3906 128.891C37.0052 129.146 36.5469 129.273 36.0156 129.273C35.2344 129.273 34.6224 129.008 34.1797 128.477C33.7422 127.94 33.5234 127.214 33.5234 126.297C33.5234 125.234 33.8307 124.372 34.4453 123.711C35.0599 123.044 35.8672 122.711 36.8672 122.711C37.2214 122.711 37.6224 122.745 38.0703 122.812C38.5182 122.875 38.9219 122.964 39.2812 123.078L39.0859 126.75V126.922C39.0859 127.849 39.4323 128.312 40.125 128.312C40.599 128.312 40.9844 128.034 41.2812 127.477C41.5781 126.914 41.7266 126.185 41.7266 125.289C41.7266 124.346 41.5339 123.521 41.1484 122.812C40.763 122.104 40.2135 121.56 39.5 121.18C38.7917 120.794 37.9766 120.602 37.0547 120.602C35.8932 120.602 34.8828 120.844 34.0234 121.328C33.1641 121.807 32.5078 122.495 32.0547 123.391C31.6016 124.281 31.375 125.312 31.375 126.484C31.375 128.073 31.7943 129.294 32.6328 130.148C33.4714 131.003 34.6797 131.43 36.2578 131.43C37.3516 131.43 38.487 131.206 39.6641 130.758V131.797C38.6641 132.234 37.5286 132.453 36.2578 132.453C34.3672 132.453 32.8984 131.935 31.8516 130.898C30.8099 129.857 30.2891 128.404 30.2891 126.539C30.2891 125.185 30.5677 123.979 31.125 122.922C31.6823 121.865 32.4766 121.047 33.5078 120.469C34.5391 119.885 35.7214 119.594 37.0547 119.594C38.1745 119.594 39.1693 119.831 40.0391 120.305C40.9141 120.773 41.5885 121.443 42.0625 122.312C42.5417 123.177 42.7812 124.174 42.7812 125.305ZM34.7031 126.328C34.7031 127.651 35.2109 128.312 36.2266 128.312C37.3047 128.312 37.8906 127.497 37.9844 125.867L38.0938 123.828C37.7188 123.724 37.3099 123.672 36.8672 123.672C36.1901 123.672 35.6589 123.906 35.2734 124.375C34.8932 124.844 34.7031 125.495 34.7031 126.328ZM47.875 130.086C48.1042 130.086 48.3255 130.07 48.5391 130.039C48.7526 130.003 48.9219 129.966 49.0469 129.93V130.922C48.9062 130.99 48.6979 131.044 48.4219 131.086C48.151 131.133 47.9062 131.156 47.6875 131.156C46.0312 131.156 45.2031 130.284 45.2031 128.539V123.445H43.9766V122.82L45.2031 122.281L45.75 120.453H46.5V122.438H48.9844V123.445H46.5V128.484C46.5 129 46.6224 129.396 46.8672 129.672C47.112 129.948 47.4479 130.086 47.875 130.086ZM56.625 131V125.461C56.625 124.763 56.4661 124.242 56.1484 123.898C55.8307 123.555 55.3333 123.383 54.6562 123.383C53.7552 123.383 53.0964 123.628 52.6797 124.117C52.2682 124.607 52.0625 125.409 52.0625 126.523V131H50.7656V118.844H52.0625V122.523C52.0625 122.966 52.0417 123.333 52 123.625H52.0781C52.3333 123.214 52.6953 122.891 53.1641 122.656C53.638 122.417 54.1771 122.297 54.7812 122.297C55.8281 122.297 56.612 122.547 57.1328 123.047C57.6589 123.542 57.9219 124.331 57.9219 125.414V131H56.625ZM64.2109 131.156C62.9453 131.156 61.9453 130.771 61.2109 130C60.4818 129.229 60.1172 128.159 60.1172 126.789C60.1172 125.409 60.4557 124.312 61.1328 123.5C61.8151 122.688 62.7292 122.281 63.875 122.281C64.9479 122.281 65.7969 122.635 66.4219 123.344C67.0469 124.047 67.3594 124.977 67.3594 126.133V126.953H61.4609C61.487 127.958 61.7396 128.721 62.2188 129.242C62.7031 129.763 63.3828 130.023 64.2578 130.023C65.1797 130.023 66.0911 129.831 66.9922 129.445V130.602C66.5339 130.799 66.099 130.94 65.6875 131.023C65.2812 131.112 64.7891 131.156 64.2109 131.156ZM63.8594 123.367C63.1719 123.367 62.6224 123.591 62.2109 124.039C61.8047 124.487 61.5651 125.107 61.4922 125.898H65.9688C65.9688 125.081 65.7865 124.456 65.4219 124.023C65.0573 123.586 64.5365 123.367 63.8594 123.367ZM73.5625 122.297C74.6875 122.297 75.5599 122.682 76.1797 123.453C76.8047 124.219 77.1172 125.305 77.1172 126.711C77.1172 128.117 76.8021 129.211 76.1719 129.992C75.5469 130.768 74.6771 131.156 73.5625 131.156C73.0052 131.156 72.4948 131.055 72.0312 130.852C71.5729 130.643 71.1875 130.326 70.875 129.898H70.7812L70.5078 131H69.5781V118.844H70.875V121.797C70.875 122.458 70.8542 123.052 70.8125 123.578H70.875C71.4792 122.724 72.375 122.297 73.5625 122.297ZM73.375 123.383C72.4896 123.383 71.8516 123.638 71.4609 124.148C71.0703 124.654 70.875 125.508 70.875 126.711C70.875 127.914 71.0755 128.776 71.4766 129.297C71.8776 129.812 72.5208 130.07 73.4062 130.07C74.2031 130.07 74.7969 129.781 75.1875 129.203C75.5781 128.62 75.7734 127.784 75.7734 126.695C75.7734 125.581 75.5781 124.75 75.1875 124.203C74.7969 123.656 74.1927 123.383 73.375 123.383ZM80.6875 131H79.3906V118.844H80.6875V131ZM90.8281 126.711C90.8281 128.107 90.4766 129.198 89.7734 129.984C89.0703 130.766 88.099 131.156 86.8594 131.156C86.0938 131.156 85.4141 130.977 84.8203 130.617C84.2266 130.258 83.7682 129.742 83.4453 129.07C83.1224 128.398 82.9609 127.612 82.9609 126.711C82.9609 125.315 83.3099 124.229 84.0078 123.453C84.7057 122.672 85.6745 122.281 86.9141 122.281C88.112 122.281 89.0625 122.68 89.7656 123.477C90.474 124.273 90.8281 125.352 90.8281 126.711ZM84.3047 126.711C84.3047 127.805 84.5234 128.638 84.9609 129.211C85.3984 129.784 86.0417 130.07 86.8906 130.07C87.7396 130.07 88.3828 129.786 88.8203 129.219C89.263 128.646 89.4844 127.81 89.4844 126.711C89.4844 125.622 89.263 124.797 88.8203 124.234C88.3828 123.667 87.7344 123.383 86.875 123.383C86.026 123.383 85.3854 123.661 84.9531 124.219C84.5208 124.776 84.3047 125.607 84.3047 126.711ZM96.5312 131.156C95.2917 131.156 94.3307 130.776 93.6484 130.016C92.9714 129.25 92.6328 128.169 92.6328 126.773C92.6328 125.341 92.9766 124.234 93.6641 123.453C94.3568 122.672 95.3411 122.281 96.6172 122.281C97.0286 122.281 97.4401 122.326 97.8516 122.414C98.263 122.503 98.5859 122.607 98.8203 122.727L98.4219 123.828C98.1354 123.714 97.8229 123.62 97.4844 123.547C97.1458 123.469 96.8464 123.43 96.5859 123.43C94.8464 123.43 93.9766 124.539 93.9766 126.758C93.9766 127.81 94.1875 128.617 94.6094 129.18C95.0365 129.742 95.6667 130.023 96.5 130.023C97.2135 130.023 97.9453 129.87 98.6953 129.562V130.711C98.1224 131.008 97.401 131.156 96.5312 131.156ZM102.016 126.617C102.24 126.299 102.581 125.883 103.039 125.367L105.805 122.438H107.344L103.875 126.086L107.586 131H106.016L102.992 126.953L102.016 127.797V131H100.734V118.844H102.016V125.289C102.016 125.576 101.995 126.018 101.953 126.617H102.016ZM110.438 131H109.141V118.844H110.438V131ZM116.805 131.156C115.539 131.156 114.539 130.771 113.805 130C113.076 129.229 112.711 128.159 112.711 126.789C112.711 125.409 113.049 124.312 113.727 123.5C114.409 122.688 115.323 122.281 116.469 122.281C117.542 122.281 118.391 122.635 119.016 123.344C119.641 124.047 119.953 124.977 119.953 126.133V126.953H114.055C114.081 127.958 114.333 128.721 114.812 129.242C115.297 129.763 115.977 130.023 116.852 130.023C117.773 130.023 118.685 129.831 119.586 129.445V130.602C119.128 130.799 118.693 130.94 118.281 131.023C117.875 131.112 117.383 131.156 116.805 131.156ZM116.453 123.367C115.766 123.367 115.216 123.591 114.805 124.039C114.398 124.487 114.159 125.107 114.086 125.898H118.562C118.562 125.081 118.38 124.456 118.016 124.023C117.651 123.586 117.13 123.367 116.453 123.367ZM128 129.852H127.93C127.331 130.721 126.435 131.156 125.242 131.156C124.122 131.156 123.25 130.773 122.625 130.008C122.005 129.242 121.695 128.154 121.695 126.742C121.695 125.331 122.008 124.234 122.633 123.453C123.258 122.672 124.128 122.281 125.242 122.281C126.404 122.281 127.294 122.703 127.914 123.547H128.016L127.961 122.93L127.93 122.328V118.844H129.227V131H128.172L128 129.852ZM125.406 130.07C126.292 130.07 126.932 129.831 127.328 129.352C127.729 128.867 127.93 128.089 127.93 127.016V126.742C127.93 125.529 127.727 124.664 127.32 124.148C126.919 123.628 126.276 123.367 125.391 123.367C124.63 123.367 124.047 123.664 123.641 124.258C123.24 124.846 123.039 125.68 123.039 126.758C123.039 127.852 123.24 128.677 123.641 129.234C124.042 129.792 124.63 130.07 125.406 130.07ZM138.992 122.438V123.258L137.406 123.445C137.552 123.628 137.682 123.867 137.797 124.164C137.911 124.456 137.969 124.786 137.969 125.156C137.969 125.995 137.682 126.664 137.109 127.164C136.536 127.664 135.75 127.914 134.75 127.914C134.495 127.914 134.255 127.893 134.031 127.852C133.479 128.143 133.203 128.51 133.203 128.953C133.203 129.188 133.299 129.362 133.492 129.477C133.685 129.586 134.016 129.641 134.484 129.641H136C136.927 129.641 137.638 129.836 138.133 130.227C138.633 130.617 138.883 131.185 138.883 131.93C138.883 132.878 138.503 133.599 137.742 134.094C136.982 134.594 135.872 134.844 134.414 134.844C133.294 134.844 132.43 134.635 131.82 134.219C131.216 133.802 130.914 133.214 130.914 132.453C130.914 131.932 131.081 131.482 131.414 131.102C131.747 130.721 132.216 130.464 132.82 130.328C132.602 130.229 132.417 130.076 132.266 129.867C132.12 129.659 132.047 129.417 132.047 129.141C132.047 128.828 132.13 128.555 132.297 128.32C132.464 128.086 132.727 127.859 133.086 127.641C132.643 127.458 132.281 127.148 132 126.711C131.724 126.273 131.586 125.773 131.586 125.211C131.586 124.273 131.867 123.552 132.43 123.047C132.992 122.536 133.789 122.281 134.82 122.281C135.268 122.281 135.672 122.333 136.031 122.438H138.992ZM132.164 132.438C132.164 132.901 132.359 133.253 132.75 133.492C133.141 133.732 133.701 133.852 134.43 133.852C135.518 133.852 136.323 133.688 136.844 133.359C137.37 133.036 137.633 132.596 137.633 132.039C137.633 131.576 137.49 131.253 137.203 131.07C136.917 130.893 136.378 130.805 135.586 130.805H134.031C133.443 130.805 132.984 130.945 132.656 131.227C132.328 131.508 132.164 131.911 132.164 132.438ZM132.867 125.18C132.867 125.779 133.036 126.232 133.375 126.539C133.714 126.846 134.185 127 134.789 127C136.055 127 136.688 126.385 136.688 125.156C136.688 123.87 136.047 123.227 134.766 123.227C134.156 123.227 133.688 123.391 133.359 123.719C133.031 124.047 132.867 124.534 132.867 125.18ZM144.367 131.156C143.102 131.156 142.102 130.771 141.367 130C140.638 129.229 140.273 128.159 140.273 126.789C140.273 125.409 140.612 124.312 141.289 123.5C141.971 122.688 142.885 122.281 144.031 122.281C145.104 122.281 145.953 122.635 146.578 123.344C147.203 124.047 147.516 124.977 147.516 126.133V126.953H141.617C141.643 127.958 141.896 128.721 142.375 129.242C142.859 129.763 143.539 130.023 144.414 130.023C145.336 130.023 146.247 129.831 147.148 129.445V130.602C146.69 130.799 146.255 130.94 145.844 131.023C145.438 131.112 144.945 131.156 144.367 131.156ZM144.016 123.367C143.328 123.367 142.779 123.591 142.367 124.039C141.961 124.487 141.721 125.107 141.648 125.898H146.125C146.125 125.081 145.943 124.456 145.578 124.023C145.214 123.586 144.693 123.367 144.016 123.367ZM153.641 122.281C154.021 122.281 154.362 122.312 154.664 122.375L154.484 123.578C154.13 123.5 153.818 123.461 153.547 123.461C152.854 123.461 152.26 123.742 151.766 124.305C151.276 124.867 151.031 125.568 151.031 126.406V131H149.734V122.438H150.805L150.953 124.023H151.016C151.333 123.466 151.716 123.036 152.164 122.734C152.612 122.432 153.104 122.281 153.641 122.281ZM156.078 130.172C156.078 129.823 156.156 129.56 156.312 129.383C156.474 129.201 156.703 129.109 157 129.109C157.302 129.109 157.536 129.201 157.703 129.383C157.875 129.56 157.961 129.823 157.961 130.172C157.961 130.51 157.875 130.771 157.703 130.953C157.531 131.135 157.297 131.227 157 131.227C156.734 131.227 156.513 131.146 156.336 130.984C156.164 130.818 156.078 130.547 156.078 130.172ZM166.391 131V125.461C166.391 124.763 166.232 124.242 165.914 123.898C165.596 123.555 165.099 123.383 164.422 123.383C163.526 123.383 162.87 123.625 162.453 124.109C162.036 124.594 161.828 125.393 161.828 126.508V131H160.531V122.438H161.586L161.797 123.609H161.859C162.125 123.188 162.497 122.862 162.977 122.633C163.456 122.398 163.99 122.281 164.578 122.281C165.609 122.281 166.385 122.531 166.906 123.031C167.427 123.526 167.688 124.32 167.688 125.414V131H166.391ZM173.977 131.156C172.711 131.156 171.711 130.771 170.977 130C170.247 129.229 169.883 128.159 169.883 126.789C169.883 125.409 170.221 124.312 170.898 123.5C171.581 122.688 172.495 122.281 173.641 122.281C174.714 122.281 175.562 122.635 176.188 123.344C176.812 124.047 177.125 124.977 177.125 126.133V126.953H171.227C171.253 127.958 171.505 128.721 171.984 129.242C172.469 129.763 173.148 130.023 174.023 130.023C174.945 130.023 175.857 129.831 176.758 129.445V130.602C176.299 130.799 175.865 130.94 175.453 131.023C175.047 131.112 174.555 131.156 173.977 131.156ZM173.625 123.367C172.938 123.367 172.388 123.591 171.977 124.039C171.57 124.487 171.331 125.107 171.258 125.898H175.734C175.734 125.081 175.552 124.456 175.188 124.023C174.823 123.586 174.302 123.367 173.625 123.367ZM182.109 130.086C182.339 130.086 182.56 130.07 182.773 130.039C182.987 130.003 183.156 129.966 183.281 129.93V130.922C183.141 130.99 182.932 131.044 182.656 131.086C182.385 131.133 182.141 131.156 181.922 131.156C180.266 131.156 179.438 130.284 179.438 128.539V123.445H178.211V122.82L179.438 122.281L179.984 120.453H180.734V122.438H183.219V123.445H180.734V128.484C180.734 129 180.857 129.396 181.102 129.672C181.346 129.948 181.682 130.086 182.109 130.086Z" fill="#203060" fill-opacity="0.5"/>
<circle cx="92" cy="38" r="36.5" stroke="#2C4584" stroke-width="3"/>
</svg>
