<svg width="230" height="277" viewBox="0 0 230 277" fill="none" xmlns="http://www.w3.org/2000/svg">
<path d="M45.8828 133.602C44.6276 133.602 43.6354 134.021 42.9062 134.859C42.1823 135.693 41.8203 136.836 41.8203 138.289C41.8203 139.784 42.1693 140.94 42.8672 141.758C43.5703 142.57 44.5703 142.977 45.8672 142.977C46.6641 142.977 47.5729 142.833 48.5938 142.547V143.711C47.8021 144.008 46.8255 144.156 45.6641 144.156C43.9818 144.156 42.6823 143.646 41.7656 142.625C40.8542 141.604 40.3984 140.154 40.3984 138.273C40.3984 137.096 40.6172 136.065 41.0547 135.18C41.4974 134.294 42.1328 133.612 42.9609 133.133C43.7943 132.654 44.7734 132.414 45.8984 132.414C47.0964 132.414 48.1432 132.633 49.0391 133.07L48.4766 134.211C47.612 133.805 46.7474 133.602 45.8828 133.602ZM58.2812 139.711C58.2812 141.107 57.9297 142.198 57.2266 142.984C56.5234 143.766 55.5521 144.156 54.3125 144.156C53.5469 144.156 52.8672 143.977 52.2734 143.617C51.6797 143.258 51.2214 142.742 50.8984 142.07C50.5755 141.398 50.4141 140.612 50.4141 139.711C50.4141 138.315 50.763 137.229 51.4609 136.453C52.1589 135.672 53.1276 135.281 54.3672 135.281C55.5651 135.281 56.5156 135.68 57.2188 136.477C57.9271 137.273 58.2812 138.352 58.2812 139.711ZM51.7578 139.711C51.7578 140.805 51.9766 141.638 52.4141 142.211C52.8516 142.784 53.4948 143.07 54.3438 143.07C55.1927 143.07 55.8359 142.786 56.2734 142.219C56.7161 141.646 56.9375 140.81 56.9375 139.711C56.9375 138.622 56.7161 137.797 56.2734 137.234C55.8359 136.667 55.1875 136.383 54.3281 136.383C53.4792 136.383 52.8385 136.661 52.4062 137.219C51.974 137.776 51.7578 138.607 51.7578 139.711ZM66.4219 144V138.461C66.4219 137.763 66.263 137.242 65.9453 136.898C65.6276 136.555 65.1302 136.383 64.4531 136.383C63.5573 136.383 62.901 136.625 62.4844 137.109C62.0677 137.594 61.8594 138.393 61.8594 139.508V144H60.5625V135.438H61.6172L61.8281 136.609H61.8906C62.1562 136.188 62.5286 135.862 63.0078 135.633C63.487 135.398 64.0208 135.281 64.6094 135.281C65.6406 135.281 66.4167 135.531 66.9375 136.031C67.4583 136.526 67.7188 137.32 67.7188 138.414V144H66.4219ZM76.25 144V138.461C76.25 137.763 76.0911 137.242 75.7734 136.898C75.4557 136.555 74.9583 136.383 74.2812 136.383C73.3854 136.383 72.7292 136.625 72.3125 137.109C71.8958 137.594 71.6875 138.393 71.6875 139.508V144H70.3906V135.438H71.4453L71.6562 136.609H71.7188C71.9844 136.188 72.3568 135.862 72.8359 135.633C73.3151 135.398 73.849 135.281 74.4375 135.281C75.4688 135.281 76.2448 135.531 76.7656 136.031C77.2865 136.526 77.5469 137.32 77.5469 138.414V144H76.25ZM83.8359 144.156C82.5703 144.156 81.5703 143.771 80.8359 143C80.1068 142.229 79.7422 141.159 79.7422 139.789C79.7422 138.409 80.0807 137.312 80.7578 136.5C81.4401 135.688 82.3542 135.281 83.5 135.281C84.5729 135.281 85.4219 135.635 86.0469 136.344C86.6719 137.047 86.9844 137.977 86.9844 139.133V139.953H81.0859C81.112 140.958 81.3646 141.721 81.8438 142.242C82.3281 142.763 83.0078 143.023 83.8828 143.023C84.8047 143.023 85.7161 142.831 86.6172 142.445V143.602C86.1589 143.799 85.724 143.94 85.3125 144.023C84.9062 144.112 84.4141 144.156 83.8359 144.156ZM83.4844 136.367C82.7969 136.367 82.2474 136.591 81.8359 137.039C81.4297 137.487 81.1901 138.107 81.1172 138.898H85.5938C85.5938 138.081 85.4115 137.456 85.0469 137.023C84.6823 136.586 84.1615 136.367 83.4844 136.367ZM92.625 144.156C91.3854 144.156 90.4245 143.776 89.7422 143.016C89.0651 142.25 88.7266 141.169 88.7266 139.773C88.7266 138.341 89.0703 137.234 89.7578 136.453C90.4505 135.672 91.4349 135.281 92.7109 135.281C93.1224 135.281 93.5339 135.326 93.9453 135.414C94.3568 135.503 94.6797 135.607 94.9141 135.727L94.5156 136.828C94.2292 136.714 93.9167 136.62 93.5781 136.547C93.2396 136.469 92.9401 136.43 92.6797 136.43C90.9401 136.43 90.0703 137.539 90.0703 139.758C90.0703 140.81 90.2812 141.617 90.7031 142.18C91.1302 142.742 91.7604 143.023 92.5938 143.023C93.3073 143.023 94.0391 142.87 94.7891 142.562V143.711C94.2161 144.008 93.4948 144.156 92.625 144.156ZM99.5938 143.086C99.8229 143.086 100.044 143.07 100.258 143.039C100.471 143.003 100.641 142.966 100.766 142.93V143.922C100.625 143.99 100.417 144.044 100.141 144.086C99.8698 144.133 99.625 144.156 99.4062 144.156C97.75 144.156 96.9219 143.284 96.9219 141.539V136.445H95.6953V135.82L96.9219 135.281L97.4688 133.453H98.2188V135.438H100.703V136.445H98.2188V141.484C98.2188 142 98.3411 142.396 98.5859 142.672C98.8307 142.948 99.1667 143.086 99.5938 143.086ZM106.836 144V132.578H108.164V142.797H113.203V144H106.836ZM116.172 135.438V140.992C116.172 141.69 116.331 142.211 116.648 142.555C116.966 142.898 117.464 143.07 118.141 143.07C119.036 143.07 119.69 142.826 120.102 142.336C120.518 141.846 120.727 141.047 120.727 139.938V135.438H122.023V144H120.953L120.766 142.852H120.695C120.43 143.273 120.06 143.596 119.586 143.82C119.117 144.044 118.581 144.156 117.977 144.156C116.935 144.156 116.154 143.909 115.633 143.414C115.117 142.919 114.859 142.128 114.859 141.039V135.438H116.172ZM128.203 144.156C126.964 144.156 126.003 143.776 125.32 143.016C124.643 142.25 124.305 141.169 124.305 139.773C124.305 138.341 124.648 137.234 125.336 136.453C126.029 135.672 127.013 135.281 128.289 135.281C128.701 135.281 129.112 135.326 129.523 135.414C129.935 135.503 130.258 135.607 130.492 135.727L130.094 136.828C129.807 136.714 129.495 136.62 129.156 136.547C128.818 136.469 128.518 136.43 128.258 136.43C126.518 136.43 125.648 137.539 125.648 139.758C125.648 140.81 125.859 141.617 126.281 142.18C126.708 142.742 127.339 143.023 128.172 143.023C128.885 143.023 129.617 142.87 130.367 142.562V143.711C129.794 144.008 129.073 144.156 128.203 144.156ZM137.672 144L137.414 142.781H137.352C136.924 143.318 136.497 143.682 136.07 143.875C135.648 144.062 135.12 144.156 134.484 144.156C133.635 144.156 132.969 143.938 132.484 143.5C132.005 143.062 131.766 142.44 131.766 141.633C131.766 139.904 133.148 138.997 135.914 138.914L137.367 138.867V138.336C137.367 137.664 137.221 137.169 136.93 136.852C136.643 136.529 136.182 136.367 135.547 136.367C134.833 136.367 134.026 136.586 133.125 137.023L132.727 136.031C133.148 135.802 133.609 135.622 134.109 135.492C134.615 135.362 135.12 135.297 135.625 135.297C136.646 135.297 137.401 135.523 137.891 135.977C138.385 136.43 138.633 137.156 138.633 138.156V144H137.672ZM134.742 143.086C135.549 143.086 136.182 142.865 136.641 142.422C137.104 141.979 137.336 141.359 137.336 140.562V139.789L136.039 139.844C135.008 139.88 134.263 140.042 133.805 140.328C133.352 140.609 133.125 141.049 133.125 141.648C133.125 142.117 133.266 142.474 133.547 142.719C133.833 142.964 134.232 143.086 134.742 143.086ZM148.75 135.906C148.75 137.062 148.354 137.953 147.562 138.578C146.776 139.198 145.648 139.508 144.18 139.508H142.836V144H141.508V132.578H144.469C147.323 132.578 148.75 133.688 148.75 135.906ZM142.836 138.367H144.031C145.208 138.367 146.06 138.177 146.586 137.797C147.112 137.417 147.375 136.807 147.375 135.969C147.375 135.214 147.128 134.651 146.633 134.281C146.138 133.911 145.367 133.727 144.32 133.727H142.836V138.367ZM152.25 144H150.953V131.844H152.25V144ZM156.219 135.438V140.992C156.219 141.69 156.378 142.211 156.695 142.555C157.013 142.898 157.51 143.07 158.188 143.07C159.083 143.07 159.737 142.826 160.148 142.336C160.565 141.846 160.773 141.047 160.773 139.938V135.438H162.07V144H161L160.812 142.852H160.742C160.477 143.273 160.107 143.596 159.633 143.82C159.164 144.044 158.628 144.156 158.023 144.156C156.982 144.156 156.201 143.909 155.68 143.414C155.164 142.919 154.906 142.128 154.906 141.039V135.438H156.219ZM170.352 141.664C170.352 142.461 170.055 143.076 169.461 143.508C168.867 143.94 168.034 144.156 166.961 144.156C165.826 144.156 164.94 143.977 164.305 143.617V142.414C164.716 142.622 165.156 142.786 165.625 142.906C166.099 143.026 166.555 143.086 166.992 143.086C167.669 143.086 168.19 142.979 168.555 142.766C168.919 142.547 169.102 142.216 169.102 141.773C169.102 141.44 168.956 141.156 168.664 140.922C168.378 140.682 167.815 140.401 166.977 140.078C166.18 139.781 165.612 139.523 165.273 139.305C164.94 139.081 164.69 138.828 164.523 138.547C164.362 138.266 164.281 137.93 164.281 137.539C164.281 136.841 164.565 136.292 165.133 135.891C165.701 135.484 166.479 135.281 167.469 135.281C168.391 135.281 169.292 135.469 170.172 135.844L169.711 136.898C168.852 136.544 168.073 136.367 167.375 136.367C166.76 136.367 166.297 136.464 165.984 136.656C165.672 136.849 165.516 137.115 165.516 137.453C165.516 137.682 165.573 137.878 165.688 138.039C165.807 138.201 165.997 138.354 166.258 138.5C166.518 138.646 167.018 138.857 167.758 139.133C168.773 139.503 169.458 139.875 169.812 140.25C170.172 140.625 170.352 141.096 170.352 141.664ZM179.391 143.086C179.62 143.086 179.841 143.07 180.055 143.039C180.268 143.003 180.438 142.966 180.562 142.93V143.922C180.422 143.99 180.214 144.044 179.938 144.086C179.667 144.133 179.422 144.156 179.203 144.156C177.547 144.156 176.719 143.284 176.719 141.539V136.445H175.492V135.82L176.719 135.281L177.266 133.453H178.016V135.438H180.5V136.445H178.016V141.484C178.016 142 178.138 142.396 178.383 142.672C178.628 142.948 178.964 143.086 179.391 143.086ZM189.672 139.711C189.672 141.107 189.32 142.198 188.617 142.984C187.914 143.766 186.943 144.156 185.703 144.156C184.938 144.156 184.258 143.977 183.664 143.617C183.07 143.258 182.612 142.742 182.289 142.07C181.966 141.398 181.805 140.612 181.805 139.711C181.805 138.315 182.154 137.229 182.852 136.453C183.549 135.672 184.518 135.281 185.758 135.281C186.956 135.281 187.906 135.68 188.609 136.477C189.318 137.273 189.672 138.352 189.672 139.711ZM183.148 139.711C183.148 140.805 183.367 141.638 183.805 142.211C184.242 142.784 184.885 143.07 185.734 143.07C186.583 143.07 187.227 142.786 187.664 142.219C188.107 141.646 188.328 140.81 188.328 139.711C188.328 138.622 188.107 137.797 187.664 137.234C187.227 136.667 186.578 136.383 185.719 136.383C184.87 136.383 184.229 136.661 183.797 137.219C183.365 137.776 183.148 138.607 183.148 139.711ZM7.67188 168L7.41406 166.781H7.35156C6.92448 167.318 6.4974 167.682 6.07031 167.875C5.64844 168.062 5.11979 168.156 4.48438 168.156C3.63542 168.156 2.96875 167.938 2.48438 167.5C2.00521 167.062 1.76562 166.44 1.76562 165.633C1.76562 163.904 3.14844 162.997 5.91406 162.914L7.36719 162.867V162.336C7.36719 161.664 7.22135 161.169 6.92969 160.852C6.64323 160.529 6.18229 160.367 5.54688 160.367C4.83333 160.367 4.02604 160.586 3.125 161.023L2.72656 160.031C3.14844 159.802 3.60938 159.622 4.10938 159.492C4.61458 159.362 5.11979 159.297 5.625 159.297C6.64583 159.297 7.40104 159.523 7.89062 159.977C8.38542 160.43 8.63281 161.156 8.63281 162.156V168H7.67188ZM4.74219 167.086C5.54948 167.086 6.18229 166.865 6.64062 166.422C7.10417 165.979 7.33594 165.359 7.33594 164.562V163.789L6.03906 163.844C5.00781 163.88 4.26302 164.042 3.80469 164.328C3.35156 164.609 3.125 165.049 3.125 165.648C3.125 166.117 3.26562 166.474 3.54688 166.719C3.83333 166.964 4.23177 167.086 4.74219 167.086ZM14.7344 168.156C13.4948 168.156 12.5339 167.776 11.8516 167.016C11.1745 166.25 10.8359 165.169 10.8359 163.773C10.8359 162.341 11.1797 161.234 11.8672 160.453C12.5599 159.672 13.5443 159.281 14.8203 159.281C15.2318 159.281 15.6432 159.326 16.0547 159.414C16.4661 159.503 16.7891 159.607 17.0234 159.727L16.625 160.828C16.3385 160.714 16.026 160.62 15.6875 160.547C15.349 160.469 15.0495 160.43 14.7891 160.43C13.0495 160.43 12.1797 161.539 12.1797 163.758C12.1797 164.81 12.3906 165.617 12.8125 166.18C13.2396 166.742 13.8698 167.023 14.7031 167.023C15.4167 167.023 16.1484 166.87 16.8984 166.562V167.711C16.3255 168.008 15.6042 168.156 14.7344 168.156ZM22.3594 168.156C21.1198 168.156 20.1589 167.776 19.4766 167.016C18.7995 166.25 18.4609 165.169 18.4609 163.773C18.4609 162.341 18.8047 161.234 19.4922 160.453C20.1849 159.672 21.1693 159.281 22.4453 159.281C22.8568 159.281 23.2682 159.326 23.6797 159.414C24.0911 159.503 24.4141 159.607 24.6484 159.727L24.25 160.828C23.9635 160.714 23.651 160.62 23.3125 160.547C22.974 160.469 22.6745 160.43 22.4141 160.43C20.6745 160.43 19.8047 161.539 19.8047 163.758C19.8047 164.81 20.0156 165.617 20.4375 166.18C20.8646 166.742 21.4948 167.023 22.3281 167.023C23.0417 167.023 23.7734 166.87 24.5234 166.562V167.711C23.9505 168.008 23.2292 168.156 22.3594 168.156ZM33.9531 163.711C33.9531 165.107 33.6016 166.198 32.8984 166.984C32.1953 167.766 31.224 168.156 29.9844 168.156C29.2188 168.156 28.5391 167.977 27.9453 167.617C27.3516 167.258 26.8932 166.742 26.5703 166.07C26.2474 165.398 26.0859 164.612 26.0859 163.711C26.0859 162.315 26.4349 161.229 27.1328 160.453C27.8307 159.672 28.7995 159.281 30.0391 159.281C31.237 159.281 32.1875 159.68 32.8906 160.477C33.599 161.273 33.9531 162.352 33.9531 163.711ZM27.4297 163.711C27.4297 164.805 27.6484 165.638 28.0859 166.211C28.5234 166.784 29.1667 167.07 30.0156 167.07C30.8646 167.07 31.5078 166.786 31.9453 166.219C32.388 165.646 32.6094 164.81 32.6094 163.711C32.6094 162.622 32.388 161.797 31.9453 161.234C31.5078 160.667 30.8594 160.383 30 160.383C29.151 160.383 28.5104 160.661 28.0781 161.219C27.6458 161.776 27.4297 162.607 27.4297 163.711ZM37.4531 159.438V164.992C37.4531 165.69 37.612 166.211 37.9297 166.555C38.2474 166.898 38.7448 167.07 39.4219 167.07C40.3177 167.07 40.9714 166.826 41.3828 166.336C41.7995 165.846 42.0078 165.047 42.0078 163.938V159.438H43.3047V168H42.2344L42.0469 166.852H41.9766C41.7109 167.273 41.3411 167.596 40.8672 167.82C40.3984 168.044 39.862 168.156 39.2578 168.156C38.2161 168.156 37.4349 167.909 36.9141 167.414C36.3984 166.919 36.1406 166.128 36.1406 165.039V159.438H37.4531ZM51.9219 168V162.461C51.9219 161.763 51.763 161.242 51.4453 160.898C51.1276 160.555 50.6302 160.383 49.9531 160.383C49.0573 160.383 48.401 160.625 47.9844 161.109C47.5677 161.594 47.3594 162.393 47.3594 163.508V168H46.0625V159.438H47.1172L47.3281 160.609H47.3906C47.6562 160.188 48.0286 159.862 48.5078 159.633C48.987 159.398 49.5208 159.281 50.1094 159.281C51.1406 159.281 51.9167 159.531 52.4375 160.031C52.9583 160.526 53.2188 161.32 53.2188 162.414V168H51.9219ZM58.6562 167.086C58.8854 167.086 59.1068 167.07 59.3203 167.039C59.5339 167.003 59.7031 166.966 59.8281 166.93V167.922C59.6875 167.99 59.4792 168.044 59.2031 168.086C58.9323 168.133 58.6875 168.156 58.4688 168.156C56.8125 168.156 55.9844 167.284 55.9844 165.539V160.445H54.7578V159.82L55.9844 159.281L56.5312 157.453H57.2812V159.438H59.7656V160.445H57.2812V165.484C57.2812 166 57.4036 166.396 57.6484 166.672C57.8932 166.948 58.2292 167.086 58.6562 167.086ZM62.8438 168H61.5469V159.438H62.8438V168ZM61.4375 157.117C61.4375 156.82 61.5104 156.604 61.6562 156.469C61.8021 156.328 61.9844 156.258 62.2031 156.258C62.4115 156.258 62.5911 156.328 62.7422 156.469C62.8932 156.609 62.9688 156.826 62.9688 157.117C62.9688 157.409 62.8932 157.628 62.7422 157.773C62.5911 157.914 62.4115 157.984 62.2031 157.984C61.9844 157.984 61.8021 157.914 61.6562 157.773C61.5104 157.628 61.4375 157.409 61.4375 157.117ZM71.4531 168V162.461C71.4531 161.763 71.2943 161.242 70.9766 160.898C70.6589 160.555 70.1615 160.383 69.4844 160.383C68.5885 160.383 67.9323 160.625 67.5156 161.109C67.099 161.594 66.8906 162.393 66.8906 163.508V168H65.5938V159.438H66.6484L66.8594 160.609H66.9219C67.1875 160.188 67.5599 159.862 68.0391 159.633C68.5182 159.398 69.0521 159.281 69.6406 159.281C70.6719 159.281 71.4479 159.531 71.9688 160.031C72.4896 160.526 72.75 161.32 72.75 162.414V168H71.4531ZM82.4297 159.438V160.258L80.8438 160.445C80.9896 160.628 81.1198 160.867 81.2344 161.164C81.349 161.456 81.4062 161.786 81.4062 162.156C81.4062 162.995 81.1198 163.664 80.5469 164.164C79.974 164.664 79.1875 164.914 78.1875 164.914C77.9323 164.914 77.6927 164.893 77.4688 164.852C76.9167 165.143 76.6406 165.51 76.6406 165.953C76.6406 166.188 76.737 166.362 76.9297 166.477C77.1224 166.586 77.4531 166.641 77.9219 166.641H79.4375C80.3646 166.641 81.0755 166.836 81.5703 167.227C82.0703 167.617 82.3203 168.185 82.3203 168.93C82.3203 169.878 81.9401 170.599 81.1797 171.094C80.4193 171.594 79.3099 171.844 77.8516 171.844C76.7318 171.844 75.8672 171.635 75.2578 171.219C74.6536 170.802 74.3516 170.214 74.3516 169.453C74.3516 168.932 74.5182 168.482 74.8516 168.102C75.1849 167.721 75.6536 167.464 76.2578 167.328C76.0391 167.229 75.8542 167.076 75.7031 166.867C75.5573 166.659 75.4844 166.417 75.4844 166.141C75.4844 165.828 75.5677 165.555 75.7344 165.32C75.901 165.086 76.1641 164.859 76.5234 164.641C76.0807 164.458 75.7188 164.148 75.4375 163.711C75.1615 163.273 75.0234 162.773 75.0234 162.211C75.0234 161.273 75.3047 160.552 75.8672 160.047C76.4297 159.536 77.2266 159.281 78.2578 159.281C78.7057 159.281 79.1094 159.333 79.4688 159.438H82.4297ZM75.6016 169.438C75.6016 169.901 75.7969 170.253 76.1875 170.492C76.5781 170.732 77.138 170.852 77.8672 170.852C78.9557 170.852 79.7604 170.688 80.2812 170.359C80.8073 170.036 81.0703 169.596 81.0703 169.039C81.0703 168.576 80.9271 168.253 80.6406 168.07C80.3542 167.893 79.8151 167.805 79.0234 167.805H77.4688C76.8802 167.805 76.4219 167.945 76.0938 168.227C75.7656 168.508 75.6016 168.911 75.6016 169.438ZM76.3047 162.18C76.3047 162.779 76.474 163.232 76.8125 163.539C77.151 163.846 77.6224 164 78.2266 164C79.4922 164 80.125 163.385 80.125 162.156C80.125 160.87 79.4844 160.227 78.2031 160.227C77.5938 160.227 77.125 160.391 76.7969 160.719C76.4688 161.047 76.3047 161.534 76.3047 162.18ZM93.8672 165.664C93.8672 166.461 93.5703 167.076 92.9766 167.508C92.3828 167.94 91.5495 168.156 90.4766 168.156C89.3411 168.156 88.4557 167.977 87.8203 167.617V166.414C88.2318 166.622 88.6719 166.786 89.1406 166.906C89.6146 167.026 90.0703 167.086 90.5078 167.086C91.1849 167.086 91.7057 166.979 92.0703 166.766C92.4349 166.547 92.6172 166.216 92.6172 165.773C92.6172 165.44 92.4714 165.156 92.1797 164.922C91.8932 164.682 91.3307 164.401 90.4922 164.078C89.6953 163.781 89.1276 163.523 88.7891 163.305C88.4557 163.081 88.2057 162.828 88.0391 162.547C87.8776 162.266 87.7969 161.93 87.7969 161.539C87.7969 160.841 88.0807 160.292 88.6484 159.891C89.2161 159.484 89.9948 159.281 90.9844 159.281C91.9062 159.281 92.8073 159.469 93.6875 159.844L93.2266 160.898C92.3672 160.544 91.5885 160.367 90.8906 160.367C90.276 160.367 89.8125 160.464 89.5 160.656C89.1875 160.849 89.0312 161.115 89.0312 161.453C89.0312 161.682 89.0885 161.878 89.2031 162.039C89.3229 162.201 89.513 162.354 89.7734 162.5C90.0339 162.646 90.5339 162.857 91.2734 163.133C92.2891 163.503 92.974 163.875 93.3281 164.25C93.6875 164.625 93.8672 165.096 93.8672 165.664ZM103.375 163.711C103.375 165.107 103.023 166.198 102.32 166.984C101.617 167.766 100.646 168.156 99.4062 168.156C98.6406 168.156 97.9609 167.977 97.3672 167.617C96.7734 167.258 96.3151 166.742 95.9922 166.07C95.6693 165.398 95.5078 164.612 95.5078 163.711C95.5078 162.315 95.8568 161.229 96.5547 160.453C97.2526 159.672 98.2214 159.281 99.4609 159.281C100.659 159.281 101.609 159.68 102.312 160.477C103.021 161.273 103.375 162.352 103.375 163.711ZM96.8516 163.711C96.8516 164.805 97.0703 165.638 97.5078 166.211C97.9453 166.784 98.5885 167.07 99.4375 167.07C100.286 167.07 100.93 166.786 101.367 166.219C101.81 165.646 102.031 164.81 102.031 163.711C102.031 162.622 101.81 161.797 101.367 161.234C100.93 160.667 100.281 160.383 99.4219 160.383C98.5729 160.383 97.9323 160.661 97.5 161.219C97.0677 161.776 96.8516 162.607 96.8516 163.711ZM109.516 160.445H107.336V168H106.039V160.445H104.508V159.859L106.039 159.391V158.914C106.039 156.81 106.958 155.758 108.797 155.758C109.25 155.758 109.781 155.849 110.391 156.031L110.055 157.07C109.555 156.909 109.128 156.828 108.773 156.828C108.284 156.828 107.922 156.992 107.688 157.32C107.453 157.643 107.336 158.164 107.336 158.883V159.438H109.516V160.445ZM113.844 167.086C114.073 167.086 114.294 167.07 114.508 167.039C114.721 167.003 114.891 166.966 115.016 166.93V167.922C114.875 167.99 114.667 168.044 114.391 168.086C114.12 168.133 113.875 168.156 113.656 168.156C112 168.156 111.172 167.284 111.172 165.539V160.445H109.945V159.82L111.172 159.281L111.719 157.453H112.469V159.438H114.953V160.445H112.469V165.484C112.469 166 112.591 166.396 112.836 166.672C113.081 166.948 113.417 167.086 113.844 167.086ZM123.727 168L122.156 162.977C122.057 162.669 121.872 161.971 121.602 160.883H121.539C121.331 161.794 121.148 162.497 120.992 162.992L119.375 168H117.875L115.539 159.438H116.898C117.451 161.589 117.87 163.227 118.156 164.352C118.448 165.477 118.615 166.234 118.656 166.625H118.719C118.776 166.328 118.867 165.945 118.992 165.477C119.122 165.003 119.234 164.628 119.328 164.352L120.898 159.438H122.305L123.836 164.352C124.128 165.247 124.326 166 124.43 166.609H124.492C124.513 166.422 124.568 166.133 124.656 165.742C124.75 165.352 125.294 163.25 126.289 159.438H127.633L125.266 168H123.727ZM134.453 168L134.195 166.781H134.133C133.706 167.318 133.279 167.682 132.852 167.875C132.43 168.062 131.901 168.156 131.266 168.156C130.417 168.156 129.75 167.938 129.266 167.5C128.786 167.062 128.547 166.44 128.547 165.633C128.547 163.904 129.93 162.997 132.695 162.914L134.148 162.867V162.336C134.148 161.664 134.003 161.169 133.711 160.852C133.424 160.529 132.964 160.367 132.328 160.367C131.615 160.367 130.807 160.586 129.906 161.023L129.508 160.031C129.93 159.802 130.391 159.622 130.891 159.492C131.396 159.362 131.901 159.297 132.406 159.297C133.427 159.297 134.182 159.523 134.672 159.977C135.167 160.43 135.414 161.156 135.414 162.156V168H134.453ZM131.523 167.086C132.331 167.086 132.964 166.865 133.422 166.422C133.885 165.979 134.117 165.359 134.117 164.562V163.789L132.82 163.844C131.789 163.88 131.044 164.042 130.586 164.328C130.133 164.609 129.906 165.049 129.906 165.648C129.906 166.117 130.047 166.474 130.328 166.719C130.615 166.964 131.013 167.086 131.523 167.086ZM142 159.281C142.38 159.281 142.721 159.312 143.023 159.375L142.844 160.578C142.49 160.5 142.177 160.461 141.906 160.461C141.214 160.461 140.62 160.742 140.125 161.305C139.635 161.867 139.391 162.568 139.391 163.406V168H138.094V159.438H139.164L139.312 161.023H139.375C139.693 160.466 140.076 160.036 140.523 159.734C140.971 159.432 141.464 159.281 142 159.281ZM148.242 168.156C146.977 168.156 145.977 167.771 145.242 167C144.513 166.229 144.148 165.159 144.148 163.789C144.148 162.409 144.487 161.312 145.164 160.5C145.846 159.688 146.76 159.281 147.906 159.281C148.979 159.281 149.828 159.635 150.453 160.344C151.078 161.047 151.391 161.977 151.391 163.133V163.953H145.492C145.518 164.958 145.771 165.721 146.25 166.242C146.734 166.763 147.414 167.023 148.289 167.023C149.211 167.023 150.122 166.831 151.023 166.445V167.602C150.565 167.799 150.13 167.94 149.719 168.023C149.312 168.112 148.82 168.156 148.242 168.156ZM147.891 160.367C147.203 160.367 146.654 160.591 146.242 161.039C145.836 161.487 145.596 162.107 145.523 162.898H150C150 162.081 149.818 161.456 149.453 161.023C149.089 160.586 148.568 160.367 147.891 160.367ZM161.75 168.156C161.193 168.156 160.682 168.055 160.219 167.852C159.76 167.643 159.375 167.326 159.062 166.898H158.969C159.031 167.398 159.062 167.872 159.062 168.32V171.844H157.766V159.438H158.82L159 160.609H159.062C159.396 160.141 159.784 159.802 160.227 159.594C160.669 159.385 161.177 159.281 161.75 159.281C162.885 159.281 163.76 159.669 164.375 160.445C164.995 161.221 165.305 162.31 165.305 163.711C165.305 165.117 164.99 166.211 164.359 166.992C163.734 167.768 162.865 168.156 161.75 168.156ZM161.562 160.383C160.688 160.383 160.055 160.625 159.664 161.109C159.273 161.594 159.073 162.365 159.062 163.422V163.711C159.062 164.914 159.263 165.776 159.664 166.297C160.065 166.812 160.708 167.07 161.594 167.07C162.333 167.07 162.911 166.771 163.328 166.172C163.75 165.573 163.961 164.747 163.961 163.695C163.961 162.628 163.75 161.81 163.328 161.242C162.911 160.669 162.323 160.383 161.562 160.383ZM168.875 168H167.578V155.844H168.875V168ZM176.891 168L176.633 166.781H176.57C176.143 167.318 175.716 167.682 175.289 167.875C174.867 168.062 174.339 168.156 173.703 168.156C172.854 168.156 172.188 167.938 171.703 167.5C171.224 167.062 170.984 166.44 170.984 165.633C170.984 163.904 172.367 162.997 175.133 162.914L176.586 162.867V162.336C176.586 161.664 176.44 161.169 176.148 160.852C175.862 160.529 175.401 160.367 174.766 160.367C174.052 160.367 173.245 160.586 172.344 161.023L171.945 160.031C172.367 159.802 172.828 159.622 173.328 159.492C173.833 159.362 174.339 159.297 174.844 159.297C175.865 159.297 176.62 159.523 177.109 159.977C177.604 160.43 177.852 161.156 177.852 162.156V168H176.891ZM173.961 167.086C174.768 167.086 175.401 166.865 175.859 166.422C176.323 165.979 176.555 165.359 176.555 164.562V163.789L175.258 163.844C174.227 163.88 173.482 164.042 173.023 164.328C172.57 164.609 172.344 165.049 172.344 165.648C172.344 166.117 172.484 166.474 172.766 166.719C173.052 166.964 173.451 167.086 173.961 167.086ZM183.297 167.086C183.526 167.086 183.747 167.07 183.961 167.039C184.174 167.003 184.344 166.966 184.469 166.93V167.922C184.328 167.99 184.12 168.044 183.844 168.086C183.573 168.133 183.328 168.156 183.109 168.156C181.453 168.156 180.625 167.284 180.625 165.539V160.445H179.398V159.82L180.625 159.281L181.172 157.453H181.922V159.438H184.406V160.445H181.922V165.484C181.922 166 182.044 166.396 182.289 166.672C182.534 166.948 182.87 167.086 183.297 167.086ZM190.047 160.445H187.867V168H186.57V160.445H185.039V159.859L186.57 159.391V158.914C186.57 156.81 187.49 155.758 189.328 155.758C189.781 155.758 190.312 155.849 190.922 156.031L190.586 157.07C190.086 156.909 189.659 156.828 189.305 156.828C188.815 156.828 188.453 156.992 188.219 157.32C187.984 157.643 187.867 158.164 187.867 158.883V159.438H190.047V160.445ZM199 163.711C199 165.107 198.648 166.198 197.945 166.984C197.242 167.766 196.271 168.156 195.031 168.156C194.266 168.156 193.586 167.977 192.992 167.617C192.398 167.258 191.94 166.742 191.617 166.07C191.294 165.398 191.133 164.612 191.133 163.711C191.133 162.315 191.482 161.229 192.18 160.453C192.878 159.672 193.846 159.281 195.086 159.281C196.284 159.281 197.234 159.68 197.938 160.477C198.646 161.273 199 162.352 199 163.711ZM192.477 163.711C192.477 164.805 192.695 165.638 193.133 166.211C193.57 166.784 194.214 167.07 195.062 167.07C195.911 167.07 196.555 166.786 196.992 166.219C197.435 165.646 197.656 164.81 197.656 163.711C197.656 162.622 197.435 161.797 196.992 161.234C196.555 160.667 195.906 160.383 195.047 160.383C194.198 160.383 193.557 160.661 193.125 161.219C192.693 161.776 192.477 162.607 192.477 163.711ZM205.188 159.281C205.568 159.281 205.909 159.312 206.211 159.375L206.031 160.578C205.677 160.5 205.365 160.461 205.094 160.461C204.401 160.461 203.807 160.742 203.312 161.305C202.823 161.867 202.578 162.568 202.578 163.406V168H201.281V159.438H202.352L202.5 161.023H202.562C202.88 160.466 203.263 160.036 203.711 159.734C204.159 159.432 204.651 159.281 205.188 159.281ZM218.727 168V162.43C218.727 161.747 218.581 161.237 218.289 160.898C217.997 160.555 217.544 160.383 216.93 160.383C216.122 160.383 215.526 160.615 215.141 161.078C214.755 161.542 214.562 162.255 214.562 163.219V168H213.266V162.43C213.266 161.747 213.12 161.237 212.828 160.898C212.536 160.555 212.081 160.383 211.461 160.383C210.648 160.383 210.052 160.628 209.672 161.117C209.297 161.602 209.109 162.398 209.109 163.508V168H207.812V159.438H208.867L209.078 160.609H209.141C209.385 160.193 209.729 159.867 210.172 159.633C210.62 159.398 211.12 159.281 211.672 159.281C213.01 159.281 213.885 159.766 214.297 160.734H214.359C214.615 160.286 214.984 159.932 215.469 159.672C215.953 159.411 216.505 159.281 217.125 159.281C218.094 159.281 218.818 159.531 219.297 160.031C219.781 160.526 220.023 161.32 220.023 162.414V168H218.727ZM228.227 165.664C228.227 166.461 227.93 167.076 227.336 167.508C226.742 167.94 225.909 168.156 224.836 168.156C223.701 168.156 222.815 167.977 222.18 167.617V166.414C222.591 166.622 223.031 166.786 223.5 166.906C223.974 167.026 224.43 167.086 224.867 167.086C225.544 167.086 226.065 166.979 226.43 166.766C226.794 166.547 226.977 166.216 226.977 165.773C226.977 165.44 226.831 165.156 226.539 164.922C226.253 164.682 225.69 164.401 224.852 164.078C224.055 163.781 223.487 163.523 223.148 163.305C222.815 163.081 222.565 162.828 222.398 162.547C222.237 162.266 222.156 161.93 222.156 161.539C222.156 160.841 222.44 160.292 223.008 159.891C223.576 159.484 224.354 159.281 225.344 159.281C226.266 159.281 227.167 159.469 228.047 159.844L227.586 160.898C226.727 160.544 225.948 160.367 225.25 160.367C224.635 160.367 224.172 160.464 223.859 160.656C223.547 160.849 223.391 161.115 223.391 161.453C223.391 161.682 223.448 161.878 223.562 162.039C223.682 162.201 223.872 162.354 224.133 162.5C224.393 162.646 224.893 162.857 225.633 163.133C226.648 163.503 227.333 163.875 227.688 164.25C228.047 164.625 228.227 165.096 228.227 165.664ZM33.2344 189.664C33.2344 190.461 32.9375 191.076 32.3438 191.508C31.75 191.94 30.9167 192.156 29.8438 192.156C28.7083 192.156 27.8229 191.977 27.1875 191.617V190.414C27.599 190.622 28.0391 190.786 28.5078 190.906C28.9818 191.026 29.4375 191.086 29.875 191.086C30.5521 191.086 31.0729 190.979 31.4375 190.766C31.8021 190.547 31.9844 190.216 31.9844 189.773C31.9844 189.44 31.8385 189.156 31.5469 188.922C31.2604 188.682 30.6979 188.401 29.8594 188.078C29.0625 187.781 28.4948 187.523 28.1562 187.305C27.8229 187.081 27.5729 186.828 27.4062 186.547C27.2448 186.266 27.1641 185.93 27.1641 185.539C27.1641 184.841 27.4479 184.292 28.0156 183.891C28.5833 183.484 29.362 183.281 30.3516 183.281C31.2734 183.281 32.1745 183.469 33.0547 183.844L32.5938 184.898C31.7344 184.544 30.9557 184.367 30.2578 184.367C29.6432 184.367 29.1797 184.464 28.8672 184.656C28.5547 184.849 28.3984 185.115 28.3984 185.453C28.3984 185.682 28.4557 185.878 28.5703 186.039C28.6901 186.201 28.8802 186.354 29.1406 186.5C29.401 186.646 29.901 186.857 30.6406 187.133C31.6562 187.503 32.3411 187.875 32.6953 188.25C33.0547 188.625 33.2344 189.096 33.2344 189.664ZM36.5703 183.438V188.992C36.5703 189.69 36.7292 190.211 37.0469 190.555C37.3646 190.898 37.862 191.07 38.5391 191.07C39.4349 191.07 40.0885 190.826 40.5 190.336C40.9167 189.846 41.125 189.047 41.125 187.938V183.438H42.4219V192H41.3516L41.1641 190.852H41.0938C40.8281 191.273 40.4583 191.596 39.9844 191.82C39.5156 192.044 38.9792 192.156 38.375 192.156C37.3333 192.156 36.5521 191.909 36.0312 191.414C35.5156 190.919 35.2578 190.128 35.2578 189.039V183.438H36.5703ZM48.6016 192.156C47.362 192.156 46.401 191.776 45.7188 191.016C45.0417 190.25 44.7031 189.169 44.7031 187.773C44.7031 186.341 45.0469 185.234 45.7344 184.453C46.4271 183.672 47.4115 183.281 48.6875 183.281C49.099 183.281 49.5104 183.326 49.9219 183.414C50.3333 183.503 50.6562 183.607 50.8906 183.727L50.4922 184.828C50.2057 184.714 49.8932 184.62 49.5547 184.547C49.2161 184.469 48.9167 184.43 48.6562 184.43C46.9167 184.43 46.0469 185.539 46.0469 187.758C46.0469 188.81 46.2578 189.617 46.6797 190.18C47.1068 190.742 47.737 191.023 48.5703 191.023C49.2839 191.023 50.0156 190.87 50.7656 190.562V191.711C50.1927 192.008 49.4714 192.156 48.6016 192.156ZM58.6641 192V186.461C58.6641 185.763 58.5052 185.242 58.1875 184.898C57.8698 184.555 57.3724 184.383 56.6953 184.383C55.7943 184.383 55.1354 184.628 54.7188 185.117C54.3073 185.607 54.1016 186.409 54.1016 187.523V192H52.8047V179.844H54.1016V183.523C54.1016 183.966 54.0807 184.333 54.0391 184.625H54.1172C54.3724 184.214 54.7344 183.891 55.2031 183.656C55.6771 183.417 56.2161 183.297 56.8203 183.297C57.8672 183.297 58.651 183.547 59.1719 184.047C59.6979 184.542 59.9609 185.331 59.9609 186.414V192H58.6641ZM72.0547 192L71.7969 190.781H71.7344C71.3073 191.318 70.8802 191.682 70.4531 191.875C70.0312 192.062 69.5026 192.156 68.8672 192.156C68.0182 192.156 67.3516 191.938 66.8672 191.5C66.388 191.062 66.1484 190.44 66.1484 189.633C66.1484 187.904 67.5312 186.997 70.2969 186.914L71.75 186.867V186.336C71.75 185.664 71.6042 185.169 71.3125 184.852C71.026 184.529 70.5651 184.367 69.9297 184.367C69.2161 184.367 68.4089 184.586 67.5078 185.023L67.1094 184.031C67.5312 183.802 67.9922 183.622 68.4922 183.492C68.9974 183.362 69.5026 183.297 70.0078 183.297C71.0286 183.297 71.7839 183.523 72.2734 183.977C72.7682 184.43 73.0156 185.156 73.0156 186.156V192H72.0547ZM69.125 191.086C69.9323 191.086 70.5651 190.865 71.0234 190.422C71.487 189.979 71.7188 189.359 71.7188 188.562V187.789L70.4219 187.844C69.3906 187.88 68.6458 188.042 68.1875 188.328C67.7344 188.609 67.5078 189.049 67.5078 189.648C67.5078 190.117 67.6484 190.474 67.9297 190.719C68.2161 190.964 68.6146 191.086 69.125 191.086ZM81.2188 189.664C81.2188 190.461 80.9219 191.076 80.3281 191.508C79.7344 191.94 78.901 192.156 77.8281 192.156C76.6927 192.156 75.8073 191.977 75.1719 191.617V190.414C75.5833 190.622 76.0234 190.786 76.4922 190.906C76.9661 191.026 77.4219 191.086 77.8594 191.086C78.5365 191.086 79.0573 190.979 79.4219 190.766C79.7865 190.547 79.9688 190.216 79.9688 189.773C79.9688 189.44 79.8229 189.156 79.5312 188.922C79.2448 188.682 78.6823 188.401 77.8438 188.078C77.0469 187.781 76.4792 187.523 76.1406 187.305C75.8073 187.081 75.5573 186.828 75.3906 186.547C75.2292 186.266 75.1484 185.93 75.1484 185.539C75.1484 184.841 75.4323 184.292 76 183.891C76.5677 183.484 77.3464 183.281 78.3359 183.281C79.2578 183.281 80.1589 183.469 81.0391 183.844L80.5781 184.898C79.7188 184.544 78.9401 184.367 78.2422 184.367C77.6276 184.367 77.1641 184.464 76.8516 184.656C76.5391 184.849 76.3828 185.115 76.3828 185.453C76.3828 185.682 76.4401 185.878 76.5547 186.039C76.6745 186.201 76.8646 186.354 77.125 186.5C77.3854 186.646 77.8854 186.857 78.625 187.133C79.6406 187.503 80.3255 187.875 80.6797 188.25C81.0391 188.625 81.2188 189.096 81.2188 189.664ZM95.2891 192H93.7812L90.7109 186.977L87.5859 192H86.1797L89.9766 186.031L86.4375 180.578H87.9062L90.7422 185.102L93.6016 180.578H95.0156L91.4766 185.984L95.2891 192ZM100.344 192.156C99.0781 192.156 98.0781 191.771 97.3438 191C96.6146 190.229 96.25 189.159 96.25 187.789C96.25 186.409 96.5885 185.312 97.2656 184.5C97.9479 183.688 98.862 183.281 100.008 183.281C101.081 183.281 101.93 183.635 102.555 184.344C103.18 185.047 103.492 185.977 103.492 187.133V187.953H97.5938C97.6198 188.958 97.8724 189.721 98.3516 190.242C98.8359 190.763 99.5156 191.023 100.391 191.023C101.312 191.023 102.224 190.831 103.125 190.445V191.602C102.667 191.799 102.232 191.94 101.82 192.023C101.414 192.112 100.922 192.156 100.344 192.156ZM99.9922 184.367C99.3047 184.367 98.7552 184.591 98.3438 185.039C97.9375 185.487 97.6979 186.107 97.625 186.898H102.102C102.102 186.081 101.919 185.456 101.555 185.023C101.19 184.586 100.669 184.367 99.9922 184.367ZM109.617 183.281C109.997 183.281 110.339 183.312 110.641 183.375L110.461 184.578C110.107 184.5 109.794 184.461 109.523 184.461C108.831 184.461 108.237 184.742 107.742 185.305C107.253 185.867 107.008 186.568 107.008 187.406V192H105.711V183.438H106.781L106.93 185.023H106.992C107.31 184.466 107.693 184.036 108.141 183.734C108.589 183.432 109.081 183.281 109.617 183.281ZM119.633 187.711C119.633 189.107 119.281 190.198 118.578 190.984C117.875 191.766 116.904 192.156 115.664 192.156C114.898 192.156 114.219 191.977 113.625 191.617C113.031 191.258 112.573 190.742 112.25 190.07C111.927 189.398 111.766 188.612 111.766 187.711C111.766 186.315 112.115 185.229 112.812 184.453C113.51 183.672 114.479 183.281 115.719 183.281C116.917 183.281 117.867 183.68 118.57 184.477C119.279 185.273 119.633 186.352 119.633 187.711ZM113.109 187.711C113.109 188.805 113.328 189.638 113.766 190.211C114.203 190.784 114.846 191.07 115.695 191.07C116.544 191.07 117.188 190.786 117.625 190.219C118.068 189.646 118.289 188.81 118.289 187.711C118.289 186.622 118.068 185.797 117.625 185.234C117.188 184.667 116.539 184.383 115.68 184.383C114.831 184.383 114.19 184.661 113.758 185.219C113.326 185.776 113.109 186.607 113.109 187.711ZM131.336 192L131.078 190.781H131.016C130.589 191.318 130.161 191.682 129.734 191.875C129.312 192.062 128.784 192.156 128.148 192.156C127.299 192.156 126.633 191.938 126.148 191.5C125.669 191.062 125.43 190.44 125.43 189.633C125.43 187.904 126.812 186.997 129.578 186.914L131.031 186.867V186.336C131.031 185.664 130.885 185.169 130.594 184.852C130.307 184.529 129.846 184.367 129.211 184.367C128.497 184.367 127.69 184.586 126.789 185.023L126.391 184.031C126.812 183.802 127.273 183.622 127.773 183.492C128.279 183.362 128.784 183.297 129.289 183.297C130.31 183.297 131.065 183.523 131.555 183.977C132.049 184.43 132.297 185.156 132.297 186.156V192H131.336ZM128.406 191.086C129.214 191.086 129.846 190.865 130.305 190.422C130.768 189.979 131 189.359 131 188.562V187.789L129.703 187.844C128.672 187.88 127.927 188.042 127.469 188.328C127.016 188.609 126.789 189.049 126.789 189.648C126.789 190.117 126.93 190.474 127.211 190.719C127.497 190.964 127.896 191.086 128.406 191.086ZM140.836 192V186.461C140.836 185.763 140.677 185.242 140.359 184.898C140.042 184.555 139.544 184.383 138.867 184.383C137.971 184.383 137.315 184.625 136.898 185.109C136.482 185.594 136.273 186.393 136.273 187.508V192H134.977V183.438H136.031L136.242 184.609H136.305C136.57 184.188 136.943 183.862 137.422 183.633C137.901 183.398 138.435 183.281 139.023 183.281C140.055 183.281 140.831 183.531 141.352 184.031C141.872 184.526 142.133 185.32 142.133 186.414V192H140.836ZM150.633 190.852H150.562C149.964 191.721 149.068 192.156 147.875 192.156C146.755 192.156 145.883 191.773 145.258 191.008C144.638 190.242 144.328 189.154 144.328 187.742C144.328 186.331 144.641 185.234 145.266 184.453C145.891 183.672 146.76 183.281 147.875 183.281C149.036 183.281 149.927 183.703 150.547 184.547H150.648L150.594 183.93L150.562 183.328V179.844H151.859V192H150.805L150.633 190.852ZM148.039 191.07C148.924 191.07 149.565 190.831 149.961 190.352C150.362 189.867 150.562 189.089 150.562 188.016V187.742C150.562 186.529 150.359 185.664 149.953 185.148C149.552 184.628 148.909 184.367 148.023 184.367C147.263 184.367 146.68 184.664 146.273 185.258C145.872 185.846 145.672 186.68 145.672 187.758C145.672 188.852 145.872 189.677 146.273 190.234C146.674 190.792 147.263 191.07 148.039 191.07ZM164.023 192L160.148 181.875H160.086C160.159 182.677 160.195 183.63 160.195 184.734V192H158.969V180.578H160.969L164.586 190H164.648L168.297 180.578H170.281V192H168.953V184.641C168.953 183.797 168.99 182.88 169.062 181.891H169L165.094 192H164.023ZM176.328 186.289L179.375 180.578H180.812L177 187.57V192H175.656V187.633L171.852 180.578H173.305L176.328 186.289ZM192.305 186.273C192.305 188.102 191.841 189.539 190.914 190.586C189.992 191.633 188.708 192.156 187.062 192.156C185.38 192.156 184.081 191.643 183.164 190.617C182.253 189.586 181.797 188.133 181.797 186.258C181.797 184.398 182.255 182.958 183.172 181.938C184.089 180.911 185.391 180.398 187.078 180.398C188.719 180.398 190 180.919 190.922 181.961C191.844 183.003 192.305 184.44 192.305 186.273ZM183.203 186.273C183.203 187.82 183.531 188.995 184.188 189.797C184.849 190.594 185.807 190.992 187.062 190.992C188.328 190.992 189.284 190.594 189.93 189.797C190.576 189 190.898 187.826 190.898 186.273C190.898 184.737 190.576 183.573 189.93 182.781C189.289 181.984 188.339 181.586 187.078 181.586C185.812 181.586 184.849 181.987 184.188 182.789C183.531 183.586 183.203 184.747 183.203 186.273ZM194.859 180.578H198.086C199.602 180.578 200.698 180.805 201.375 181.258C202.052 181.711 202.391 182.427 202.391 183.406C202.391 184.083 202.201 184.643 201.82 185.086C201.445 185.523 200.896 185.807 200.172 185.938V186.016C201.906 186.312 202.773 187.224 202.773 188.75C202.773 189.771 202.427 190.568 201.734 191.141C201.047 191.714 200.083 192 198.844 192H194.859V180.578ZM196.188 185.469H198.375C199.312 185.469 199.987 185.323 200.398 185.031C200.81 184.734 201.016 184.237 201.016 183.539C201.016 182.898 200.786 182.438 200.328 182.156C199.87 181.87 199.141 181.727 198.141 181.727H196.188V185.469ZM196.188 186.594V190.867H198.57C199.492 190.867 200.185 190.69 200.648 190.336C201.117 189.977 201.352 189.417 201.352 188.656C201.352 187.948 201.112 187.427 200.633 187.094C200.159 186.76 199.435 186.594 198.461 186.594H196.188Z" fill="#1F3161"/>
<path fill-rule="evenodd" clip-rule="evenodd" d="M105.874 3.08911L61.1494 28.7833V72.4911C61.1494 77.219 63.7511 81.5634 67.9192 83.7952L100.292 101.129C104.073 103.154 108.616 103.154 112.397 101.129L144.77 83.7952C148.938 81.5634 151.54 77.219 151.54 72.4911V28.7833L105.874 3.08911Z" stroke="#2C4584" stroke-width="3.41935" stroke-miterlimit="10" stroke-linecap="round" stroke-linejoin="round"/>
<path fill-rule="evenodd" clip-rule="evenodd" d="M105.189 21.6028L76.6301 37.9034V70.5037L105.49 85.8562L134.349 70.5037V37.9034L105.189 21.6028Z" fill="url(#paint0_linear)"/>
<circle cx="162.664" cy="10.7123" r="8.71233" stroke="#2C4584" stroke-width="2.56452" stroke-miterlimit="10" stroke-linecap="round"/>
<circle cx="26.5342" cy="54.274" r="6.53425" stroke="#2C4584" stroke-width="2.56452" stroke-miterlimit="10" stroke-linecap="round"/>
<circle cx="172.466" cy="98.9246" r="6.53425" stroke="#2C4584" stroke-width="2.56452" stroke-miterlimit="10" stroke-linecap="round" stroke-linejoin="round"/>
<path d="M80.9863 41.75L104.011 54.0654C104.255 54.1962 104.548 54.2002 104.796 54.0762L129.449 41.75" stroke="#2C4584" stroke-width="3.41935" stroke-miterlimit="10" stroke-linecap="round" stroke-linejoin="round"/>
<defs>
<linearGradient id="paint0_linear" x1="105.49" y1="21.6028" x2="105.484" y2="85.7742" gradientUnits="userSpaceOnUse">
<stop stop-color="#50E6C5"/>
<stop offset="1" stop-color="#00DDAC" stop-opacity="0"/>
</linearGradient>
</defs>
</svg>
