<svg width="794" height="579" viewBox="0 0 794 579" fill="none" xmlns="http://www.w3.org/2000/svg">
<g filter="url(#filter0_dd)">
<path d="M57 107H617V516H167C106.249 516 57 466.751 57 406V107Z" fill="white"/>
</g>
<g filter="url(#filter1_dd)">
<path d="M24 149H578V553C578 554.657 576.657 556 575 556H161C83.6801 556 21 493.32 21 416V152C21 150.343 22.3431 149 24 149Z" stroke="#50E3C2" stroke-width="2"/>
</g>
<path d="M57 107H617V516H167C106.249 516 57 466.751 57 406V107Z" fill="white"/>
<circle cx="85" cy="130" r="4" stroke="#50E6C5" stroke-width="2"/>
<circle cx="101" cy="130" r="4" stroke="#50E6C5" stroke-width="2"/>
<circle cx="117" cy="130" r="4" stroke="#50E6C5" stroke-width="2"/>
<path d="M440 512V453H499L440 512Z" fill="#2C4584"/>
<g filter="url(#filter2_dd)">
<path d="M555.586 395L500 450.586V395H555.586Z" stroke="#50E3C2" stroke-width="2"/>
</g>
<path d="M559 396.414L614.586 452H559V396.414Z" stroke="#50E6C5" stroke-width="2"/>
<circle cx="469.5" cy="365.5" r="29.5" fill="#50E6C5"/>
<circle cx="469.5" cy="423.5" r="7.5" fill="#2C4584"/>
<circle cx="537.5" cy="482.5" r="28.5" fill="#50E3C2" stroke="#50E3C2" stroke-width="2"/>
<rect x="558" y="335" width="59" height="59" fill="#2C4584"/>
<circle cx="339.5" cy="314.5" r="2.5" fill="#50E3C2"/>
<circle cx="339.5" cy="357.5" r="2.5" fill="#50E3C2"/>
<circle cx="339.5" cy="400.5" r="2.5" fill="#50E3C2"/>
<circle cx="339.5" cy="443.5" r="2.5" fill="#50E3C2"/>
<circle cx="339.5" cy="486.5" r="2.5" fill="#50E3C2"/>
<circle cx="378.5" cy="314.5" r="2.5" fill="#50E3C2"/>
<circle cx="378.5" cy="357.5" r="2.5" fill="#50E3C2"/>
<circle cx="378.5" cy="400.5" r="2.5" fill="#50E3C2"/>
<circle cx="378.5" cy="443.5" r="2.5" fill="#50E3C2"/>
<circle cx="378.5" cy="486.5" r="2.5" fill="#50E3C2"/>
<circle cx="417.5" cy="314.5" r="2.5" fill="#50E3C2"/>
<circle cx="417.5" cy="357.5" r="2.5" fill="#50E3C2"/>
<circle cx="417.5" cy="400.5" r="2.5" fill="#50E3C2"/>
<circle cx="417.5" cy="443.5" r="2.5" fill="#50E3C2"/>
<circle cx="417.5" cy="486.5" r="2.5" fill="#50E3C2"/>
<circle cx="456.5" cy="314.5" r="2.5" fill="#50E3C2"/>
<circle cx="495.5" cy="314.5" r="2.5" fill="#50E3C2"/>
<circle cx="534.5" cy="314.5" r="2.5" fill="#50E3C2"/>
<circle cx="534.5" cy="357.5" r="2.5" fill="#50E3C2"/>
<rect x="137" y="234" width="8" height="39" rx="4" fill="#2C4584"/>
<rect x="156" y="223" width="8" height="50" rx="4" fill="#2C4584"/>
<rect x="175" y="210" width="8" height="63" rx="4" fill="#2C4584"/>
<rect x="194" y="245" width="8" height="28" rx="4" fill="#2C4584"/>
<rect x="213" y="217" width="8" height="56" rx="4" fill="#2C4584"/>
<rect x="232" y="245" width="8" height="28" rx="4" fill="#2C4584"/>
<rect x="251" y="228" width="8" height="45" rx="4" fill="#2C4584"/>
<path d="M197.985 210.445C198.328 210.445 198.672 210.445 199.015 210.445C201.534 210.671 203.252 212.254 203.252 214.516C203.252 215.307 203.939 215.986 204.74 215.986C205.542 215.986 206 215.307 206 214.516C206 211.011 204.282 208.297 199.702 207.731V205.47C199.702 204.678 199.359 204 198.557 204C197.756 204 197.412 204.678 197.412 205.47V207.731C193.977 208.41 191.115 211.463 191.115 215.081C191.115 218.813 193.748 221.187 197.985 221.413C198.328 221.413 198.557 221.413 199.13 221.413C201.076 221.526 203.252 222.205 203.252 224.919C203.252 227.293 201.42 229.329 199.015 229.555C198.672 229.555 198.328 229.555 197.985 229.555C195.466 229.329 193.748 227.746 193.748 225.484C193.748 224.693 193.061 224.014 192.26 224.014C191.458 224.014 191 224.693 191 225.484C191 228.989 193.863 231.703 197.298 232.269V234.53C197.298 235.322 197.641 236 198.443 236C199.244 236 199.588 235.322 199.588 234.53V232.269C203.023 231.59 205.885 228.537 205.885 224.919C205.885 221.187 203.252 218.813 199.015 218.587C198.672 218.587 198.443 218.587 197.87 218.587C195.924 218.473 193.748 217.795 193.748 215.081C193.748 212.707 195.58 210.671 197.985 210.445Z" fill="#50E6C5"/>
<g filter="url(#filter3_dd)">
<rect x="117" y="187" width="164" height="101" rx="2" stroke="#50E3C2" stroke-width="2"/>
</g>
<path d="M357.02 216.952L376.515 205.846C377.436 205.322 378.564 205.322 379.485 205.846L398.98 216.952C400.229 217.663 401 218.99 401 220.427V243.844C401 249.808 398.047 255.384 393.114 258.735L378 269L362.886 258.735C357.953 255.384 355 249.808 355 243.844V220.427C355 218.99 355.771 217.663 357.02 216.952Z" fill="#50E6C5"/>
<rect width="27" height="8" rx="4" transform="matrix(-1 0 0 1 448 234)" fill="#2C4584"/>
<rect x="484" y="253" width="50" height="8" rx="4" fill="#2C4584"/>
<rect x="421" y="253" width="59" height="8" rx="4" fill="#2C4584"/>
<rect x="454" y="234" width="80" height="8" rx="4" fill="#2C4584"/>
<rect x="421" y="215" width="113" height="8" rx="4" fill="#2C4584"/>
<path d="M382.883 235.024H374.938L382.055 224.508C382.386 224.058 382.221 223.457 381.724 223.156C381.228 222.856 380.566 223.006 380.234 223.457L372.124 235.474C371.959 235.775 371.959 236.225 372.124 236.526C372.29 236.826 372.621 236.976 373.117 236.976H381.062L373.945 247.492C373.614 247.942 373.779 248.543 374.276 248.844C374.772 249.144 375.434 248.994 375.766 248.543L383.876 236.526C384.041 236.225 384.041 235.775 383.876 235.474C383.71 235.174 383.379 235.024 382.883 235.024Z" fill="#2C4584" stroke="#2C4584" stroke-width="1.5" stroke-miterlimit="10"/>
<g filter="url(#filter4_dd)">
<rect x="334" y="187" width="228" height="101" rx="2" stroke="#50E3C2" stroke-width="2"/>
</g>
<path d="M57 149H617" stroke="#50E3C2" stroke-width="2"/>
<circle r="2.5" transform="matrix(1 0 0 -1 553.5 270.5)" fill="#50E6C5"/>
<circle r="2.5" transform="matrix(1 0 0 -1 553.5 260.5)" fill="#50E6C5"/>
<circle r="2.5" transform="matrix(1 0 0 -1 553.5 280.5)" fill="#50E6C5"/>
<circle r="2.5" transform="matrix(1 0 0 -1 542.5 280.5)" fill="#50E6C5"/>
<circle r="2.5" transform="matrix(1 0 0 -1 542.5 270.5)" fill="#50E6C5"/>
<circle r="2.5" transform="matrix(1 0 0 -1 531.5 280.5)" fill="#50E6C5"/>
<circle r="2.5" transform="matrix(1 0 0 -1 261.5 194.5)" fill="#50E6C5"/>
<circle r="2.5" transform="matrix(1 0 0 -1 271.5 194.5)" fill="#50E6C5"/>
<circle r="2.5" transform="matrix(1 0 0 -1 271.5 204.5)" fill="#50E6C5"/>
<circle r="2.5" transform="matrix(1 0 0 -1 271.5 214.5)" fill="#50E6C5"/>
<circle r="2.5" transform="matrix(1 0 0 -1 261.5 204.5)" fill="#50E6C5"/>
<path d="M171.972 370.999H152V347C152 344.791 153.791 343 156 343H246.929C249.138 343 250.929 344.791 250.929 347V370.999H229.099" stroke="#50E6C5" stroke-width="2"/>
<mask id="path-63-inside-1" fill="white">
<path d="M170.666 356.999H230.396V443.865C230.396 445.447 228.646 446.403 227.315 445.547L222.97 442.754C222.212 442.267 221.221 442.347 220.551 442.95L216.673 446.44C215.968 447.074 214.916 447.127 214.152 446.566L209.038 442.816C208.321 442.29 207.343 442.301 206.637 442.842L201.713 446.621C201.011 447.16 200.04 447.174 199.324 446.656L193.999 442.808C193.278 442.287 192.299 442.305 191.598 442.852L186.914 446.503C186.152 447.097 185.074 447.061 184.353 446.418L180.458 442.943C179.786 442.344 178.796 442.268 178.04 442.757L173.752 445.531C172.422 446.392 170.666 445.437 170.666 443.852V356.999Z"/>
</mask>
<path d="M170.666 356.999V354.999H168.666V356.999H170.666ZM230.396 356.999H232.396V354.999H230.396V356.999ZM222.97 442.754L221.889 444.437L222.97 442.754ZM220.551 442.95L219.213 441.464L220.551 442.95ZM209.038 442.816L207.855 444.429L209.038 442.816ZM206.637 442.842L205.42 441.256L205.42 441.256L206.637 442.842ZM214.152 446.566L215.335 444.954L214.152 446.566ZM216.673 446.44L215.335 444.954L216.673 446.44ZM180.458 442.943L179.126 444.436L180.458 442.943ZM178.04 442.757L176.953 441.078L178.04 442.757ZM193.999 442.808L195.17 441.187L193.999 442.808ZM191.598 442.852L190.368 441.274L191.598 442.852ZM186.914 446.503L188.144 448.08L186.914 446.503ZM184.353 446.418L183.022 447.91L184.353 446.418ZM199.324 446.656L200.495 445.035L199.324 446.656ZM201.713 446.621L200.495 445.035L201.713 446.621ZM173.752 445.531L172.666 443.852L173.752 445.531ZM227.315 445.547L226.233 447.23L227.315 445.547ZM170.666 358.999H230.396V354.999H170.666V358.999ZM228.396 356.999V443.865H232.396V356.999H228.396ZM172.666 443.852V356.999H168.666V443.852H172.666ZM200.495 445.035L195.17 441.187L192.827 444.429L198.152 448.277L200.495 445.035ZM190.368 441.274L185.685 444.925L188.144 448.08L192.827 444.429L190.368 441.274ZM185.685 444.925L181.789 441.451L179.126 444.436L183.022 447.91L185.685 444.925ZM176.953 441.078L172.666 443.852L174.839 447.21L179.126 444.436L176.953 441.078ZM215.335 444.954L210.22 441.203L207.855 444.429L212.969 448.179L215.335 444.954ZM205.42 441.256L200.495 445.035L202.93 448.208L207.855 444.429L205.42 441.256ZM228.396 443.865L224.052 441.072L221.889 444.437L226.233 447.23L228.396 443.865ZM219.213 441.464L215.335 444.954L218.011 447.927L221.889 444.437L219.213 441.464ZM224.052 441.072C222.535 440.097 220.553 440.257 219.213 441.464L221.889 444.437L221.889 444.437L224.052 441.072ZM210.22 441.203C208.786 440.152 206.83 440.173 205.42 441.256L207.855 444.429L207.855 444.429L210.22 441.203ZM212.969 448.179C214.497 449.3 216.602 449.194 218.011 447.927L215.335 444.954L215.335 444.954L212.969 448.179ZM181.789 441.451C180.445 440.252 178.465 440.099 176.953 441.078L179.126 444.436L179.126 444.436L181.789 441.451ZM195.17 441.187C193.728 440.145 191.771 440.181 190.368 441.274L192.827 444.429L192.827 444.429L195.17 441.187ZM185.685 444.925L185.685 444.925L183.022 447.91C184.464 449.197 186.62 449.268 188.144 448.08L185.685 444.925ZM198.152 448.277C199.585 449.312 201.528 449.284 202.93 448.208L200.495 445.035L200.495 445.035L198.152 448.277ZM168.666 443.852C168.666 447.022 172.177 448.932 174.839 447.21L172.666 443.852L172.666 443.852H168.666ZM228.396 443.865L228.396 443.865L226.233 447.23C228.895 448.941 232.396 447.03 232.396 443.865H228.396Z" fill="#50E6C5" mask="url(#path-63-inside-1)"/>
<path d="M162.591 358.258H238.188" stroke="#2C4584" stroke-width="6" stroke-linecap="round" stroke-linejoin="round"/>
<circle cx="200.531" cy="398.064" r="14.9326" fill="#50E6C5"/>
<path d="M195.865 398.464L199.629 402.73L206.131 395.264" stroke="#2C4584" stroke-width="2" stroke-linecap="round" stroke-linejoin="round"/>
<g filter="url(#filter5_dd)">
<path d="M118 318H278C279.105 318 280 318.895 280 320V470C280 471.105 279.105 472 278 472H167C138.833 472 116 449.167 116 421V320C116 318.895 116.895 318 118 318Z" stroke="#50E3C2" stroke-width="2"/>
</g>
<circle r="2.5" transform="matrix(1 0 0 -1 136.5 328.5)" fill="#50E6C5"/>
<circle r="2.5" transform="matrix(1 0 0 -1 136.5 340.5)" fill="#50E6C5"/>
<circle r="2.5" transform="matrix(1 0 0 -1 136.5 352.5)" fill="#50E6C5"/>
<circle r="2.5" transform="matrix(1 0 0 -1 268.5 461.5)" fill="#50E6C5"/>
<circle r="2.5" transform="matrix(1 0 0 -1 256.5 461.5)" fill="#50E6C5"/>
<circle r="2.5" transform="matrix(1 0 0 -1 256.5 450.5)" fill="#50E6C5"/>
<circle r="2.5" transform="matrix(1 0 0 -1 268.5 450.5)" fill="#50E6C5"/>
<circle r="2.5" transform="matrix(1 0 0 -1 268.5 439.5)" fill="#50E6C5"/>
<circle r="2.5" transform="matrix(1 0 0 -1 126.5 328.5)" fill="#50E6C5"/>
<circle r="2.5" transform="matrix(1 0 0 -1 126.5 340.5)" fill="#50E6C5"/>
<circle r="2.5" transform="matrix(1 0 0 -1 126.5 352.5)" fill="#50E6C5"/>
<circle cx="635.5" cy="22.5" r="2.5" fill="#50E3C2"/>
<circle cx="635.5" cy="65.5" r="2.5" fill="#50E3C2"/>
<circle cx="635.5" cy="108.5" r="2.5" fill="#50E3C2"/>
<circle cx="635.5" cy="151.5" r="2.5" fill="#50E3C2"/>
<circle cx="674.5" cy="22.5" r="2.5" fill="#50E3C2"/>
<circle cx="674.5" cy="65.5" r="2.5" fill="#50E3C2"/>
<circle cx="674.5" cy="108.5" r="2.5" fill="#50E3C2"/>
<circle cx="674.5" cy="151.5" r="2.5" fill="#50E3C2"/>
<circle cx="713.5" cy="22.5" r="2.5" fill="#50E3C2"/>
<circle cx="713.5" cy="65.5" r="2.5" fill="#50E3C2"/>
<circle cx="713.5" cy="108.5" r="2.5" fill="#50E3C2"/>
<circle cx="713.5" cy="151.5" r="2.5" fill="#50E3C2"/>
<circle cx="752.5" cy="22.5" r="2.5" fill="#50E3C2"/>
<circle cx="752.5" cy="65.5" r="2.5" fill="#50E3C2"/>
<circle cx="752.5" cy="108.5" r="2.5" fill="#50E3C2"/>
<circle cx="752.5" cy="151.5" r="2.5" fill="#50E3C2"/>
<circle cx="791.5" cy="22.5" r="2.5" fill="#50E3C2"/>
<circle cx="791.5" cy="65.5" r="2.5" fill="#50E3C2"/>
<circle cx="791.5" cy="108.5" r="2.5" fill="#50E3C2"/>
<circle cx="791.5" cy="151.5" r="2.5" fill="#50E3C2"/>
<g filter="url(#filter6_dd)">
<path d="M24 149H578V553C578 554.657 576.657 556 575 556H161C83.6801 556 21 493.32 21 416V152C21 150.343 22.3431 149 24 149Z" stroke="#50E3C2" stroke-width="2"/>
</g>
<path d="M57 107H617V516H167C106.249 516 57 466.751 57 406V107Z" fill="white"/>
<circle cx="85" cy="130" r="4" stroke="#50E6C5" stroke-width="2"/>
<circle cx="101" cy="130" r="4" stroke="#50E6C5" stroke-width="2"/>
<circle cx="117" cy="130" r="4" stroke="#50E6C5" stroke-width="2"/>
<path d="M440 512V453H499L440 512Z" fill="#2C4584"/>
<g filter="url(#filter7_dd)">
<path d="M555.586 395L500 450.586V395H555.586Z" stroke="#50E3C2" stroke-width="2"/>
</g>
<path d="M559 396.414L614.586 452H559V396.414Z" stroke="#50E6C5" stroke-width="2"/>
<circle cx="469.5" cy="365.5" r="29.5" fill="#50E6C5"/>
<circle cx="469.5" cy="423.5" r="7.5" fill="#2C4584"/>
<circle cx="537.5" cy="482.5" r="28.5" fill="#50E3C2" stroke="#50E3C2" stroke-width="2"/>
<rect x="558" y="335" width="59" height="59" fill="#2C4584"/>
<circle cx="339.5" cy="314.5" r="2.5" fill="#50E3C2"/>
<circle cx="339.5" cy="357.5" r="2.5" fill="#50E3C2"/>
<circle cx="339.5" cy="400.5" r="2.5" fill="#50E3C2"/>
<circle cx="339.5" cy="443.5" r="2.5" fill="#50E3C2"/>
<circle cx="339.5" cy="486.5" r="2.5" fill="#50E3C2"/>
<circle cx="378.5" cy="314.5" r="2.5" fill="#50E3C2"/>
<circle cx="378.5" cy="357.5" r="2.5" fill="#50E3C2"/>
<circle cx="378.5" cy="400.5" r="2.5" fill="#50E3C2"/>
<circle cx="378.5" cy="443.5" r="2.5" fill="#50E3C2"/>
<circle cx="378.5" cy="486.5" r="2.5" fill="#50E3C2"/>
<circle cx="417.5" cy="314.5" r="2.5" fill="#50E3C2"/>
<circle cx="417.5" cy="357.5" r="2.5" fill="#50E3C2"/>
<circle cx="417.5" cy="400.5" r="2.5" fill="#50E3C2"/>
<circle cx="417.5" cy="443.5" r="2.5" fill="#50E3C2"/>
<circle cx="417.5" cy="486.5" r="2.5" fill="#50E3C2"/>
<circle cx="456.5" cy="314.5" r="2.5" fill="#50E3C2"/>
<circle cx="495.5" cy="314.5" r="2.5" fill="#50E3C2"/>
<circle cx="534.5" cy="314.5" r="2.5" fill="#50E3C2"/>
<circle cx="534.5" cy="357.5" r="2.5" fill="#50E3C2"/>
<rect x="137" y="234" width="8" height="39" rx="4" fill="#2C4584"/>
<rect x="156" y="223" width="8" height="50" rx="4" fill="#2C4584"/>
<rect x="175" y="210" width="8" height="63" rx="4" fill="#2C4584"/>
<rect x="194" y="245" width="8" height="28" rx="4" fill="#2C4584"/>
<rect x="213" y="217" width="8" height="56" rx="4" fill="#2C4584"/>
<rect x="232" y="245" width="8" height="28" rx="4" fill="#2C4584"/>
<rect x="251" y="228" width="8" height="45" rx="4" fill="#2C4584"/>
<path d="M197.985 210.445C198.328 210.445 198.672 210.445 199.015 210.445C201.534 210.671 203.252 212.254 203.252 214.516C203.252 215.307 203.939 215.986 204.74 215.986C205.542 215.986 206 215.307 206 214.516C206 211.011 204.282 208.297 199.702 207.731V205.47C199.702 204.678 199.359 204 198.557 204C197.756 204 197.412 204.678 197.412 205.47V207.731C193.977 208.41 191.115 211.463 191.115 215.081C191.115 218.813 193.748 221.187 197.985 221.413C198.328 221.413 198.557 221.413 199.13 221.413C201.076 221.526 203.252 222.205 203.252 224.919C203.252 227.293 201.42 229.329 199.015 229.555C198.672 229.555 198.328 229.555 197.985 229.555C195.466 229.329 193.748 227.746 193.748 225.484C193.748 224.693 193.061 224.014 192.26 224.014C191.458 224.014 191 224.693 191 225.484C191 228.989 193.863 231.703 197.298 232.269V234.53C197.298 235.322 197.641 236 198.443 236C199.244 236 199.588 235.322 199.588 234.53V232.269C203.023 231.59 205.885 228.537 205.885 224.919C205.885 221.187 203.252 218.813 199.015 218.587C198.672 218.587 198.443 218.587 197.87 218.587C195.924 218.473 193.748 217.795 193.748 215.081C193.748 212.707 195.58 210.671 197.985 210.445Z" fill="#50E6C5"/>
<g filter="url(#filter8_dd)">
<rect x="117" y="187" width="164" height="101" rx="2" stroke="#50E3C2" stroke-width="2"/>
</g>
<path d="M357.02 216.952L376.515 205.846C377.436 205.322 378.564 205.322 379.485 205.846L398.98 216.952C400.229 217.663 401 218.99 401 220.427V243.844C401 249.808 398.047 255.384 393.114 258.735L378 269L362.886 258.735C357.953 255.384 355 249.808 355 243.844V220.427C355 218.99 355.771 217.663 357.02 216.952Z" fill="#50E6C5"/>
<rect width="27" height="8" rx="4" transform="matrix(-1 0 0 1 448 234)" fill="#2C4584"/>
<rect x="484" y="253" width="50" height="8" rx="4" fill="#2C4584"/>
<rect x="421" y="253" width="59" height="8" rx="4" fill="#2C4584"/>
<rect x="454" y="234" width="80" height="8" rx="4" fill="#2C4584"/>
<rect x="421" y="215" width="113" height="8" rx="4" fill="#2C4584"/>
<path d="M382.883 235.024H374.938L382.055 224.508C382.386 224.058 382.221 223.457 381.724 223.156C381.228 222.856 380.566 223.006 380.234 223.457L372.124 235.474C371.959 235.775 371.959 236.225 372.124 236.526C372.29 236.826 372.621 236.976 373.117 236.976H381.062L373.945 247.492C373.614 247.942 373.779 248.543 374.276 248.844C374.772 249.144 375.434 248.994 375.766 248.543L383.876 236.526C384.041 236.225 384.041 235.775 383.876 235.474C383.71 235.174 383.379 235.024 382.883 235.024Z" fill="#2C4584" stroke="#2C4584" stroke-width="1.5" stroke-miterlimit="10"/>
<g filter="url(#filter9_dd)">
<rect x="334" y="187" width="228" height="101" rx="2" stroke="#50E3C2" stroke-width="2"/>
</g>
<path d="M57 149H617" stroke="#50E3C2" stroke-width="2"/>
<circle r="2.5" transform="matrix(1 0 0 -1 553.5 270.5)" fill="#50E6C5"/>
<circle r="2.5" transform="matrix(1 0 0 -1 553.5 260.5)" fill="#50E6C5"/>
<circle r="2.5" transform="matrix(1 0 0 -1 553.5 280.5)" fill="#50E6C5"/>
<circle r="2.5" transform="matrix(1 0 0 -1 542.5 280.5)" fill="#50E6C5"/>
<circle r="2.5" transform="matrix(1 0 0 -1 542.5 270.5)" fill="#50E6C5"/>
<circle r="2.5" transform="matrix(1 0 0 -1 531.5 280.5)" fill="#50E6C5"/>
<circle r="2.5" transform="matrix(1 0 0 -1 261.5 194.5)" fill="#50E6C5"/>
<circle r="2.5" transform="matrix(1 0 0 -1 271.5 194.5)" fill="#50E6C5"/>
<circle r="2.5" transform="matrix(1 0 0 -1 271.5 204.5)" fill="#50E6C5"/>
<circle r="2.5" transform="matrix(1 0 0 -1 271.5 214.5)" fill="#50E6C5"/>
<circle r="2.5" transform="matrix(1 0 0 -1 261.5 204.5)" fill="#50E6C5"/>
<path d="M171.972 370.999H152V347C152 344.791 153.791 343 156 343H246.929C249.138 343 250.929 344.791 250.929 347V370.999H229.099" stroke="#50E6C5" stroke-width="2"/>
<mask id="path-161-inside-2" fill="white">
<path d="M170.666 356.999H230.396V443.865C230.396 445.447 228.646 446.403 227.315 445.547L222.97 442.754C222.212 442.267 221.221 442.347 220.551 442.95L216.673 446.44C215.968 447.074 214.916 447.127 214.152 446.566L209.038 442.816C208.321 442.29 207.343 442.301 206.637 442.842L201.713 446.621C201.011 447.16 200.04 447.174 199.324 446.656L193.999 442.808C193.278 442.287 192.299 442.305 191.598 442.852L186.914 446.503C186.152 447.097 185.074 447.061 184.353 446.418L180.458 442.943C179.786 442.344 178.796 442.268 178.04 442.757L173.752 445.531C172.422 446.392 170.666 445.437 170.666 443.852V356.999Z"/>
</mask>
<path d="M170.666 356.999V354.999H168.666V356.999H170.666ZM230.396 356.999H232.396V354.999H230.396V356.999ZM222.97 442.754L221.889 444.437L222.97 442.754ZM220.551 442.95L219.213 441.464L220.551 442.95ZM209.038 442.816L207.855 444.429L209.038 442.816ZM206.637 442.842L205.42 441.256L205.42 441.256L206.637 442.842ZM214.152 446.566L215.335 444.954L214.152 446.566ZM216.673 446.44L215.335 444.954L216.673 446.44ZM180.458 442.943L179.126 444.436L180.458 442.943ZM178.04 442.757L176.953 441.078L178.04 442.757ZM193.999 442.808L195.17 441.187L193.999 442.808ZM191.598 442.852L190.368 441.274L191.598 442.852ZM186.914 446.503L188.144 448.08L186.914 446.503ZM184.353 446.418L183.022 447.91L184.353 446.418ZM199.324 446.656L200.495 445.035L199.324 446.656ZM201.713 446.621L200.495 445.035L201.713 446.621ZM173.752 445.531L172.666 443.852L173.752 445.531ZM227.315 445.547L226.233 447.23L227.315 445.547ZM170.666 358.999H230.396V354.999H170.666V358.999ZM228.396 356.999V443.865H232.396V356.999H228.396ZM172.666 443.852V356.999H168.666V443.852H172.666ZM200.495 445.035L195.17 441.187L192.827 444.429L198.152 448.277L200.495 445.035ZM190.368 441.274L185.685 444.925L188.144 448.08L192.827 444.429L190.368 441.274ZM185.685 444.925L181.789 441.451L179.126 444.436L183.022 447.91L185.685 444.925ZM176.953 441.078L172.666 443.852L174.839 447.21L179.126 444.436L176.953 441.078ZM215.335 444.954L210.22 441.203L207.855 444.429L212.969 448.179L215.335 444.954ZM205.42 441.256L200.495 445.035L202.93 448.208L207.855 444.429L205.42 441.256ZM228.396 443.865L224.052 441.072L221.889 444.437L226.233 447.23L228.396 443.865ZM219.213 441.464L215.335 444.954L218.011 447.927L221.889 444.437L219.213 441.464ZM224.052 441.072C222.535 440.097 220.553 440.257 219.213 441.464L221.889 444.437L221.889 444.437L224.052 441.072ZM210.22 441.203C208.786 440.152 206.83 440.173 205.42 441.256L207.855 444.429L207.855 444.429L210.22 441.203ZM212.969 448.179C214.497 449.3 216.602 449.194 218.011 447.927L215.335 444.954L215.335 444.954L212.969 448.179ZM181.789 441.451C180.445 440.252 178.465 440.099 176.953 441.078L179.126 444.436L179.126 444.436L181.789 441.451ZM195.17 441.187C193.728 440.145 191.771 440.181 190.368 441.274L192.827 444.429L192.827 444.429L195.17 441.187ZM185.685 444.925L185.685 444.925L183.022 447.91C184.464 449.197 186.62 449.268 188.144 448.08L185.685 444.925ZM198.152 448.277C199.585 449.312 201.528 449.284 202.93 448.208L200.495 445.035L200.495 445.035L198.152 448.277ZM168.666 443.852C168.666 447.022 172.177 448.932 174.839 447.21L172.666 443.852L172.666 443.852H168.666ZM228.396 443.865L228.396 443.865L226.233 447.23C228.895 448.941 232.396 447.03 232.396 443.865H228.396Z" fill="#50E6C5" mask="url(#path-161-inside-2)"/>
<path d="M162.591 358.258H238.188" stroke="#2C4584" stroke-width="6" stroke-linecap="round" stroke-linejoin="round"/>
<circle cx="200.531" cy="398.064" r="14.9326" fill="#50E6C5"/>
<path d="M195.865 398.464L199.629 402.73L206.131 395.264" stroke="#2C4584" stroke-width="2" stroke-linecap="round" stroke-linejoin="round"/>
<g filter="url(#filter10_dd)">
<path d="M118 318H278C279.105 318 280 318.895 280 320V470C280 471.105 279.105 472 278 472H167C138.833 472 116 449.167 116 421V320C116 318.895 116.895 318 118 318Z" stroke="#50E3C2" stroke-width="2"/>
</g>
<circle r="2.5" transform="matrix(1 0 0 -1 136.5 328.5)" fill="#50E6C5"/>
<circle r="2.5" transform="matrix(1 0 0 -1 136.5 340.5)" fill="#50E6C5"/>
<circle r="2.5" transform="matrix(1 0 0 -1 136.5 352.5)" fill="#50E6C5"/>
<circle r="2.5" transform="matrix(1 0 0 -1 270.5 463.5)" fill="#50E6C5"/>
<circle r="2.5" transform="matrix(1 0 0 -1 258.5 463.5)" fill="#50E6C5"/>
<circle r="2.5" transform="matrix(1 0 0 -1 246.5 463.5)" fill="#50E6C5"/>
<circle r="2.5" transform="matrix(1 0 0 -1 258.5 452.5)" fill="#50E6C5"/>
<circle r="2.5" transform="matrix(1 0 0 -1 270.5 452.5)" fill="#50E6C5"/>
<circle r="2.5" transform="matrix(1 0 0 -1 270.5 441.5)" fill="#50E6C5"/>
<circle r="2.5" transform="matrix(1 0 0 -1 126.5 328.5)" fill="#50E6C5"/>
<circle r="2.5" transform="matrix(1 0 0 -1 126.5 340.5)" fill="#50E6C5"/>
<circle r="2.5" transform="matrix(1 0 0 -1 126.5 352.5)" fill="#50E6C5"/>
<circle cx="635.5" cy="22.5" r="2.5" fill="#50E3C2"/>
<circle cx="635.5" cy="65.5" r="2.5" fill="#50E3C2"/>
<circle cx="635.5" cy="108.5" r="2.5" fill="#50E3C2"/>
<circle cx="635.5" cy="151.5" r="2.5" fill="#50E3C2"/>
<circle cx="674.5" cy="22.5" r="2.5" fill="#50E3C2"/>
<circle cx="674.5" cy="65.5" r="2.5" fill="#50E3C2"/>
<circle cx="674.5" cy="108.5" r="2.5" fill="#50E3C2"/>
<circle cx="674.5" cy="151.5" r="2.5" fill="#50E3C2"/>
<circle cx="713.5" cy="22.5" r="2.5" fill="#50E3C2"/>
<circle cx="713.5" cy="65.5" r="2.5" fill="#50E3C2"/>
<circle cx="713.5" cy="108.5" r="2.5" fill="#50E3C2"/>
<circle cx="713.5" cy="151.5" r="2.5" fill="#50E3C2"/>
<circle cx="752.5" cy="22.5" r="2.5" fill="#50E3C2"/>
<circle cx="752.5" cy="65.5" r="2.5" fill="#50E3C2"/>
<circle cx="752.5" cy="108.5" r="2.5" fill="#50E3C2"/>
<circle cx="752.5" cy="151.5" r="2.5" fill="#50E3C2"/>
<circle cx="791.5" cy="22.5" r="2.5" fill="#50E3C2"/>
<circle cx="791.5" cy="65.5" r="2.5" fill="#50E3C2"/>
<circle cx="791.5" cy="108.5" r="2.5" fill="#50E3C2"/>
<circle cx="791.5" cy="151.5" r="2.5" fill="#50E3C2"/>
<defs>
<filter id="filter0_dd" x="29" y="95" width="620" height="453" filterUnits="userSpaceOnUse" color-interpolation-filters="sRGB">
<feFlood flood-opacity="0" result="BackgroundImageFix"/>
<feColorMatrix in="SourceAlpha" type="matrix" values="0 0 0 0 0 0 0 0 0 0 0 0 0 0 0 0 0 0 127 0"/>
<feOffset dx="12" dy="12"/>
<feGaussianBlur stdDeviation="10"/>
<feColorMatrix type="matrix" values="0 0 0 0 0.934375 0 0 0 0 0.940365 0 0 0 0 0.958333 0 0 0 0.2 0"/>
<feBlend mode="normal" in2="BackgroundImageFix" result="effect1_dropShadow"/>
<feColorMatrix in="SourceAlpha" type="matrix" values="0 0 0 0 0 0 0 0 0 0 0 0 0 0 0 0 0 0 127 0"/>
<feOffset dx="-8" dy="8"/>
<feGaussianBlur stdDeviation="10"/>
<feColorMatrix type="matrix" values="0 0 0 0 0.933333 0 0 0 0 0.941176 0 0 0 0 0.956863 0 0 0 1 0"/>
<feBlend mode="normal" in2="effect1_dropShadow" result="effect2_dropShadow"/>
<feBlend mode="normal" in="SourceGraphic" in2="effect2_dropShadow" result="shape"/>
</filter>
<filter id="filter1_dd" x="0" y="120" width="599" height="459" filterUnits="userSpaceOnUse" color-interpolation-filters="sRGB">
<feFlood flood-opacity="0" result="BackgroundImageFix"/>
<feColorMatrix in="SourceAlpha" type="matrix" values="0 0 0 0 0 0 0 0 0 0 0 0 0 0 0 0 0 0 127 0"/>
<feOffset dy="-8"/>
<feGaussianBlur stdDeviation="10"/>
<feColorMatrix type="matrix" values="0 0 0 0 0.934375 0 0 0 0 0.940365 0 0 0 0 0.958333 0 0 0 0.2 0"/>
<feBlend mode="normal" in2="BackgroundImageFix" result="effect1_dropShadow"/>
<feColorMatrix in="SourceAlpha" type="matrix" values="0 0 0 0 0 0 0 0 0 0 0 0 0 0 0 0 0 0 127 0"/>
<feOffset dy="2"/>
<feGaussianBlur stdDeviation="10"/>
<feColorMatrix type="matrix" values="0 0 0 0 0.12549 0 0 0 0 0.188235 0 0 0 0 0.376471 0 0 0 0.09 0"/>
<feBlend mode="normal" in2="effect1_dropShadow" result="effect2_dropShadow"/>
<feBlend mode="normal" in="SourceGraphic" in2="effect2_dropShadow" result="shape"/>
</filter>
<filter id="filter2_dd" x="479" y="366" width="99" height="109" filterUnits="userSpaceOnUse" color-interpolation-filters="sRGB">
<feFlood flood-opacity="0" result="BackgroundImageFix"/>
<feColorMatrix in="SourceAlpha" type="matrix" values="0 0 0 0 0 0 0 0 0 0 0 0 0 0 0 0 0 0 127 0"/>
<feOffset dy="-8"/>
<feGaussianBlur stdDeviation="10"/>
<feColorMatrix type="matrix" values="0 0 0 0 0.934375 0 0 0 0 0.940365 0 0 0 0 0.958333 0 0 0 0.2 0"/>
<feBlend mode="normal" in2="BackgroundImageFix" result="effect1_dropShadow"/>
<feColorMatrix in="SourceAlpha" type="matrix" values="0 0 0 0 0 0 0 0 0 0 0 0 0 0 0 0 0 0 127 0"/>
<feOffset dy="2"/>
<feGaussianBlur stdDeviation="10"/>
<feColorMatrix type="matrix" values="0 0 0 0 0.12549 0 0 0 0 0.188235 0 0 0 0 0.376471 0 0 0 0.09 0"/>
<feBlend mode="normal" in2="effect1_dropShadow" result="effect2_dropShadow"/>
<feBlend mode="normal" in="SourceGraphic" in2="effect2_dropShadow" result="shape"/>
</filter>
<filter id="filter3_dd" x="96" y="158" width="206" height="153" filterUnits="userSpaceOnUse" color-interpolation-filters="sRGB">
<feFlood flood-opacity="0" result="BackgroundImageFix"/>
<feColorMatrix in="SourceAlpha" type="matrix" values="0 0 0 0 0 0 0 0 0 0 0 0 0 0 0 0 0 0 127 0"/>
<feOffset dy="-8"/>
<feGaussianBlur stdDeviation="10"/>
<feColorMatrix type="matrix" values="0 0 0 0 0.934375 0 0 0 0 0.940365 0 0 0 0 0.958333 0 0 0 0.2 0"/>
<feBlend mode="normal" in2="BackgroundImageFix" result="effect1_dropShadow"/>
<feColorMatrix in="SourceAlpha" type="matrix" values="0 0 0 0 0 0 0 0 0 0 0 0 0 0 0 0 0 0 127 0"/>
<feOffset dy="2"/>
<feGaussianBlur stdDeviation="10"/>
<feColorMatrix type="matrix" values="0 0 0 0 0.12549 0 0 0 0 0.188235 0 0 0 0 0.376471 0 0 0 0.09 0"/>
<feBlend mode="normal" in2="effect1_dropShadow" result="effect2_dropShadow"/>
<feBlend mode="normal" in="SourceGraphic" in2="effect2_dropShadow" result="shape"/>
</filter>
<filter id="filter4_dd" x="313" y="158" width="270" height="153" filterUnits="userSpaceOnUse" color-interpolation-filters="sRGB">
<feFlood flood-opacity="0" result="BackgroundImageFix"/>
<feColorMatrix in="SourceAlpha" type="matrix" values="0 0 0 0 0 0 0 0 0 0 0 0 0 0 0 0 0 0 127 0"/>
<feOffset dy="-8"/>
<feGaussianBlur stdDeviation="10"/>
<feColorMatrix type="matrix" values="0 0 0 0 0.934375 0 0 0 0 0.940365 0 0 0 0 0.958333 0 0 0 0.2 0"/>
<feBlend mode="normal" in2="BackgroundImageFix" result="effect1_dropShadow"/>
<feColorMatrix in="SourceAlpha" type="matrix" values="0 0 0 0 0 0 0 0 0 0 0 0 0 0 0 0 0 0 127 0"/>
<feOffset dy="2"/>
<feGaussianBlur stdDeviation="10"/>
<feColorMatrix type="matrix" values="0 0 0 0 0.12549 0 0 0 0 0.188235 0 0 0 0 0.376471 0 0 0 0.09 0"/>
<feBlend mode="normal" in2="effect1_dropShadow" result="effect2_dropShadow"/>
<feBlend mode="normal" in="SourceGraphic" in2="effect2_dropShadow" result="shape"/>
</filter>
<filter id="filter5_dd" x="95" y="289" width="206" height="206" filterUnits="userSpaceOnUse" color-interpolation-filters="sRGB">
<feFlood flood-opacity="0" result="BackgroundImageFix"/>
<feColorMatrix in="SourceAlpha" type="matrix" values="0 0 0 0 0 0 0 0 0 0 0 0 0 0 0 0 0 0 127 0"/>
<feOffset dy="-8"/>
<feGaussianBlur stdDeviation="10"/>
<feColorMatrix type="matrix" values="0 0 0 0 0.934375 0 0 0 0 0.940365 0 0 0 0 0.958333 0 0 0 0.2 0"/>
<feBlend mode="normal" in2="BackgroundImageFix" result="effect1_dropShadow"/>
<feColorMatrix in="SourceAlpha" type="matrix" values="0 0 0 0 0 0 0 0 0 0 0 0 0 0 0 0 0 0 127 0"/>
<feOffset dy="2"/>
<feGaussianBlur stdDeviation="10"/>
<feColorMatrix type="matrix" values="0 0 0 0 0.12549 0 0 0 0 0.188235 0 0 0 0 0.376471 0 0 0 0.09 0"/>
<feBlend mode="normal" in2="effect1_dropShadow" result="effect2_dropShadow"/>
<feBlend mode="normal" in="SourceGraphic" in2="effect2_dropShadow" result="shape"/>
</filter>
<filter id="filter6_dd" x="0" y="120" width="599" height="459" filterUnits="userSpaceOnUse" color-interpolation-filters="sRGB">
<feFlood flood-opacity="0" result="BackgroundImageFix"/>
<feColorMatrix in="SourceAlpha" type="matrix" values="0 0 0 0 0 0 0 0 0 0 0 0 0 0 0 0 0 0 127 0"/>
<feOffset dy="-8"/>
<feGaussianBlur stdDeviation="10"/>
<feColorMatrix type="matrix" values="0 0 0 0 0.934375 0 0 0 0 0.940365 0 0 0 0 0.958333 0 0 0 0.2 0"/>
<feBlend mode="normal" in2="BackgroundImageFix" result="effect1_dropShadow"/>
<feColorMatrix in="SourceAlpha" type="matrix" values="0 0 0 0 0 0 0 0 0 0 0 0 0 0 0 0 0 0 127 0"/>
<feOffset dy="2"/>
<feGaussianBlur stdDeviation="10"/>
<feColorMatrix type="matrix" values="0 0 0 0 0.12549 0 0 0 0 0.188235 0 0 0 0 0.376471 0 0 0 0.09 0"/>
<feBlend mode="normal" in2="effect1_dropShadow" result="effect2_dropShadow"/>
<feBlend mode="normal" in="SourceGraphic" in2="effect2_dropShadow" result="shape"/>
</filter>
<filter id="filter7_dd" x="479" y="366" width="99" height="109" filterUnits="userSpaceOnUse" color-interpolation-filters="sRGB">
<feFlood flood-opacity="0" result="BackgroundImageFix"/>
<feColorMatrix in="SourceAlpha" type="matrix" values="0 0 0 0 0 0 0 0 0 0 0 0 0 0 0 0 0 0 127 0"/>
<feOffset dy="-8"/>
<feGaussianBlur stdDeviation="10"/>
<feColorMatrix type="matrix" values="0 0 0 0 0.934375 0 0 0 0 0.940365 0 0 0 0 0.958333 0 0 0 0.2 0"/>
<feBlend mode="normal" in2="BackgroundImageFix" result="effect1_dropShadow"/>
<feColorMatrix in="SourceAlpha" type="matrix" values="0 0 0 0 0 0 0 0 0 0 0 0 0 0 0 0 0 0 127 0"/>
<feOffset dy="2"/>
<feGaussianBlur stdDeviation="10"/>
<feColorMatrix type="matrix" values="0 0 0 0 0.12549 0 0 0 0 0.188235 0 0 0 0 0.376471 0 0 0 0.09 0"/>
<feBlend mode="normal" in2="effect1_dropShadow" result="effect2_dropShadow"/>
<feBlend mode="normal" in="SourceGraphic" in2="effect2_dropShadow" result="shape"/>
</filter>
<filter id="filter8_dd" x="96" y="158" width="206" height="153" filterUnits="userSpaceOnUse" color-interpolation-filters="sRGB">
<feFlood flood-opacity="0" result="BackgroundImageFix"/>
<feColorMatrix in="SourceAlpha" type="matrix" values="0 0 0 0 0 0 0 0 0 0 0 0 0 0 0 0 0 0 127 0"/>
<feOffset dy="-8"/>
<feGaussianBlur stdDeviation="10"/>
<feColorMatrix type="matrix" values="0 0 0 0 0.934375 0 0 0 0 0.940365 0 0 0 0 0.958333 0 0 0 0.2 0"/>
<feBlend mode="normal" in2="BackgroundImageFix" result="effect1_dropShadow"/>
<feColorMatrix in="SourceAlpha" type="matrix" values="0 0 0 0 0 0 0 0 0 0 0 0 0 0 0 0 0 0 127 0"/>
<feOffset dy="2"/>
<feGaussianBlur stdDeviation="10"/>
<feColorMatrix type="matrix" values="0 0 0 0 0.12549 0 0 0 0 0.188235 0 0 0 0 0.376471 0 0 0 0.09 0"/>
<feBlend mode="normal" in2="effect1_dropShadow" result="effect2_dropShadow"/>
<feBlend mode="normal" in="SourceGraphic" in2="effect2_dropShadow" result="shape"/>
</filter>
<filter id="filter9_dd" x="313" y="158" width="270" height="153" filterUnits="userSpaceOnUse" color-interpolation-filters="sRGB">
<feFlood flood-opacity="0" result="BackgroundImageFix"/>
<feColorMatrix in="SourceAlpha" type="matrix" values="0 0 0 0 0 0 0 0 0 0 0 0 0 0 0 0 0 0 127 0"/>
<feOffset dy="-8"/>
<feGaussianBlur stdDeviation="10"/>
<feColorMatrix type="matrix" values="0 0 0 0 0.934375 0 0 0 0 0.940365 0 0 0 0 0.958333 0 0 0 0.2 0"/>
<feBlend mode="normal" in2="BackgroundImageFix" result="effect1_dropShadow"/>
<feColorMatrix in="SourceAlpha" type="matrix" values="0 0 0 0 0 0 0 0 0 0 0 0 0 0 0 0 0 0 127 0"/>
<feOffset dy="2"/>
<feGaussianBlur stdDeviation="10"/>
<feColorMatrix type="matrix" values="0 0 0 0 0.12549 0 0 0 0 0.188235 0 0 0 0 0.376471 0 0 0 0.09 0"/>
<feBlend mode="normal" in2="effect1_dropShadow" result="effect2_dropShadow"/>
<feBlend mode="normal" in="SourceGraphic" in2="effect2_dropShadow" result="shape"/>
</filter>
<filter id="filter10_dd" x="95" y="289" width="206" height="206" filterUnits="userSpaceOnUse" color-interpolation-filters="sRGB">
<feFlood flood-opacity="0" result="BackgroundImageFix"/>
<feColorMatrix in="SourceAlpha" type="matrix" values="0 0 0 0 0 0 0 0 0 0 0 0 0 0 0 0 0 0 127 0"/>
<feOffset dy="-8"/>
<feGaussianBlur stdDeviation="10"/>
<feColorMatrix type="matrix" values="0 0 0 0 0.934375 0 0 0 0 0.940365 0 0 0 0 0.958333 0 0 0 0.2 0"/>
<feBlend mode="normal" in2="BackgroundImageFix" result="effect1_dropShadow"/>
<feColorMatrix in="SourceAlpha" type="matrix" values="0 0 0 0 0 0 0 0 0 0 0 0 0 0 0 0 0 0 127 0"/>
<feOffset dy="2"/>
<feGaussianBlur stdDeviation="10"/>
<feColorMatrix type="matrix" values="0 0 0 0 0.12549 0 0 0 0 0.188235 0 0 0 0 0.376471 0 0 0 0.09 0"/>
<feBlend mode="normal" in2="effect1_dropShadow" result="effect2_dropShadow"/>
<feBlend mode="normal" in="SourceGraphic" in2="effect2_dropShadow" result="shape"/>
</filter>
</defs>
</svg>
