<svg width="674" height="487" viewBox="0 0 674 487" fill="none" xmlns="http://www.w3.org/2000/svg">
<g filter="url(#filter0_dd)">
<path d="M24 56.5H578.5V461C578.5 462.933 576.933 464.5 575 464.5H161C83.404 464.5 20.5 401.596 20.5 324V60C20.5 58.067 22.067 56.5 24 56.5Z" stroke="#50E3C2"/>
</g>
<g filter="url(#filter1_dd)">
<path d="M57 12H616V421H167C106.249 421 57 371.751 57 311V12Z" fill="white"/>
</g>
<g clip-path="url(#clip0)">
<rect width="28" height="4" rx="2" transform="matrix(-1 0 0 1 238 189)" fill="#50E3C2"/>
<rect width="64" height="4" rx="2" transform="matrix(-1 0 0 1 305 189)" fill="#50E3C2"/>
<rect x="241" y="177" width="69" height="4" rx="2" fill="#50E3C2"/>
<rect x="241" y="165" width="71" height="4" rx="2" fill="#50E3C2"/>
<path d="M223.296 169.379H220.374L222.991 165.096C223.113 164.913 223.052 164.668 222.87 164.546C222.687 164.424 222.443 164.485 222.322 164.668L219.339 169.562C219.278 169.685 219.278 169.868 219.339 169.991C219.4 170.113 219.522 170.174 219.704 170.174H222.626L220.009 174.456C219.887 174.64 219.948 174.885 220.13 175.007C220.313 175.129 220.557 175.068 220.678 174.885L223.661 169.991C223.722 169.868 223.722 169.685 223.661 169.562C223.6 169.44 223.478 169.379 223.296 169.379Z" fill="#50E3C2" stroke="#50E3C2" stroke-miterlimit="10"/>
<path d="M231.087 160.242L221.287 157C221.226 157 221.104 157 221.043 157L211.304 160.242C211.122 160.242 211 160.426 211 160.609V167.706C211 172.661 213.435 177.249 217.574 180.002L220.983 182.266C221.104 182.327 221.287 182.327 221.409 182.266L224.817 180.002C228.896 177.311 231.391 172.661 231.391 167.706V160.609C231.391 160.426 231.27 160.242 231.087 160.242ZM224.391 179.391L221.226 181.532L218 179.391C214.165 176.76 211.791 172.416 211.791 167.706V160.915L221.165 157.856L230.539 160.915V167.706C230.539 172.416 228.226 176.76 224.391 179.391Z" fill="#50E3C2" stroke="#50E3C2" stroke-miterlimit="10"/>
<path d="M196 146.75H323.25V222.25H223C206.846 222.25 193.75 209.154 193.75 193V149C193.75 147.757 194.757 146.75 196 146.75Z" stroke="#ECEDF3" stroke-width="1.5"/>
<path d="M172.19 368.154C172.19 368.154 170.715 335.689 155.682 295.201C140.649 254.713 162.783 234.608 173.02 249.364C186.947 269.562 199.213 281.183 195.155 314.846C190.82 350.722 195.893 356.441 195.893 356.441L172.19 368.154Z" fill="#F0F3F7"/>
<path d="M179.292 374.333C179.292 374.333 178.554 328.496 137.236 324.253C95.9183 320.011 105.879 349.431 122.019 353.582C138.158 357.732 144.614 360.591 151.255 370.551C157.895 380.512 170.991 401.171 183.073 400.064C195.155 398.958 179.292 374.333 179.292 374.333Z" fill="#F0F3F7"/>
<path d="M127.275 407.535C99.1461 404.768 106.985 359.576 149.595 384.293C175.418 399.234 188.791 393.332 182.243 401.632C175.695 409.933 152.638 410.025 127.275 407.535Z" fill="#F0F3F7"/>
<path d="M124.14 389.089C124.14 389.089 141.848 399.788 160.201 398.773" stroke="white" stroke-miterlimit="10"/>
<path d="M131.333 334.398C131.333 334.398 163.152 343.344 170.069 375.993" stroke="white" stroke-miterlimit="10"/>
<path d="M164.074 250.655C164.535 255.175 172.467 272.421 179.845 292.158C185.471 307.007 183.903 342.145 183.903 342.145" stroke="white" stroke-miterlimit="10"/>
<path d="M546.449 386.599C546.449 386.599 529.018 376.638 531.509 362.989C533.999 349.431 519.15 357.086 521.179 323.423C523.208 289.76 496.278 293.541 496.554 263.844C496.831 238.85 496.831 229.166 512.325 223.448C522.286 219.759 544.236 229.812 546.634 274.727C547.187 285.794 564.803 285.886 549.401 324.161L564.71 346.111C564.71 346.111 578.452 333.568 580.297 323.976C582.049 314.385 584.078 266.888 613.13 253.422C627.61 246.69 656.385 243.001 664.869 249.641C690.785 269.839 653.987 286.44 645.133 297.323C636.925 307.468 639.046 322.685 630.284 330.709C613.499 346.111 627.886 362.804 601.509 361.513C589.981 360.96 565.725 388.905 556.502 385.123C547.464 381.527 546.449 386.599 546.449 386.599Z" fill="#F0F3F7"/>
<path d="M172.744 420.908H521.179C521.179 420.908 560.468 341.5 461.231 332.185C362.087 322.87 380.624 275.465 291.809 270.946C202.994 266.334 160.385 339.655 172.744 420.908Z" fill="#95F9DF"/>
<path d="M455.974 420.908C444.169 400.341 441.126 371.289 477.832 357.363C514.631 343.436 511.311 299.813 570.521 305.623C629.731 311.433 600.587 403.661 591.733 420.908H455.974V420.908Z" fill="#2C4584"/>
<path d="M437.805 237.559H372.97C371.955 237.559 371.125 236.729 371.125 235.715C371.125 234.7 371.955 233.87 372.97 233.87H437.805V237.559Z" fill="#2B3E70"/>
<path d="M455.698 185.358V233.87H468.056L477.648 187.018C477.832 186.188 477.187 185.358 476.264 185.358H455.698Z" fill="#203060"/>
<path d="M466.211 237.559H437.805V233.87H468.148V235.715C468.148 236.729 467.318 237.559 466.211 237.559Z" fill="#2B3E70"/>
<path d="M406.54 185.358H475.157L465.197 233.87H394.827L404.419 187.111C404.603 186.096 405.434 185.358 406.54 185.358Z" fill="#203060"/>
<path d="M473.682 187.479C474.604 187.479 475.25 188.31 475.065 189.14L466.212 230.734C466.119 231.38 465.474 231.841 464.828 231.841H399.07C398.148 231.841 397.502 231.011 397.687 230.181L406.54 188.586C406.633 187.941 407.278 187.479 407.924 187.479" fill="#CFE4F9"/>
<path d="M373.892 243.646L365.13 419.986" stroke="#01004C" stroke-width="2.2654" stroke-miterlimit="10" stroke-linecap="round" stroke-linejoin="round"/>
<path d="M480.599 243.646L489.36 419.986" stroke="#01004C" stroke-width="2.2654" stroke-miterlimit="10" stroke-linecap="round" stroke-linejoin="round"/>
<path d="M370.94 302.303H483.642" stroke="#01004C" stroke-width="2.2654" stroke-miterlimit="10" stroke-linecap="round" stroke-linejoin="round"/>
<path d="M408.662 243.646L406.725 419.986" stroke="#01004C" stroke-width="1.1327" stroke-miterlimit="10" stroke-linecap="round" stroke-linejoin="round"/>
<path d="M480.784 246.229H373.523V251.024H480.784V246.229Z" fill="#01004C"/>
<path d="M488.623 247.243H365.868C363.193 247.243 360.98 245.03 360.98 242.355C360.98 239.68 363.193 237.467 365.868 237.467H488.623C491.297 237.467 493.511 239.68 493.511 242.355C493.511 245.122 491.297 247.243 488.623 247.243Z" fill="#F8826A"/>
<path d="M214.431 110.654H180.768C179.015 110.654 177.54 109.178 177.54 107.426V86.2135H214.431V110.654Z" fill="#ECEDF3"/>
<path d="M179.753 84C178.554 84 177.54 85.0145 177.54 86.2135C177.54 87.4124 178.554 88.4269 179.753 88.4269H214.431V84H179.753Z" fill="#E4E4EA"/>
<path opacity="0.5" d="M180.214 86.2135H214.431" stroke="#A9B1C4" stroke-width="0.8495" stroke-miterlimit="10"/>
<path opacity="0.31" d="M195.985 107.518V106.227C193.864 106.135 192.757 104.843 192.665 102.353L194.694 101.892C194.694 103.552 195.247 104.382 196.169 104.382C196.538 104.382 196.815 104.29 196.907 104.106C197.092 103.921 197.184 103.644 197.184 103.276C197.184 102.999 197.184 102.722 197.092 102.538C196.999 102.353 196.907 102.077 196.815 101.892C196.723 101.708 196.538 101.523 196.446 101.431C196.354 101.339 196.077 101.154 195.893 100.878L194.233 99.402C193.772 98.9409 193.403 98.572 193.126 98.1108C192.849 97.6497 192.757 97.0963 192.757 96.3585C192.757 95.4362 193.034 94.6984 193.587 94.145C194.14 93.5917 194.878 93.315 195.801 93.2228V92.116H196.446V93.315C196.907 93.315 197.368 93.4995 197.737 93.6839C198.106 93.8684 198.383 94.145 198.567 94.4217C198.752 94.7906 198.936 95.0673 199.028 95.4362C199.121 95.8051 199.213 96.2663 199.213 96.7274L197.276 97.0963C197.276 96.8196 197.276 96.6352 197.184 96.4507C197.184 96.2663 197.092 96.0818 197.092 95.8974C196.999 95.7129 196.999 95.5285 196.907 95.4362C196.815 95.344 196.723 95.2518 196.538 95.1595C196.354 95.0673 196.169 95.0673 195.985 95.0673C195.616 95.0673 195.339 95.1595 195.247 95.4362C195.063 95.6207 194.97 95.8974 194.97 96.2663C194.97 96.6352 195.063 97.0041 195.247 97.2808C195.432 97.5575 195.616 97.8342 195.985 98.1108L197.645 99.5865C197.922 99.8632 198.198 100.048 198.383 100.324C198.567 100.601 198.752 100.785 198.936 101.154C199.121 101.431 199.305 101.8 199.397 102.169C199.49 102.538 199.582 102.907 199.582 103.276C199.582 104.106 199.305 104.843 198.844 105.397C198.383 105.95 197.645 106.319 196.815 106.411V107.703H195.985V107.518Z" fill="#A9B1C4"/>
<path d="M313.022 265.965C326.487 306.73 325.934 366.401 321.783 391.21L331.652 393.977C331.652 393.977 356.276 326.836 346.869 276.11L313.022 265.965Z" fill="#33337C"/>
<path d="M331.652 393.977L341.889 407.074C342.627 408.088 341.705 409.379 340.506 409.01L319.017 401.632C318.371 401.448 318.002 400.618 318.279 399.972L321.876 391.118L331.652 393.977Z" fill="white"/>
<path d="M283.786 272.237H334.603L334.88 277.678H283.509L283.786 272.237Z" fill="#01004C"/>
<path d="M283.786 270.853L276.684 419.986" stroke="#01004C" stroke-width="2.2654" stroke-miterlimit="10" stroke-linecap="round" stroke-linejoin="round"/>
<path d="M334.511 270.853L341.704 419.986" stroke="#01004C" stroke-width="2.2654" stroke-miterlimit="10" stroke-linecap="round" stroke-linejoin="round"/>
<path d="M338.753 358.746H279.635" stroke="#01004C" stroke-width="2.2654" stroke-miterlimit="10" stroke-linecap="round" stroke-linejoin="round"/>
<path d="M340.321 273.989H277.975C275.67 273.989 273.825 272.145 273.825 269.839V268.455C273.825 266.15 275.67 264.305 277.975 264.305H340.321C342.627 264.305 344.471 266.15 344.471 268.455V269.839C344.471 272.145 342.627 273.989 340.321 273.989Z" fill="#F8826A"/>
<path d="M326.948 171.524C316.434 148.375 310.9 107.703 343.549 103.921C343.549 103.921 353.51 96.0818 365.038 106.78C376.659 117.571 361.164 144.225 362.825 164.238C364.485 184.252 386.343 202.697 372.324 220.22C358.305 237.744 340.044 233.224 333.22 207.585C326.395 181.946 326.948 171.524 326.948 171.524Z" fill="#01004C"/>
<path d="M330.637 348.14L338.108 355.149C338.108 355.149 370.756 340.67 375.921 308.021C381.086 275.372 358.398 249.918 343.088 238.205L290.795 236.729C290.795 236.729 284.431 259.694 307.949 268.179C331.467 276.664 344.564 269.839 351.757 294.648C358.951 319.457 330.637 348.14 330.637 348.14Z" fill="#282766"/>
<path d="M338.108 355.242L341.243 372.488C341.428 373.411 340.229 374.056 339.583 373.318L324.735 357.64C323.443 356.348 323.628 354.227 325.011 353.028L330.729 348.232L338.108 355.242Z" fill="white"/>
<path d="M326.948 143.579L335.341 147.545L339.122 139.337C339.122 139.337 351.112 148.098 357.014 135.74C357.014 135.74 358.951 136.478 360.703 135.74C360.703 135.74 359.32 128.638 361.81 122.182C361.81 122.182 357.014 113.328 351.757 118.216C348.437 121.352 345.117 123.197 343.826 121.906C342.627 120.614 345.947 117.386 343.457 114.712C341.243 112.406 337.277 112.683 335.525 115.357C331.467 121.537 336.54 124.488 336.54 124.488L326.948 143.579Z" fill="#FFADB7"/>
<path opacity="0.51" d="M354.709 133.065C354.709 129.929 352.218 127.439 349.083 127.439C345.947 127.439 343.457 129.929 343.457 133.065C343.457 136.201 345.947 138.691 349.083 138.691C352.126 138.691 354.709 136.201 354.709 133.065Z" fill="url(#paint0_radial)"/>
<path d="M352.864 123.935C352.864 123.935 355.17 123.842 356.553 126.24" stroke="#EF8998" stroke-width="0.5663" stroke-miterlimit="10" stroke-linecap="round"/>
<path d="M336.171 118.032C336.355 117.571 336.632 117.018 337.001 116.464C337.554 115.634 338.569 115.081 339.675 115.081C340.505 115.081 341.151 115.357 341.704 115.819" stroke="#EF8998" stroke-width="0.5663" stroke-miterlimit="10" stroke-linecap="round"/>
<path d="M338.568 115.265C338.568 115.265 338.476 116.833 339.306 117.94" stroke="#EF8998" stroke-width="0.5663" stroke-miterlimit="10" stroke-linecap="round"/>
<path opacity="0.75" d="M337.739 142.196L339.03 139.337C337.277 138.322 335.433 136.846 335.433 136.846C335.433 136.846 334.787 140.259 337.739 142.196Z" fill="url(#paint1_linear)"/>
<path d="M349.083 243.277C331.283 254.345 318.832 260.985 285.077 253.791C285.077 253.791 290.887 221.511 295.867 191.169C300.848 160.826 311.823 141.827 328.331 143.026C344.84 144.225 350.005 179.64 347.33 202.697C344.656 225.846 349.175 242.355 349.175 242.355" fill="#F0F9FF"/>
<path opacity="0.5" d="M333.312 156.491C333.957 157.874 322.337 171.34 322.337 171.34C322.244 187.941 328.147 218.56 346.5 223.079C346.223 217.269 346.316 210.444 347.238 202.789C348.714 190.062 347.791 173.553 343.918 161.195C337.554 158.059 333.127 156.03 333.312 156.491Z" fill="#F0F9FF"/>
<path d="M395.842 226.584C395.842 226.584 386.158 222.618 370.664 210.352C362.824 204.173 357.291 192.644 352.403 180.747L330.36 191.906C348.621 220.497 391.415 233.87 391.415 233.87H413.181C411.889 225.016 395.842 226.584 395.842 226.584Z" fill="#FFADB7"/>
<path d="M338.292 149.389C338.292 149.389 311.362 152.986 326.856 185.819C327.87 187.941 328.977 189.97 330.268 191.906C340.506 189.047 347.607 184.713 352.218 180.747C347.515 168.942 343.365 156.952 338.292 149.389Z" fill="#F0F9FF"/>
<path d="M334.511 148.006C334.511 148.006 315.42 151.603 327.317 186.188" stroke="#203060" stroke-width="0.5" stroke-miterlimit="10"/>
<path d="M334.511 251.486C334.511 251.486 403.128 295.294 334.511 351.829" stroke="white" stroke-width="0.5" stroke-miterlimit="10"/>
<path d="M436.383 122.044H440.165C440.903 122.044 441.548 121.398 441.548 120.568C441.548 119.738 440.903 119.092 440.165 119.092H436.383C435.646 119.092 435 119.738 435 120.568C435.092 121.306 435.646 122.044 436.383 122.044Z" fill="#50E3C2"/>
<path d="M456.305 119H445.329C444.592 119 443.946 119.646 443.946 120.476C443.946 121.306 444.592 121.951 445.329 121.951H456.305C457.042 121.951 457.688 121.306 457.688 120.476C457.688 119.646 457.042 119 456.305 119Z" fill="#50E3C2"/>
<path d="M436.383 129.514H447.358C448.096 129.514 448.742 128.868 448.742 128.038C448.742 127.208 448.189 126.563 447.358 126.563H436.383C435.646 126.563 435 127.208 435 128.038C435.092 128.776 435.646 129.514 436.383 129.514Z" fill="#50E3C2"/>
<path d="M440.257 133.48H436.476C435.738 133.48 435.092 134.125 435.092 134.955C435.092 135.785 435.738 136.431 436.476 136.431H440.257C440.995 136.431 441.64 135.785 441.64 134.955C441.548 134.125 440.995 133.48 440.257 133.48Z" fill="#50E3C2"/>
<path d="M456.305 133.48H445.329C444.592 133.48 443.946 134.125 443.946 134.955C443.946 135.785 444.592 136.431 445.329 136.431H456.305C457.042 136.431 457.688 135.785 457.688 134.955C457.688 134.125 457.042 133.48 456.305 133.48Z" fill="#50E3C2"/>
<path d="M456.305 126.47H452.523C451.785 126.47 451.14 127.116 451.14 127.946C451.14 128.776 451.785 129.422 452.523 129.422H456.305C457.042 129.422 457.688 128.776 457.688 127.946C457.688 127.208 457.042 126.47 456.305 126.47Z" fill="#50E3C2"/>
<path d="M436.383 143.533H440.165C440.903 143.533 441.548 142.887 441.548 142.057C441.548 141.227 440.903 140.581 440.165 140.581H436.383C435.646 140.581 435 141.227 435 142.057C435 142.887 435.646 143.533 436.383 143.533Z" fill="#50E3C2"/>
<path d="M456.305 140.489H445.329C444.592 140.489 443.946 141.135 443.946 141.965C443.946 142.795 444.592 143.44 445.329 143.44H456.305C457.042 143.44 457.688 142.795 457.688 141.965C457.688 141.135 457.042 140.489 456.305 140.489Z" fill="#50E3C2"/>
<path d="M476.725 105.674H462.338C461.969 105.674 461.6 105.397 461.6 104.936V92.7616C461.6 92.5772 462.615 86.3057 469.532 86.3057C473.866 86.3057 477.463 89.9026 477.463 94.2373V104.936C477.371 105.305 477.094 105.674 476.725 105.674ZM462.984 104.198H475.988V94.2373C475.988 90.6404 473.036 87.7813 469.532 87.7813C463.906 87.7813 463.076 92.6694 463.076 92.8539L462.984 104.198Z" fill="#ECEDF3"/>
<path d="M455.052 168.481V167.005C458.649 167.005 461.508 164.054 461.508 160.549V94.2373C461.508 91.5627 462.891 89.1647 464.92 87.7813H436.791C433.194 87.7813 430.335 90.7326 430.335 94.2373V153.724H428.859V94.2373C428.859 89.9026 432.364 86.3057 436.791 86.3057H469.439C469.808 86.3057 470.177 86.5824 470.177 87.0435C470.177 87.5047 469.901 87.7813 469.439 87.7813C465.843 87.7813 462.984 90.7326 462.984 94.2373V161.471C462.984 161.656 462.891 161.748 462.891 161.84C462.246 165.622 459.018 168.481 455.052 168.481Z" fill="#ECEDF3"/>
<path d="M455.052 168.481H429.597C425.262 168.481 421.666 164.976 421.666 160.549V153.724C421.666 153.355 421.942 152.986 422.403 152.986H447.858C448.227 152.986 448.596 153.263 448.596 153.724V160.549C448.596 164.146 451.547 167.005 455.052 167.005C455.421 167.005 455.79 167.282 455.79 167.743C455.79 168.112 455.513 168.481 455.052 168.481ZM423.141 154.462V160.549C423.141 164.146 426.092 167.005 429.597 167.005H450.533C448.504 165.529 447.12 163.224 447.12 160.549V154.462H423.141Z" fill="#ECEDF3"/>
<path d="M658.598 257.757C658.875 257.388 646.055 257.757 630.1 271.407C620.508 279.615 609.81 292.619 600.126 313.278" stroke="white" stroke-miterlimit="10"/>
<path d="M515.83 237.19C515.83 243.923 520.81 270.208 528.557 277.494C536.304 284.78 538.979 301.104 538.979 301.104" stroke="white" stroke-miterlimit="10"/>
<path d="M565.96 164H534.373C532.533 164 531 162.467 531 160.627V144.373C531 142.533 532.533 141 534.373 141H565.96C567.8 141 569.333 142.533 569.333 144.373V160.55C569.333 162.467 567.877 164 565.96 164Z" fill="#ECEDF3"/>
<path opacity="0.31" d="M569.333 146.367H531V148.973H569.333V146.367Z" fill="#A9B1C4"/>
<path opacity="0.3" d="M549.477 154.417H535.753C535.37 154.417 535.063 154.11 535.063 153.727C535.063 153.343 535.37 153.037 535.753 153.037H549.477C549.86 153.037 550.167 153.343 550.167 153.727C550.167 154.033 549.86 154.417 549.477 154.417Z" fill="#A9B1C4"/>
<path opacity="0.3" d="M543.497 157.943H535.753C535.37 157.943 535.063 157.637 535.063 157.253C535.063 156.87 535.37 156.563 535.753 156.563H543.497C543.88 156.563 544.187 156.87 544.187 157.253C544.187 157.637 543.88 157.943 543.497 157.943Z" fill="#A9B1C4"/>
<path d="M446 113C450.418 113 454 109.418 454 105C454 100.582 450.418 97 446 97C441.582 97 438 100.582 438 105C438 109.418 441.582 113 446 113Z" stroke="#50E3C2" stroke-width="1.5" stroke-miterlimit="10"/>
<path d="M442 105.5L444.059 108L449 103" stroke="#50E3C2" stroke-width="1.5" stroke-linecap="round" stroke-linejoin="round"/>
<rect x="210" y="201" width="64" height="4" rx="2" fill="#50E3C2"/>
</g>
<path d="M57 44H616" stroke="#E5E8F1" stroke-opacity="0.5"/>
<circle cx="79" cy="28" r="3.5" stroke="#E5E8F1"/>
<circle cx="93" cy="28" r="3.5" stroke="#E5E8F1"/>
<circle cx="107" cy="28" r="3.5" stroke="#E5E8F1"/>
<defs>
<filter id="filter0_dd" x="0" y="28" width="599" height="459" filterUnits="userSpaceOnUse" color-interpolation-filters="sRGB">
<feFlood flood-opacity="0" result="BackgroundImageFix"/>
<feColorMatrix in="SourceAlpha" type="matrix" values="0 0 0 0 0 0 0 0 0 0 0 0 0 0 0 0 0 0 127 0"/>
<feOffset dy="-8"/>
<feGaussianBlur stdDeviation="10"/>
<feColorMatrix type="matrix" values="0 0 0 0 0.934375 0 0 0 0 0.940365 0 0 0 0 0.958333 0 0 0 0.2 0"/>
<feBlend mode="normal" in2="BackgroundImageFix" result="effect1_dropShadow"/>
<feColorMatrix in="SourceAlpha" type="matrix" values="0 0 0 0 0 0 0 0 0 0 0 0 0 0 0 0 0 0 127 0"/>
<feOffset dy="2"/>
<feGaussianBlur stdDeviation="10"/>
<feColorMatrix type="matrix" values="0 0 0 0 0.12549 0 0 0 0 0.188235 0 0 0 0 0.376471 0 0 0 0.09 0"/>
<feBlend mode="normal" in2="effect1_dropShadow" result="effect2_dropShadow"/>
<feBlend mode="normal" in="SourceGraphic" in2="effect2_dropShadow" result="shape"/>
</filter>
<filter id="filter1_dd" x="29" y="0" width="619" height="453" filterUnits="userSpaceOnUse" color-interpolation-filters="sRGB">
<feFlood flood-opacity="0" result="BackgroundImageFix"/>
<feColorMatrix in="SourceAlpha" type="matrix" values="0 0 0 0 0 0 0 0 0 0 0 0 0 0 0 0 0 0 127 0"/>
<feOffset dx="12" dy="12"/>
<feGaussianBlur stdDeviation="10"/>
<feColorMatrix type="matrix" values="0 0 0 0 0.934375 0 0 0 0 0.940365 0 0 0 0 0.958333 0 0 0 0.2 0"/>
<feBlend mode="normal" in2="BackgroundImageFix" result="effect1_dropShadow"/>
<feColorMatrix in="SourceAlpha" type="matrix" values="0 0 0 0 0 0 0 0 0 0 0 0 0 0 0 0 0 0 127 0"/>
<feOffset dx="-8" dy="8"/>
<feGaussianBlur stdDeviation="10"/>
<feColorMatrix type="matrix" values="0 0 0 0 0.933333 0 0 0 0 0.941176 0 0 0 0 0.956863 0 0 0 1 0"/>
<feBlend mode="normal" in2="effect1_dropShadow" result="effect2_dropShadow"/>
<feBlend mode="normal" in="SourceGraphic" in2="effect2_dropShadow" result="shape"/>
</filter>
<radialGradient id="paint0_radial" cx="0" cy="0" r="1" gradientUnits="userSpaceOnUse" gradientTransform="translate(349.037 133.049) scale(5.65639)">
<stop stop-color="#F98777"/>
<stop offset="1" stop-color="#FD482F" stop-opacity="0"/>
</radialGradient>
<linearGradient id="paint1_linear" x1="335.845" y1="139.926" x2="338.732" y2="138.58" gradientUnits="userSpaceOnUse">
<stop offset="0.2087" stop-opacity="0"/>
<stop offset="1"/>
</linearGradient>
<clipPath id="clip0">
<rect width="566" height="337" fill="white" transform="translate(108 84)"/>
</clipPath>
</defs>
</svg>
