<svg width="669" height="487" viewBox="0 0 669 487" fill="none" xmlns="http://www.w3.org/2000/svg">
<g filter="url(#filter0_dd)">
<path d="M24 56.5H578.5V461C578.5 462.933 576.933 464.5 575 464.5H161C83.404 464.5 20.5 401.596 20.5 324V60C20.5 58.067 22.067 56.5 24 56.5Z" stroke="#50E3C2"/>
</g>
<g filter="url(#filter1_dd)">
<path d="M57 12H616V421H167C106.249 421 57 371.751 57 311V12Z" fill="white"/>
</g>
<g clip-path="url(#clip0)">
<path d="M174.283 368.867C174.283 368.867 172.828 336.842 158.008 296.901C143.187 256.96 165.009 237.126 175.101 251.683C188.831 271.608 200.924 283.072 196.923 316.28C192.65 351.672 197.651 357.313 197.651 357.313L174.283 368.867Z" fill="#F0F3F7"/>
<path d="M181.284 374.963C181.284 374.963 180.557 329.745 139.823 325.56C99.0891 321.375 108.909 350.398 124.821 354.492C140.823 358.586 147.097 361.407 153.643 371.233C160.19 381.059 173.101 401.439 185.012 400.347C196.923 399.255 181.284 374.963 181.284 374.963Z" fill="#F0F3F7"/>
<path d="M130.003 407.717C102.271 404.987 110 360.406 152.007 384.789C177.465 399.528 190.649 393.705 184.194 401.894C177.738 410.082 155.007 410.173 130.003 407.717Z" fill="#F0F3F7"/>
<path d="M126.912 389.52C126.912 389.52 144.369 400.074 162.463 399.073" stroke="white" stroke-miterlimit="10"/>
<path d="M134.004 335.568C134.004 335.568 165.372 344.393 172.192 376.601" stroke="white" stroke-miterlimit="10"/>
<path d="M166.282 252.957C166.736 257.415 174.556 274.428 181.83 293.898C187.376 308.546 185.83 343.211 185.83 343.211" stroke="white" stroke-miterlimit="10"/>
<path d="M317.852 198.731H222.745C215.744 198.731 210.107 193.09 210.107 186.085V148.327C210.107 141.322 215.744 135.681 222.745 135.681H317.852C324.853 135.681 330.49 141.322 330.49 148.327V186.085C330.49 192.999 324.853 198.731 317.852 198.731Z" stroke="#ECEDF3" stroke-width="1.5" stroke-miterlimit="10" stroke-linecap="round" stroke-linejoin="round"/>
<path d="M262.206 154.15H229.019C228.019 154.15 227.201 153.331 227.201 152.331C227.201 151.33 228.019 150.511 229.019 150.511H262.206C263.207 150.511 264.025 151.33 264.025 152.331C264.025 153.331 263.207 154.15 262.206 154.15Z" fill="#50E3C2"/>
<path d="M287.574 154.15H271.39C270.39 154.15 269.571 153.331 269.571 152.331C269.571 151.33 270.39 150.511 271.39 150.511H287.574C288.574 150.511 289.393 151.33 289.393 152.331C289.393 153.331 288.574 154.15 287.574 154.15Z" fill="#50E3C2"/>
<path d="M303.031 167.798H229.019C228.019 167.798 227.201 166.979 227.201 165.978C227.201 164.977 228.019 164.158 229.019 164.158H303.031C304.031 164.158 304.85 164.977 304.85 165.978C304.85 166.979 304.031 167.798 303.031 167.798Z" fill="#50E3C2"/>
<path d="M342.401 181.536H283.937C282.937 181.536 282.119 180.717 282.119 179.716C282.119 178.715 282.937 177.896 283.937 177.896H342.401C343.402 177.896 344.22 178.715 344.22 179.716C344.22 180.626 343.402 181.536 342.401 181.536Z" fill="#50E3C2"/>
<path d="M275.663 181.536H229.019C228.019 181.536 227.201 180.717 227.201 179.716C227.201 178.715 228.019 177.896 229.019 177.896H275.663C276.663 177.896 277.482 178.715 277.482 179.716C277.482 180.626 276.663 181.536 275.663 181.536Z" fill="#50E3C2"/>
<path d="M543.252 387.064C543.252 387.064 526.068 377.238 528.523 363.772C530.978 350.398 516.339 357.95 518.339 324.741C520.339 291.533 493.79 295.263 494.062 265.967C494.335 241.311 494.335 231.758 509.61 226.117C519.43 222.478 541.07 232.395 543.434 276.703C543.98 287.621 561.346 287.712 546.162 325.469L561.255 347.123C561.255 347.123 574.803 334.749 576.621 325.287C578.44 315.825 580.349 268.969 608.99 255.686C623.265 249.044 651.633 245.405 659.998 251.956C685.548 271.881 649.269 288.257 640.541 298.993C632.449 309.001 634.54 324.013 625.902 331.929C609.354 347.123 623.538 363.59 597.534 362.317C586.168 361.771 562.255 389.338 553.163 385.608C544.252 382.151 543.252 387.064 543.252 387.064Z" fill="#F0F3F7"/>
<path d="M174.829 420.909H518.339C518.339 420.909 557.073 342.574 459.239 333.385C361.495 324.195 379.771 277.431 292.211 272.973C204.652 268.423 162.645 340.754 174.829 420.909Z" fill="#95F9DF"/>
<path d="M454.056 420.909C442.418 400.62 439.417 371.961 475.605 358.223C511.884 344.484 508.61 301.45 566.983 307.182C625.357 312.914 596.625 403.895 587.896 420.909H454.056V420.909Z" fill="#2C4584"/>
<path d="M436.144 240.037H372.224C371.224 240.037 370.406 239.218 370.406 238.217C370.406 237.217 371.224 236.398 372.224 236.398H436.144V240.037Z" fill="#2B3E70"/>
<path d="M453.783 188.541V236.398H465.967L475.423 190.179C475.605 189.36 474.968 188.541 474.059 188.541H453.783V188.541Z" fill="#203060"/>
<path d="M464.148 240.037H436.144V236.398H466.058V238.217C466.058 239.218 465.239 240.037 464.148 240.037Z" fill="#2B3E70"/>
<path d="M405.321 188.541H472.968L463.148 236.398H393.773L403.23 190.27C403.411 189.269 404.23 188.541 405.321 188.541Z" fill="#203060"/>
<path d="M471.513 190.634C472.422 190.634 473.059 191.453 472.877 192.272L464.148 233.304C464.057 233.941 463.421 234.396 462.785 234.396H397.956C397.047 234.396 396.41 233.577 396.592 232.759L405.321 191.726C405.412 191.089 406.048 190.634 406.684 190.634" fill="#CFE4F9"/>
<path d="M373.134 246.042L364.496 419.999" stroke="#01004C" stroke-width="2.2654" stroke-miterlimit="10" stroke-linecap="round" stroke-linejoin="round"/>
<path d="M478.333 246.042L486.97 419.999" stroke="#01004C" stroke-width="2.2654" stroke-miterlimit="10" stroke-linecap="round" stroke-linejoin="round"/>
<path d="M370.224 303.997H481.333" stroke="#01004C" stroke-width="2.2654" stroke-miterlimit="10" stroke-linecap="round" stroke-linejoin="round"/>
<path d="M407.412 246.042L405.502 419.999" stroke="#01004C" stroke-width="1.1327" stroke-miterlimit="10" stroke-linecap="round" stroke-linejoin="round"/>
<path d="M478.515 248.589H372.77V253.32H478.515V248.589Z" fill="#01004C"/>
<path d="M486.243 249.681H365.223C362.586 249.681 360.404 247.498 360.404 244.859C360.404 242.221 362.586 240.037 365.223 240.037H486.243C488.88 240.037 491.062 242.221 491.062 244.859C491.062 247.498 488.88 249.681 486.243 249.681Z" fill="#F8826A"/>
<path d="M220.745 106.294H187.649C185.921 106.294 184.467 104.838 184.467 103.109V82.1836H220.836V106.294H220.745Z" fill="#ECEDF3"/>
<path d="M186.649 80C185.467 80 184.467 81.0008 184.467 82.1836C184.467 83.3663 185.467 84.3671 186.649 84.3671H220.836V80H186.649Z" fill="#E4E4EA"/>
<path opacity="0.5" d="M187.103 82.1836H220.745" stroke="#A9B1C4" stroke-width="0.8495" stroke-miterlimit="10"/>
<path opacity="0.31" d="M202.56 103.2V101.927C200.469 101.836 199.378 100.562 199.287 98.1054L201.287 97.6505C201.287 99.2882 201.833 100.107 202.742 100.107C203.106 100.107 203.379 100.016 203.47 99.834C203.651 99.6521 203.742 99.3791 203.742 99.0152C203.742 98.7423 203.742 98.4693 203.651 98.2874C203.561 98.1054 203.47 97.8324 203.379 97.6505C203.288 97.4685 203.106 97.2866 203.015 97.1956C202.924 97.0136 202.651 96.9226 202.469 96.6497L200.833 95.194C200.378 94.7391 200.015 94.3751 199.742 93.9202C199.469 93.4653 199.378 92.9194 199.378 92.1916C199.378 91.2818 199.651 90.5539 200.196 90.008C200.742 89.4621 201.469 89.1892 202.379 89.0982V88.0064H203.015V89.1892C203.47 89.1892 203.924 89.3711 204.288 89.5531C204.652 89.7351 204.924 90.008 205.106 90.281C205.288 90.6449 205.47 90.9178 205.561 91.2818C205.652 91.6457 205.743 92.1006 205.743 92.5555L203.833 92.9194C203.833 92.6465 203.833 92.4645 203.742 92.2826C203.742 92.1006 203.651 91.9186 203.651 91.7367C203.651 91.5547 203.561 91.3727 203.47 91.2818C203.379 91.1908 203.288 91.0998 203.106 91.0088C202.924 90.9178 202.742 90.9178 202.56 90.9178C202.197 90.9178 201.924 91.0088 201.833 91.2818C201.651 91.4637 201.56 91.7367 201.56 92.1006C201.56 92.4645 201.651 92.8284 201.833 93.1014C202.015 93.3743 202.197 93.6473 202.56 93.9202L204.197 95.3759C204.47 95.6489 204.743 95.8308 204.924 96.1038C205.106 96.3767 205.288 96.5587 205.47 96.9226C205.652 97.1956 205.834 97.5595 205.925 97.9234C206.015 98.2874 206.106 98.6513 206.106 99.0152C206.106 99.834 205.834 100.562 205.379 101.108C204.924 101.654 204.197 102.018 203.379 102.109V103.382H202.56V103.2Z" fill="#A9B1C4"/>
<path d="M564.48 168H531.52C529.6 168 528 166.194 528 164.027V144.973C528 142.806 529.6 141 531.52 141H564.48C566.4 141 568 142.806 568 144.973V164.027C568 166.284 566.4 168 564.48 168Z" fill="#ECEDF3"/>
<path opacity="0.31" d="M568 147H528V150H568V147Z" fill="#A9B1C4"/>
<path d="M313.124 268.059C326.399 308.273 325.853 367.139 321.762 391.613L331.49 394.342C331.49 394.342 355.767 328.108 346.493 278.067L313.124 268.059Z" fill="#33337C"/>
<path d="M331.49 394.342L341.583 407.262C342.31 408.263 341.401 409.536 340.219 409.172L319.034 401.894C318.397 401.712 318.034 400.893 318.306 400.256L321.853 391.522L331.49 394.342Z" fill="white"/>
<path d="M284.301 274.246H334.4L334.673 279.705H284.028L284.301 274.246Z" fill="#01004C"/>
<path d="M284.301 272.973L277.3 419.999" stroke="#01004C" stroke-width="2.2654" stroke-miterlimit="10" stroke-linecap="round" stroke-linejoin="round"/>
<path d="M334.309 272.973L341.401 419.999" stroke="#01004C" stroke-width="2.2654" stroke-miterlimit="10" stroke-linecap="round" stroke-linejoin="round"/>
<path d="M338.492 359.587H280.209" stroke="#01004C" stroke-width="2.2654" stroke-miterlimit="10" stroke-linecap="round" stroke-linejoin="round"/>
<path d="M340.037 275.975H278.573C276.3 275.975 274.481 274.155 274.481 271.881V270.516C274.481 268.241 276.3 266.422 278.573 266.422H340.037C342.31 266.422 344.129 268.241 344.129 270.516V271.881C344.129 274.155 342.31 275.975 340.037 275.975Z" fill="#F8826A"/>
<path d="M326.853 174.894C316.488 152.058 311.033 111.935 343.22 108.204C343.22 108.204 353.04 100.471 364.405 111.025C375.861 121.67 360.586 147.963 362.223 167.707C363.859 187.45 385.408 205.646 371.588 222.933C357.768 240.219 339.765 235.761 333.036 210.468C326.308 185.175 326.853 174.894 326.853 174.894Z" fill="#01004C"/>
<path d="M330.49 349.215L337.855 356.13C337.855 356.13 370.042 341.846 375.134 309.638C380.226 277.431 357.858 252.32 342.765 240.765L291.211 239.309C291.211 239.309 284.937 261.964 308.123 270.334C331.309 278.704 344.22 271.972 351.312 296.446C358.404 320.829 330.49 349.215 330.49 349.215Z" fill="#282766"/>
<path d="M337.855 356.13L340.947 373.144C341.128 374.053 339.946 374.69 339.31 373.962L324.671 358.495C323.398 357.222 323.58 355.129 324.944 353.946L330.581 349.215L337.855 356.13Z" fill="white"/>
<path d="M326.853 147.327L335.127 151.239L338.855 143.141C338.855 143.141 350.675 151.785 356.494 139.593C356.494 139.593 358.404 140.321 360.131 139.593C360.131 139.593 358.768 132.588 361.223 126.219C361.223 126.219 356.494 117.485 351.312 122.307C348.039 125.4 344.765 127.22 343.492 125.946C342.31 124.672 345.584 121.488 343.129 118.849C340.946 116.575 337.037 116.848 335.309 119.486C331.309 125.582 336.309 128.493 336.309 128.493L326.853 147.327Z" fill="#FFADB7"/>
<path opacity="0.51" d="M356 136C356 130.426 351.574 126 346 126C340.426 126 336 130.426 336 136C336 141.574 340.426 146 346 146C351.41 146 356 141.574 356 136Z" fill="url(#paint0_radial)"/>
<path d="M352.403 127.947C352.403 127.947 354.676 127.856 356.04 130.222" stroke="#EF8998" stroke-width="0.5663" stroke-miterlimit="10" stroke-linecap="round"/>
<path d="M335.946 122.125C336.127 121.67 336.4 121.124 336.764 120.578C337.309 119.759 338.31 119.213 339.401 119.213C340.219 119.213 340.855 119.486 341.401 119.941" stroke="#EF8998" stroke-width="0.5663" stroke-miterlimit="10" stroke-linecap="round"/>
<path d="M338.31 119.486C338.31 119.486 338.219 121.033 339.037 122.125" stroke="#EF8998" stroke-width="0.5663" stroke-miterlimit="10" stroke-linecap="round"/>
<path opacity="0.75" d="M337.491 146.053L338.764 143.232C337.037 142.232 335.218 140.776 335.218 140.776C335.218 140.776 334.582 144.142 337.491 146.053Z" fill="url(#paint1_linear)"/>
<path d="M348.675 245.678C331.127 256.596 318.852 263.146 285.574 256.05C285.574 256.05 291.302 224.206 296.212 194.273C301.122 164.34 311.942 145.598 328.217 146.781C344.493 147.963 349.584 182.9 346.948 205.646C344.311 228.482 348.766 244.768 348.766 244.768" fill="#F0F9FF"/>
<path opacity="0.5" d="M333.127 160.064C333.764 161.429 322.307 174.712 322.307 174.712C322.216 191.089 328.035 221.295 346.129 225.753C345.857 220.021 345.947 213.288 346.857 205.737C348.311 193.181 347.402 176.896 343.583 164.704C337.31 161.611 332.945 159.7 333.127 160.064Z" fill="#F0F9FF"/>
<path d="M394.773 229.21C394.773 229.21 385.226 225.298 369.951 213.197C362.223 207.102 356.767 195.729 351.948 183.992L330.308 195.001C348.311 223.205 390.5 236.398 390.5 236.398H411.958C410.594 227.664 394.773 229.21 394.773 229.21Z" fill="#FFADB7"/>
<path d="M338.037 153.058C338.037 153.058 311.487 156.607 326.763 188.996C327.763 191.089 328.854 193.09 330.127 195.001C340.219 192.181 347.22 187.904 351.767 183.992C347.129 172.438 343.038 160.519 338.037 153.058Z" fill="#F0F9FF"/>
<path d="M334.309 151.785C334.309 151.785 315.488 155.333 327.217 189.451" stroke="#203060" stroke-width="0.5" stroke-miterlimit="10"/>
<path d="M334.309 253.775C334.309 253.775 401.957 296.992 334.309 352.764" stroke="white" stroke-width="0.5" stroke-miterlimit="10"/>
<path d="M653.816 259.962C654.088 259.598 641.45 259.962 625.72 273.427C616.264 281.525 605.717 294.353 596.17 314.733" stroke="white" stroke-miterlimit="10"/>
<path d="M513.065 239.673C513.065 246.315 517.975 272.245 525.613 279.432C533.25 286.62 535.887 302.724 535.887 302.724" stroke="white" stroke-miterlimit="10"/>
<path opacity="0.3" d="M547.257 157H532.73C532.325 157 532 156.556 532 156C532 155.444 532.325 155 532.73 155H547.257C547.663 155 547.988 155.444 547.988 156C548.069 156.556 547.744 157 547.257 157Z" fill="#A9B1C4"/>
<path opacity="0.3" d="M541.244 161H532.756C532.336 161 532 160.556 532 160C532 159.444 532.336 159 532.756 159H541.244C541.664 159 542 159.444 542 160C542 160.556 541.664 161 541.244 161Z" fill="#A9B1C4"/>
<path d="M428.688 119.213H423.778C423.142 119.213 422.596 118.667 422.596 118.03C422.596 117.394 423.142 116.848 423.778 116.848H428.688C429.325 116.848 429.87 117.394 429.87 118.03C429.87 118.667 429.325 119.213 428.688 119.213Z" fill="#50E3C2"/>
<path d="M431.87 137.41H423.778C423.142 137.41 422.596 136.864 422.596 136.227C422.596 135.59 423.142 135.044 423.778 135.044H431.87C432.507 135.044 433.052 135.59 433.052 136.227C433.052 136.864 432.507 137.41 431.87 137.41Z" fill="#50E3C2"/>
<path d="M456.056 137.41H436.235C435.598 137.41 435.053 136.864 435.053 136.227C435.053 135.59 435.598 135.044 436.235 135.044H456.056C456.693 135.044 457.238 135.59 457.238 136.227C457.329 136.864 456.693 137.41 456.056 137.41Z" fill="#50E3C2"/>
<path d="M431.87 146.144H423.778C423.142 146.144 422.596 145.598 422.596 144.961C422.596 144.324 423.142 143.778 423.778 143.778H431.87C432.507 143.778 433.052 144.324 433.052 144.961C433.052 145.598 432.507 146.144 431.87 146.144Z" fill="#50E3C2"/>
<path d="M456.056 146.144H436.235C435.598 146.144 435.053 145.598 435.053 144.961C435.053 144.324 435.598 143.778 436.235 143.778H456.056C456.693 143.778 457.238 144.324 457.238 144.961C457.329 145.598 456.693 146.144 456.056 146.144Z" fill="#50E3C2"/>
<path d="M456.056 128.584H451.146C450.51 128.584 449.964 128.038 449.964 127.402C449.964 126.765 450.51 126.219 451.146 126.219H456.056C456.693 126.219 457.238 126.765 457.238 127.402C457.329 128.038 456.693 128.584 456.056 128.584Z" fill="#50E3C2"/>
<path d="M456.329 119.213H433.234C432.598 119.213 432.052 118.667 432.052 118.03C432.052 117.394 432.598 116.848 433.234 116.848H456.329C456.965 116.848 457.511 117.394 457.511 118.03C457.511 118.667 456.965 119.213 456.329 119.213Z" fill="#50E3C2"/>
<path d="M446.6 128.584H423.506C422.869 128.584 422.323 128.038 422.323 127.402C422.323 126.765 422.869 126.219 423.506 126.219H446.6C447.237 126.219 447.782 126.765 447.782 127.402C447.782 128.038 447.237 128.584 446.6 128.584Z" fill="#50E3C2"/>
<g clip-path="url(#clip1)">
<path d="M413.733 165.157C416.532 166.656 420.078 166.094 422.318 163.752L422.784 163.284C423.531 162.534 424.464 162.066 425.491 162.066C426.517 162.066 427.45 162.441 428.197 163.284C429.317 164.501 430.996 165.251 432.676 165.251C434.356 165.251 435.942 164.501 437.155 163.284C437.902 162.534 438.835 162.066 439.861 162.066C440.888 162.066 441.821 162.441 442.567 163.284C443.687 164.501 445.367 165.251 447.047 165.251C448.726 165.251 450.313 164.501 451.526 163.284C452.272 162.534 453.206 162.066 454.232 162.066C455.259 162.066 456.192 162.441 456.938 163.284L457.405 163.752C458.805 165.251 460.671 166 462.631 166C463.75 166 464.87 165.719 465.99 165.157C468.23 163.939 469.629 161.691 469.723 159.162C469.723 159.068 469.723 158.975 469.723 158.881V108.673H475.695C480.267 108.673 484 104.927 484 100.337C484 95.7468 480.267 92 475.695 92H418.305C413.733 92 410 95.7468 410 100.337V158.881C410 161.504 411.4 163.939 413.733 165.157ZM475.415 94.3418C478.681 94.3418 481.387 97.0582 481.387 100.337C481.387 103.615 478.681 106.332 475.415 106.332H432.583C429.317 106.332 426.61 103.615 426.61 100.337C426.61 97.9949 425.677 95.8405 424.091 94.3418H475.415ZM412.333 100.337C412.333 97.0582 415.039 94.3418 418.305 94.3418C421.571 94.3418 424.277 97.0582 424.277 100.337C424.277 104.927 428.01 108.673 432.583 108.673H467.11V158.787V158.881C467.11 160.661 466.177 162.253 464.59 163.003C462.724 164.033 460.391 163.658 458.898 162.066L458.431 161.597C457.311 160.38 455.632 159.63 453.952 159.63C452.272 159.63 450.686 160.38 449.473 161.597C448.82 162.347 447.887 162.815 446.86 162.815C445.834 162.815 444.9 162.441 444.154 161.597C443.034 160.38 441.354 159.63 439.675 159.63C437.995 159.63 436.409 160.38 435.195 161.597C434.449 162.347 433.516 162.815 432.489 162.815C431.463 162.815 430.53 162.441 429.783 161.597C428.663 160.38 426.984 159.63 425.304 159.63C423.624 159.63 422.038 160.38 420.825 161.597L420.358 162.066C418.865 163.658 416.532 164.033 414.666 163.003C413.173 162.159 412.146 160.567 412.146 158.881L412.333 100.337Z" fill="#ECEDF3" stroke="white" stroke-width="0.75" stroke-miterlimit="10"/>
</g>
</g>
<path d="M57 45H616" stroke="#E5E8F1" stroke-opacity="0.5"/>
<circle cx="79" cy="29" r="3.5" stroke="#E5E8F1"/>
<circle cx="93" cy="29" r="3.5" stroke="#E5E8F1"/>
<circle cx="107" cy="29" r="3.5" stroke="#E5E8F1"/>
<defs>
<filter id="filter0_dd" x="0" y="28" width="599" height="459" filterUnits="userSpaceOnUse" color-interpolation-filters="sRGB">
<feFlood flood-opacity="0" result="BackgroundImageFix"/>
<feColorMatrix in="SourceAlpha" type="matrix" values="0 0 0 0 0 0 0 0 0 0 0 0 0 0 0 0 0 0 127 0"/>
<feOffset dy="-8"/>
<feGaussianBlur stdDeviation="10"/>
<feColorMatrix type="matrix" values="0 0 0 0 0.934375 0 0 0 0 0.940365 0 0 0 0 0.958333 0 0 0 0.2 0"/>
<feBlend mode="normal" in2="BackgroundImageFix" result="effect1_dropShadow"/>
<feColorMatrix in="SourceAlpha" type="matrix" values="0 0 0 0 0 0 0 0 0 0 0 0 0 0 0 0 0 0 127 0"/>
<feOffset dy="2"/>
<feGaussianBlur stdDeviation="10"/>
<feColorMatrix type="matrix" values="0 0 0 0 0.12549 0 0 0 0 0.188235 0 0 0 0 0.376471 0 0 0 0.09 0"/>
<feBlend mode="normal" in2="effect1_dropShadow" result="effect2_dropShadow"/>
<feBlend mode="normal" in="SourceGraphic" in2="effect2_dropShadow" result="shape"/>
</filter>
<filter id="filter1_dd" x="29" y="0" width="619" height="453" filterUnits="userSpaceOnUse" color-interpolation-filters="sRGB">
<feFlood flood-opacity="0" result="BackgroundImageFix"/>
<feColorMatrix in="SourceAlpha" type="matrix" values="0 0 0 0 0 0 0 0 0 0 0 0 0 0 0 0 0 0 127 0"/>
<feOffset dx="12" dy="12"/>
<feGaussianBlur stdDeviation="10"/>
<feColorMatrix type="matrix" values="0 0 0 0 0.934375 0 0 0 0 0.940365 0 0 0 0 0.958333 0 0 0 0.2 0"/>
<feBlend mode="normal" in2="BackgroundImageFix" result="effect1_dropShadow"/>
<feColorMatrix in="SourceAlpha" type="matrix" values="0 0 0 0 0 0 0 0 0 0 0 0 0 0 0 0 0 0 127 0"/>
<feOffset dx="-8" dy="8"/>
<feGaussianBlur stdDeviation="10"/>
<feColorMatrix type="matrix" values="0 0 0 0 0.933333 0 0 0 0 0.941176 0 0 0 0 0.956863 0 0 0 1 0"/>
<feBlend mode="normal" in2="effect1_dropShadow" result="effect2_dropShadow"/>
<feBlend mode="normal" in="SourceGraphic" in2="effect2_dropShadow" result="shape"/>
</filter>
<radialGradient id="paint0_radial" cx="0" cy="0" r="1" gradientUnits="userSpaceOnUse" gradientTransform="translate(345.919 136.023) rotate(-0.264368) scale(5.08071)">
<stop stop-color="#FF6E4E"/>
<stop offset="1" stop-color="#FC8080" stop-opacity="0"/>
</radialGradient>
<linearGradient id="paint1_linear" x1="335.625" y1="143.752" x2="338.471" y2="142.425" gradientUnits="userSpaceOnUse">
<stop offset="0.2087" stop-opacity="0"/>
<stop offset="1"/>
</linearGradient>
<clipPath id="clip0">
<rect width="558" height="341" fill="white" transform="translate(111 80)"/>
</clipPath>
<clipPath id="clip1">
<rect width="77" height="77" fill="white" transform="translate(410 92)"/>
</clipPath>
</defs>
</svg>
