<svg width="1172" height="170" viewBox="0 0 1172 170" fill="none" xmlns="http://www.w3.org/2000/svg">
<path d="M88.207 32.4942C137.012 56.1318 179.145 83.2285 307.675 47.743C413.556 18.5105 485.084 94.6634 552.032 123.17" stroke="#1F3161" stroke-width="0.5" stroke-dasharray="6 6"/>
<path d="M1053.07 65.0706C1007.88 82.9409 968.422 104.347 855.929 64.0699C763.26 30.8902 694.265 94.1751 632.539 115.188" stroke="#1F3161" stroke-width="0.5" stroke-dasharray="6 6"/>
<path d="M19.7736 98C26.7762 98 32.4529 92.3233 32.4529 85.3207C32.4529 78.3182 26.7762 72.6415 19.7736 72.6415C12.7711 72.6415 7.09436 78.3182 7.09436 85.3207C7.09436 92.3233 12.7711 98 19.7736 98Z" fill="#50E3C2"/>
<path d="M96.7547 98C103.757 98 109.434 92.3233 109.434 85.3207C109.434 78.3182 103.757 72.6415 96.7547 72.6415C89.7521 72.6415 84.0754 78.3182 84.0754 85.3207C84.0754 92.3233 89.7521 98 96.7547 98Z" fill="#50E3C2"/>
<path d="M85.8355 26.9057V31.2084C85.8355 38.0749 80.2328 43.6604 73.3452 43.6604H34.0753C27.1876 43.6604 21.585 38.0749 21.585 31.2084V14.452C21.585 7.58546 27.1876 2 34.0753 2H76.2236C82.6486 2 85.8868 5.17705 85.8868 11.6336" stroke="#2C4584" stroke-width="4" stroke-miterlimit="10" stroke-linecap="round"/>
<path d="M53.2831 43.6604V59.9623" stroke="#2C4584" stroke-width="4" stroke-miterlimit="10"/>
<path d="M14.7925 98C21.5449 98 27.0189 92.5261 27.0189 85.7736C27.0189 79.0211 21.5449 73.5472 14.7925 73.5472C8.03999 73.5472 2.56604 79.0211 2.56604 85.7736C2.56604 92.5261 8.03999 98 14.7925 98Z" stroke="#2C4584" stroke-width="4" stroke-miterlimit="10"/>
<path d="M91.7735 98C98.526 98 104 92.5261 104 85.7736C104 79.0211 98.526 73.5472 91.7735 73.5472C85.0211 73.5472 79.5471 79.0211 79.5471 85.7736C79.5471 92.5261 85.0211 98 91.7735 98Z" stroke="#2C4584" stroke-width="4" stroke-miterlimit="10"/>
<path d="M15.2452 73.5472V73.4928C15.2452 66.0483 20.9154 59.9623 27.9647 59.9623H79.5069C86.5051 59.9623 92.2264 65.994 92.2264 73.4928" stroke="#2C4584" stroke-width="4" stroke-miterlimit="10" stroke-linecap="round"/>
<path d="M1074.06 35.9695C1061.39 35.9695 1051 46.4186 1051 59.1642C1051 71.9099 1061.39 82.359 1074.06 82.359" fill="#50E3C2"/>
<path d="M1074.06 35.9695C1061.39 35.9695 1051 46.4186 1051 59.1642C1051 71.9099 1061.39 82.359 1074.06 82.359" stroke="white" stroke-miterlimit="10"/>
<path d="M1148.39 35.5102C1146.79 26.6686 1140.28 6 1115.06 6C1094.85 6 1085.61 24.8314 1083.21 30.6875C1073.05 32.0654 1056.61 39.2994 1056.61 58.4753C1056.61 77.1919 1071.68 84.5407 1084.69 85H1126.24C1127.73 85 1128.98 83.7369 1128.98 82.2442C1128.98 80.7514 1127.73 79.4884 1126.24 79.4884H1084.92C1081.15 79.3735 1062.2 77.5363 1062.2 58.4753C1062.2 38.1512 1084.58 36.0843 1085.49 35.9695C1086.63 35.8546 1087.55 35.1657 1087.89 34.0174C1088.23 33.0988 1095.31 11.5116 1115.06 11.5116C1137.2 11.5116 1142.11 30.1134 1143.14 38.1512V38.4956C1143.37 39.7587 1144.39 40.7921 1145.76 40.7921C1146.56 40.7921 1166.42 42.0552 1166.42 61.4607C1166.42 69.4985 1161.06 75.6991 1151.93 78.2253C1150.9 78.4549 1150.22 79.2587 1149.87 80.1773C1149.64 81.0959 1149.87 82.2442 1150.56 82.9331C1151.24 83.6221 1152.27 83.8517 1153.3 83.6221C1167 79.9477 1171.79 69.7282 1171.79 61.5756C1172.02 43.3183 1157.64 36.7733 1148.39 35.5102Z" fill="#2C4584"/>
<path d="M1094.94 50.0675C1094.29 51.1133 1094.57 52.5394 1095.59 53.2999L1101.29 57.1029C1101.85 57.4831 1102.5 57.5782 1103.16 57.3881C1103.81 57.1979 1104.28 56.7226 1104.56 56.1521L1107.36 50.0675C1107.92 48.9266 1107.36 47.5005 1106.24 47.0251C1105.12 46.4547 1103.72 47.0251 1103.25 48.166L1103.06 48.5463C1103.06 48.3561 1103.06 48.0709 1103.06 47.8808C1103.06 43.6976 1105.3 39.7996 1108.85 37.8031C1112.4 35.7114 1116.78 35.8065 1120.33 37.8981C1121.36 38.5636 1122.76 38.1833 1123.41 37.1375C1124.06 36.0917 1123.69 34.6656 1122.66 34.0001C1117.72 31.0529 1111.65 30.9578 1106.61 33.9051C1101.66 36.7572 1098.58 42.1764 1098.58 47.9759C1098.58 48.6414 1098.58 49.3069 1098.68 49.9724L1098.11 49.5921C1097.65 49.2118 1096.99 49.1167 1096.43 49.3069C1095.78 49.2118 1095.31 49.5921 1094.94 50.0675Z" fill="#50E3C2" stroke="#F8F8F8" stroke-miterlimit="10"/>
<path d="M1108.22 64.5743C1113.3 67.1309 1119.33 66.9415 1124.22 64.0061C1129.11 61.0708 1132.08 55.8629 1132.08 50.1815C1132.08 49.5187 1132.08 48.8559 1131.98 48.1931L1132.56 48.5718C1133.23 49.0453 1134.18 49.1399 1134.86 48.7612C1135.62 48.3824 1136.1 47.6249 1136.1 46.8674C1136.1 46.0152 1135.72 45.2577 1135.05 44.7842L1129.2 40.9967C1128.63 40.6179 1127.96 40.5232 1127.29 40.7126C1126.62 40.902 1126.14 41.3754 1125.85 41.9436L1122.97 48.0037C1122.59 48.7612 1122.69 49.6134 1123.17 50.2762C1123.65 50.939 1124.41 51.3178 1125.27 51.2231C1126.14 51.1284 1126.81 50.655 1127.19 49.8975L1127.38 49.424C1127.38 49.6134 1127.38 49.8975 1127.38 50.0868C1127.38 56.5257 1122.11 61.6389 1115.69 61.6389C1113.78 61.6389 1111.96 61.1655 1110.33 60.3133C1109.18 59.7451 1107.84 60.2186 1107.26 61.3548C1106.59 62.5858 1107.07 64.0061 1108.22 64.5743Z" fill="#50E3C2" stroke="#F8F8F8" stroke-miterlimit="10"/>
<path d="M1134.43 82H1141.43" stroke="#2C4584" stroke-width="6" stroke-miterlimit="10" stroke-linecap="round"/>
<path d="M621.338 111.22H629.632C634.174 111.22 637.926 114.923 637.926 119.405V161.01C637.926 165.297 634.372 168.903 629.928 168.903H629.632C625.09 168.903 621.338 165.2 621.338 160.718V111.22V111.22Z" fill="#50E3C2"/>
<path d="M621.832 108.427C626.966 110.473 632.594 116.579 632.594 122.328V156.431C632.594 162.277 627.756 167.051 621.832 167.051H548.763C542.838 167.051 538 162.277 538 156.431V122.328C538 116.677 543.826 110.57 548.763 108.427" stroke="#2C4584" stroke-width="4" stroke-miterlimit="10" stroke-linecap="round"/>
<path d="M540.864 116.969L629.731 163.056" stroke="#2C4584" stroke-width="4" stroke-miterlimit="10" stroke-linecap="round"/>
<path d="M630.817 116.969L541.95 163.056" stroke="#2C4584" stroke-width="4" stroke-miterlimit="10" stroke-linecap="round"/>
<path d="M557.847 92.6102C561.105 92.6102 592.505 92.6102 592.505 92.6102" stroke="#50E3C2" stroke-width="4" stroke-miterlimit="10" stroke-linecap="round"/>
<path d="M599.121 92.6102C600.404 92.6102 612.747 92.6102 612.747 92.6102" stroke="#50E3C2" stroke-width="4" stroke-miterlimit="10" stroke-linecap="round"/>
<path d="M612.747 103.133C609.489 103.133 578.089 103.133 578.089 103.133" stroke="#50E3C2" stroke-width="4" stroke-miterlimit="10" stroke-linecap="round"/>
<path d="M612.747 113.559C607.514 113.559 557.847 113.559 557.847 113.559" stroke="#50E3C2" stroke-width="4" stroke-miterlimit="10" stroke-linecap="round"/>
<path d="M571.473 103.133C570.19 103.133 557.847 103.133 557.847 103.133" stroke="#50E3C2" stroke-width="4" stroke-miterlimit="10" stroke-linecap="round" stroke-linejoin="round"/>
<path d="M549.025 121V84.8435C549.025 80.5391 552.168 77 555.999 77H614.051C617.882 77 621.025 80.5391 621.025 84.8435V87.5217" stroke="#2C4584" stroke-width="4" stroke-miterlimit="10" stroke-linecap="round"/>
<path d="M621.025 103L620.943 120.964" stroke="#2C4584" stroke-width="4" stroke-miterlimit="10" stroke-linecap="round"/>
<path d="M621.025 94V97" stroke="#2C4584" stroke-width="4" stroke-miterlimit="10" stroke-linecap="round"/>
</svg>
