<svg width="189" height="416" viewBox="0 0 189 416" fill="none" xmlns="http://www.w3.org/2000/svg">
<path d="M25.6625 110.239C-2.47913 44.5561 37.7039 17.816 59.1221 12.1827C80.5404 6.54927 168.066 15.1643 179.141 58.1413C190.216 101.118 137.152 145.19 109.235 161.853C93.1032 172.016 53.8041 175.922 25.6625 110.239Z" fill="#95F9DF" fill-opacity="0.3"/>
<g filter="url(#filter0_dd)">
<path d="M55.8622 128.438C50.8182 128.438 46.728 124.446 46.728 119.523V34.1786C46.728 33.5228 47.473 33.145 48.002 33.5325L55.389 38.9429C55.6708 39.1492 56.0537 39.1492 56.3354 38.9429L63.1037 33.9857C64.2306 33.1603 65.7623 33.1603 66.8892 33.9857L73.6575 38.9429C73.9392 39.1492 74.3221 39.1492 74.6038 38.9429L81.3721 33.9857C82.499 33.1603 84.0308 33.1603 85.1576 33.9857L91.9259 38.9429C92.2076 39.1492 92.5905 39.1492 92.8723 38.9429L99.6405 33.9857C100.767 33.1603 102.299 33.1603 103.426 33.9857L110.194 38.9429C110.476 39.1492 110.859 39.1492 111.141 38.9429L118.528 33.5325C119.057 33.145 119.802 33.5228 119.802 34.1786V128.423H55.8622V128.438Z" fill="white"/>
</g>
<path d="M58.1418 91.2828C58.1418 90.207 59.014 89.3349 60.0898 89.3349H63.0486C64.1244 89.3349 64.9965 90.207 64.9965 91.2828C64.9965 92.3586 64.1244 93.2307 63.0486 93.2307H60.0898C59.014 93.2307 58.1418 92.3586 58.1418 91.2828ZM58.1418 102.95C58.1418 101.878 59.0109 101.009 60.0829 101.009H63.0555C64.1275 101.009 64.9965 101.878 64.9965 102.95C64.9965 104.022 64.1275 104.891 63.0555 104.891H60.0829C59.0109 104.891 58.1418 104.022 58.1418 102.95ZM58.1418 67.9559C58.1418 66.8839 59.0109 66.0148 60.0829 66.0148H72.1897C73.2617 66.0148 74.1308 66.8839 74.1308 67.9559C74.1308 69.0279 73.2617 69.8969 72.1897 69.8969H60.0829C59.0109 69.8969 58.1418 69.0279 58.1418 67.9559ZM58.1418 79.6159C58.1418 78.5439 59.0109 77.6749 60.0829 77.6749H63.0555C64.1275 77.6749 64.9965 78.5439 64.9965 79.6159C64.9965 80.6879 64.1275 81.5569 63.0555 81.5569H60.0829C59.0109 81.5569 58.1418 80.6879 58.1418 79.6159ZM58.1418 56.2821C58.1418 55.2101 59.0109 54.3411 60.0829 54.3411H83.6034C84.6754 54.3411 85.5445 55.2101 85.5445 56.2821C85.5445 57.3541 84.6754 58.2231 83.6034 58.2231H60.0829C59.0109 58.2231 58.1418 57.3541 58.1418 56.2821ZM93.4847 56.2821C93.4847 55.2101 94.3537 54.3411 95.4257 54.3411H106.447C107.519 54.3411 108.388 55.2101 108.388 56.2821C108.388 57.3541 107.519 58.2231 106.447 58.2231H95.4257C94.3537 58.2231 93.4847 57.3541 93.4847 56.2821Z" fill="#50E6C5"/>
<g filter="url(#filter1_dd)">
<path d="M74.1307 66.0339C69.0867 66.0339 64.9965 70.0259 64.9965 74.9488V119.523C64.9965 124.446 60.9063 128.438 55.8623 128.438H156.339V74.9488C156.339 70.0259 152.248 66.0339 147.204 66.0339H74.1307Z" fill="white"/>
</g>
<g filter="url(#filter2_dd)">
<path d="M147.205 66.0339H74.1309C79.1749 66.0339 83.2651 70.0259 83.2651 74.9488V160.278C83.2651 160.934 84.0101 161.311 84.5391 160.924L91.9261 155.514C92.2078 155.307 92.5907 155.307 92.8725 155.514L99.6407 160.471C100.768 161.296 102.299 161.296 103.426 160.471L110.194 155.514C110.476 155.307 110.859 155.307 111.141 155.514L117.909 160.471C119.036 161.296 120.568 161.296 121.695 160.471L128.463 155.514C128.745 155.307 129.128 155.307 129.409 155.514L136.178 160.471C137.304 161.296 138.836 161.296 139.963 160.471L146.731 155.514C147.013 155.307 147.396 155.307 147.678 155.514L155.065 160.924C155.594 161.311 156.339 160.934 156.339 160.278V74.9488C156.339 70.0259 152.249 66.0339 147.205 66.0339Z" fill="white"/>
</g>
<g filter="url(#filter3_dd)">
<path d="M83.4684 139.525C83.2824 110.838 91.2588 70.1971 149.13 66.0679H75.0103L79.4481 69.3177C81.6972 70.9647 83.034 73.5792 83.0524 76.3669L83.4684 139.525Z" fill="white"/>
</g>
<g filter="url(#filter4_d)">
<path d="M109.468 101.737L118.739 96.7951C119.092 96.6068 119.516 96.6068 119.869 96.7951L129.14 101.737C129.662 102.015 129.988 102.559 129.988 103.15V113.563C129.988 116.028 128.728 118.323 126.647 119.645L119.304 124.312L111.962 119.645C109.881 118.323 108.62 116.028 108.62 113.563V103.15C108.62 102.559 108.946 102.015 109.468 101.737Z" fill="#50E6C5"/>
</g>
<rect x="128.653" y="80.4116" width="15.5808" height="3.0426" rx="1.5213" fill="#50E6C5"/>
<rect width="32.0518" height="3.0426" rx="1.5213" transform="matrix(-1 0 0 1 144.233 91.7129)" fill="#50E6C5"/>
<rect width="15.5808" height="3.0426" rx="1.5213" transform="matrix(-1 0 0 1 109.956 91.7129)" fill="#50E6C5"/>
<rect width="11.5743" height="3.0426" rx="1.5213" transform="matrix(-1 0 0 1 105.949 110.403)" fill="#50E6C5"/>
<rect width="11.5743" height="3.0426" rx="1.5213" transform="matrix(-1 0 0 1 144.233 110.403)" fill="#50E6C5"/>
<rect width="32.0518" height="3.0426" rx="1.5213" transform="matrix(-1 0 0 1 144.233 137.787)" fill="#50E6C5"/>
<rect width="15.5808" height="3.0426" rx="1.5213" transform="matrix(-1 0 0 1 109.956 137.787)" fill="#50E6C5"/>
<rect x="94.3748" y="126.92" width="23.1486" height="3.0426" rx="1.5213" fill="#50E6C5"/>
<rect x="120.639" y="126.92" width="23.5937" height="3.0426" rx="1.5213" fill="#50E6C5"/>
<rect x="94.3748" y="80.4116" width="32.0518" height="3.0426" rx="1.5213" fill="#50E6C5"/>
<path d="M121.478 109.544H117.941L121.11 104.973C121.257 104.778 121.183 104.516 120.962 104.386C120.741 104.255 120.446 104.321 120.299 104.516L116.689 109.74C116.615 109.87 116.615 110.066 116.689 110.197C116.762 110.328 116.91 110.393 117.131 110.393H120.667L117.499 114.963C117.352 115.159 117.425 115.42 117.646 115.551C117.867 115.682 118.162 115.616 118.31 115.42L121.92 110.197C121.994 110.066 121.994 109.87 121.92 109.74C121.846 109.609 121.699 109.544 121.478 109.544Z" fill="#2C4584" stroke="#2C4584" stroke-width="0.600619" stroke-miterlimit="10"/>
<defs>
<filter id="filter0_dd" x="31.9128" y="18.5514" width="101.903" height="123.901" filterUnits="userSpaceOnUse" color-interpolation-filters="sRGB">
<feFlood flood-opacity="0" result="BackgroundImageFix"/>
<feColorMatrix in="SourceAlpha" type="matrix" values="0 0 0 0 0 0 0 0 0 0 0 0 0 0 0 0 0 0 127 0"/>
<feOffset dx="-3.2033" dy="-3.2033"/>
<feGaussianBlur stdDeviation="5.80598"/>
<feColorMatrix type="matrix" values="0 0 0 0 0.759863 0 0 0 0 0.809954 0 0 0 0 0.943532 0 0 0 0.109488 0"/>
<feBlend mode="normal" in2="BackgroundImageFix" result="effect1_dropShadow"/>
<feColorMatrix in="SourceAlpha" type="matrix" values="0 0 0 0 0 0 0 0 0 0 0 0 0 0 0 0 0 0 127 0"/>
<feOffset dx="2.40248" dy="2.40248"/>
<feGaussianBlur stdDeviation="5.80598"/>
<feColorMatrix type="matrix" values="0 0 0 0 0.760784 0 0 0 0 0.811765 0 0 0 0 0.945098 0 0 0 0.220533 0"/>
<feBlend mode="normal" in2="effect1_dropShadow" result="effect2_dropShadow"/>
<feBlend mode="normal" in="SourceGraphic" in2="effect2_dropShadow" result="shape"/>
</filter>
<filter id="filter1_dd" x="41.047" y="51.2187" width="129.306" height="91.2339" filterUnits="userSpaceOnUse" color-interpolation-filters="sRGB">
<feFlood flood-opacity="0" result="BackgroundImageFix"/>
<feColorMatrix in="SourceAlpha" type="matrix" values="0 0 0 0 0 0 0 0 0 0 0 0 0 0 0 0 0 0 127 0"/>
<feOffset dx="-3.2033" dy="-3.2033"/>
<feGaussianBlur stdDeviation="5.80598"/>
<feColorMatrix type="matrix" values="0 0 0 0 0.759863 0 0 0 0 0.809954 0 0 0 0 0.943532 0 0 0 0.109488 0"/>
<feBlend mode="normal" in2="BackgroundImageFix" result="effect1_dropShadow"/>
<feColorMatrix in="SourceAlpha" type="matrix" values="0 0 0 0 0 0 0 0 0 0 0 0 0 0 0 0 0 0 127 0"/>
<feOffset dx="2.40248" dy="2.40248"/>
<feGaussianBlur stdDeviation="5.80598"/>
<feColorMatrix type="matrix" values="0 0 0 0 0.760784 0 0 0 0 0.811765 0 0 0 0 0.945098 0 0 0 0.220533 0"/>
<feBlend mode="normal" in2="effect1_dropShadow" result="effect2_dropShadow"/>
<feBlend mode="normal" in="SourceGraphic" in2="effect2_dropShadow" result="shape"/>
</filter>
<filter id="filter2_dd" x="59.3156" y="51.2187" width="111.038" height="123.886" filterUnits="userSpaceOnUse" color-interpolation-filters="sRGB">
<feFlood flood-opacity="0" result="BackgroundImageFix"/>
<feColorMatrix in="SourceAlpha" type="matrix" values="0 0 0 0 0 0 0 0 0 0 0 0 0 0 0 0 0 0 127 0"/>
<feOffset dx="-3.2033" dy="-3.2033"/>
<feGaussianBlur stdDeviation="5.80598"/>
<feColorMatrix type="matrix" values="0 0 0 0 0.759863 0 0 0 0 0.809954 0 0 0 0 0.943532 0 0 0 0.109488 0"/>
<feBlend mode="normal" in2="BackgroundImageFix" result="effect1_dropShadow"/>
<feColorMatrix in="SourceAlpha" type="matrix" values="0 0 0 0 0 0 0 0 0 0 0 0 0 0 0 0 0 0 127 0"/>
<feOffset dx="2.40248" dy="2.40248"/>
<feGaussianBlur stdDeviation="5.80598"/>
<feColorMatrix type="matrix" values="0 0 0 0 0.760784 0 0 0 0 0.811765 0 0 0 0 0.945098 0 0 0 0.220533 0"/>
<feBlend mode="normal" in2="effect1_dropShadow" result="effect2_dropShadow"/>
<feBlend mode="normal" in="SourceGraphic" in2="effect2_dropShadow" result="shape"/>
</filter>
<filter id="filter3_dd" x="60.195" y="51.2526" width="102.95" height="102.287" filterUnits="userSpaceOnUse" color-interpolation-filters="sRGB">
<feFlood flood-opacity="0" result="BackgroundImageFix"/>
<feColorMatrix in="SourceAlpha" type="matrix" values="0 0 0 0 0 0 0 0 0 0 0 0 0 0 0 0 0 0 127 0"/>
<feOffset dx="-3.2033" dy="-3.2033"/>
<feGaussianBlur stdDeviation="5.80598"/>
<feColorMatrix type="matrix" values="0 0 0 0 0.759863 0 0 0 0 0.809954 0 0 0 0 0.943532 0 0 0 0.109488 0"/>
<feBlend mode="normal" in2="BackgroundImageFix" result="effect1_dropShadow"/>
<feColorMatrix in="SourceAlpha" type="matrix" values="0 0 0 0 0 0 0 0 0 0 0 0 0 0 0 0 0 0 127 0"/>
<feOffset dx="2.40248" dy="2.40248"/>
<feGaussianBlur stdDeviation="5.80598"/>
<feColorMatrix type="matrix" values="0 0 0 0 0.760784 0 0 0 0 0.811765 0 0 0 0 0.945098 0 0 0 0.220533 0"/>
<feBlend mode="normal" in2="effect1_dropShadow" result="effect2_dropShadow"/>
<feBlend mode="normal" in="SourceGraphic" in2="effect2_dropShadow" result="shape"/>
</filter>
<filter id="filter4_d" x="107.018" y="95.853" width="24.5712" height="30.8614" filterUnits="userSpaceOnUse" color-interpolation-filters="sRGB">
<feFlood flood-opacity="0" result="BackgroundImageFix"/>
<feColorMatrix in="SourceAlpha" type="matrix" values="0 0 0 0 0 0 0 0 0 0 0 0 0 0 0 0 0 0 127 0"/>
<feOffset dy="0.800825"/>
<feGaussianBlur stdDeviation="0.800825"/>
<feColorMatrix type="matrix" values="0 0 0 0 0.785556 0 0 0 0 0.933333 0 0 0 0 0.900822 0 0 0 1 0"/>
<feBlend mode="normal" in2="BackgroundImageFix" result="effect1_dropShadow"/>
<feBlend mode="normal" in="SourceGraphic" in2="effect1_dropShadow" result="shape"/>
</filter>
</defs>
</svg>
