<svg id="Layer_2" data-name="Layer 2" xmlns="http://www.w3.org/2000/svg" viewBox="0 0 534.91 516"><defs><style>.cls-1{fill:#1f3161;}</style></defs><title>Luca logo</title><g id="Layer_2-2" data-name="Layer 2"><g id="Layer_1-2" data-name="Layer 1-2"><g id="Page-1"><g id="A4"><g id="Group-9"><path id="Fill-1" class="cls-1" d="M120.17,287.22A1.19,1.19,0,0,1,119,286h0V212.29a1.23,1.23,0,0,0-1.2-1.22H105.34a1.22,1.22,0,0,0-1.2,1.22v88.92a1.22,1.22,0,0,0,1.2,1.22h61.57a1.22,1.22,0,0,0,1.19-1.22V288.42a1.21,1.21,0,0,0-1.19-1.22Z"/><path id="Fill-3" class="cls-1" d="M249.74,211.07a1.24,1.24,0,0,0-1.24,1.22V286a1.22,1.22,0,0,1-1.22,1.22H203.16a1.23,1.23,0,0,1-1.24-1.2V212.29a1.24,1.24,0,0,0-1.24-1.22H187.6a1.24,1.24,0,0,0-1.24,1.22v88.92a1.22,1.22,0,0,0,1.22,1.22h75.19a1.23,1.23,0,0,0,1.24-1.2V212.29a1.24,1.24,0,0,0-1.24-1.22Z"/><path id="Fill-5" class="cls-1" d="M430.12,301.36a2.17,2.17,0,0,0,1.7,1.09H446a.71.71,0,0,0,.8-.63.74.74,0,0,0-.1-.46l-41-89.18a2.18,2.18,0,0,0-1.69-1.11H389.09a2.18,2.18,0,0,0-1.69,1.11l-41,89.18a.7.7,0,0,0,.17,1,.71.71,0,0,0,.51.12h14.16a2,2,0,0,0,1.7-1.09L396,229.46c.28-.61.74-.61,1,0Z"/><path id="Fill-7" class="cls-1" d="M361.71,226.3a2,2,0,0,0,1.68-1.11L369,212.12a.72.72,0,0,0-.2-1,.68.68,0,0,0-.5-.11H283.49a1.22,1.22,0,0,0-1.18,1.22v89a1.23,1.23,0,0,0,1.18,1.22h43.77a2,2,0,0,0,1.68-1.09l5.9-13.07a.72.72,0,0,0-.24-1,.66.66,0,0,0-.43-.1H298.26a1.23,1.23,0,0,1-1.17-1.22V227.52a1.22,1.22,0,0,1,1.17-1.22Z"/></g></g></g></g></g></svg>