<svg width="398" height="389" viewBox="0 0 398 389" fill="none" xmlns="http://www.w3.org/2000/svg">
<path d="M53.0547 239.483C-8.94963 97.7184 75.504 38.3593 120.811 25.4414C166.118 12.5233 352.337 28.4463 377.319 121.439C402.301 214.431 291.07 311.844 232.332 348.926C198.408 371.514 115.059 381.248 53.0547 239.483Z" fill="#95F9DF" fill-opacity="0.3"/>
<g filter="url(#filter0_dd)">
<path d="M85 155H304V304C304 315.046 295.046 324 284 324H105C93.9543 324 85 315.046 85 304V155Z" fill="white"/>
</g>
<g filter="url(#filter1_dd)">
<path d="M205.516 153.771C145.472 154.977 86.2431 244.774 84.4465 300.499L84.4466 153.771C135.647 153.563 265.559 152.566 205.516 153.771Z" fill="white"/>
</g>
<g filter="url(#filter2_dd)">
<path d="M210 324.012C270.007 304.598 293.539 242.826 304.129 224V304.012C304.129 315.058 295.175 324.012 284.129 324.012H210Z" fill="white"/>
</g>
<g filter="url(#filter3_d)">
<path d="M167 155H221V324H167V155Z" fill="#50E6C5"/>
</g>
<path d="M194 187V295.248" stroke="#2C4584" stroke-width="8" stroke-linecap="round" stroke-linejoin="round"/>
<g filter="url(#filter4_dd)">
<rect x="64" y="117" width="263" height="38" rx="5" fill="white"/>
</g>
<path d="M235.836 65.5529L237.475 68.6457L237.618 68.5698L237.753 68.4811L235.836 65.5529ZM196.371 113.885L193.152 112.51L191.07 117.385H196.371V113.885ZM251.096 113.885L251.112 110.385L251.104 110.385H251.096V113.885ZM275.157 87.4424C275.157 99.9935 264.566 110.385 251.228 110.385V117.385C268.188 117.385 282.157 104.099 282.157 87.4424H275.157ZM251.228 64.5C264.566 64.5 275.157 74.8914 275.157 87.4424H282.157C282.157 70.786 268.188 57.5 251.228 57.5V64.5ZM237.753 68.4811C241.583 65.9732 246.217 64.5 251.228 64.5V57.5C244.829 57.5 238.866 59.3852 233.919 62.6248L237.753 68.4811ZM196.371 113.885C199.589 115.259 199.589 115.26 199.589 115.26C199.589 115.26 199.589 115.261 199.589 115.261C199.589 115.26 199.589 115.26 199.59 115.259C199.591 115.256 199.593 115.252 199.596 115.245C199.601 115.232 199.611 115.21 199.624 115.18C199.65 115.121 199.69 115.028 199.745 114.905C199.854 114.659 200.021 114.289 200.243 113.81C200.688 112.851 201.356 111.456 202.233 109.737C203.991 106.295 206.582 101.573 209.913 96.4633C216.639 86.1434 226.108 74.6682 237.475 68.6457L234.197 62.4602C221.237 69.3268 210.973 82.0174 204.049 92.641C200.554 98.003 197.84 102.947 195.999 106.554C195.077 108.359 194.372 109.833 193.894 110.863C193.655 111.378 193.473 111.782 193.349 112.061C193.286 112.201 193.239 112.309 193.206 112.385C193.19 112.422 193.177 112.452 193.168 112.473C193.163 112.483 193.16 112.491 193.157 112.498C193.156 112.501 193.155 112.503 193.154 112.505C193.154 112.506 193.153 112.507 193.153 112.508C193.152 112.509 193.152 112.51 196.371 113.885ZM251.096 110.385H196.371V117.385H251.096V110.385ZM251.228 110.385C251.189 110.385 251.151 110.385 251.112 110.385L251.08 117.385C251.129 117.385 251.179 117.385 251.228 117.385V110.385Z" fill="#50E6C5"/>
<path d="M153.8 65.5526L152.161 68.6453L152.018 68.5695L151.883 68.4808L153.8 65.5526ZM193.266 113.885L196.484 112.51L198.566 117.385H193.266V113.885ZM138.54 113.885L138.524 110.385L138.532 110.385H138.54V113.885ZM114.479 87.4424C114.479 99.9935 125.071 110.385 138.408 110.385V117.385C121.448 117.385 107.479 104.099 107.479 87.4424H114.479ZM138.408 64.5C125.071 64.5 114.479 74.8914 114.479 87.4424H107.479C107.479 70.786 121.448 57.5 138.408 57.5V64.5ZM151.883 68.4808C148.053 65.9731 143.419 64.5 138.408 64.5V57.5C144.807 57.5 150.77 59.385 155.717 62.6244L151.883 68.4808ZM193.266 113.885C190.047 115.259 190.047 115.26 190.047 115.26C190.047 115.26 190.047 115.261 190.047 115.261C190.047 115.26 190.047 115.26 190.047 115.259C190.046 115.256 190.044 115.252 190.041 115.245C190.035 115.232 190.026 115.21 190.013 115.18C189.987 115.121 189.946 115.028 189.892 114.905C189.782 114.659 189.615 114.289 189.393 113.81C188.948 112.851 188.281 111.456 187.403 109.737C185.646 106.295 183.054 101.573 179.723 96.4631C172.997 86.143 163.528 74.6678 152.161 68.6453L155.438 62.4598C168.399 69.3263 178.663 82.017 185.588 92.6408C189.083 98.0028 191.796 102.947 193.637 106.554C194.559 108.359 195.264 109.833 195.742 110.863C195.981 111.378 196.164 111.782 196.288 112.061C196.35 112.201 196.397 112.309 196.43 112.385C196.447 112.422 196.459 112.452 196.468 112.473C196.473 112.483 196.476 112.491 196.479 112.498C196.48 112.501 196.482 112.503 196.482 112.505C196.483 112.506 196.483 112.507 196.484 112.508C196.484 112.509 196.484 112.51 193.266 113.885ZM138.54 110.385H193.266V117.385H138.54V110.385ZM138.408 110.385C138.447 110.385 138.486 110.385 138.524 110.385L138.556 117.385C138.507 117.385 138.457 117.385 138.408 117.385V110.385Z" fill="#50E6C5"/>
<defs>
<filter id="filter0_dd" x="48" y="118" width="291" height="241" filterUnits="userSpaceOnUse" color-interpolation-filters="sRGB">
<feFlood flood-opacity="0" result="BackgroundImageFix"/>
<feColorMatrix in="SourceAlpha" type="matrix" values="0 0 0 0 0 0 0 0 0 0 0 0 0 0 0 0 0 0 127 0"/>
<feOffset dx="-8" dy="-8"/>
<feGaussianBlur stdDeviation="14.5"/>
<feColorMatrix type="matrix" values="0 0 0 0 0.759863 0 0 0 0 0.809954 0 0 0 0 0.943532 0 0 0 0.109488 0"/>
<feBlend mode="normal" in2="BackgroundImageFix" result="effect1_dropShadow"/>
<feColorMatrix in="SourceAlpha" type="matrix" values="0 0 0 0 0 0 0 0 0 0 0 0 0 0 0 0 0 0 127 0"/>
<feOffset dx="6" dy="6"/>
<feGaussianBlur stdDeviation="14.5"/>
<feColorMatrix type="matrix" values="0 0 0 0 0.760784 0 0 0 0 0.811765 0 0 0 0 0.945098 0 0 0 0.220533 0"/>
<feBlend mode="normal" in2="effect1_dropShadow" result="effect2_dropShadow"/>
<feBlend mode="normal" in="SourceGraphic" in2="effect2_dropShadow" result="shape"/>
</filter>
<filter id="filter1_dd" x="45.8035" y="114.723" width="210.24" height="222.287" filterUnits="userSpaceOnUse" color-interpolation-filters="sRGB">
<feFlood flood-opacity="0" result="BackgroundImageFix"/>
<feColorMatrix in="SourceAlpha" type="matrix" values="0 0 0 0 0 0 0 0 0 0 0 0 0 0 0 0 0 0 127 0"/>
<feOffset dx="-8" dy="-8"/>
<feGaussianBlur stdDeviation="14.5"/>
<feColorMatrix type="matrix" values="0 0 0 0 0.759863 0 0 0 0 0.809954 0 0 0 0 0.943532 0 0 0 0.109488 0"/>
<feBlend mode="normal" in2="BackgroundImageFix" result="effect1_dropShadow"/>
<feColorMatrix in="SourceAlpha" type="matrix" values="0 0 0 0 0 0 0 0 0 0 0 0 0 0 0 0 0 0 127 0"/>
<feOffset dx="6" dy="6"/>
<feGaussianBlur stdDeviation="14.5"/>
<feColorMatrix type="matrix" values="0 0 0 0 0.760784 0 0 0 0 0.811765 0 0 0 0 0.945098 0 0 0 0.220533 0"/>
<feBlend mode="normal" in2="effect1_dropShadow" result="effect2_dropShadow"/>
<feBlend mode="normal" in="SourceGraphic" in2="effect2_dropShadow" result="shape"/>
</filter>
<filter id="filter2_dd" x="173" y="187" width="166.129" height="172.012" filterUnits="userSpaceOnUse" color-interpolation-filters="sRGB">
<feFlood flood-opacity="0" result="BackgroundImageFix"/>
<feColorMatrix in="SourceAlpha" type="matrix" values="0 0 0 0 0 0 0 0 0 0 0 0 0 0 0 0 0 0 127 0"/>
<feOffset dx="-8" dy="-8"/>
<feGaussianBlur stdDeviation="14.5"/>
<feColorMatrix type="matrix" values="0 0 0 0 0.759863 0 0 0 0 0.809954 0 0 0 0 0.943532 0 0 0 0.109488 0"/>
<feBlend mode="normal" in2="BackgroundImageFix" result="effect1_dropShadow"/>
<feColorMatrix in="SourceAlpha" type="matrix" values="0 0 0 0 0 0 0 0 0 0 0 0 0 0 0 0 0 0 127 0"/>
<feOffset dx="6" dy="6"/>
<feGaussianBlur stdDeviation="14.5"/>
<feColorMatrix type="matrix" values="0 0 0 0 0.760784 0 0 0 0 0.811765 0 0 0 0 0.945098 0 0 0 0.220533 0"/>
<feBlend mode="normal" in2="effect1_dropShadow" result="effect2_dropShadow"/>
<feBlend mode="normal" in="SourceGraphic" in2="effect2_dropShadow" result="shape"/>
</filter>
<filter id="filter3_d" x="163" y="153" width="62" height="177" filterUnits="userSpaceOnUse" color-interpolation-filters="sRGB">
<feFlood flood-opacity="0" result="BackgroundImageFix"/>
<feColorMatrix in="SourceAlpha" type="matrix" values="0 0 0 0 0 0 0 0 0 0 0 0 0 0 0 0 0 0 127 0"/>
<feOffset dy="2"/>
<feGaussianBlur stdDeviation="2"/>
<feColorMatrix type="matrix" values="0 0 0 0 0.785556 0 0 0 0 0.933333 0 0 0 0 0.900822 0 0 0 1 0"/>
<feBlend mode="normal" in2="BackgroundImageFix" result="effect1_dropShadow"/>
<feBlend mode="normal" in="SourceGraphic" in2="effect1_dropShadow" result="shape"/>
</filter>
<filter id="filter4_dd" x="27" y="80" width="335" height="110" filterUnits="userSpaceOnUse" color-interpolation-filters="sRGB">
<feFlood flood-opacity="0" result="BackgroundImageFix"/>
<feColorMatrix in="SourceAlpha" type="matrix" values="0 0 0 0 0 0 0 0 0 0 0 0 0 0 0 0 0 0 127 0"/>
<feOffset dx="-8" dy="-8"/>
<feGaussianBlur stdDeviation="14.5"/>
<feColorMatrix type="matrix" values="0 0 0 0 0.759863 0 0 0 0 0.809954 0 0 0 0 0.943532 0 0 0 0.109488 0"/>
<feBlend mode="normal" in2="BackgroundImageFix" result="effect1_dropShadow"/>
<feColorMatrix in="SourceAlpha" type="matrix" values="0 0 0 0 0 0 0 0 0 0 0 0 0 0 0 0 0 0 127 0"/>
<feOffset dx="6" dy="6"/>
<feGaussianBlur stdDeviation="14.5"/>
<feColorMatrix type="matrix" values="0 0 0 0 0.760784 0 0 0 0 0.811765 0 0 0 0 0.945098 0 0 0 0.220533 0"/>
<feBlend mode="normal" in2="effect1_dropShadow" result="effect2_dropShadow"/>
<feBlend mode="normal" in="SourceGraphic" in2="effect2_dropShadow" result="shape"/>
</filter>
</defs>
</svg>
