<svg width="303" height="91" viewBox="0 0 303 91" fill="none" xmlns="http://www.w3.org/2000/svg">
<g filter="url(#filter0_dd)">
<rect x="15" y="7" width="273" height="69" rx="34.5" stroke="#50E3C2" stroke-width="2"/>
</g>
<g filter="url(#filter1_dd)">
<rect x="23.8214" y="17" width="254.266" height="49" rx="24.5" fill="white"/>
</g>
<path d="M66.8286 38.2727L64.5714 45.022L62.1143 38.0267C61.7428 36.9198 60.7714 36.9813 60.7714 36.9813H58.6714L62.8428 47.9585C62.8428 47.9431 62.8428 47.9431 62.8286 47.9277C62.8286 47.9277 62.8428 47.9585 62.8428 47.9738C62.8571 47.9892 62.8571 48.02 62.8571 48.02L62.8428 47.9585C62.9857 48.4043 62.9429 48.6503 62.8143 49.0808L62.7286 49.3575C62.2428 50.649 61.5571 51.0026 60.1143 50.9257V50.9411L61.1286 53.5854C63 53.5393 64.4 52.8936 65.3428 50.3722L70.3571 36.9813H68.4857C68.4857 36.9813 68.4857 36.9813 68.4714 36.9813C68.3428 36.9813 67.2857 37.012 66.8286 38.2727ZM72.3 42.7005C72.3 40.7479 73.4571 39.395 74.8857 39.395C76.3143 39.395 77.4714 40.7479 77.4714 42.7005C77.4714 44.6069 76.3143 45.9291 74.8857 45.9291C73.4714 45.9137 72.3 44.6069 72.3 42.7005ZM69.6143 42.6697C69.6143 46.0521 71.9714 48.5734 74.8857 48.5734C77.8 48.5734 80.1857 46.0521 80.1857 42.6697C80.1857 39.2874 77.8 36.7199 74.8857 36.7199C71.9857 36.7353 69.6143 39.3028 69.6143 42.6697ZM51.0714 38.3342C50.3143 37.3502 49.1571 36.7353 47.7286 36.7353C44.8571 36.7353 43 38.903 43 41.778V48.3121H43.8714C44.4714 48.266 45.6429 47.9585 45.6857 46.0828V41.7165C45.6857 40.4405 46.5143 39.5641 47.7286 39.5641C49.5 39.5641 49.6857 41.0708 49.6857 41.7165V48.3121H50.5571C51.1571 48.266 52.3143 47.9585 52.3714 46.0982V41.7165C52.3714 40.4405 53.2286 39.5641 54.4143 39.5641C56.1857 39.5641 56.3857 41.0708 56.3857 41.7165V48.3121H57.2571C57.8571 48.266 59.0428 47.9585 59.0714 46.0521V41.778C59.0714 38.8108 57.3428 36.7353 54.4 36.7353C53.0429 36.7353 51.8571 37.3502 51.0714 38.3342ZM83.7714 42.7005C83.7714 40.9017 84.9714 39.4565 86.4571 39.4565C87.9428 39.4565 89.1428 40.8556 89.1428 42.7005C89.1428 44.4993 87.9428 45.8829 86.4571 45.8829C84.9714 45.8829 83.7714 44.4531 83.7714 42.7005ZM83.2143 32C81.3857 32 81.0857 33.3222 81.0571 33.9679V48.3121H82.3571C83.4 48.3275 83.6428 47.6202 83.6428 47.2205V47.1744V47.1129C84.4571 48.0353 85.5714 48.5581 86.8428 48.5581C89.6 48.5581 91.8286 46.0213 91.8286 42.6851C91.8286 39.3335 89.5857 36.7814 86.8428 36.7814C85.6428 36.7814 84.5571 37.258 83.7714 38.1036V32H83.2143Z" fill="url(#paint0_linear)"/>
<path d="M108.005 48L104.278 37.2686H104.208C104.308 38.8623 104.357 40.3564 104.357 41.751V48H102.45V35.1504H105.412L108.98 45.3721H109.033L112.707 35.1504H115.678V48H113.656V41.6455C113.656 41.0068 113.671 40.1748 113.7 39.1494C113.735 38.124 113.765 37.5029 113.788 37.2861H113.718L109.859 48H108.005ZM122.691 41.0127L125.732 35.1504H128.018L123.737 43.0166V48H121.628V43.0869L117.365 35.1504H119.65L122.691 41.0127ZM141.122 41.5576C141.122 43.6494 140.598 45.2754 139.549 46.4355C138.506 47.5957 137.026 48.1758 135.11 48.1758C133.171 48.1758 131.68 47.6016 130.637 46.4531C129.6 45.2988 129.081 43.6611 129.081 41.54C129.081 39.4189 129.603 37.79 130.646 36.6533C131.694 35.5166 133.188 34.9482 135.128 34.9482C137.038 34.9482 138.515 35.5254 139.558 36.6797C140.601 37.834 141.122 39.46 141.122 41.5576ZM131.313 41.5576C131.313 43.1396 131.633 44.3408 132.271 45.1611C132.91 45.9756 133.856 46.3828 135.11 46.3828C136.358 46.3828 137.299 45.9785 137.932 45.1699C138.57 44.3613 138.89 43.1572 138.89 41.5576C138.89 39.9814 138.573 38.7861 137.94 37.9717C137.313 37.1572 136.376 36.75 135.128 36.75C133.868 36.75 132.916 37.1572 132.271 37.9717C131.633 38.7861 131.313 39.9814 131.313 41.5576ZM143.882 35.1504H147.696C149.466 35.1504 150.743 35.4082 151.528 35.9238C152.319 36.4395 152.715 37.2539 152.715 38.3672C152.715 39.1172 152.521 39.7412 152.135 40.2393C151.748 40.7373 151.191 41.0508 150.465 41.1797V41.2676C151.367 41.4375 152.029 41.7744 152.451 42.2783C152.879 42.7764 153.093 43.4531 153.093 44.3086C153.093 45.4629 152.688 46.3682 151.88 47.0244C151.077 47.6748 149.958 48 148.522 48H143.882V35.1504ZM145.982 40.459H148.004C148.883 40.459 149.524 40.3213 149.929 40.0459C150.333 39.7646 150.535 39.29 150.535 38.6221C150.535 38.0186 150.315 37.582 149.876 37.3125C149.442 37.043 148.751 36.9082 147.802 36.9082H145.982V40.459ZM145.982 42.1641V46.2334H148.215C149.094 46.2334 149.756 46.0664 150.201 45.7324C150.652 45.3926 150.878 44.8594 150.878 44.1328C150.878 43.4648 150.649 42.9697 150.192 42.6475C149.735 42.3252 149.041 42.1641 148.109 42.1641H145.982ZM160.44 48V35.1504H162.541V48H160.44ZM174.274 48H172.2V42.0234C172.2 41.2734 172.048 40.7139 171.743 40.3447C171.444 39.9756 170.967 39.791 170.311 39.791C169.438 39.791 168.799 40.0488 168.395 40.5645C167.99 41.0801 167.788 41.9443 167.788 43.1572V48H165.723V38.2793H167.34L167.63 39.5537H167.735C168.028 39.0908 168.444 38.7334 168.983 38.4814C169.522 38.2295 170.12 38.1035 170.776 38.1035C173.108 38.1035 174.274 39.29 174.274 41.6631V48ZM180.77 46.5059C181.273 46.5059 181.777 46.4268 182.281 46.2686V47.8242C182.053 47.9238 181.757 48.0059 181.394 48.0703C181.036 48.1406 180.664 48.1758 180.277 48.1758C178.32 48.1758 177.342 47.1445 177.342 45.082V39.8438H176.015V38.9297L177.438 38.1738L178.142 36.1172H179.416V38.2793H182.185V39.8438H179.416V45.0469C179.416 45.5449 179.539 45.9141 179.785 46.1543C180.037 46.3887 180.365 46.5059 180.77 46.5059ZM188.478 48.1758C186.966 48.1758 185.782 47.7363 184.927 46.8574C184.077 45.9727 183.652 44.7568 183.652 43.21C183.652 41.6221 184.048 40.374 184.839 39.4658C185.63 38.5576 186.717 38.1035 188.1 38.1035C189.383 38.1035 190.396 38.4932 191.141 39.2725C191.885 40.0518 192.257 41.124 192.257 42.4893V43.6055H185.779C185.809 44.5488 186.063 45.2754 186.544 45.7852C187.024 46.2891 187.701 46.541 188.574 46.541C189.148 46.541 189.682 46.4883 190.174 46.3828C190.672 46.2715 191.205 46.0898 191.773 45.8379V47.5166C191.27 47.7568 190.76 47.9268 190.244 48.0264C189.729 48.126 189.14 48.1758 188.478 48.1758ZM188.1 39.668C187.443 39.668 186.916 39.876 186.518 40.292C186.125 40.708 185.891 41.3145 185.814 42.1113H190.227C190.215 41.3086 190.021 40.7021 189.646 40.292C189.271 39.876 188.756 39.668 188.1 39.668ZM202.812 38.2793V39.4131L201.151 39.7207C201.304 39.9258 201.43 40.1777 201.529 40.4766C201.629 40.7754 201.679 41.0918 201.679 41.4258C201.679 42.4277 201.333 43.2158 200.642 43.79C199.95 44.3643 198.998 44.6514 197.785 44.6514C197.475 44.6514 197.193 44.6279 196.941 44.5811C196.496 44.8564 196.273 45.1787 196.273 45.5479C196.273 45.7705 196.376 45.9375 196.581 46.0488C196.792 46.1602 197.176 46.2158 197.732 46.2158H199.429C200.501 46.2158 201.315 46.4443 201.872 46.9014C202.429 47.3584 202.707 48.0176 202.707 48.8789C202.707 49.9805 202.253 50.8301 201.345 51.4277C200.437 52.0254 199.124 52.3242 197.407 52.3242C196.083 52.3242 195.072 52.0898 194.375 51.6211C193.678 51.1523 193.329 50.4844 193.329 49.6172C193.329 49.0195 193.517 48.5156 193.892 48.1055C194.272 47.7012 194.803 47.4199 195.482 47.2617C195.207 47.1445 194.979 46.957 194.797 46.6992C194.621 46.4355 194.533 46.1602 194.533 45.873C194.533 45.5098 194.636 45.2021 194.841 44.9502C195.046 44.6982 195.351 44.4492 195.755 44.2031C195.251 43.9863 194.841 43.6348 194.524 43.1484C194.214 42.6562 194.059 42.082 194.059 41.4258C194.059 40.3711 194.39 39.5537 195.052 38.9736C195.72 38.3936 196.669 38.1035 197.899 38.1035C198.175 38.1035 198.462 38.124 198.761 38.165C199.065 38.2002 199.294 38.2383 199.446 38.2793H202.812ZM195.175 49.5117C195.175 49.957 195.374 50.2998 195.772 50.54C196.177 50.7803 196.742 50.9004 197.469 50.9004C198.594 50.9004 199.432 50.7393 199.982 50.417C200.533 50.0947 200.809 49.667 200.809 49.1338C200.809 48.7119 200.656 48.4102 200.352 48.2285C200.053 48.0527 199.493 47.9648 198.673 47.9648H197.108C196.517 47.9648 196.045 48.1025 195.693 48.3779C195.348 48.6592 195.175 49.0371 195.175 49.5117ZM196.062 41.4258C196.062 42.0352 196.218 42.5039 196.528 42.832C196.845 43.1602 197.296 43.3242 197.882 43.3242C199.077 43.3242 199.675 42.6855 199.675 41.4082C199.675 40.7754 199.525 40.2891 199.227 39.9492C198.934 39.6035 198.485 39.4307 197.882 39.4307C197.284 39.4307 196.83 39.6006 196.52 39.9404C196.215 40.2803 196.062 40.7754 196.062 41.4258ZM209.554 38.1035C209.97 38.1035 210.312 38.1328 210.582 38.1914L210.38 40.1162C210.087 40.0459 209.782 40.0107 209.466 40.0107C208.64 40.0107 207.969 40.2803 207.453 40.8193C206.943 41.3584 206.688 42.0586 206.688 42.9199V48H204.623V38.2793H206.24L206.513 39.9932H206.618C206.94 39.4131 207.359 38.9531 207.875 38.6133C208.396 38.2734 208.956 38.1035 209.554 38.1035ZM218.475 48L218.062 46.6465H217.991C217.522 47.2383 217.051 47.6426 216.576 47.8594C216.102 48.0703 215.492 48.1758 214.748 48.1758C213.793 48.1758 213.046 47.918 212.507 47.4023C211.974 46.8867 211.707 46.1572 211.707 45.2139C211.707 44.2119 212.079 43.4561 212.823 42.9463C213.567 42.4365 214.701 42.1582 216.225 42.1113L217.903 42.0586V41.54C217.903 40.9189 217.757 40.4561 217.464 40.1514C217.177 39.8408 216.729 39.6855 216.119 39.6855C215.621 39.6855 215.144 39.7588 214.687 39.9053C214.229 40.0518 213.79 40.2246 213.368 40.4238L212.7 38.9473C213.228 38.6719 213.805 38.4639 214.432 38.3232C215.059 38.1768 215.65 38.1035 216.207 38.1035C217.443 38.1035 218.375 38.373 219.002 38.9121C219.635 39.4512 219.951 40.2979 219.951 41.4521V48H218.475ZM215.398 46.5938C216.148 46.5938 216.749 46.3857 217.2 45.9697C217.657 45.5479 217.886 44.959 217.886 44.2031V43.3594L216.638 43.4121C215.665 43.4473 214.956 43.6113 214.511 43.9043C214.071 44.1914 213.852 44.6338 213.852 45.2314C213.852 45.665 213.98 46.002 214.238 46.2422C214.496 46.4766 214.883 46.5938 215.398 46.5938ZM226.455 46.5059C226.959 46.5059 227.463 46.4268 227.967 46.2686V47.8242C227.738 47.9238 227.442 48.0059 227.079 48.0703C226.722 48.1406 226.35 48.1758 225.963 48.1758C224.006 48.1758 223.027 47.1445 223.027 45.082V39.8438H221.7V38.9297L223.124 38.1738L223.827 36.1172H225.102V38.2793H227.87V39.8438H225.102V45.0469C225.102 45.5449 225.225 45.9141 225.471 46.1543C225.723 46.3887 226.051 46.5059 226.455 46.5059ZM231.983 48H229.918V38.2793H231.983V48ZM229.795 35.7041C229.795 35.335 229.895 35.0508 230.094 34.8516C230.299 34.6523 230.589 34.5527 230.964 34.5527C231.327 34.5527 231.608 34.6523 231.808 34.8516C232.013 35.0508 232.115 35.335 232.115 35.7041C232.115 36.0557 232.013 36.334 231.808 36.5391C231.608 36.7383 231.327 36.8379 230.964 36.8379C230.589 36.8379 230.299 36.7383 230.094 36.5391C229.895 36.334 229.795 36.0557 229.795 35.7041ZM243.567 43.1221C243.567 44.71 243.16 45.9492 242.346 46.8398C241.531 47.7305 240.397 48.1758 238.944 48.1758C238.036 48.1758 237.233 47.9707 236.536 47.5605C235.839 47.1504 235.303 46.5615 234.928 45.7939C234.553 45.0264 234.365 44.1357 234.365 43.1221C234.365 41.5459 234.77 40.3154 235.578 39.4307C236.387 38.5459 237.526 38.1035 238.997 38.1035C240.403 38.1035 241.517 38.5576 242.337 39.4658C243.157 40.3682 243.567 41.5869 243.567 43.1221ZM236.492 43.1221C236.492 45.3662 237.321 46.4883 238.979 46.4883C240.62 46.4883 241.44 45.3662 241.44 43.1221C241.44 40.9014 240.614 39.791 238.962 39.791C238.095 39.791 237.465 40.0781 237.072 40.6523C236.686 41.2266 236.492 42.0498 236.492 43.1221ZM254.501 48H252.427V42.0234C252.427 41.2734 252.274 40.7139 251.97 40.3447C251.671 39.9756 251.193 39.791 250.537 39.791C249.664 39.791 249.025 40.0488 248.621 40.5645C248.217 41.0801 248.015 41.9443 248.015 43.1572V48H245.949V38.2793H247.566L247.856 39.5537H247.962C248.255 39.0908 248.671 38.7334 249.21 38.4814C249.749 38.2295 250.347 38.1035 251.003 38.1035C253.335 38.1035 254.501 39.29 254.501 41.6631V48Z" fill="#1F3161"/>
<defs>
<filter id="filter0_dd" x="0" y="0" width="303" height="91" filterUnits="userSpaceOnUse" color-interpolation-filters="sRGB">
<feFlood flood-opacity="0" result="BackgroundImageFix"/>
<feColorMatrix in="SourceAlpha" type="matrix" values="0 0 0 0 0 0 0 0 0 0 0 0 0 0 0 0 0 0 127 0"/>
<feOffset dx="4" dy="4"/>
<feGaussianBlur stdDeviation="5"/>
<feColorMatrix type="matrix" values="0 0 0 0 0.934375 0 0 0 0 0.940365 0 0 0 0 0.958333 0 0 0 0.2 0"/>
<feBlend mode="normal" in2="BackgroundImageFix" result="effect1_dropShadow"/>
<feColorMatrix in="SourceAlpha" type="matrix" values="0 0 0 0 0 0 0 0 0 0 0 0 0 0 0 0 0 0 127 0"/>
<feOffset dx="-4" dy="4"/>
<feGaussianBlur stdDeviation="5"/>
<feColorMatrix type="matrix" values="0 0 0 0 0.933333 0 0 0 0 0.941176 0 0 0 0 0.956863 0 0 0 1 0"/>
<feBlend mode="normal" in2="effect1_dropShadow" result="effect2_dropShadow"/>
<feBlend mode="normal" in="SourceGraphic" in2="effect2_dropShadow" result="shape"/>
</filter>
<filter id="filter1_dd" x="9.82141" y="11" width="282.266" height="69" filterUnits="userSpaceOnUse" color-interpolation-filters="sRGB">
<feFlood flood-opacity="0" result="BackgroundImageFix"/>
<feColorMatrix in="SourceAlpha" type="matrix" values="0 0 0 0 0 0 0 0 0 0 0 0 0 0 0 0 0 0 127 0"/>
<feOffset dx="4" dy="4"/>
<feGaussianBlur stdDeviation="5"/>
<feColorMatrix type="matrix" values="0 0 0 0 0.934375 0 0 0 0 0.940365 0 0 0 0 0.958333 0 0 0 0.2 0"/>
<feBlend mode="normal" in2="BackgroundImageFix" result="effect1_dropShadow"/>
<feColorMatrix in="SourceAlpha" type="matrix" values="0 0 0 0 0 0 0 0 0 0 0 0 0 0 0 0 0 0 127 0"/>
<feOffset dx="-4" dy="4"/>
<feGaussianBlur stdDeviation="5"/>
<feColorMatrix type="matrix" values="0 0 0 0 0.933333 0 0 0 0 0.941176 0 0 0 0 0.956863 0 0 0 1 0"/>
<feBlend mode="normal" in2="effect1_dropShadow" result="effect2_dropShadow"/>
<feBlend mode="normal" in="SourceGraphic" in2="effect2_dropShadow" result="shape"/>
</filter>
<linearGradient id="paint0_linear" x1="43" y1="42.7927" x2="91.8286" y2="42.7927" gradientUnits="userSpaceOnUse">
<stop offset="0.36" stop-color="#6100A5"/>
<stop offset="0.4557" stop-color="#7001A0"/>
<stop offset="0.6409" stop-color="#980293"/>
<stop offset="0.8947" stop-color="#D9057E"/>
<stop offset="0.97" stop-color="#ED0677"/>
</linearGradient>
</defs>
</svg>
