<svg width="278" height="91" viewBox="0 0 278 91" fill="none" xmlns="http://www.w3.org/2000/svg">
<g filter="url(#filter0_dd)">
<rect x="15" y="7" width="248" height="69" rx="34.5" stroke="#50E3C2" stroke-width="2"/>
</g>
<g filter="url(#filter1_dd)">
<rect x="23" y="17" width="231" height="49" rx="24.5" fill="white"/>
</g>
<path d="M118.304 37.327L115.623 45.0513L112.705 37.0455C112.263 35.7786 111.109 35.849 111.109 35.849H108.615L113.57 48.412C113.57 48.3944 113.57 48.3944 113.553 48.3768C113.553 48.3768 113.57 48.412 113.57 48.4296C113.587 48.4472 113.587 48.4824 113.587 48.4824L113.57 48.412C113.74 48.9222 113.689 49.2038 113.536 49.6964L113.434 50.0131C112.857 51.4911 112.043 51.8958 110.329 51.8079V51.8255L111.534 54.8518C113.757 54.799 115.42 54.06 116.539 51.1744L122.496 35.849H120.273C120.273 35.849 120.273 35.849 120.256 35.849C120.103 35.849 118.847 35.8842 118.304 37.327ZM124.803 42.3944C124.803 40.1598 126.178 38.6114 127.875 38.6114C129.572 38.6114 130.946 40.1598 130.946 42.3944C130.946 44.5762 129.572 46.0894 127.875 46.0894C126.195 46.0718 124.803 44.5762 124.803 42.3944ZM121.613 42.3592C121.613 46.2302 124.413 49.1158 127.875 49.1158C131.336 49.1158 134.17 46.2302 134.17 42.3592C134.17 38.4883 131.336 35.5499 127.875 35.5499C124.43 35.5675 121.613 38.5059 121.613 42.3592ZM99.5875 37.3974C98.6881 36.2713 97.3136 35.5675 95.6167 35.5675C92.206 35.5675 90 38.0484 90 41.3387V48.8167H91.0351C91.7478 48.7639 93.1393 48.412 93.1902 46.2654V41.2683C93.1902 39.8079 94.1744 38.805 95.6167 38.805C97.7209 38.805 97.9415 40.5293 97.9415 41.2683V48.8167H98.9766C99.6893 48.7639 101.064 48.412 101.132 46.283V41.2683C101.132 39.8079 102.15 38.805 103.558 38.805C105.662 38.805 105.9 40.5293 105.9 41.2683V48.8167H106.935C107.648 48.7639 109.056 48.412 109.09 46.2302V41.3387C109.09 37.9428 107.037 35.5675 103.541 35.5675C101.929 35.5675 100.521 36.2713 99.5875 37.3974ZM138.429 42.3944C138.429 40.3358 139.855 38.6818 141.62 38.6818C143.384 38.6818 144.81 40.283 144.81 42.3944C144.81 44.4531 143.384 46.0366 141.62 46.0366C139.855 46.0366 138.429 44.4003 138.429 42.3944ZM137.768 30.1481C135.596 30.1481 135.239 31.6613 135.205 32.4003V48.8167H136.75C137.988 48.8343 138.277 48.0249 138.277 47.5674V47.5146V47.4442C139.244 48.5 140.568 49.0982 142.078 49.0982C145.353 49.0982 148 46.195 148 42.3768C148 38.5411 145.336 35.6202 142.078 35.6202C140.652 35.6202 139.363 36.1657 138.429 37.1334V30.1481H137.768Z" fill="url(#paint0_linear)"/>
<path d="M60.1348 48H58.0342V36.9521H54.2549V35.1504H63.9141V36.9521H60.1348V48ZM70.6025 38.1035C71.0186 38.1035 71.3613 38.1328 71.6309 38.1914L71.4287 40.1162C71.1357 40.0459 70.8311 40.0107 70.5146 40.0107C69.6885 40.0107 69.0176 40.2803 68.502 40.8193C67.9922 41.3584 67.7373 42.0586 67.7373 42.9199V48H65.6719V38.2793H67.2891L67.5615 39.9932H67.667C67.9893 39.4131 68.4082 38.9531 68.9238 38.6133C69.4453 38.2734 70.0049 38.1035 70.6025 38.1035ZM71.9648 38.2793H74.2148L76.1924 43.79C76.4912 44.5752 76.6904 45.3135 76.79 46.0049H76.8604C76.9131 45.6826 77.0098 45.293 77.1504 44.8359C77.291 44.373 78.0352 42.1875 79.3828 38.2793H81.6152L77.458 49.292C76.7021 51.3135 75.4424 52.3242 73.6787 52.3242C73.2217 52.3242 72.7764 52.2744 72.3428 52.1748V50.54C72.6533 50.6104 73.0078 50.6455 73.4062 50.6455C74.4023 50.6455 75.1025 50.0684 75.5068 48.9141L75.8672 48L71.9648 38.2793ZM162.782 39.8438H160.409V48H158.335V39.8438H156.735V38.877L158.335 38.2441V37.6113C158.335 36.4629 158.604 35.6133 159.144 35.0625C159.683 34.5059 160.506 34.2275 161.613 34.2275C162.34 34.2275 163.055 34.3477 163.758 34.5879L163.213 36.1523C162.703 35.9883 162.217 35.9062 161.754 35.9062C161.285 35.9062 160.942 36.0527 160.726 36.3457C160.515 36.6328 160.409 37.0664 160.409 37.6465V38.2793H162.782V39.8438ZM173.065 43.1221C173.065 44.71 172.658 45.9492 171.844 46.8398C171.029 47.7305 169.896 48.1758 168.442 48.1758C167.534 48.1758 166.731 47.9707 166.034 47.5605C165.337 47.1504 164.801 46.5615 164.426 45.7939C164.051 45.0264 163.863 44.1357 163.863 43.1221C163.863 41.5459 164.268 40.3154 165.076 39.4307C165.885 38.5459 167.024 38.1035 168.495 38.1035C169.901 38.1035 171.015 38.5576 171.835 39.4658C172.655 40.3682 173.065 41.5869 173.065 43.1221ZM165.99 43.1221C165.99 45.3662 166.819 46.4883 168.478 46.4883C170.118 46.4883 170.938 45.3662 170.938 43.1221C170.938 40.9014 170.112 39.791 168.46 39.791C167.593 39.791 166.963 40.0781 166.57 40.6523C166.184 41.2266 165.99 42.0498 165.99 43.1221ZM180.378 38.1035C180.794 38.1035 181.137 38.1328 181.406 38.1914L181.204 40.1162C180.911 40.0459 180.606 40.0107 180.29 40.0107C179.464 40.0107 178.793 40.2803 178.277 40.8193C177.768 41.3584 177.513 42.0586 177.513 42.9199V48H175.447V38.2793H177.064L177.337 39.9932H177.442C177.765 39.4131 178.184 38.9531 178.699 38.6133C179.221 38.2734 179.78 38.1035 180.378 38.1035ZM192.771 39.8438H190.397V48H188.323V39.8438H186.724V38.877L188.323 38.2441V37.6113C188.323 36.4629 188.593 35.6133 189.132 35.0625C189.671 34.5059 190.494 34.2275 191.602 34.2275C192.328 34.2275 193.043 34.3477 193.746 34.5879L193.201 36.1523C192.691 35.9883 192.205 35.9062 191.742 35.9062C191.273 35.9062 190.931 36.0527 190.714 36.3457C190.503 36.6328 190.397 37.0664 190.397 37.6465V38.2793H192.771V39.8438ZM199.362 38.1035C199.778 38.1035 200.121 38.1328 200.391 38.1914L200.188 40.1162C199.896 40.0459 199.591 40.0107 199.274 40.0107C198.448 40.0107 197.777 40.2803 197.262 40.8193C196.752 41.3584 196.497 42.0586 196.497 42.9199V48H194.432V38.2793H196.049L196.321 39.9932H196.427C196.749 39.4131 197.168 38.9531 197.684 38.6133C198.205 38.2734 198.765 38.1035 199.362 38.1035ZM206.446 48.1758C204.935 48.1758 203.751 47.7363 202.896 46.8574C202.046 45.9727 201.621 44.7568 201.621 43.21C201.621 41.6221 202.017 40.374 202.808 39.4658C203.599 38.5576 204.686 38.1035 206.068 38.1035C207.352 38.1035 208.365 38.4932 209.109 39.2725C209.854 40.0518 210.226 41.124 210.226 42.4893V43.6055H203.748C203.777 44.5488 204.032 45.2754 204.513 45.7852C204.993 46.2891 205.67 46.541 206.543 46.541C207.117 46.541 207.65 46.4883 208.143 46.3828C208.641 46.2715 209.174 46.0898 209.742 45.8379V47.5166C209.238 47.7568 208.729 47.9268 208.213 48.0264C207.697 48.126 207.108 48.1758 206.446 48.1758ZM206.068 39.668C205.412 39.668 204.885 39.876 204.486 40.292C204.094 40.708 203.859 41.3145 203.783 42.1113H208.195C208.184 41.3086 207.99 40.7021 207.615 40.292C207.24 39.876 206.725 39.668 206.068 39.668ZM216.817 48.1758C215.306 48.1758 214.122 47.7363 213.267 46.8574C212.417 45.9727 211.992 44.7568 211.992 43.21C211.992 41.6221 212.388 40.374 213.179 39.4658C213.97 38.5576 215.057 38.1035 216.439 38.1035C217.723 38.1035 218.736 38.4932 219.48 39.2725C220.225 40.0518 220.597 41.124 220.597 42.4893V43.6055H214.119C214.148 44.5488 214.403 45.2754 214.884 45.7852C215.364 46.2891 216.041 46.541 216.914 46.541C217.488 46.541 218.021 46.4883 218.514 46.3828C219.012 46.2715 219.545 46.0898 220.113 45.8379V47.5166C219.609 47.7568 219.1 47.9268 218.584 48.0264C218.068 48.126 217.479 48.1758 216.817 48.1758ZM216.439 39.668C215.783 39.668 215.256 39.876 214.857 40.292C214.465 40.708 214.23 41.3145 214.154 42.1113H218.566C218.555 41.3086 218.361 40.7021 217.986 40.292C217.611 39.876 217.096 39.668 216.439 39.668Z" fill="#1F3161"/>
<defs>
<filter id="filter0_dd" x="0" y="0" width="278" height="91" filterUnits="userSpaceOnUse" color-interpolation-filters="sRGB">
<feFlood flood-opacity="0" result="BackgroundImageFix"/>
<feColorMatrix in="SourceAlpha" type="matrix" values="0 0 0 0 0 0 0 0 0 0 0 0 0 0 0 0 0 0 127 0"/>
<feOffset dx="4" dy="4"/>
<feGaussianBlur stdDeviation="5"/>
<feColorMatrix type="matrix" values="0 0 0 0 0.934375 0 0 0 0 0.940365 0 0 0 0 0.958333 0 0 0 0.2 0"/>
<feBlend mode="normal" in2="BackgroundImageFix" result="effect1_dropShadow"/>
<feColorMatrix in="SourceAlpha" type="matrix" values="0 0 0 0 0 0 0 0 0 0 0 0 0 0 0 0 0 0 127 0"/>
<feOffset dx="-4" dy="4"/>
<feGaussianBlur stdDeviation="5"/>
<feColorMatrix type="matrix" values="0 0 0 0 0.933333 0 0 0 0 0.941176 0 0 0 0 0.956863 0 0 0 1 0"/>
<feBlend mode="normal" in2="effect1_dropShadow" result="effect2_dropShadow"/>
<feBlend mode="normal" in="SourceGraphic" in2="effect2_dropShadow" result="shape"/>
</filter>
<filter id="filter1_dd" x="9" y="11" width="259" height="69" filterUnits="userSpaceOnUse" color-interpolation-filters="sRGB">
<feFlood flood-opacity="0" result="BackgroundImageFix"/>
<feColorMatrix in="SourceAlpha" type="matrix" values="0 0 0 0 0 0 0 0 0 0 0 0 0 0 0 0 0 0 127 0"/>
<feOffset dx="4" dy="4"/>
<feGaussianBlur stdDeviation="5"/>
<feColorMatrix type="matrix" values="0 0 0 0 0.934375 0 0 0 0 0.940365 0 0 0 0 0.958333 0 0 0 0.2 0"/>
<feBlend mode="normal" in2="BackgroundImageFix" result="effect1_dropShadow"/>
<feColorMatrix in="SourceAlpha" type="matrix" values="0 0 0 0 0 0 0 0 0 0 0 0 0 0 0 0 0 0 127 0"/>
<feOffset dx="-4" dy="4"/>
<feGaussianBlur stdDeviation="5"/>
<feColorMatrix type="matrix" values="0 0 0 0 0.933333 0 0 0 0 0.941176 0 0 0 0 0.956863 0 0 0 1 0"/>
<feBlend mode="normal" in2="effect1_dropShadow" result="effect2_dropShadow"/>
<feBlend mode="normal" in="SourceGraphic" in2="effect2_dropShadow" result="shape"/>
</filter>
<linearGradient id="paint0_linear" x1="90" y1="42.5" x2="148" y2="42.5" gradientUnits="userSpaceOnUse">
<stop offset="0.36" stop-color="#6100A5"/>
<stop offset="0.4557" stop-color="#7001A0"/>
<stop offset="0.6409" stop-color="#980293"/>
<stop offset="0.8947" stop-color="#D9057E"/>
<stop offset="0.97" stop-color="#ED0677"/>
</linearGradient>
</defs>
</svg>
