<svg width="300" height="64" viewBox="0 0 300 64" fill="none" xmlns="http://www.w3.org/2000/svg">
<g filter="url(#filter0_dd)">
<rect x="9.632" y="4.632" width="280.736" height="49.736" rx="22.752" stroke="#50E3C2" stroke-width="1.264"/>
</g>
<g filter="url(#filter1_dd)">
<rect x="19" y="12" width="260" height="35" rx="17.5" fill="white"/>
</g>
<path d="M89.7715 34H88.1377V25.4072H85.1982V24.0059H92.7109V25.4072H89.7715V34ZM97.9131 26.3027C98.2367 26.3027 98.5033 26.3255 98.7129 26.3711L98.5557 27.8682C98.3278 27.8135 98.0908 27.7861 97.8447 27.7861C97.2021 27.7861 96.6803 27.9958 96.2793 28.415C95.8828 28.8343 95.6846 29.3789 95.6846 30.0488V34H94.0781V26.4395H95.3359L95.5479 27.7725H95.6299C95.8805 27.3213 96.2064 26.9635 96.6074 26.6992C97.013 26.4349 97.4482 26.3027 97.9131 26.3027ZM98.9727 26.4395H100.723L102.261 30.7256C102.493 31.3363 102.648 31.9105 102.726 32.4482H102.78C102.821 32.1976 102.896 31.8945 103.006 31.5391C103.115 31.179 103.694 29.4792 104.742 26.4395H106.479L103.245 35.0049C102.657 36.5771 101.677 37.3633 100.306 37.3633C99.9502 37.3633 99.6038 37.3245 99.2666 37.2471V35.9756C99.5081 36.0303 99.7839 36.0576 100.094 36.0576C100.868 36.0576 101.413 35.6087 101.728 34.7109L102.008 34L98.9727 26.4395ZM169.608 27.6562H167.763V34H166.149V27.6562H164.905V26.9043L166.149 26.4121V25.9199C166.149 25.0267 166.359 24.3659 166.778 23.9375C167.198 23.5046 167.838 23.2881 168.699 23.2881C169.264 23.2881 169.82 23.3815 170.367 23.5684L169.943 24.7852C169.547 24.6576 169.169 24.5938 168.809 24.5938C168.444 24.5938 168.177 24.7077 168.009 24.9355C167.845 25.1589 167.763 25.4961 167.763 25.9473V26.4395H169.608V27.6562ZM177.606 30.2061C177.606 31.4411 177.29 32.4049 176.656 33.0977C176.023 33.7904 175.141 34.1367 174.011 34.1367C173.304 34.1367 172.68 33.9772 172.138 33.6582C171.595 33.3392 171.178 32.8812 170.887 32.2842C170.595 31.6872 170.449 30.9945 170.449 30.2061C170.449 28.9801 170.764 28.0231 171.393 27.335C172.021 26.6468 172.908 26.3027 174.052 26.3027C175.146 26.3027 176.011 26.6559 176.649 27.3623C177.287 28.0641 177.606 29.012 177.606 30.2061ZM172.104 30.2061C172.104 31.9515 172.748 32.8242 174.038 32.8242C175.314 32.8242 175.952 31.9515 175.952 30.2061C175.952 28.4788 175.31 27.6152 174.024 27.6152C173.35 27.6152 172.86 27.8385 172.555 28.2852C172.254 28.7318 172.104 29.3721 172.104 30.2061ZM183.294 26.3027C183.618 26.3027 183.884 26.3255 184.094 26.3711L183.937 27.8682C183.709 27.8135 183.472 27.7861 183.226 27.7861C182.583 27.7861 182.061 27.9958 181.66 28.415C181.264 28.8343 181.065 29.3789 181.065 30.0488V34H179.459V26.4395H180.717L180.929 27.7725H181.011C181.261 27.3213 181.587 26.9635 181.988 26.6992C182.394 26.4349 182.829 26.3027 183.294 26.3027ZM192.933 27.6562H191.087V34H189.474V27.6562H188.229V26.9043L189.474 26.4121V25.9199C189.474 25.0267 189.683 24.3659 190.103 23.9375C190.522 23.5046 191.162 23.2881 192.023 23.2881C192.589 23.2881 193.145 23.3815 193.691 23.5684L193.268 24.7852C192.871 24.6576 192.493 24.5938 192.133 24.5938C191.768 24.5938 191.502 24.7077 191.333 24.9355C191.169 25.1589 191.087 25.4961 191.087 25.9473V26.4395H192.933V27.6562ZM198.06 26.3027C198.383 26.3027 198.65 26.3255 198.859 26.3711L198.702 27.8682C198.474 27.8135 198.237 27.7861 197.991 27.7861C197.349 27.7861 196.827 27.9958 196.426 28.415C196.029 28.8343 195.831 29.3789 195.831 30.0488V34H194.225V26.4395H195.482L195.694 27.7725H195.776C196.027 27.3213 196.353 26.9635 196.754 26.6992C197.16 26.4349 197.595 26.3027 198.06 26.3027ZM203.569 34.1367C202.394 34.1367 201.473 33.7949 200.808 33.1113C200.147 32.4232 199.816 31.4775 199.816 30.2744C199.816 29.0394 200.124 28.0687 200.739 27.3623C201.354 26.6559 202.2 26.3027 203.275 26.3027C204.273 26.3027 205.062 26.6058 205.641 27.2119C206.219 27.818 206.509 28.652 206.509 29.7139V30.582H201.471C201.493 31.3158 201.692 31.8809 202.065 32.2773C202.439 32.6693 202.965 32.8652 203.645 32.8652C204.091 32.8652 204.506 32.8242 204.889 32.7422C205.276 32.6556 205.691 32.5143 206.133 32.3184V33.624C205.741 33.8109 205.344 33.943 204.943 34.0205C204.542 34.098 204.084 34.1367 203.569 34.1367ZM203.275 27.5195C202.765 27.5195 202.355 27.6813 202.045 28.0049C201.74 28.3285 201.557 28.8001 201.498 29.4199H204.93C204.921 28.7956 204.77 28.3239 204.479 28.0049C204.187 27.6813 203.786 27.5195 203.275 27.5195ZM211.636 34.1367C210.46 34.1367 209.539 33.7949 208.874 33.1113C208.213 32.4232 207.883 31.4775 207.883 30.2744C207.883 29.0394 208.19 28.0687 208.806 27.3623C209.421 26.6559 210.266 26.3027 211.342 26.3027C212.34 26.3027 213.128 26.6058 213.707 27.2119C214.286 27.818 214.575 28.652 214.575 29.7139V30.582H209.537C209.56 31.3158 209.758 31.8809 210.132 32.2773C210.506 32.6693 211.032 32.8652 211.711 32.8652C212.158 32.8652 212.572 32.8242 212.955 32.7422C213.342 32.6556 213.757 32.5143 214.199 32.3184V33.624C213.807 33.8109 213.411 33.943 213.01 34.0205C212.609 34.098 212.151 34.1367 211.636 34.1367ZM211.342 27.5195C210.831 27.5195 210.421 27.6813 210.111 28.0049C209.806 28.3285 209.624 28.8001 209.564 29.4199H212.996C212.987 28.7956 212.837 28.3239 212.545 28.0049C212.253 27.6813 211.852 27.5195 211.342 27.5195Z" fill="#1F3161"/>
<path d="M134.624 25.2308L132.67 30.859L130.543 25.0256C130.222 24.1026 129.381 24.1538 129.381 24.1538H127.564L131.174 33.3077C131.174 33.2949 131.174 33.2949 131.162 33.2821C131.162 33.2821 131.174 33.3077 131.174 33.3205C131.186 33.3333 131.186 33.359 131.186 33.359L131.174 33.3077C131.298 33.6795 131.26 33.8846 131.149 34.2436L131.075 34.4744C130.655 35.5513 130.061 35.8462 128.812 35.7821V35.7949L129.69 38C131.31 37.9615 132.522 37.4231 133.338 35.3205L137.677 24.1538H136.058C136.058 24.1538 136.058 24.1538 136.045 24.1538C135.934 24.1538 135.019 24.1795 134.624 25.2308ZM139.359 28.9231C139.359 27.2949 140.36 26.1667 141.597 26.1667C142.833 26.1667 143.835 27.2949 143.835 28.9231C143.835 30.5128 142.833 31.6154 141.597 31.6154C140.373 31.6026 139.359 30.5128 139.359 28.9231ZM137.035 28.8974C137.035 31.7179 139.075 33.8205 141.597 33.8205C144.119 33.8205 146.184 31.7179 146.184 28.8974C146.184 26.0769 144.119 23.9359 141.597 23.9359C139.087 23.9487 137.035 26.0897 137.035 28.8974ZM120.986 25.2821C120.33 24.4615 119.329 23.9487 118.093 23.9487C115.607 23.9487 114 25.7564 114 28.1538V33.6026H114.754C115.274 33.5641 116.287 33.3077 116.324 31.7436V28.1026C116.324 27.0385 117.042 26.3077 118.093 26.3077C119.626 26.3077 119.786 27.5641 119.786 28.1026V33.6026H120.541C121.06 33.5641 122.061 33.3077 122.111 31.7564V28.1026C122.111 27.0385 122.853 26.3077 123.879 26.3077C125.412 26.3077 125.585 27.5641 125.585 28.1026V33.6026H126.339C126.859 33.5641 127.885 33.3077 127.91 31.7179V28.1538C127.91 25.6795 126.414 23.9487 123.867 23.9487C122.692 23.9487 121.666 24.4615 120.986 25.2821ZM149.287 28.9231C149.287 27.4231 150.326 26.2179 151.612 26.2179C152.898 26.2179 153.936 27.3846 153.936 28.9231C153.936 30.4231 152.898 31.5769 151.612 31.5769C150.326 31.5769 149.287 30.3846 149.287 28.9231ZM148.805 20C147.223 20 146.963 21.1026 146.938 21.641V33.6026H148.063C148.966 33.6154 149.176 33.0256 149.176 32.6923V32.6538V32.6026C149.881 33.3718 150.845 33.8077 151.946 33.8077C154.332 33.8077 156.261 31.6923 156.261 28.9103C156.261 26.1154 154.32 23.9872 151.946 23.9872C150.907 23.9872 149.967 24.3846 149.287 25.0897V20H148.805Z" fill="url(#paint0_linear)"/>
<defs>
<filter id="filter0_dd" x="0.152" y="0.208" width="299.696" height="63.64" filterUnits="userSpaceOnUse" color-interpolation-filters="sRGB">
<feFlood flood-opacity="0" result="BackgroundImageFix"/>
<feColorMatrix in="SourceAlpha" type="matrix" values="0 0 0 0 0 0 0 0 0 0 0 0 0 0 0 0 0 0 127 0"/>
<feOffset dx="2.528" dy="2.528"/>
<feGaussianBlur stdDeviation="3.16"/>
<feColorMatrix type="matrix" values="0 0 0 0 0.934375 0 0 0 0 0.940365 0 0 0 0 0.958333 0 0 0 0.2 0"/>
<feBlend mode="normal" in2="BackgroundImageFix" result="effect1_dropShadow"/>
<feColorMatrix in="SourceAlpha" type="matrix" values="0 0 0 0 0 0 0 0 0 0 0 0 0 0 0 0 0 0 127 0"/>
<feOffset dx="-2.528" dy="2.528"/>
<feGaussianBlur stdDeviation="3.16"/>
<feColorMatrix type="matrix" values="0 0 0 0 0.933333 0 0 0 0 0.941176 0 0 0 0 0.956863 0 0 0 1 0"/>
<feBlend mode="normal" in2="effect1_dropShadow" result="effect2_dropShadow"/>
<feBlend mode="normal" in="SourceGraphic" in2="effect2_dropShadow" result="shape"/>
</filter>
<filter id="filter1_dd" x="10.152" y="8.208" width="277.696" height="47.64" filterUnits="userSpaceOnUse" color-interpolation-filters="sRGB">
<feFlood flood-opacity="0" result="BackgroundImageFix"/>
<feColorMatrix in="SourceAlpha" type="matrix" values="0 0 0 0 0 0 0 0 0 0 0 0 0 0 0 0 0 0 127 0"/>
<feOffset dx="2.528" dy="2.528"/>
<feGaussianBlur stdDeviation="3.16"/>
<feColorMatrix type="matrix" values="0 0 0 0 0.934375 0 0 0 0 0.940365 0 0 0 0 0.958333 0 0 0 0.2 0"/>
<feBlend mode="normal" in2="BackgroundImageFix" result="effect1_dropShadow"/>
<feColorMatrix in="SourceAlpha" type="matrix" values="0 0 0 0 0 0 0 0 0 0 0 0 0 0 0 0 0 0 127 0"/>
<feOffset dx="-2.528" dy="2.528"/>
<feGaussianBlur stdDeviation="3.16"/>
<feColorMatrix type="matrix" values="0 0 0 0 0.933333 0 0 0 0 0.941176 0 0 0 0 0.956863 0 0 0 1 0"/>
<feBlend mode="normal" in2="effect1_dropShadow" result="effect2_dropShadow"/>
<feBlend mode="normal" in="SourceGraphic" in2="effect2_dropShadow" result="shape"/>
</filter>
<linearGradient id="paint0_linear" x1="114" y1="29" x2="156.261" y2="29" gradientUnits="userSpaceOnUse">
<stop offset="0.36" stop-color="#6100A5"/>
<stop offset="0.4557" stop-color="#7001A0"/>
<stop offset="0.6409" stop-color="#980293"/>
<stop offset="0.8947" stop-color="#D9057E"/>
<stop offset="0.97" stop-color="#ED0677"/>
</linearGradient>
</defs>
</svg>
