<svg width="551" height="160" viewBox="0 0 551 160" fill="none" xmlns="http://www.w3.org/2000/svg">
<ellipse cx="295.781" cy="4" rx="3.78102" ry="4" fill="#50E3C2" fill-opacity="0.5"/>
<ellipse cx="331.701" cy="4" rx="3.78102" ry="4" fill="#50E3C2" fill-opacity="0.5"/>
<ellipse cx="367.62" cy="4" rx="3.78102" ry="4" fill="#50E3C2" fill-opacity="0.5"/>
<ellipse cx="403.54" cy="4" rx="3.78102" ry="4" fill="#50E3C2" fill-opacity="0.5"/>
<ellipse cx="439.46" cy="4" rx="3.78102" ry="4" fill="#50E3C2" fill-opacity="0.5"/>
<ellipse cx="475.38" cy="4" rx="3.78102" ry="4" fill="#50E3C2" fill-opacity="0.5"/>
<ellipse cx="295.781" cy="42" rx="3.78102" ry="4" fill="#50E3C2" fill-opacity="0.5"/>
<ellipse cx="331.701" cy="42" rx="3.78102" ry="4" fill="#50E3C2" fill-opacity="0.5"/>
<ellipse cx="367.62" cy="42" rx="3.78102" ry="4" fill="#50E3C2" fill-opacity="0.5"/>
<ellipse cx="403.54" cy="42" rx="3.78102" ry="4" fill="#50E3C2" fill-opacity="0.5"/>
<ellipse cx="439.46" cy="42" rx="3.78102" ry="4" fill="#50E3C2" fill-opacity="0.5"/>
<ellipse cx="475.38" cy="42" rx="3.78102" ry="4" fill="#50E3C2" fill-opacity="0.5"/>
<ellipse cx="295.781" cy="80" rx="3.78102" ry="4" fill="#50E3C2" fill-opacity="0.5"/>
<ellipse cx="331.701" cy="80" rx="3.78102" ry="4" fill="#50E3C2" fill-opacity="0.5"/>
<ellipse cx="367.62" cy="80" rx="3.78102" ry="4" fill="#50E3C2" fill-opacity="0.5"/>
<ellipse cx="403.54" cy="80" rx="3.78102" ry="4" fill="#50E3C2" fill-opacity="0.5"/>
<ellipse cx="439.46" cy="80" rx="3.78102" ry="4" fill="#50E3C2" fill-opacity="0.5"/>
<ellipse cx="475.38" cy="80" rx="3.78102" ry="4" fill="#50E3C2" fill-opacity="0.5"/>
<ellipse cx="295.781" cy="118" rx="3.78102" ry="4" fill="#50E3C2" fill-opacity="0.5"/>
<ellipse cx="331.701" cy="118" rx="3.78102" ry="4" fill="#50E3C2" fill-opacity="0.5"/>
<ellipse cx="367.62" cy="118" rx="3.78102" ry="4" fill="#50E3C2" fill-opacity="0.5"/>
<ellipse cx="403.54" cy="118" rx="3.78102" ry="4" fill="#50E3C2" fill-opacity="0.5"/>
<ellipse cx="439.46" cy="118" rx="3.78102" ry="4" fill="#50E3C2" fill-opacity="0.5"/>
<ellipse cx="475.38" cy="118" rx="3.78102" ry="4" fill="#50E3C2" fill-opacity="0.5"/>
<ellipse cx="511.299" cy="4" rx="3.78102" ry="4" fill="#50E3C2" fill-opacity="0.5"/>
<ellipse cx="511.299" cy="42" rx="3.78102" ry="4" fill="#50E3C2" fill-opacity="0.5"/>
<ellipse cx="511.299" cy="80" rx="3.78102" ry="4" fill="#50E3C2" fill-opacity="0.5"/>
<ellipse cx="511.299" cy="118" rx="3.78102" ry="4" fill="#50E3C2" fill-opacity="0.5"/>
<ellipse cx="547.219" cy="4" rx="3.78102" ry="4" fill="#50E3C2" fill-opacity="0.5"/>
<ellipse cx="547.219" cy="42" rx="3.78102" ry="4" fill="#50E3C2" fill-opacity="0.5"/>
<ellipse cx="547.219" cy="80" rx="3.78102" ry="4" fill="#50E3C2" fill-opacity="0.5"/>
<ellipse cx="547.219" cy="118" rx="3.78102" ry="4" fill="#50E3C2" fill-opacity="0.5"/>
<ellipse cx="295.781" cy="156" rx="3.78102" ry="4" fill="#50E3C2" fill-opacity="0.5"/>
<ellipse cx="331.701" cy="156" rx="3.78102" ry="4" fill="#50E3C2" fill-opacity="0.5"/>
<ellipse cx="367.62" cy="156" rx="3.78102" ry="4" fill="#50E3C2" fill-opacity="0.5"/>
<ellipse cx="403.54" cy="156" rx="3.78102" ry="4" fill="#50E3C2" fill-opacity="0.5"/>
<ellipse cx="439.46" cy="156" rx="3.78102" ry="4" fill="#50E3C2" fill-opacity="0.5"/>
<ellipse cx="475.38" cy="156" rx="3.78102" ry="4" fill="#50E3C2" fill-opacity="0.5"/>
<ellipse cx="511.299" cy="156" rx="3.78102" ry="4" fill="#50E3C2" fill-opacity="0.5"/>
<ellipse cx="547.219" cy="156" rx="3.78102" ry="4" fill="#50E3C2" fill-opacity="0.5"/>
<ellipse cx="3.78102" cy="4" rx="3.78102" ry="4" fill="#50E3C2" fill-opacity="0.5"/>
<ellipse cx="39.7007" cy="4" rx="3.78102" ry="4" fill="#50E3C2" fill-opacity="0.5"/>
<ellipse cx="75.6204" cy="4" rx="3.78102" ry="4" fill="#50E3C2" fill-opacity="0.5"/>
<ellipse cx="111.54" cy="4" rx="3.78102" ry="4" fill="#50E3C2" fill-opacity="0.5"/>
<ellipse cx="147.46" cy="4" rx="3.78102" ry="4" fill="#50E3C2" fill-opacity="0.5"/>
<ellipse cx="183.38" cy="4" rx="3.78102" ry="4" fill="#50E3C2" fill-opacity="0.5"/>
<ellipse cx="3.78102" cy="42" rx="3.78102" ry="4" fill="#50E3C2" fill-opacity="0.5"/>
<ellipse cx="39.7007" cy="42" rx="3.78102" ry="4" fill="#50E3C2" fill-opacity="0.5"/>
<ellipse cx="75.6204" cy="42" rx="3.78102" ry="4" fill="#50E3C2" fill-opacity="0.5"/>
<ellipse cx="111.54" cy="42" rx="3.78102" ry="4" fill="#50E3C2" fill-opacity="0.5"/>
<ellipse cx="147.46" cy="42" rx="3.78102" ry="4" fill="#50E3C2" fill-opacity="0.5"/>
<ellipse cx="183.38" cy="42" rx="3.78102" ry="4" fill="#50E3C2" fill-opacity="0.5"/>
<ellipse cx="3.78102" cy="80" rx="3.78102" ry="4" fill="#50E3C2" fill-opacity="0.5"/>
<ellipse cx="39.7007" cy="80" rx="3.78102" ry="4" fill="#50E3C2" fill-opacity="0.5"/>
<ellipse cx="75.6204" cy="80" rx="3.78102" ry="4" fill="#50E3C2" fill-opacity="0.5"/>
<ellipse cx="111.54" cy="80" rx="3.78102" ry="4" fill="#50E3C2" fill-opacity="0.5"/>
<ellipse cx="147.46" cy="80" rx="3.78102" ry="4" fill="#50E3C2" fill-opacity="0.5"/>
<ellipse cx="183.38" cy="80" rx="3.78102" ry="4" fill="#50E3C2" fill-opacity="0.5"/>
<ellipse cx="3.78102" cy="118" rx="3.78102" ry="4" fill="#50E3C2" fill-opacity="0.5"/>
<ellipse cx="39.7007" cy="118" rx="3.78102" ry="4" fill="#50E3C2" fill-opacity="0.5"/>
<ellipse cx="75.6204" cy="118" rx="3.78102" ry="4" fill="#50E3C2" fill-opacity="0.5"/>
<ellipse cx="111.54" cy="118" rx="3.78102" ry="4" fill="#50E3C2" fill-opacity="0.5"/>
<ellipse cx="147.46" cy="118" rx="3.78102" ry="4" fill="#50E3C2" fill-opacity="0.5"/>
<ellipse cx="183.38" cy="118" rx="3.78102" ry="4" fill="#50E3C2" fill-opacity="0.5"/>
<ellipse cx="219.299" cy="4" rx="3.78102" ry="4" fill="#50E3C2" fill-opacity="0.5"/>
<ellipse cx="219.299" cy="42" rx="3.78102" ry="4" fill="#50E3C2" fill-opacity="0.5"/>
<ellipse cx="219.299" cy="80" rx="3.78102" ry="4" fill="#50E3C2" fill-opacity="0.5"/>
<ellipse cx="219.299" cy="118" rx="3.78102" ry="4" fill="#50E3C2" fill-opacity="0.5"/>
<ellipse cx="255.219" cy="4" rx="3.78102" ry="4" fill="#50E3C2" fill-opacity="0.5"/>
<ellipse cx="255.219" cy="42" rx="3.78102" ry="4" fill="#50E3C2" fill-opacity="0.5"/>
<ellipse cx="255.219" cy="80" rx="3.78102" ry="4" fill="#50E3C2" fill-opacity="0.5"/>
<ellipse cx="255.219" cy="118" rx="3.78102" ry="4" fill="#50E3C2" fill-opacity="0.5"/>
<ellipse cx="3.78102" cy="156" rx="3.78102" ry="4" fill="#50E3C2" fill-opacity="0.5"/>
<ellipse cx="39.7007" cy="156" rx="3.78102" ry="4" fill="#50E3C2" fill-opacity="0.5"/>
<ellipse cx="75.6204" cy="156" rx="3.78102" ry="4" fill="#50E3C2" fill-opacity="0.5"/>
<ellipse cx="111.54" cy="156" rx="3.78102" ry="4" fill="#50E3C2" fill-opacity="0.5"/>
<ellipse cx="147.46" cy="156" rx="3.78102" ry="4" fill="#50E3C2" fill-opacity="0.5"/>
<ellipse cx="183.38" cy="156" rx="3.78102" ry="4" fill="#50E3C2" fill-opacity="0.5"/>
<ellipse cx="219.299" cy="156" rx="3.78102" ry="4" fill="#50E3C2" fill-opacity="0.5"/>
<ellipse cx="255.219" cy="156" rx="3.78102" ry="4" fill="#50E3C2" fill-opacity="0.5"/>
</svg>
