<svg width="93" height="53" viewBox="0 0 93 53" fill="none" xmlns="http://www.w3.org/2000/svg">
<path d="M10.2041 38.0352C10.2041 39.377 9.76465 40.4053 8.88574 41.1201C8.00684 41.835 6.75586 42.1924 5.13281 42.1924H3.79688V47H1.69629V34.1504H5.39648C7.00195 34.1504 8.20312 34.4785 9 35.1348C9.80273 35.791 10.2041 36.7578 10.2041 38.0352ZM3.79688 40.4258H4.91309C5.99121 40.4258 6.78223 40.2383 7.28613 39.8633C7.79004 39.4883 8.04199 38.9023 8.04199 38.1055C8.04199 37.3672 7.81641 36.8164 7.36523 36.4531C6.91406 36.0898 6.21094 35.9082 5.25586 35.9082H3.79688V40.4258ZM17.4814 37.1035C17.8975 37.1035 18.2402 37.1328 18.5098 37.1914L18.3076 39.1162C18.0146 39.0459 17.71 39.0107 17.3936 39.0107C16.5674 39.0107 15.8965 39.2803 15.3809 39.8193C14.8711 40.3584 14.6162 41.0586 14.6162 41.9199V47H12.5508V37.2793H14.168L14.4404 38.9932H14.5459C14.8682 38.4131 15.2871 37.9531 15.8027 37.6133C16.3242 37.2734 16.8838 37.1035 17.4814 37.1035ZM22.3857 47H20.3203V37.2793H22.3857V47ZM20.1973 34.7041C20.1973 34.335 20.2969 34.0508 20.4961 33.8516C20.7012 33.6523 20.9912 33.5527 21.3662 33.5527C21.7295 33.5527 22.0107 33.6523 22.21 33.8516C22.415 34.0508 22.5176 34.335 22.5176 34.7041C22.5176 35.0557 22.415 35.334 22.21 35.5391C22.0107 35.7383 21.7295 35.8379 21.3662 35.8379C20.9912 35.8379 20.7012 35.7383 20.4961 35.5391C20.2969 35.334 20.1973 35.0557 20.1973 34.7041ZM29.2676 47.1758C27.7969 47.1758 26.6777 46.748 25.9102 45.8926C25.1484 45.0312 24.7676 43.7979 24.7676 42.1924C24.7676 40.5576 25.166 39.3008 25.9629 38.4219C26.7656 37.543 27.9229 37.1035 29.4346 37.1035C30.46 37.1035 31.3828 37.2939 32.2031 37.6748L31.5791 39.3359C30.7061 38.9961 29.9854 38.8262 29.417 38.8262C27.7354 38.8262 26.8945 39.9424 26.8945 42.1748C26.8945 43.2646 27.1025 44.085 27.5186 44.6357C27.9404 45.1807 28.5557 45.4531 29.3643 45.4531C30.2842 45.4531 31.1543 45.2246 31.9746 44.7676V46.5693C31.6055 46.7861 31.21 46.9414 30.7881 47.0352C30.3721 47.1289 29.8652 47.1758 29.2676 47.1758ZM36.3252 47H34.2598V37.2793H36.3252V47ZM34.1367 34.7041C34.1367 34.335 34.2363 34.0508 34.4355 33.8516C34.6406 33.6523 34.9307 33.5527 35.3057 33.5527C35.6689 33.5527 35.9502 33.6523 36.1494 33.8516C36.3545 34.0508 36.457 34.335 36.457 34.7041C36.457 35.0557 36.3545 35.334 36.1494 35.5391C35.9502 35.7383 35.6689 35.8379 35.3057 35.8379C34.9307 35.8379 34.6406 35.7383 34.4355 35.5391C34.2363 35.334 34.1367 35.0557 34.1367 34.7041ZM47.8389 47H45.7646V41.0234C45.7646 40.2734 45.6123 39.7139 45.3076 39.3447C45.0088 38.9756 44.5312 38.791 43.875 38.791C43.002 38.791 42.3633 39.0488 41.959 39.5645C41.5547 40.0801 41.3525 40.9443 41.3525 42.1572V47H39.2871V37.2793H40.9043L41.1943 38.5537H41.2998C41.5928 38.0908 42.0088 37.7334 42.5479 37.4814C43.0869 37.2295 43.6846 37.1035 44.3408 37.1035C46.6729 37.1035 47.8389 38.29 47.8389 40.6631V47ZM58.9219 37.2793V38.4131L57.2607 38.7207C57.4131 38.9258 57.5391 39.1777 57.6387 39.4766C57.7383 39.7754 57.7881 40.0918 57.7881 40.4258C57.7881 41.4277 57.4424 42.2158 56.751 42.79C56.0596 43.3643 55.1074 43.6514 53.8945 43.6514C53.584 43.6514 53.3027 43.6279 53.0508 43.5811C52.6055 43.8564 52.3828 44.1787 52.3828 44.5479C52.3828 44.7705 52.4854 44.9375 52.6904 45.0488C52.9014 45.1602 53.2852 45.2158 53.8418 45.2158H55.5381C56.6104 45.2158 57.4248 45.4443 57.9814 45.9014C58.5381 46.3584 58.8164 47.0176 58.8164 47.8789C58.8164 48.9805 58.3623 49.8301 57.4541 50.4277C56.5459 51.0254 55.2334 51.3242 53.5166 51.3242C52.1924 51.3242 51.1816 51.0898 50.4844 50.6211C49.7871 50.1523 49.4385 49.4844 49.4385 48.6172C49.4385 48.0195 49.626 47.5156 50.001 47.1055C50.3818 46.7012 50.9121 46.4199 51.5918 46.2617C51.3164 46.1445 51.0879 45.957 50.9062 45.6992C50.7305 45.4355 50.6426 45.1602 50.6426 44.873C50.6426 44.5098 50.7451 44.2021 50.9502 43.9502C51.1553 43.6982 51.46 43.4492 51.8643 43.2031C51.3604 42.9863 50.9502 42.6348 50.6338 42.1484C50.3232 41.6562 50.168 41.082 50.168 40.4258C50.168 39.3711 50.499 38.5537 51.1611 37.9736C51.8291 37.3936 52.7783 37.1035 54.0088 37.1035C54.2842 37.1035 54.5713 37.124 54.8701 37.165C55.1748 37.2002 55.4033 37.2383 55.5557 37.2793H58.9219ZM51.2842 48.5117C51.2842 48.957 51.4834 49.2998 51.8818 49.54C52.2861 49.7803 52.8516 49.9004 53.5781 49.9004C54.7031 49.9004 55.541 49.7393 56.0918 49.417C56.6426 49.0947 56.918 48.667 56.918 48.1338C56.918 47.7119 56.7656 47.4102 56.4609 47.2285C56.1621 47.0527 55.6025 46.9648 54.7822 46.9648H53.2178C52.626 46.9648 52.1543 47.1025 51.8027 47.3779C51.457 47.6592 51.2842 48.0371 51.2842 48.5117ZM52.1719 40.4258C52.1719 41.0352 52.3271 41.5039 52.6377 41.832C52.9541 42.1602 53.4053 42.3242 53.9912 42.3242C55.1865 42.3242 55.7842 41.6855 55.7842 40.4082C55.7842 39.7754 55.6348 39.2891 55.3359 38.9492C55.043 38.6035 54.5947 38.4307 53.9912 38.4307C53.3936 38.4307 52.9395 38.6006 52.6289 38.9404C52.3242 39.2803 52.1719 39.7754 52.1719 40.4258Z" fill="#203060"/>
<rect x="29" y="6" width="32.2" height="21" rx="2" fill="#50E6C5"/>
<path d="M44.4706 32.7439L39 24.9H50.9L46.1444 32.6927C45.7684 33.3089 44.8835 33.3359 44.4706 32.7439Z" fill="#50E6C5"/>
<path d="M35.9927 20H35.0796V12.1475H39.457V12.9585H35.9927V15.832H39.2476V16.6431H35.9927V20ZM43.3135 14.0059C43.5749 14.0059 43.8094 14.0273 44.0171 14.0703L43.8936 14.8975C43.6501 14.8438 43.4352 14.8169 43.249 14.8169C42.7728 14.8169 42.3646 15.0103 42.0244 15.397C41.6878 15.7837 41.5195 16.2653 41.5195 16.8418V20H40.6279V14.1133H41.3638L41.4658 15.2036H41.5088C41.7272 14.8205 41.9904 14.5251 42.2983 14.3174C42.6063 14.1097 42.9447 14.0059 43.3135 14.0059ZM47.605 20.1074C46.7349 20.1074 46.0474 19.8424 45.5425 19.3125C45.0412 18.7826 44.7905 18.0467 44.7905 17.105C44.7905 16.1561 45.0233 15.4023 45.4888 14.8438C45.9578 14.2852 46.5863 14.0059 47.374 14.0059C48.1117 14.0059 48.6953 14.2493 49.125 14.7363C49.5547 15.2197 49.7695 15.8589 49.7695 16.6538V17.2178H45.7144C45.7323 17.9089 45.9059 18.4334 46.2354 18.7915C46.5684 19.1496 47.0356 19.3286 47.6372 19.3286C48.271 19.3286 48.8976 19.1961 49.5171 18.9312V19.7261C49.202 19.8621 48.903 19.9588 48.6201 20.0161C48.3408 20.077 48.0024 20.1074 47.605 20.1074ZM47.3633 14.7524C46.8906 14.7524 46.5129 14.9064 46.23 15.2144C45.9507 15.5223 45.786 15.9484 45.7358 16.4927H48.8135C48.8135 15.9305 48.6882 15.5008 48.4375 15.2036C48.1868 14.9028 47.8288 14.7524 47.3633 14.7524ZM53.7817 20.1074C52.9116 20.1074 52.2241 19.8424 51.7192 19.3125C51.2179 18.7826 50.9673 18.0467 50.9673 17.105C50.9673 16.1561 51.2 15.4023 51.6655 14.8438C52.1346 14.2852 52.763 14.0059 53.5508 14.0059C54.2884 14.0059 54.8721 14.2493 55.3018 14.7363C55.7314 15.2197 55.9463 15.8589 55.9463 16.6538V17.2178H51.8911C51.909 17.9089 52.0827 18.4334 52.4121 18.7915C52.7451 19.1496 53.2124 19.3286 53.814 19.3286C54.4478 19.3286 55.0744 19.1961 55.6938 18.9312V19.7261C55.3787 19.8621 55.0798 19.9588 54.7969 20.0161C54.5176 20.077 54.1792 20.1074 53.7817 20.1074ZM53.54 14.7524C53.0674 14.7524 52.6896 14.9064 52.4067 15.2144C52.1274 15.5223 51.9627 15.9484 51.9126 16.4927H54.9902C54.9902 15.9305 54.8649 15.5008 54.6143 15.2036C54.3636 14.9028 54.0055 14.7524 53.54 14.7524Z" fill="white"/>
<path d="M60.7162 0.970276L60.6543 4.13195" stroke="#2C4584" stroke-width="1.5" stroke-linecap="round" stroke-linejoin="round"/>
<path d="M63.0411 8.68437L65.9395 9.94908" stroke="#2C4584" stroke-width="1.5" stroke-linecap="round" stroke-linejoin="round"/>
<path d="M65.7926 4L62.6511 6.10763" stroke="#2C4584" stroke-width="1.5" stroke-linecap="round" stroke-linejoin="round"/>
</svg>
