<svg width="102" height="95" viewBox="0 0 102 95" fill="none" xmlns="http://www.w3.org/2000/svg">
<path d="M85.3379 36.2205H93.6322C98.1743 36.2205 101.926 39.923 101.926 44.4051V86.0102C101.926 90.2974 98.3718 93.9025 93.9284 93.9025H93.6322C89.0901 93.9025 85.3379 90.1999 85.3379 85.7179V36.2205V36.2205Z" fill="#50E3C2"/>
<path d="M85.8316 33.4265C90.9661 35.4727 96.5944 41.5794 96.5944 47.3282V81.4307C96.5944 87.2769 91.756 92.0512 85.8316 92.0512H12.7628C6.83833 92.0512 2 87.2769 2 81.4307V47.3282C2 41.6769 7.82575 35.5701 12.7628 33.4265" stroke="#2C4584" stroke-width="4" stroke-miterlimit="10" stroke-linecap="round"/>
<path d="M4.86353 41.9692L93.7309 88.0564" stroke="#2C4584" stroke-width="4" stroke-miterlimit="10" stroke-linecap="round"/>
<path d="M94.8171 41.9692L5.94971 88.0564" stroke="#2C4584" stroke-width="4" stroke-miterlimit="10" stroke-linecap="round"/>
<path d="M21.8469 17.6102C25.1054 17.6102 56.5052 17.6102 56.5052 17.6102" stroke="#50E3C2" stroke-width="4" stroke-miterlimit="10" stroke-linecap="round"/>
<path d="M63.1208 17.6102C64.4045 17.6102 76.7472 17.6102 76.7472 17.6102" stroke="#50E3C2" stroke-width="4" stroke-miterlimit="10" stroke-linecap="round"/>
<path d="M76.7474 28.1333C73.4889 28.1333 42.0891 28.1333 42.0891 28.1333" stroke="#50E3C2" stroke-width="4" stroke-miterlimit="10" stroke-linecap="round"/>
<path d="M76.7472 38.559C71.5139 38.559 21.8469 38.559 21.8469 38.559" stroke="#50E3C2" stroke-width="4" stroke-miterlimit="10" stroke-linecap="round"/>
<path d="M35.4733 28.1333C34.1896 28.1333 21.8469 28.1333 21.8469 28.1333" stroke="#50E3C2" stroke-width="4" stroke-miterlimit="10" stroke-linecap="round" stroke-linejoin="round"/>
<path d="M13.0251 46V9.84348C13.0251 5.53913 16.1684 2 19.9992 2H78.0511C81.8819 2 85.0251 5.53913 85.0251 9.84348V12.5217" stroke="#2C4584" stroke-width="4" stroke-miterlimit="10" stroke-linecap="round"/>
<path d="M85.0251 28L84.9429 45.9642" stroke="#2C4584" stroke-width="4" stroke-miterlimit="10" stroke-linecap="round"/>
<path d="M85.0251 19V22" stroke="#2C4584" stroke-width="4" stroke-miterlimit="10" stroke-linecap="round"/>
</svg>
