<svg width="35" height="36" viewBox="0 0 35 36" fill="none" xmlns="http://www.w3.org/2000/svg">
<path d="M17.5304 35.3144C10.4426 35.3316 4.05115 31.025 1.33822 24.4206C-1.37472 17.8162 0.112055 10.2203 5.11924 5.17222C10.1264 0.124091 17.6671 -1.39768 24.1995 1.35702C30.7447 4.09448 35.0043 10.5437 35 17.6912C35 27.421 27.1944 35.2972 17.5304 35.3144ZM20.8372 9.90564C20.5039 9.97462 20.1707 10.0824 19.8588 10.2074C18.6156 10.7549 17.697 11.8585 17.3723 13.1906C17.1971 13.8803 17.1971 14.6046 17.3723 15.2728C16.7058 15.2728 16.0436 15.1866 15.4113 15.0098C13.446 14.5658 11.6132 13.6648 10.0538 12.3801C9.57529 12.0008 9.13951 11.5697 8.75927 11.0912C8.60974 10.9446 8.4773 10.7851 8.35767 10.6126C8.1526 10.9748 7.99452 11.3584 7.88344 11.7594C7.5502 13.1863 7.91762 14.6908 8.86181 15.803C9.08824 16.0876 9.43858 16.26 9.66501 16.51C9.46421 16.5445 9.25914 16.5273 9.07115 16.4583C8.755 16.4066 8.44312 16.316 8.14406 16.1953L7.66983 16.0186C7.61429 17.5748 8.40894 19.0362 9.73337 19.8338C10.1521 20.1528 10.6434 20.3468 11.1689 20.4157C10.8869 20.6615 9.64792 20.558 9.20787 20.502C9.64365 21.8427 10.6776 22.8859 11.9934 23.3429C12.4121 23.5024 12.8522 23.5714 13.288 23.5714C12.9248 23.8774 12.5232 24.1404 12.096 24.3473C11.2714 24.8 10.387 25.1276 9.47275 25.3173C9.07115 25.4035 8.65246 25.3863 8.19532 25.4596C7.72964 25.4941 7.25968 25.4768 6.794 25.4078L7.17851 25.6363C7.58011 25.882 7.98171 26.0933 8.42176 26.27C9.26341 26.6235 10.1179 26.9037 10.9937 27.1193C13.0572 27.559 15.2105 27.49 17.2441 26.908C21.8284 25.4596 24.7336 22.0712 25.8401 17.0748C26.0153 16.1393 26.0836 15.1693 26.0494 14.2123L26.7501 13.6303C27.3311 13.1345 27.8353 12.5526 28.2369 11.9016C27.4465 12.2551 26.6091 12.4879 25.7504 12.5914C25.9255 12.5051 26.0836 12.3801 26.2417 12.2379C26.9082 11.6904 27.3952 10.9661 27.6601 10.1557L27.1175 10.4574C26.4083 10.8368 25.6393 11.0955 24.8446 11.2162C23.956 10.2635 22.6914 9.75045 21.3969 9.81942V9.83667H21.3798L20.8372 9.90564Z" fill="#C7C7C7"/>
</svg>
