<svg width="58" height="17" viewBox="0 0 58 17" fill="none" xmlns="http://www.w3.org/2000/svg">
<path d="M9.75834 8.65637L16.0005 2.28846C16.2074 2.07382 16.3229 1.78965 16.3229 1.48826C16.3229 0.86016 15.8212 0.350082 15.204 0.350082C14.9033 0.350082 14.6215 0.470004 14.4089 0.688954C14.4083 0.69022 8.17235 7.03242 8.17235 7.03242L1.90792 0.679454C1.69624 0.46709 1.41575 0.350082 1.11834 0.350082C0.501867 0.350082 0 0.859908 0 1.48738C0 1.79345 0.120084 2.08066 0.335614 2.29708L6.57691 8.6475L0.338849 15.0074C0.119586 15.2271 0 15.515 0 15.8224C0 16.4504 0.501867 16.9599 1.11834 16.9599C1.41625 16.9599 1.69699 16.8422 1.90792 16.6275L8.16264 10.2711L14.3936 16.6043C14.6146 16.8368 14.8997 16.9606 15.204 16.9606C15.8206 16.9606 16.3223 16.4504 16.3223 15.8224C16.3223 15.5194 16.2069 15.2347 15.997 15.0201L9.75834 8.65637Z" fill="#3DBBFF"/>
<path d="M46.8668 8.65438C46.8668 9.79481 47.7781 10.7225 48.9002 10.7225C50.0197 10.7225 50.9314 9.79481 50.9314 8.65438C50.9314 7.5137 50.0197 6.58614 48.9002 6.58614C47.7781 6.58614 46.8668 7.5137 46.8668 8.65438Z" fill="#3DBBFF"/>
<path d="M43.012 8.6555C43.012 5.35291 45.6521 2.66575 48.8978 2.66575C52.1419 2.66575 54.7826 5.35291 54.7826 8.6555C54.7826 11.9573 52.1419 14.6434 48.8978 14.6434C45.6521 14.6434 43.012 11.9573 43.012 8.6555V8.6555ZM40.6967 8.6555C40.6967 13.2566 44.3757 17 48.8978 17C53.4198 17 57.1007 13.2566 57.1007 8.6555C57.1007 4.05378 53.4198 0.309355 48.8978 0.309355C44.3757 0.309355 40.6967 4.05378 40.6967 8.6555Z" fill="#3DBBFF"/>
<path d="M40.1145 0.451975L39.7704 0.450962C38.7374 0.450962 37.7412 0.782489 36.9091 1.43503C36.7994 0.924446 36.351 0.540237 35.8168 0.540237C35.2019 0.540237 34.7093 1.04158 34.7078 1.66855C34.7078 1.67083 34.7115 15.7249 34.7115 15.7249C34.7131 16.3507 35.2147 16.8594 35.8299 16.8594C36.445 16.8594 36.9465 16.3507 36.9481 15.7235C36.9481 15.7207 36.9486 7.08063 36.9486 7.08063C36.9486 4.19996 37.2075 3.03658 39.6323 2.72822C39.8564 2.69986 40.1002 2.70428 40.1012 2.70428C40.7647 2.68111 41.2362 2.21713 41.2362 1.59003C41.2362 0.962563 40.7328 0.451975 40.1145 0.451975" fill="#3DBBFF"/>
<path d="M18.4733 6.95156C18.4733 6.9204 18.4757 6.88799 18.4772 6.85595C19.1265 4.24388 21.4511 2.31095 24.2196 2.31095C27.0216 2.31095 29.3675 4.29137 29.9836 6.95156H18.4733ZM32.2738 6.73666C31.7919 4.41459 30.5427 2.50723 28.6404 1.28231C25.8597 -0.514239 22.1878 -0.414829 19.5019 1.52887C17.3111 3.11495 16.0464 5.70954 16.0464 8.38226C16.0464 9.0524 16.1258 9.72888 16.291 10.3947C17.1183 13.7064 19.9159 16.2134 23.2513 16.6289C24.2411 16.7508 25.2045 16.6924 26.2021 16.4296C27.0594 16.2173 27.8889 15.8635 28.6532 15.3651C29.4465 14.8461 30.1092 14.1618 30.7511 13.3426C30.764 13.3275 30.7771 13.3142 30.79 13.2984C31.2355 12.7362 31.1529 11.9366 30.6634 11.5549C30.2505 11.2329 29.5574 11.1023 29.0119 11.8131C28.8947 11.9831 28.7639 12.158 28.62 12.3328C28.1863 12.8205 27.6482 13.293 27.0035 13.6595C26.1831 14.1055 25.2482 14.3604 24.2543 14.3661C21.0013 14.3292 19.2605 12.0184 18.6413 10.369C18.5332 10.061 18.4498 9.74154 18.3917 9.41255C18.3841 9.351 18.3785 9.29161 18.3762 9.23691C19.0488 9.23691 30.05 9.23501 30.05 9.23501C31.6504 9.20081 32.5118 8.05124 32.2738 6.73666Z" fill="#3DBBFF"/>
</svg>
