<svg width="278" height="91" viewBox="0 0 278 91" fill="none" xmlns="http://www.w3.org/2000/svg">
<g filter="url(#filter0_dd)">
<rect x="15" y="7" width="248" height="69" rx="34.5" stroke="#50E3C2" stroke-width="2"/>
</g>
<g filter="url(#filter1_dd)">
<rect x="23" y="17" width="231" height="49" rx="24.5" fill="white"/>
</g>
<path d="M60.1348 48H58.0342V36.9521H54.2549V35.1504H63.9141V36.9521H60.1348V48ZM70.6025 38.1035C71.0186 38.1035 71.3613 38.1328 71.6309 38.1914L71.4287 40.1162C71.1357 40.0459 70.8311 40.0107 70.5146 40.0107C69.6885 40.0107 69.0176 40.2803 68.502 40.8193C67.9922 41.3584 67.7373 42.0586 67.7373 42.9199V48H65.6719V38.2793H67.2891L67.5615 39.9932H67.667C67.9893 39.4131 68.4082 38.9531 68.9238 38.6133C69.4453 38.2734 70.0049 38.1035 70.6025 38.1035ZM71.9648 38.2793H74.2148L76.1924 43.79C76.4912 44.5752 76.6904 45.3135 76.79 46.0049H76.8604C76.9131 45.6826 77.0098 45.293 77.1504 44.8359C77.291 44.373 78.0352 42.1875 79.3828 38.2793H81.6152L77.458 49.292C76.7021 51.3135 75.4424 52.3242 73.6787 52.3242C73.2217 52.3242 72.7764 52.2744 72.3428 52.1748V50.54C72.6533 50.6104 73.0078 50.6455 73.4062 50.6455C74.4023 50.6455 75.1025 50.0684 75.5068 48.9141L75.8672 48L71.9648 38.2793ZM162.782 39.8438H160.409V48H158.335V39.8438H156.735V38.877L158.335 38.2441V37.6113C158.335 36.4629 158.604 35.6133 159.144 35.0625C159.683 34.5059 160.506 34.2275 161.613 34.2275C162.34 34.2275 163.055 34.3477 163.758 34.5879L163.213 36.1523C162.703 35.9883 162.217 35.9062 161.754 35.9062C161.285 35.9062 160.942 36.0527 160.726 36.3457C160.515 36.6328 160.409 37.0664 160.409 37.6465V38.2793H162.782V39.8438ZM173.065 43.1221C173.065 44.71 172.658 45.9492 171.844 46.8398C171.029 47.7305 169.896 48.1758 168.442 48.1758C167.534 48.1758 166.731 47.9707 166.034 47.5605C165.337 47.1504 164.801 46.5615 164.426 45.7939C164.051 45.0264 163.863 44.1357 163.863 43.1221C163.863 41.5459 164.268 40.3154 165.076 39.4307C165.885 38.5459 167.024 38.1035 168.495 38.1035C169.901 38.1035 171.015 38.5576 171.835 39.4658C172.655 40.3682 173.065 41.5869 173.065 43.1221ZM165.99 43.1221C165.99 45.3662 166.819 46.4883 168.478 46.4883C170.118 46.4883 170.938 45.3662 170.938 43.1221C170.938 40.9014 170.112 39.791 168.46 39.791C167.593 39.791 166.963 40.0781 166.57 40.6523C166.184 41.2266 165.99 42.0498 165.99 43.1221ZM180.378 38.1035C180.794 38.1035 181.137 38.1328 181.406 38.1914L181.204 40.1162C180.911 40.0459 180.606 40.0107 180.29 40.0107C179.464 40.0107 178.793 40.2803 178.277 40.8193C177.768 41.3584 177.513 42.0586 177.513 42.9199V48H175.447V38.2793H177.064L177.337 39.9932H177.442C177.765 39.4131 178.184 38.9531 178.699 38.6133C179.221 38.2734 179.78 38.1035 180.378 38.1035ZM192.771 39.8438H190.397V48H188.323V39.8438H186.724V38.877L188.323 38.2441V37.6113C188.323 36.4629 188.593 35.6133 189.132 35.0625C189.671 34.5059 190.494 34.2275 191.602 34.2275C192.328 34.2275 193.043 34.3477 193.746 34.5879L193.201 36.1523C192.691 35.9883 192.205 35.9062 191.742 35.9062C191.273 35.9062 190.931 36.0527 190.714 36.3457C190.503 36.6328 190.397 37.0664 190.397 37.6465V38.2793H192.771V39.8438ZM199.362 38.1035C199.778 38.1035 200.121 38.1328 200.391 38.1914L200.188 40.1162C199.896 40.0459 199.591 40.0107 199.274 40.0107C198.448 40.0107 197.777 40.2803 197.262 40.8193C196.752 41.3584 196.497 42.0586 196.497 42.9199V48H194.432V38.2793H196.049L196.321 39.9932H196.427C196.749 39.4131 197.168 38.9531 197.684 38.6133C198.205 38.2734 198.765 38.1035 199.362 38.1035ZM206.446 48.1758C204.935 48.1758 203.751 47.7363 202.896 46.8574C202.046 45.9727 201.621 44.7568 201.621 43.21C201.621 41.6221 202.017 40.374 202.808 39.4658C203.599 38.5576 204.686 38.1035 206.068 38.1035C207.352 38.1035 208.365 38.4932 209.109 39.2725C209.854 40.0518 210.226 41.124 210.226 42.4893V43.6055H203.748C203.777 44.5488 204.032 45.2754 204.513 45.7852C204.993 46.2891 205.67 46.541 206.543 46.541C207.117 46.541 207.65 46.4883 208.143 46.3828C208.641 46.2715 209.174 46.0898 209.742 45.8379V47.5166C209.238 47.7568 208.729 47.9268 208.213 48.0264C207.697 48.126 207.108 48.1758 206.446 48.1758ZM206.068 39.668C205.412 39.668 204.885 39.876 204.486 40.292C204.094 40.708 203.859 41.3145 203.783 42.1113H208.195C208.184 41.3086 207.99 40.7021 207.615 40.292C207.24 39.876 206.725 39.668 206.068 39.668ZM216.817 48.1758C215.306 48.1758 214.122 47.7363 213.267 46.8574C212.417 45.9727 211.992 44.7568 211.992 43.21C211.992 41.6221 212.388 40.374 213.179 39.4658C213.97 38.5576 215.057 38.1035 216.439 38.1035C217.723 38.1035 218.736 38.4932 219.48 39.2725C220.225 40.0518 220.597 41.124 220.597 42.4893V43.6055H214.119C214.148 44.5488 214.403 45.2754 214.884 45.7852C215.364 46.2891 216.041 46.541 216.914 46.541C217.488 46.541 218.021 46.4883 218.514 46.3828C219.012 46.2715 219.545 46.0898 220.113 45.8379V47.5166C219.609 47.7568 219.1 47.9268 218.584 48.0264C218.068 48.126 217.479 48.1758 216.817 48.1758ZM216.439 39.668C215.783 39.668 215.256 39.876 214.857 40.292C214.465 40.708 214.23 41.3145 214.154 42.1113H218.566C218.555 41.3086 218.361 40.7021 217.986 40.292C217.611 39.876 217.096 39.668 216.439 39.668Z" fill="#1F3161"/>
<path d="M99.7583 41.6564L106.001 35.2885C106.207 35.0738 106.323 34.7897 106.323 34.4883C106.323 33.8602 105.821 33.3501 105.204 33.3501C104.903 33.3501 104.621 33.47 104.409 33.689C104.408 33.6902 98.1724 40.0324 98.1724 40.0324L91.9079 33.6795C91.6962 33.4671 91.4158 33.3501 91.1183 33.3501C90.5019 33.3501 90 33.8599 90 34.4874C90 34.7935 90.1201 35.0807 90.3356 35.2971L96.5769 41.6475L90.3388 48.0074C90.1196 48.2271 90 48.515 90 48.8224C90 49.4504 90.5019 49.9599 91.1183 49.9599C91.4163 49.9599 91.697 49.8422 91.9079 49.6275L98.1626 43.2711L104.394 49.6043C104.615 49.8368 104.9 49.9606 105.204 49.9606C105.821 49.9606 106.322 49.4504 106.322 48.8224C106.322 48.5194 106.207 48.2347 105.997 48.0201L99.7583 41.6564Z" fill="#3DBBFF"/>
<path d="M136.867 41.6544C136.867 42.7948 137.778 43.7225 138.9 43.7225C140.02 43.7225 140.931 42.7948 140.931 41.6544C140.931 40.5137 140.02 39.5861 138.9 39.5861C137.778 39.5861 136.867 40.5137 136.867 41.6544Z" fill="#3DBBFF"/>
<path d="M133.012 41.6555C133.012 38.3529 135.652 35.6657 138.898 35.6657C142.142 35.6657 144.783 38.3529 144.783 41.6555C144.783 44.9573 142.142 47.6434 138.898 47.6434C135.652 47.6434 133.012 44.9573 133.012 41.6555V41.6555ZM130.697 41.6555C130.697 46.2566 134.376 50 138.898 50C143.42 50 147.101 46.2566 147.101 41.6555C147.101 37.0538 143.42 33.3094 138.898 33.3094C134.376 33.3094 130.697 37.0538 130.697 41.6555Z" fill="#3DBBFF"/>
<path d="M130.114 33.452L129.77 33.451C128.737 33.451 127.741 33.7825 126.909 34.435C126.799 33.9244 126.351 33.5402 125.817 33.5402C125.202 33.5402 124.709 34.0416 124.708 34.6685C124.708 34.6708 124.711 48.7249 124.711 48.7249C124.713 49.3507 125.215 49.8594 125.83 49.8594C126.445 49.8594 126.947 49.3507 126.948 48.7235C126.948 48.7207 126.949 40.0806 126.949 40.0806C126.949 37.2 127.207 36.0366 129.632 35.7282C129.856 35.6999 130.1 35.7043 130.101 35.7043C130.765 35.6811 131.236 35.2171 131.236 34.59C131.236 33.9626 130.733 33.452 130.114 33.452" fill="#3DBBFF"/>
<path d="M108.473 39.9516C108.473 39.9204 108.476 39.888 108.477 39.8559C109.126 37.2439 111.451 35.311 114.22 35.311C117.022 35.311 119.367 37.2914 119.984 39.9516H108.473ZM122.274 39.7367C121.792 37.4146 120.543 35.5072 118.64 34.2823C115.86 32.4858 112.188 32.5852 109.502 34.5289C107.311 36.1149 106.046 38.7095 106.046 41.3823C106.046 42.0524 106.126 42.7289 106.291 43.3947C107.118 46.7064 109.916 49.2134 113.251 49.6289C114.241 49.7508 115.205 49.6924 116.202 49.4296C117.059 49.2173 117.889 48.8635 118.653 48.3651C119.446 47.8461 120.109 47.1618 120.751 46.3426C120.764 46.3275 120.777 46.3142 120.79 46.2984C121.236 45.7362 121.153 44.9366 120.663 44.5549C120.25 44.2329 119.557 44.1023 119.012 44.8131C118.895 44.9831 118.764 45.158 118.62 45.3328C118.186 45.8205 117.648 46.293 117.004 46.6595C116.183 47.1055 115.248 47.3604 114.254 47.3661C111.001 47.3292 109.26 45.0184 108.641 43.369C108.533 43.061 108.45 42.7415 108.392 42.4125C108.384 42.351 108.378 42.2916 108.376 42.2369C109.049 42.2369 120.05 42.235 120.05 42.235C121.65 42.2008 122.512 41.0512 122.274 39.7367Z" fill="#3DBBFF"/>
<defs>
<filter id="filter0_dd" x="0" y="0" width="278" height="91" filterUnits="userSpaceOnUse" color-interpolation-filters="sRGB">
<feFlood flood-opacity="0" result="BackgroundImageFix"/>
<feColorMatrix in="SourceAlpha" type="matrix" values="0 0 0 0 0 0 0 0 0 0 0 0 0 0 0 0 0 0 127 0"/>
<feOffset dx="4" dy="4"/>
<feGaussianBlur stdDeviation="5"/>
<feColorMatrix type="matrix" values="0 0 0 0 0.934375 0 0 0 0 0.940365 0 0 0 0 0.958333 0 0 0 0.2 0"/>
<feBlend mode="normal" in2="BackgroundImageFix" result="effect1_dropShadow"/>
<feColorMatrix in="SourceAlpha" type="matrix" values="0 0 0 0 0 0 0 0 0 0 0 0 0 0 0 0 0 0 127 0"/>
<feOffset dx="-4" dy="4"/>
<feGaussianBlur stdDeviation="5"/>
<feColorMatrix type="matrix" values="0 0 0 0 0.933333 0 0 0 0 0.941176 0 0 0 0 0.956863 0 0 0 1 0"/>
<feBlend mode="normal" in2="effect1_dropShadow" result="effect2_dropShadow"/>
<feBlend mode="normal" in="SourceGraphic" in2="effect2_dropShadow" result="shape"/>
</filter>
<filter id="filter1_dd" x="9" y="11" width="259" height="69" filterUnits="userSpaceOnUse" color-interpolation-filters="sRGB">
<feFlood flood-opacity="0" result="BackgroundImageFix"/>
<feColorMatrix in="SourceAlpha" type="matrix" values="0 0 0 0 0 0 0 0 0 0 0 0 0 0 0 0 0 0 127 0"/>
<feOffset dx="4" dy="4"/>
<feGaussianBlur stdDeviation="5"/>
<feColorMatrix type="matrix" values="0 0 0 0 0.934375 0 0 0 0 0.940365 0 0 0 0 0.958333 0 0 0 0.2 0"/>
<feBlend mode="normal" in2="BackgroundImageFix" result="effect1_dropShadow"/>
<feColorMatrix in="SourceAlpha" type="matrix" values="0 0 0 0 0 0 0 0 0 0 0 0 0 0 0 0 0 0 127 0"/>
<feOffset dx="-4" dy="4"/>
<feGaussianBlur stdDeviation="5"/>
<feColorMatrix type="matrix" values="0 0 0 0 0.933333 0 0 0 0 0.941176 0 0 0 0 0.956863 0 0 0 1 0"/>
<feBlend mode="normal" in2="effect1_dropShadow" result="effect2_dropShadow"/>
<feBlend mode="normal" in="SourceGraphic" in2="effect2_dropShadow" result="shape"/>
</filter>
</defs>
</svg>
