<svg width="280" height="91" viewBox="0 0 280 91" fill="none" xmlns="http://www.w3.org/2000/svg">
<g filter="url(#filter0_dd)">
<rect x="-1" y="1" width="250" height="69" rx="34.5" transform="matrix(-1 0 0 1 264 6)" stroke="#50E3C2" stroke-width="2"/>
</g>
<g filter="url(#filter1_dd)">
<rect width="233" height="49" rx="24.5" transform="matrix(-1 0 0 1 257 17)" fill="white"/>
</g>
<path d="M201.887 41.5019L207.571 35.9833C207.76 35.7973 207.865 35.551 207.865 35.2898C207.865 34.7455 207.408 34.3035 206.846 34.3035C206.572 34.3035 206.315 34.4074 206.122 34.5971C206.121 34.5982 200.442 40.0946 200.442 40.0946L194.737 34.5889C194.545 34.4049 194.289 34.3035 194.018 34.3035C193.457 34.3035 193 34.7453 193 35.2891C193 35.5543 193.109 35.8032 193.306 35.9908L198.989 41.4943L193.309 47.006C193.109 47.1964 193 47.4458 193 47.7123C193 48.2565 193.457 48.698 194.018 48.698C194.29 48.698 194.545 48.5961 194.737 48.4099L200.433 42.9013L206.108 48.3898C206.309 48.5913 206.569 48.6987 206.846 48.6987C207.407 48.6987 207.864 48.2565 207.864 47.7123C207.864 47.4497 207.759 47.203 207.568 47.0169L201.887 41.5019Z" fill="#3DBBFF"/>
<path d="M235.68 41.5002C235.68 42.4886 236.51 43.2925 237.532 43.2925C238.551 43.2925 239.382 42.4886 239.382 41.5002C239.382 40.5116 238.551 39.7078 237.532 39.7078C236.51 39.7078 235.68 40.5116 235.68 41.5002Z" fill="#3DBBFF"/>
<path d="M232.17 41.5011C232.17 38.639 234.574 36.3102 237.53 36.3102C240.484 36.3102 242.889 38.639 242.889 41.5011C242.889 44.3626 240.484 46.6903 237.53 46.6903C234.574 46.6903 232.17 44.3626 232.17 41.5011ZM230.061 41.5011C230.061 45.4885 233.412 48.7327 237.53 48.7327C241.648 48.7327 245 45.4885 245 41.5011C245 37.5131 241.648 34.2681 237.53 34.2681C233.412 34.2681 230.061 37.5131 230.061 41.5011Z" fill="#3DBBFF"/>
<path d="M229.531 34.3918L229.218 34.3909C228.277 34.3909 227.37 34.6782 226.612 35.2438C226.512 34.8013 226.104 34.4683 225.617 34.4683C225.057 34.4683 224.609 34.9028 224.607 35.4461C224.607 35.4481 224.611 47.6277 224.611 47.6277C224.612 48.1701 225.069 48.6109 225.629 48.6109C226.189 48.6109 226.646 48.1701 226.647 47.6265C226.647 47.6241 226.648 40.1364 226.648 40.1364C226.648 37.6399 226.884 36.6317 229.092 36.3645C229.296 36.3399 229.518 36.3437 229.519 36.3437C230.123 36.3236 230.552 35.9215 230.552 35.3781C230.552 34.8343 230.094 34.3918 229.531 34.3918Z" fill="#3DBBFF"/>
<path d="M209.823 40.0244C209.823 39.9974 209.825 39.9693 209.827 39.9416C210.418 37.6779 212.535 36.0027 215.056 36.0027C217.608 36.0027 219.744 37.719 220.305 40.0244H209.823ZM222.391 39.8382C221.952 37.8258 220.814 36.1729 219.082 35.1113C216.55 33.5543 213.206 33.6405 210.76 35.325C208.765 36.6995 207.613 38.9481 207.613 41.2643C207.613 41.8451 207.685 42.4314 207.836 43.0084C208.589 45.8784 211.137 48.051 214.174 48.4111C215.076 48.5168 215.953 48.4662 216.862 48.2384C217.642 48.0544 218.398 47.7478 219.094 47.3159C219.816 46.8661 220.42 46.2731 221.004 45.5631C221.016 45.5501 221.028 45.5385 221.04 45.5248C221.445 45.0376 221.37 44.3446 220.924 44.0139C220.548 43.7348 219.917 43.6216 219.42 44.2376C219.314 44.3849 219.194 44.5365 219.063 44.688C218.668 45.1107 218.178 45.5201 217.591 45.8377C216.844 46.2242 215.993 46.4451 215.088 46.4501C212.125 46.4182 210.54 44.4155 209.976 42.9861C209.878 42.7192 209.802 42.4423 209.749 42.1572C209.742 42.1039 209.737 42.0524 209.735 42.005C210.347 42.005 220.366 42.0034 220.366 42.0034C221.823 41.9737 222.608 40.9775 222.391 39.8382Z" fill="#3DBBFF"/>
<path d="M56.1621 48H53.7451L50.5283 42.7441L47.2852 48H45.0352L49.2979 41.3379L45.3076 35.1504H47.6455L50.6162 40.0107L53.5869 35.1504H55.8545L51.8379 41.373L56.1621 48ZM61.9189 48.1758C60.4072 48.1758 59.2236 47.7363 58.3682 46.8574C57.5186 45.9727 57.0938 44.7568 57.0938 43.21C57.0938 41.6221 57.4893 40.374 58.2803 39.4658C59.0713 38.5576 60.1582 38.1035 61.541 38.1035C62.8242 38.1035 63.8379 38.4932 64.582 39.2725C65.3262 40.0518 65.6982 41.124 65.6982 42.4893V43.6055H59.2207C59.25 44.5488 59.5049 45.2754 59.9854 45.7852C60.4658 46.2891 61.1426 46.541 62.0156 46.541C62.5898 46.541 63.123 46.4883 63.6152 46.3828C64.1133 46.2715 64.6465 46.0898 65.2148 45.8379V47.5166C64.7109 47.7568 64.2012 47.9268 63.6855 48.0264C63.1699 48.126 62.5811 48.1758 61.9189 48.1758ZM61.541 39.668C60.8848 39.668 60.3574 39.876 59.959 40.292C59.5664 40.708 59.332 41.3145 59.2559 42.1113H63.668C63.6562 41.3086 63.4629 40.7021 63.0879 40.292C62.7129 39.876 62.1973 39.668 61.541 39.668ZM72.9756 38.1035C73.3916 38.1035 73.7344 38.1328 74.0039 38.1914L73.8018 40.1162C73.5088 40.0459 73.2041 40.0107 72.8877 40.0107C72.0615 40.0107 71.3906 40.2803 70.875 40.8193C70.3652 41.3584 70.1104 42.0586 70.1104 42.9199V48H68.0449V38.2793H69.6621L69.9346 39.9932H70.04C70.3623 39.4131 70.7812 38.9531 71.2969 38.6133C71.8184 38.2734 72.3779 38.1035 72.9756 38.1035ZM84.4365 43.1221C84.4365 44.71 84.0293 45.9492 83.2148 46.8398C82.4004 47.7305 81.2666 48.1758 79.8135 48.1758C78.9053 48.1758 78.1025 47.9707 77.4053 47.5605C76.708 47.1504 76.1719 46.5615 75.7969 45.7939C75.4219 45.0264 75.2344 44.1357 75.2344 43.1221C75.2344 41.5459 75.6387 40.3154 76.4473 39.4307C77.2559 38.5459 78.3955 38.1035 79.8662 38.1035C81.2725 38.1035 82.3857 38.5576 83.2061 39.4658C84.0264 40.3682 84.4365 41.5869 84.4365 43.1221ZM77.3613 43.1221C77.3613 45.3662 78.1904 46.4883 79.8486 46.4883C81.4893 46.4883 82.3096 45.3662 82.3096 43.1221C82.3096 40.9014 81.4834 39.791 79.8311 39.791C78.9639 39.791 78.334 40.0781 77.9414 40.6523C77.5547 41.2266 77.3613 42.0498 77.3613 43.1221ZM91.7139 48V35.1504H93.8145V48H91.7139ZM105.548 48H103.474V42.0234C103.474 41.2734 103.321 40.7139 103.017 40.3447C102.718 39.9756 102.24 39.791 101.584 39.791C100.711 39.791 100.072 40.0488 99.668 40.5645C99.2637 41.0801 99.0615 41.9443 99.0615 43.1572V48H96.9961V38.2793H98.6133L98.9033 39.5537H99.0088C99.3018 39.0908 99.7178 38.7334 100.257 38.4814C100.796 38.2295 101.394 38.1035 102.05 38.1035C104.382 38.1035 105.548 39.29 105.548 41.6631V48ZM112.043 46.5059C112.547 46.5059 113.051 46.4268 113.555 46.2686V47.8242C113.326 47.9238 113.03 48.0059 112.667 48.0703C112.31 48.1406 111.938 48.1758 111.551 48.1758C109.594 48.1758 108.615 47.1445 108.615 45.082V39.8438H107.288V38.9297L108.712 38.1738L109.415 36.1172H110.689V38.2793H113.458V39.8438H110.689V45.0469C110.689 45.5449 110.812 45.9141 111.059 46.1543C111.311 46.3887 111.639 46.5059 112.043 46.5059ZM119.751 48.1758C118.239 48.1758 117.056 47.7363 116.2 46.8574C115.351 45.9727 114.926 44.7568 114.926 43.21C114.926 41.6221 115.321 40.374 116.112 39.4658C116.903 38.5576 117.99 38.1035 119.373 38.1035C120.656 38.1035 121.67 38.4932 122.414 39.2725C123.158 40.0518 123.53 41.124 123.53 42.4893V43.6055H117.053C117.082 44.5488 117.337 45.2754 117.817 45.7852C118.298 46.2891 118.975 46.541 119.848 46.541C120.422 46.541 120.955 46.4883 121.447 46.3828C121.945 46.2715 122.479 46.0898 123.047 45.8379V47.5166C122.543 47.7568 122.033 47.9268 121.518 48.0264C121.002 48.126 120.413 48.1758 119.751 48.1758ZM119.373 39.668C118.717 39.668 118.189 39.876 117.791 40.292C117.398 40.708 117.164 41.3145 117.088 42.1113H121.5C121.488 41.3086 121.295 40.7021 120.92 40.292C120.545 39.876 120.029 39.668 119.373 39.668ZM134.086 38.2793V39.4131L132.425 39.7207C132.577 39.9258 132.703 40.1777 132.803 40.4766C132.902 40.7754 132.952 41.0918 132.952 41.4258C132.952 42.4277 132.606 43.2158 131.915 43.79C131.224 44.3643 130.271 44.6514 129.059 44.6514C128.748 44.6514 128.467 44.6279 128.215 44.5811C127.77 44.8564 127.547 45.1787 127.547 45.5479C127.547 45.7705 127.649 45.9375 127.854 46.0488C128.065 46.1602 128.449 46.2158 129.006 46.2158H130.702C131.774 46.2158 132.589 46.4443 133.146 46.9014C133.702 47.3584 133.98 48.0176 133.98 48.8789C133.98 49.9805 133.526 50.8301 132.618 51.4277C131.71 52.0254 130.397 52.3242 128.681 52.3242C127.356 52.3242 126.346 52.0898 125.648 51.6211C124.951 51.1523 124.603 50.4844 124.603 49.6172C124.603 49.0195 124.79 48.5156 125.165 48.1055C125.546 47.7012 126.076 47.4199 126.756 47.2617C126.48 47.1445 126.252 46.957 126.07 46.6992C125.895 46.4355 125.807 46.1602 125.807 45.873C125.807 45.5098 125.909 45.2021 126.114 44.9502C126.319 44.6982 126.624 44.4492 127.028 44.2031C126.524 43.9863 126.114 43.6348 125.798 43.1484C125.487 42.6562 125.332 42.082 125.332 41.4258C125.332 40.3711 125.663 39.5537 126.325 38.9736C126.993 38.3936 127.942 38.1035 129.173 38.1035C129.448 38.1035 129.735 38.124 130.034 38.165C130.339 38.2002 130.567 38.2383 130.72 38.2793H134.086ZM126.448 49.5117C126.448 49.957 126.647 50.2998 127.046 50.54C127.45 50.7803 128.016 50.9004 128.742 50.9004C129.867 50.9004 130.705 50.7393 131.256 50.417C131.807 50.0947 132.082 49.667 132.082 49.1338C132.082 48.7119 131.93 48.4102 131.625 48.2285C131.326 48.0527 130.767 47.9648 129.946 47.9648H128.382C127.79 47.9648 127.318 48.1025 126.967 48.3779C126.621 48.6592 126.448 49.0371 126.448 49.5117ZM127.336 41.4258C127.336 42.0352 127.491 42.5039 127.802 42.832C128.118 43.1602 128.569 43.3242 129.155 43.3242C130.351 43.3242 130.948 42.6855 130.948 41.4082C130.948 40.7754 130.799 40.2891 130.5 39.9492C130.207 39.6035 129.759 39.4307 129.155 39.4307C128.558 39.4307 128.104 39.6006 127.793 39.9404C127.488 40.2803 127.336 40.7754 127.336 41.4258ZM140.827 38.1035C141.243 38.1035 141.586 38.1328 141.855 38.1914L141.653 40.1162C141.36 40.0459 141.056 40.0107 140.739 40.0107C139.913 40.0107 139.242 40.2803 138.727 40.8193C138.217 41.3584 137.962 42.0586 137.962 42.9199V48H135.896V38.2793H137.514L137.786 39.9932H137.892C138.214 39.4131 138.633 38.9531 139.148 38.6133C139.67 38.2734 140.229 38.1035 140.827 38.1035ZM149.748 48L149.335 46.6465H149.265C148.796 47.2383 148.324 47.6426 147.85 47.8594C147.375 48.0703 146.766 48.1758 146.021 48.1758C145.066 48.1758 144.319 47.918 143.78 47.4023C143.247 46.8867 142.98 46.1572 142.98 45.2139C142.98 44.2119 143.353 43.4561 144.097 42.9463C144.841 42.4365 145.975 42.1582 147.498 42.1113L149.177 42.0586V41.54C149.177 40.9189 149.03 40.4561 148.737 40.1514C148.45 39.8408 148.002 39.6855 147.393 39.6855C146.895 39.6855 146.417 39.7588 145.96 39.9053C145.503 40.0518 145.063 40.2246 144.642 40.4238L143.974 38.9473C144.501 38.6719 145.078 38.4639 145.705 38.3232C146.332 38.1768 146.924 38.1035 147.48 38.1035C148.717 38.1035 149.648 38.373 150.275 38.9121C150.908 39.4512 151.225 40.2979 151.225 41.4521V48H149.748ZM146.672 46.5938C147.422 46.5938 148.022 46.3857 148.474 45.9697C148.931 45.5479 149.159 44.959 149.159 44.2031V43.3594L147.911 43.4121C146.938 43.4473 146.229 43.6113 145.784 43.9043C145.345 44.1914 145.125 44.6338 145.125 45.2314C145.125 45.665 145.254 46.002 145.512 46.2422C145.77 46.4766 146.156 46.5938 146.672 46.5938ZM157.729 46.5059C158.232 46.5059 158.736 46.4268 159.24 46.2686V47.8242C159.012 47.9238 158.716 48.0059 158.353 48.0703C157.995 48.1406 157.623 48.1758 157.236 48.1758C155.279 48.1758 154.301 47.1445 154.301 45.082V39.8438H152.974V38.9297L154.397 38.1738L155.101 36.1172H156.375V38.2793H159.144V39.8438H156.375V45.0469C156.375 45.5449 156.498 45.9141 156.744 46.1543C156.996 46.3887 157.324 46.5059 157.729 46.5059ZM163.257 48H161.191V38.2793H163.257V48ZM161.068 35.7041C161.068 35.335 161.168 35.0508 161.367 34.8516C161.572 34.6523 161.862 34.5527 162.237 34.5527C162.601 34.5527 162.882 34.6523 163.081 34.8516C163.286 35.0508 163.389 35.335 163.389 35.7041C163.389 36.0557 163.286 36.334 163.081 36.5391C162.882 36.7383 162.601 36.8379 162.237 36.8379C161.862 36.8379 161.572 36.7383 161.367 36.5391C161.168 36.334 161.068 36.0557 161.068 35.7041ZM174.841 43.1221C174.841 44.71 174.434 45.9492 173.619 46.8398C172.805 47.7305 171.671 48.1758 170.218 48.1758C169.31 48.1758 168.507 47.9707 167.81 47.5605C167.112 47.1504 166.576 46.5615 166.201 45.7939C165.826 45.0264 165.639 44.1357 165.639 43.1221C165.639 41.5459 166.043 40.3154 166.852 39.4307C167.66 38.5459 168.8 38.1035 170.271 38.1035C171.677 38.1035 172.79 38.5576 173.61 39.4658C174.431 40.3682 174.841 41.5869 174.841 43.1221ZM167.766 43.1221C167.766 45.3662 168.595 46.4883 170.253 46.4883C171.894 46.4883 172.714 45.3662 172.714 43.1221C172.714 40.9014 171.888 39.791 170.235 39.791C169.368 39.791 168.738 40.0781 168.346 40.6523C167.959 41.2266 167.766 42.0498 167.766 43.1221ZM185.774 48H183.7V42.0234C183.7 41.2734 183.548 40.7139 183.243 40.3447C182.944 39.9756 182.467 39.791 181.811 39.791C180.938 39.791 180.299 40.0488 179.895 40.5645C179.49 41.0801 179.288 41.9443 179.288 43.1572V48H177.223V38.2793H178.84L179.13 39.5537H179.235C179.528 39.0908 179.944 38.7334 180.483 38.4814C181.022 38.2295 181.62 38.1035 182.276 38.1035C184.608 38.1035 185.774 39.29 185.774 41.6631V48Z" fill="#1F3161"/>
<defs>
<filter id="filter0_dd" x="0" y="0" width="280" height="91" filterUnits="userSpaceOnUse" color-interpolation-filters="sRGB">
<feFlood flood-opacity="0" result="BackgroundImageFix"/>
<feColorMatrix in="SourceAlpha" type="matrix" values="0 0 0 0 0 0 0 0 0 0 0 0 0 0 0 0 0 0 127 0"/>
<feOffset dx="4" dy="4"/>
<feGaussianBlur stdDeviation="5"/>
<feColorMatrix type="matrix" values="0 0 0 0 0.934375 0 0 0 0 0.940365 0 0 0 0 0.958333 0 0 0 0.2 0"/>
<feBlend mode="normal" in2="BackgroundImageFix" result="effect1_dropShadow"/>
<feColorMatrix in="SourceAlpha" type="matrix" values="0 0 0 0 0 0 0 0 0 0 0 0 0 0 0 0 0 0 127 0"/>
<feOffset dx="-4" dy="4"/>
<feGaussianBlur stdDeviation="5"/>
<feColorMatrix type="matrix" values="0 0 0 0 0.933333 0 0 0 0 0.941176 0 0 0 0 0.956863 0 0 0 1 0"/>
<feBlend mode="normal" in2="effect1_dropShadow" result="effect2_dropShadow"/>
<feBlend mode="normal" in="SourceGraphic" in2="effect2_dropShadow" result="shape"/>
</filter>
<filter id="filter1_dd" x="10" y="11" width="261" height="69" filterUnits="userSpaceOnUse" color-interpolation-filters="sRGB">
<feFlood flood-opacity="0" result="BackgroundImageFix"/>
<feColorMatrix in="SourceAlpha" type="matrix" values="0 0 0 0 0 0 0 0 0 0 0 0 0 0 0 0 0 0 127 0"/>
<feOffset dx="4" dy="4"/>
<feGaussianBlur stdDeviation="5"/>
<feColorMatrix type="matrix" values="0 0 0 0 0.934375 0 0 0 0 0.940365 0 0 0 0 0.958333 0 0 0 0.2 0"/>
<feBlend mode="normal" in2="BackgroundImageFix" result="effect1_dropShadow"/>
<feColorMatrix in="SourceAlpha" type="matrix" values="0 0 0 0 0 0 0 0 0 0 0 0 0 0 0 0 0 0 127 0"/>
<feOffset dx="-4" dy="4"/>
<feGaussianBlur stdDeviation="5"/>
<feColorMatrix type="matrix" values="0 0 0 0 0.933333 0 0 0 0 0.941176 0 0 0 0 0.956863 0 0 0 1 0"/>
<feBlend mode="normal" in2="effect1_dropShadow" result="effect2_dropShadow"/>
<feBlend mode="normal" in="SourceGraphic" in2="effect2_dropShadow" result="shape"/>
</filter>
</defs>
</svg>
