<svg width="300" height="64" viewBox="0 0 300 64" fill="none" xmlns="http://www.w3.org/2000/svg">
<g filter="url(#filter0_dd)">
<rect x="9.632" y="4.632" width="280.736" height="49.736" rx="22.752" stroke="#50E3C2" stroke-width="1.264"/>
</g>
<g filter="url(#filter1_dd)">
<rect x="19" y="12" width="260" height="35" rx="17.5" fill="white"/>
</g>
<path d="M89.7715 35H88.1377V26.4072H85.1982V25.0059H92.7109V26.4072H89.7715V35ZM97.9131 27.3027C98.2367 27.3027 98.5033 27.3255 98.7129 27.3711L98.5557 28.8682C98.3278 28.8135 98.0908 28.7861 97.8447 28.7861C97.2021 28.7861 96.6803 28.9958 96.2793 29.415C95.8828 29.8343 95.6846 30.3789 95.6846 31.0488V35H94.0781V27.4395H95.3359L95.5479 28.7725H95.6299C95.8805 28.3213 96.2064 27.9635 96.6074 27.6992C97.013 27.4349 97.4482 27.3027 97.9131 27.3027ZM98.9727 27.4395H100.723L102.261 31.7256C102.493 32.3363 102.648 32.9105 102.726 33.4482H102.78C102.821 33.1976 102.896 32.8945 103.006 32.5391C103.115 32.179 103.694 30.4792 104.742 27.4395H106.479L103.245 36.0049C102.657 37.5771 101.677 38.3633 100.306 38.3633C99.9502 38.3633 99.6038 38.3245 99.2666 38.2471V36.9756C99.5081 37.0303 99.7839 37.0576 100.094 37.0576C100.868 37.0576 101.413 36.6087 101.728 35.7109L102.008 35L98.9727 27.4395ZM169.608 28.6562H167.763V35H166.149V28.6562H164.905V27.9043L166.149 27.4121V26.9199C166.149 26.0267 166.359 25.3659 166.778 24.9375C167.198 24.5046 167.838 24.2881 168.699 24.2881C169.264 24.2881 169.82 24.3815 170.367 24.5684L169.943 25.7852C169.547 25.6576 169.169 25.5938 168.809 25.5938C168.444 25.5938 168.177 25.7077 168.009 25.9355C167.845 26.1589 167.763 26.4961 167.763 26.9473V27.4395H169.608V28.6562ZM177.606 31.2061C177.606 32.4411 177.29 33.4049 176.656 34.0977C176.023 34.7904 175.141 35.1367 174.011 35.1367C173.304 35.1367 172.68 34.9772 172.138 34.6582C171.595 34.3392 171.178 33.8812 170.887 33.2842C170.595 32.6872 170.449 31.9945 170.449 31.2061C170.449 29.9801 170.764 29.0231 171.393 28.335C172.021 27.6468 172.908 27.3027 174.052 27.3027C175.146 27.3027 176.011 27.6559 176.649 28.3623C177.287 29.0641 177.606 30.012 177.606 31.2061ZM172.104 31.2061C172.104 32.9515 172.748 33.8242 174.038 33.8242C175.314 33.8242 175.952 32.9515 175.952 31.2061C175.952 29.4788 175.31 28.6152 174.024 28.6152C173.35 28.6152 172.86 28.8385 172.555 29.2852C172.254 29.7318 172.104 30.3721 172.104 31.2061ZM183.294 27.3027C183.618 27.3027 183.884 27.3255 184.094 27.3711L183.937 28.8682C183.709 28.8135 183.472 28.7861 183.226 28.7861C182.583 28.7861 182.061 28.9958 181.66 29.415C181.264 29.8343 181.065 30.3789 181.065 31.0488V35H179.459V27.4395H180.717L180.929 28.7725H181.011C181.261 28.3213 181.587 27.9635 181.988 27.6992C182.394 27.4349 182.829 27.3027 183.294 27.3027ZM192.933 28.6562H191.087V35H189.474V28.6562H188.229V27.9043L189.474 27.4121V26.9199C189.474 26.0267 189.683 25.3659 190.103 24.9375C190.522 24.5046 191.162 24.2881 192.023 24.2881C192.589 24.2881 193.145 24.3815 193.691 24.5684L193.268 25.7852C192.871 25.6576 192.493 25.5938 192.133 25.5938C191.768 25.5938 191.502 25.7077 191.333 25.9355C191.169 26.1589 191.087 26.4961 191.087 26.9473V27.4395H192.933V28.6562ZM198.06 27.3027C198.383 27.3027 198.65 27.3255 198.859 27.3711L198.702 28.8682C198.474 28.8135 198.237 28.7861 197.991 28.7861C197.349 28.7861 196.827 28.9958 196.426 29.415C196.029 29.8343 195.831 30.3789 195.831 31.0488V35H194.225V27.4395H195.482L195.694 28.7725H195.776C196.027 28.3213 196.353 27.9635 196.754 27.6992C197.16 27.4349 197.595 27.3027 198.06 27.3027ZM203.569 35.1367C202.394 35.1367 201.473 34.7949 200.808 34.1113C200.147 33.4232 199.816 32.4775 199.816 31.2744C199.816 30.0394 200.124 29.0687 200.739 28.3623C201.354 27.6559 202.2 27.3027 203.275 27.3027C204.273 27.3027 205.062 27.6058 205.641 28.2119C206.219 28.818 206.509 29.652 206.509 30.7139V31.582H201.471C201.493 32.3158 201.692 32.8809 202.065 33.2773C202.439 33.6693 202.965 33.8652 203.645 33.8652C204.091 33.8652 204.506 33.8242 204.889 33.7422C205.276 33.6556 205.691 33.5143 206.133 33.3184V34.624C205.741 34.8109 205.344 34.943 204.943 35.0205C204.542 35.098 204.084 35.1367 203.569 35.1367ZM203.275 28.5195C202.765 28.5195 202.355 28.6813 202.045 29.0049C201.74 29.3285 201.557 29.8001 201.498 30.4199H204.93C204.921 29.7956 204.77 29.3239 204.479 29.0049C204.187 28.6813 203.786 28.5195 203.275 28.5195ZM211.636 35.1367C210.46 35.1367 209.539 34.7949 208.874 34.1113C208.213 33.4232 207.883 32.4775 207.883 31.2744C207.883 30.0394 208.19 29.0687 208.806 28.3623C209.421 27.6559 210.266 27.3027 211.342 27.3027C212.34 27.3027 213.128 27.6058 213.707 28.2119C214.286 28.818 214.575 29.652 214.575 30.7139V31.582H209.537C209.56 32.3158 209.758 32.8809 210.132 33.2773C210.506 33.6693 211.032 33.8652 211.711 33.8652C212.158 33.8652 212.572 33.8242 212.955 33.7422C213.342 33.6556 213.757 33.5143 214.199 33.3184V34.624C213.807 34.8109 213.411 34.943 213.01 35.0205C212.609 35.098 212.151 35.1367 211.636 35.1367ZM211.342 28.5195C210.831 28.5195 210.421 28.6813 210.111 29.0049C209.806 29.3285 209.624 29.8001 209.564 30.4199H212.996C212.987 29.7956 212.837 29.3239 212.545 29.0049C212.253 28.6813 211.852 28.5195 211.342 28.5195Z" fill="#1F3161"/>
<path d="M121.332 30.587L126.021 25.7414C126.177 25.578 126.264 25.3618 126.264 25.1325C126.264 24.6545 125.887 24.2664 125.423 24.2664C125.197 24.2664 124.985 24.3576 124.826 24.5242C124.825 24.5252 120.14 29.3512 120.14 29.3512L115.433 24.517C115.274 24.3554 115.064 24.2664 114.84 24.2664C114.377 24.2664 114 24.6543 114 25.1318C114 25.3647 114.09 25.5832 114.252 25.7479L118.941 30.5802L114.255 35.4198C114.09 35.587 114 35.806 114 36.0399C114 36.5178 114.377 36.9055 114.84 36.9055C115.064 36.9055 115.275 36.8159 115.433 36.6525L120.133 31.8157L124.814 36.6349C124.98 36.8118 125.194 36.906 125.423 36.906C125.886 36.906 126.263 36.5178 126.263 36.0399C126.263 35.8094 126.176 35.5927 126.019 35.4294L121.332 30.587Z" fill="#3DBBFF"/>
<path d="M149.211 30.5855C149.211 31.4533 149.896 32.1592 150.739 32.1592C151.58 32.1592 152.265 31.4533 152.265 30.5855C152.265 29.7175 151.58 29.0117 150.739 29.0117C149.896 29.0117 149.211 29.7175 149.211 30.5855Z" fill="#3DBBFF"/>
<path d="M146.315 30.5864C146.315 28.0733 148.299 26.0285 150.737 26.0285C153.175 26.0285 155.159 28.0733 155.159 30.5864C155.159 33.0989 153.175 35.1428 150.737 35.1428C148.299 35.1428 146.315 33.0989 146.315 30.5864ZM144.576 30.5864C144.576 34.0875 147.34 36.936 150.737 36.936C154.135 36.936 156.9 34.0875 156.9 30.5864C156.9 27.0847 154.135 24.2354 150.737 24.2354C147.34 24.2354 144.576 27.0847 144.576 30.5864Z" fill="#3DBBFF"/>
<path d="M144.138 24.344L143.88 24.3432C143.104 24.3432 142.355 24.5955 141.73 25.092C141.648 24.7035 141.311 24.4111 140.909 24.4111C140.447 24.4111 140.077 24.7926 140.076 25.2697C140.076 25.2714 140.079 35.9658 140.079 35.9658C140.08 36.442 140.457 36.8291 140.919 36.8291C141.381 36.8291 141.758 36.442 141.759 35.9647C141.759 35.9626 141.76 29.388 141.76 29.388C141.76 27.196 141.954 26.3107 143.776 26.076C143.944 26.0545 144.128 26.0578 144.128 26.0578C144.627 26.0402 144.981 25.6871 144.981 25.21C144.981 24.7325 144.603 24.344 144.138 24.344Z" fill="#3DBBFF"/>
<path d="M127.879 29.2897C127.879 29.266 127.881 29.2414 127.882 29.217C128.37 27.2294 130.116 25.7585 132.196 25.7585C134.302 25.7585 136.064 27.2655 136.527 29.2897H127.879ZM138.248 29.1262C137.886 27.3592 136.947 25.9079 135.518 24.9758C133.429 23.6087 130.67 23.6843 128.652 25.1634C127.006 26.3703 126.056 28.3446 126.056 30.3784C126.056 30.8884 126.115 31.4031 126.24 31.9098C126.861 34.4298 128.963 36.3374 131.469 36.6536C132.213 36.7464 132.936 36.702 133.686 36.5019C134.33 36.3404 134.953 36.0712 135.527 35.6919C136.123 35.297 136.621 34.7763 137.104 34.153C137.113 34.1415 137.123 34.1314 137.133 34.1193C137.468 33.6915 137.405 33.0831 137.038 32.7926C136.727 32.5476 136.207 32.4482 135.797 32.9891C135.709 33.1184 135.611 33.2515 135.502 33.3846C135.177 33.7557 134.772 34.1152 134.288 34.394C133.672 34.7334 132.969 34.9274 132.222 34.9317C129.778 34.9037 128.471 33.1453 128.005 31.8902C127.924 31.6559 127.861 31.4127 127.818 31.1624C127.812 31.1156 127.808 31.0704 127.806 31.0288C128.312 31.0288 136.577 31.0273 136.577 31.0273C137.779 31.0013 138.426 30.1265 138.248 29.1262Z" fill="#3DBBFF"/>
<defs>
<filter id="filter0_dd" x="0.152" y="0.208" width="299.696" height="63.64" filterUnits="userSpaceOnUse" color-interpolation-filters="sRGB">
<feFlood flood-opacity="0" result="BackgroundImageFix"/>
<feColorMatrix in="SourceAlpha" type="matrix" values="0 0 0 0 0 0 0 0 0 0 0 0 0 0 0 0 0 0 127 0"/>
<feOffset dx="2.528" dy="2.528"/>
<feGaussianBlur stdDeviation="3.16"/>
<feColorMatrix type="matrix" values="0 0 0 0 0.934375 0 0 0 0 0.940365 0 0 0 0 0.958333 0 0 0 0.2 0"/>
<feBlend mode="normal" in2="BackgroundImageFix" result="effect1_dropShadow"/>
<feColorMatrix in="SourceAlpha" type="matrix" values="0 0 0 0 0 0 0 0 0 0 0 0 0 0 0 0 0 0 127 0"/>
<feOffset dx="-2.528" dy="2.528"/>
<feGaussianBlur stdDeviation="3.16"/>
<feColorMatrix type="matrix" values="0 0 0 0 0.933333 0 0 0 0 0.941176 0 0 0 0 0.956863 0 0 0 1 0"/>
<feBlend mode="normal" in2="effect1_dropShadow" result="effect2_dropShadow"/>
<feBlend mode="normal" in="SourceGraphic" in2="effect2_dropShadow" result="shape"/>
</filter>
<filter id="filter1_dd" x="10.152" y="8.208" width="277.696" height="47.64" filterUnits="userSpaceOnUse" color-interpolation-filters="sRGB">
<feFlood flood-opacity="0" result="BackgroundImageFix"/>
<feColorMatrix in="SourceAlpha" type="matrix" values="0 0 0 0 0 0 0 0 0 0 0 0 0 0 0 0 0 0 127 0"/>
<feOffset dx="2.528" dy="2.528"/>
<feGaussianBlur stdDeviation="3.16"/>
<feColorMatrix type="matrix" values="0 0 0 0 0.934375 0 0 0 0 0.940365 0 0 0 0 0.958333 0 0 0 0.2 0"/>
<feBlend mode="normal" in2="BackgroundImageFix" result="effect1_dropShadow"/>
<feColorMatrix in="SourceAlpha" type="matrix" values="0 0 0 0 0 0 0 0 0 0 0 0 0 0 0 0 0 0 127 0"/>
<feOffset dx="-2.528" dy="2.528"/>
<feGaussianBlur stdDeviation="3.16"/>
<feColorMatrix type="matrix" values="0 0 0 0 0.933333 0 0 0 0 0.941176 0 0 0 0 0.956863 0 0 0 1 0"/>
<feBlend mode="normal" in2="effect1_dropShadow" result="effect2_dropShadow"/>
<feBlend mode="normal" in="SourceGraphic" in2="effect2_dropShadow" result="shape"/>
</filter>
</defs>
</svg>
