<svg width="291" height="162" viewBox="0 0 291 162" fill="none" xmlns="http://www.w3.org/2000/svg">
<path d="M6.67188 129.016H10.5547V134.57C9.95052 134.763 9.33594 134.909 8.71094 135.008C8.08594 135.107 7.36198 135.156 6.53906 135.156C4.8099 135.156 3.46354 134.643 2.5 133.617C1.53646 132.586 1.05469 131.143 1.05469 129.289C1.05469 128.102 1.29167 127.062 1.76562 126.172C2.24479 125.276 2.93229 124.594 3.82812 124.125C4.72396 123.651 5.77344 123.414 6.97656 123.414C8.19531 123.414 9.33073 123.638 10.3828 124.086L9.86719 125.258C8.83594 124.82 7.84375 124.602 6.89062 124.602C5.5 124.602 4.41406 125.016 3.63281 125.844C2.85156 126.672 2.46094 127.82 2.46094 129.289C2.46094 130.831 2.83594 132 3.58594 132.797C4.34115 133.594 5.44792 133.992 6.90625 133.992C7.69792 133.992 8.47135 133.901 9.22656 133.719V130.203H6.67188V129.016ZM17.0156 126.281C17.3958 126.281 17.737 126.312 18.0391 126.375L17.8594 127.578C17.5052 127.5 17.1927 127.461 16.9219 127.461C16.2292 127.461 15.6354 127.742 15.1406 128.305C14.651 128.867 14.4062 129.568 14.4062 130.406V135H13.1094V126.438H14.1797L14.3281 128.023H14.3906C14.7083 127.466 15.0911 127.036 15.5391 126.734C15.987 126.432 16.4792 126.281 17.0156 126.281ZM27.0312 130.711C27.0312 132.107 26.6797 133.198 25.9766 133.984C25.2734 134.766 24.3021 135.156 23.0625 135.156C22.2969 135.156 21.6172 134.977 21.0234 134.617C20.4297 134.258 19.9714 133.742 19.6484 133.07C19.3255 132.398 19.1641 131.612 19.1641 130.711C19.1641 129.315 19.513 128.229 20.2109 127.453C20.9089 126.672 21.8776 126.281 23.1172 126.281C24.3151 126.281 25.2656 126.68 25.9688 127.477C26.6771 128.273 27.0312 129.352 27.0312 130.711ZM20.5078 130.711C20.5078 131.805 20.7266 132.638 21.1641 133.211C21.6016 133.784 22.2448 134.07 23.0938 134.07C23.9427 134.07 24.5859 133.786 25.0234 133.219C25.4661 132.646 25.6875 131.81 25.6875 130.711C25.6875 129.622 25.4661 128.797 25.0234 128.234C24.5859 127.667 23.9375 127.383 23.0781 127.383C22.2292 127.383 21.5885 127.661 21.1562 128.219C20.724 128.776 20.5078 129.607 20.5078 130.711ZM30.5312 126.438V131.992C30.5312 132.69 30.6901 133.211 31.0078 133.555C31.3255 133.898 31.8229 134.07 32.5 134.07C33.3958 134.07 34.0495 133.826 34.4609 133.336C34.8776 132.846 35.0859 132.047 35.0859 130.938V126.438H36.3828V135H35.3125L35.125 133.852H35.0547C34.7891 134.273 34.4193 134.596 33.9453 134.82C33.4766 135.044 32.9401 135.156 32.3359 135.156C31.2943 135.156 30.513 134.909 29.9922 134.414C29.4766 133.919 29.2188 133.128 29.2188 132.039V126.438H30.5312ZM45 135V129.461C45 128.763 44.8411 128.242 44.5234 127.898C44.2057 127.555 43.7083 127.383 43.0312 127.383C42.1354 127.383 41.4792 127.625 41.0625 128.109C40.6458 128.594 40.4375 129.393 40.4375 130.508V135H39.1406V126.438H40.1953L40.4062 127.609H40.4688C40.7344 127.188 41.1068 126.862 41.5859 126.633C42.0651 126.398 42.599 126.281 43.1875 126.281C44.2188 126.281 44.9948 126.531 45.5156 127.031C46.0365 127.526 46.2969 128.32 46.2969 129.414V135H45ZM54.7969 133.852H54.7266C54.1276 134.721 53.2318 135.156 52.0391 135.156C50.9193 135.156 50.0469 134.773 49.4219 134.008C48.8021 133.242 48.4922 132.154 48.4922 130.742C48.4922 129.331 48.8047 128.234 49.4297 127.453C50.0547 126.672 50.9245 126.281 52.0391 126.281C53.2005 126.281 54.0911 126.703 54.7109 127.547H54.8125L54.7578 126.93L54.7266 126.328V122.844H56.0234V135H54.9688L54.7969 133.852ZM52.2031 134.07C53.0885 134.07 53.7292 133.831 54.125 133.352C54.526 132.867 54.7266 132.089 54.7266 131.016V130.742C54.7266 129.529 54.5234 128.664 54.1172 128.148C53.7161 127.628 53.0729 127.367 52.1875 127.367C51.4271 127.367 50.8438 127.664 50.4375 128.258C50.0365 128.846 49.8359 129.68 49.8359 130.758C49.8359 131.852 50.0365 132.677 50.4375 133.234C50.8385 133.792 51.4271 134.07 52.2031 134.07ZM63.1328 135V123.578H64.4609V133.797H69.5V135H63.1328ZM74.8672 135.156C73.6016 135.156 72.6016 134.771 71.8672 134C71.138 133.229 70.7734 132.159 70.7734 130.789C70.7734 129.409 71.112 128.312 71.7891 127.5C72.4714 126.688 73.3854 126.281 74.5312 126.281C75.6042 126.281 76.4531 126.635 77.0781 127.344C77.7031 128.047 78.0156 128.977 78.0156 130.133V130.953H72.1172C72.1432 131.958 72.3958 132.721 72.875 133.242C73.3594 133.763 74.0391 134.023 74.9141 134.023C75.8359 134.023 76.7474 133.831 77.6484 133.445V134.602C77.1901 134.799 76.7552 134.94 76.3438 135.023C75.9375 135.112 75.4453 135.156 74.8672 135.156ZM74.5156 127.367C73.8281 127.367 73.2786 127.591 72.8672 128.039C72.4609 128.487 72.2214 129.107 72.1484 129.898H76.625C76.625 129.081 76.4427 128.456 76.0781 128.023C75.7135 127.586 75.1927 127.367 74.5156 127.367ZM82.1094 135L78.8594 126.438H80.25L82.0938 131.516C82.5104 132.703 82.7552 133.474 82.8281 133.828H82.8906C82.9479 133.552 83.1276 132.982 83.4297 132.117C83.737 131.247 84.4219 129.354 85.4844 126.438H86.875L83.625 135H82.1094ZM91.8672 135.156C90.6016 135.156 89.6016 134.771 88.8672 134C88.138 133.229 87.7734 132.159 87.7734 130.789C87.7734 129.409 88.112 128.312 88.7891 127.5C89.4714 126.688 90.3854 126.281 91.5312 126.281C92.6042 126.281 93.4531 126.635 94.0781 127.344C94.7031 128.047 95.0156 128.977 95.0156 130.133V130.953H89.1172C89.1432 131.958 89.3958 132.721 89.875 133.242C90.3594 133.763 91.0391 134.023 91.9141 134.023C92.8359 134.023 93.7474 133.831 94.6484 133.445V134.602C94.1901 134.799 93.7552 134.94 93.3438 135.023C92.9375 135.112 92.4453 135.156 91.8672 135.156ZM91.5156 127.367C90.8281 127.367 90.2786 127.591 89.8672 128.039C89.4609 128.487 89.2214 129.107 89.1484 129.898H93.625C93.625 129.081 93.4427 128.456 93.0781 128.023C92.7135 127.586 92.1927 127.367 91.5156 127.367ZM98.5312 135H97.2344V122.844H98.5312V135ZM112 135H105.633V123.578H112V124.758H106.961V128.438H111.695V129.609H106.961V133.812H112V135ZM119.609 135L119.352 133.781H119.289C118.862 134.318 118.435 134.682 118.008 134.875C117.586 135.062 117.057 135.156 116.422 135.156C115.573 135.156 114.906 134.938 114.422 134.5C113.943 134.062 113.703 133.44 113.703 132.633C113.703 130.904 115.086 129.997 117.852 129.914L119.305 129.867V129.336C119.305 128.664 119.159 128.169 118.867 127.852C118.581 127.529 118.12 127.367 117.484 127.367C116.771 127.367 115.964 127.586 115.062 128.023L114.664 127.031C115.086 126.802 115.547 126.622 116.047 126.492C116.552 126.362 117.057 126.297 117.562 126.297C118.583 126.297 119.339 126.523 119.828 126.977C120.323 127.43 120.57 128.156 120.57 129.156V135H119.609ZM116.68 134.086C117.487 134.086 118.12 133.865 118.578 133.422C119.042 132.979 119.273 132.359 119.273 131.562V130.789L117.977 130.844C116.945 130.88 116.201 131.042 115.742 131.328C115.289 131.609 115.062 132.049 115.062 132.648C115.062 133.117 115.203 133.474 115.484 133.719C115.771 133.964 116.169 134.086 116.68 134.086ZM128.773 132.664C128.773 133.461 128.477 134.076 127.883 134.508C127.289 134.94 126.456 135.156 125.383 135.156C124.247 135.156 123.362 134.977 122.727 134.617V133.414C123.138 133.622 123.578 133.786 124.047 133.906C124.521 134.026 124.977 134.086 125.414 134.086C126.091 134.086 126.612 133.979 126.977 133.766C127.341 133.547 127.523 133.216 127.523 132.773C127.523 132.44 127.378 132.156 127.086 131.922C126.799 131.682 126.237 131.401 125.398 131.078C124.602 130.781 124.034 130.523 123.695 130.305C123.362 130.081 123.112 129.828 122.945 129.547C122.784 129.266 122.703 128.93 122.703 128.539C122.703 127.841 122.987 127.292 123.555 126.891C124.122 126.484 124.901 126.281 125.891 126.281C126.812 126.281 127.714 126.469 128.594 126.844L128.133 127.898C127.273 127.544 126.495 127.367 125.797 127.367C125.182 127.367 124.719 127.464 124.406 127.656C124.094 127.849 123.938 128.115 123.938 128.453C123.938 128.682 123.995 128.878 124.109 129.039C124.229 129.201 124.419 129.354 124.68 129.5C124.94 129.646 125.44 129.857 126.18 130.133C127.195 130.503 127.88 130.875 128.234 131.25C128.594 131.625 128.773 132.096 128.773 132.664ZM133.656 134.086C133.885 134.086 134.107 134.07 134.32 134.039C134.534 134.003 134.703 133.966 134.828 133.93V134.922C134.688 134.99 134.479 135.044 134.203 135.086C133.932 135.133 133.688 135.156 133.469 135.156C131.812 135.156 130.984 134.284 130.984 132.539V127.445H129.758V126.82L130.984 126.281L131.531 124.453H132.281V126.438H134.766V127.445H132.281V132.484C132.281 133 132.404 133.396 132.648 133.672C132.893 133.948 133.229 134.086 133.656 134.086ZM137.906 133.141L138.023 133.32C137.888 133.841 137.693 134.445 137.438 135.133C137.182 135.826 136.917 136.469 136.641 137.062H135.664C135.805 136.521 135.958 135.852 136.125 135.055C136.297 134.258 136.417 133.62 136.484 133.141H137.906ZM144.164 130.117C144.164 127.872 144.599 126.195 145.469 125.086C146.344 123.971 147.635 123.414 149.344 123.414C149.932 123.414 150.396 123.464 150.734 123.562V124.68C150.333 124.549 149.875 124.484 149.359 124.484C148.135 124.484 147.201 124.867 146.555 125.633C145.909 126.393 145.555 127.591 145.492 129.227H145.586C146.159 128.331 147.065 127.883 148.305 127.883C149.331 127.883 150.138 128.193 150.727 128.812C151.32 129.432 151.617 130.273 151.617 131.336C151.617 132.523 151.292 133.458 150.641 134.141C149.995 134.818 149.12 135.156 148.016 135.156C146.833 135.156 145.896 134.714 145.203 133.828C144.51 132.938 144.164 131.701 144.164 130.117ZM148 134.055C148.74 134.055 149.312 133.823 149.719 133.359C150.13 132.891 150.336 132.216 150.336 131.336C150.336 130.581 150.146 129.987 149.766 129.555C149.385 129.122 148.818 128.906 148.062 128.906C147.594 128.906 147.164 129.003 146.773 129.195C146.383 129.388 146.07 129.654 145.836 129.992C145.607 130.331 145.492 130.682 145.492 131.047C145.492 131.583 145.596 132.083 145.805 132.547C146.013 133.01 146.307 133.378 146.688 133.648C147.073 133.919 147.51 134.055 148 134.055ZM156.758 128.023C157.961 128.023 158.906 128.323 159.594 128.922C160.286 129.516 160.633 130.331 160.633 131.367C160.633 132.549 160.255 133.477 159.5 134.148C158.75 134.82 157.714 135.156 156.391 135.156C155.104 135.156 154.122 134.951 153.445 134.539V133.289C153.81 133.523 154.263 133.708 154.805 133.844C155.346 133.974 155.88 134.039 156.406 134.039C157.323 134.039 158.034 133.823 158.539 133.391C159.049 132.958 159.305 132.333 159.305 131.516C159.305 129.922 158.328 129.125 156.375 129.125C155.88 129.125 155.219 129.201 154.391 129.352L153.719 128.922L154.148 123.578H159.828V124.773H155.258L154.969 128.203C155.568 128.083 156.164 128.023 156.758 128.023ZM173.734 131.961C173.734 132.966 173.37 133.75 172.641 134.312C171.911 134.875 170.922 135.156 169.672 135.156C168.318 135.156 167.276 134.982 166.547 134.633V133.352C167.016 133.549 167.526 133.706 168.078 133.82C168.63 133.935 169.177 133.992 169.719 133.992C170.604 133.992 171.271 133.826 171.719 133.492C172.167 133.154 172.391 132.685 172.391 132.086C172.391 131.69 172.31 131.367 172.148 131.117C171.992 130.862 171.727 130.628 171.352 130.414C170.982 130.201 170.417 129.958 169.656 129.688C168.594 129.307 167.833 128.857 167.375 128.336C166.922 127.815 166.695 127.135 166.695 126.297C166.695 125.417 167.026 124.716 167.688 124.195C168.349 123.674 169.224 123.414 170.312 123.414C171.448 123.414 172.492 123.622 173.445 124.039L173.031 125.195C172.089 124.799 171.172 124.602 170.281 124.602C169.578 124.602 169.029 124.753 168.633 125.055C168.237 125.357 168.039 125.776 168.039 126.312C168.039 126.708 168.112 127.034 168.258 127.289C168.404 127.539 168.648 127.771 168.992 127.984C169.341 128.193 169.872 128.424 170.586 128.68C171.784 129.107 172.607 129.565 173.055 130.055C173.508 130.544 173.734 131.18 173.734 131.961ZM183.266 130.711C183.266 132.107 182.914 133.198 182.211 133.984C181.508 134.766 180.536 135.156 179.297 135.156C178.531 135.156 177.852 134.977 177.258 134.617C176.664 134.258 176.206 133.742 175.883 133.07C175.56 132.398 175.398 131.612 175.398 130.711C175.398 129.315 175.747 128.229 176.445 127.453C177.143 126.672 178.112 126.281 179.352 126.281C180.549 126.281 181.5 126.68 182.203 127.477C182.911 128.273 183.266 129.352 183.266 130.711ZM176.742 130.711C176.742 131.805 176.961 132.638 177.398 133.211C177.836 133.784 178.479 134.07 179.328 134.07C180.177 134.07 180.82 133.786 181.258 133.219C181.701 132.646 181.922 131.81 181.922 130.711C181.922 129.622 181.701 128.797 181.258 128.234C180.82 127.667 180.172 127.383 179.312 127.383C178.464 127.383 177.823 127.661 177.391 128.219C176.958 128.776 176.742 129.607 176.742 130.711ZM186.766 126.438V131.992C186.766 132.69 186.924 133.211 187.242 133.555C187.56 133.898 188.057 134.07 188.734 134.07C189.63 134.07 190.284 133.826 190.695 133.336C191.112 132.846 191.32 132.047 191.32 130.938V126.438H192.617V135H191.547L191.359 133.852H191.289C191.023 134.273 190.654 134.596 190.18 134.82C189.711 135.044 189.174 135.156 188.57 135.156C187.529 135.156 186.747 134.909 186.227 134.414C185.711 133.919 185.453 133.128 185.453 132.039V126.438H186.766ZM198.141 134.086C198.37 134.086 198.591 134.07 198.805 134.039C199.018 134.003 199.188 133.966 199.312 133.93V134.922C199.172 134.99 198.964 135.044 198.688 135.086C198.417 135.133 198.172 135.156 197.953 135.156C196.297 135.156 195.469 134.284 195.469 132.539V127.445H194.242V126.82L195.469 126.281L196.016 124.453H196.766V126.438H199.25V127.445H196.766V132.484C196.766 133 196.888 133.396 197.133 133.672C197.378 133.948 197.714 134.086 198.141 134.086ZM206.891 135V129.461C206.891 128.763 206.732 128.242 206.414 127.898C206.096 127.555 205.599 127.383 204.922 127.383C204.021 127.383 203.362 127.628 202.945 128.117C202.534 128.607 202.328 129.409 202.328 130.523V135H201.031V122.844H202.328V126.523C202.328 126.966 202.307 127.333 202.266 127.625H202.344C202.599 127.214 202.961 126.891 203.43 126.656C203.904 126.417 204.443 126.297 205.047 126.297C206.094 126.297 206.878 126.547 207.398 127.047C207.924 127.542 208.188 128.331 208.188 129.414V135H206.891ZM214.844 126.297C215.969 126.297 216.841 126.682 217.461 127.453C218.086 128.219 218.398 129.305 218.398 130.711C218.398 132.117 218.083 133.211 217.453 133.992C216.828 134.768 215.958 135.156 214.844 135.156C214.286 135.156 213.776 135.055 213.312 134.852C212.854 134.643 212.469 134.326 212.156 133.898H212.062L211.789 135H210.859V122.844H212.156V125.797C212.156 126.458 212.135 127.052 212.094 127.578H212.156C212.76 126.724 213.656 126.297 214.844 126.297ZM214.656 127.383C213.771 127.383 213.133 127.638 212.742 128.148C212.352 128.654 212.156 129.508 212.156 130.711C212.156 131.914 212.357 132.776 212.758 133.297C213.159 133.812 213.802 134.07 214.688 134.07C215.484 134.07 216.078 133.781 216.469 133.203C216.859 132.62 217.055 131.784 217.055 130.695C217.055 129.581 216.859 128.75 216.469 128.203C216.078 127.656 215.474 127.383 214.656 127.383ZM225.938 135L225.68 133.781H225.617C225.19 134.318 224.763 134.682 224.336 134.875C223.914 135.062 223.385 135.156 222.75 135.156C221.901 135.156 221.234 134.938 220.75 134.5C220.271 134.062 220.031 133.44 220.031 132.633C220.031 130.904 221.414 129.997 224.18 129.914L225.633 129.867V129.336C225.633 128.664 225.487 128.169 225.195 127.852C224.909 127.529 224.448 127.367 223.812 127.367C223.099 127.367 222.292 127.586 221.391 128.023L220.992 127.031C221.414 126.802 221.875 126.622 222.375 126.492C222.88 126.362 223.385 126.297 223.891 126.297C224.911 126.297 225.667 126.523 226.156 126.977C226.651 127.43 226.898 128.156 226.898 129.156V135H225.938ZM223.008 134.086C223.815 134.086 224.448 133.865 224.906 133.422C225.37 132.979 225.602 132.359 225.602 131.562V130.789L224.305 130.844C223.273 130.88 222.529 131.042 222.07 131.328C221.617 131.609 221.391 132.049 221.391 132.648C221.391 133.117 221.531 133.474 221.812 133.719C222.099 133.964 222.497 134.086 223.008 134.086ZM235.438 135V129.461C235.438 128.763 235.279 128.242 234.961 127.898C234.643 127.555 234.146 127.383 233.469 127.383C232.573 127.383 231.917 127.625 231.5 128.109C231.083 128.594 230.875 129.393 230.875 130.508V135H229.578V126.438H230.633L230.844 127.609H230.906C231.172 127.188 231.544 126.862 232.023 126.633C232.503 126.398 233.036 126.281 233.625 126.281C234.656 126.281 235.432 126.531 235.953 127.031C236.474 127.526 236.734 128.32 236.734 129.414V135H235.438ZM240.688 130.617C240.911 130.299 241.253 129.883 241.711 129.367L244.477 126.438H246.016L242.547 130.086L246.258 135H244.688L241.664 130.953L240.688 131.797V135H239.406V122.844H240.688V129.289C240.688 129.576 240.667 130.018 240.625 130.617H240.688ZM252.164 123.578H255.391C256.906 123.578 258.003 123.805 258.68 124.258C259.357 124.711 259.695 125.427 259.695 126.406C259.695 127.083 259.505 127.643 259.125 128.086C258.75 128.523 258.201 128.807 257.477 128.938V129.016C259.211 129.312 260.078 130.224 260.078 131.75C260.078 132.771 259.732 133.568 259.039 134.141C258.352 134.714 257.388 135 256.148 135H252.164V123.578ZM253.492 128.469H255.68C256.617 128.469 257.292 128.323 257.703 128.031C258.115 127.734 258.32 127.237 258.32 126.539C258.32 125.898 258.091 125.438 257.633 125.156C257.174 124.87 256.445 124.727 255.445 124.727H253.492V128.469ZM253.492 129.594V133.867H255.875C256.797 133.867 257.49 133.69 257.953 133.336C258.422 132.977 258.656 132.417 258.656 131.656C258.656 130.948 258.417 130.427 257.938 130.094C257.464 129.76 256.74 129.594 255.766 129.594H253.492ZM263.641 135H262.344V122.844H263.641V135ZM268.266 135L265.016 126.438H266.406L268.25 131.516C268.667 132.703 268.911 133.474 268.984 133.828H269.047C269.104 133.552 269.284 132.982 269.586 132.117C269.893 131.247 270.578 129.354 271.641 126.438H273.031L269.781 135H268.266ZM280.234 133.852H280.164C279.565 134.721 278.669 135.156 277.477 135.156C276.357 135.156 275.484 134.773 274.859 134.008C274.24 133.242 273.93 132.154 273.93 130.742C273.93 129.331 274.242 128.234 274.867 127.453C275.492 126.672 276.362 126.281 277.477 126.281C278.638 126.281 279.529 126.703 280.148 127.547H280.25L280.195 126.93L280.164 126.328V122.844H281.461V135H280.406L280.234 133.852ZM277.641 134.07C278.526 134.07 279.167 133.831 279.562 133.352C279.964 132.867 280.164 132.089 280.164 131.016V130.742C280.164 129.529 279.961 128.664 279.555 128.148C279.154 127.628 278.51 127.367 277.625 127.367C276.865 127.367 276.281 127.664 275.875 128.258C275.474 128.846 275.273 129.68 275.273 130.758C275.273 131.852 275.474 132.677 275.875 133.234C276.276 133.792 276.865 134.07 277.641 134.07ZM285.578 133.141L285.695 133.32C285.56 133.841 285.365 134.445 285.109 135.133C284.854 135.826 284.589 136.469 284.312 137.062H283.336C283.477 136.521 283.63 135.852 283.797 135.055C283.969 134.258 284.089 133.62 284.156 133.141H285.578ZM78.6406 153.961C78.6406 154.966 78.276 155.75 77.5469 156.312C76.8177 156.875 75.8281 157.156 74.5781 157.156C73.224 157.156 72.1823 156.982 71.4531 156.633V155.352C71.9219 155.549 72.4323 155.706 72.9844 155.82C73.5365 155.935 74.0833 155.992 74.625 155.992C75.5104 155.992 76.1771 155.826 76.625 155.492C77.0729 155.154 77.2969 154.685 77.2969 154.086C77.2969 153.69 77.2161 153.367 77.0547 153.117C76.8984 152.862 76.6328 152.628 76.2578 152.414C75.888 152.201 75.3229 151.958 74.5625 151.688C73.5 151.307 72.7396 150.857 72.2812 150.336C71.8281 149.815 71.6016 149.135 71.6016 148.297C71.6016 147.417 71.9323 146.716 72.5938 146.195C73.2552 145.674 74.1302 145.414 75.2188 145.414C76.3542 145.414 77.3984 145.622 78.3516 146.039L77.9375 147.195C76.9948 146.799 76.0781 146.602 75.1875 146.602C74.4844 146.602 73.9349 146.753 73.5391 147.055C73.1432 147.357 72.9453 147.776 72.9453 148.312C72.9453 148.708 73.0182 149.034 73.1641 149.289C73.3099 149.539 73.5547 149.771 73.8984 149.984C74.2474 150.193 74.7786 150.424 75.4922 150.68C76.6901 151.107 77.513 151.565 77.9609 152.055C78.4141 152.544 78.6406 153.18 78.6406 153.961ZM88.1719 152.711C88.1719 154.107 87.8203 155.198 87.1172 155.984C86.4141 156.766 85.4427 157.156 84.2031 157.156C83.4375 157.156 82.7578 156.977 82.1641 156.617C81.5703 156.258 81.112 155.742 80.7891 155.07C80.4661 154.398 80.3047 153.612 80.3047 152.711C80.3047 151.315 80.6536 150.229 81.3516 149.453C82.0495 148.672 83.0182 148.281 84.2578 148.281C85.4557 148.281 86.4062 148.68 87.1094 149.477C87.8177 150.273 88.1719 151.352 88.1719 152.711ZM81.6484 152.711C81.6484 153.805 81.8672 154.638 82.3047 155.211C82.7422 155.784 83.3854 156.07 84.2344 156.07C85.0833 156.07 85.7266 155.786 86.1641 155.219C86.6068 154.646 86.8281 153.81 86.8281 152.711C86.8281 151.622 86.6068 150.797 86.1641 150.234C85.7266 149.667 85.0781 149.383 84.2188 149.383C83.3698 149.383 82.7292 149.661 82.2969 150.219C81.8646 150.776 81.6484 151.607 81.6484 152.711ZM91.6719 148.438V153.992C91.6719 154.69 91.8307 155.211 92.1484 155.555C92.4661 155.898 92.9635 156.07 93.6406 156.07C94.5365 156.07 95.1901 155.826 95.6016 155.336C96.0182 154.846 96.2266 154.047 96.2266 152.938V148.438H97.5234V157H96.4531L96.2656 155.852H96.1953C95.9297 156.273 95.5599 156.596 95.0859 156.82C94.6172 157.044 94.0807 157.156 93.4766 157.156C92.4349 157.156 91.6536 156.909 91.1328 156.414C90.6172 155.919 90.3594 155.128 90.3594 154.039V148.438H91.6719ZM103.047 156.086C103.276 156.086 103.497 156.07 103.711 156.039C103.924 156.003 104.094 155.966 104.219 155.93V156.922C104.078 156.99 103.87 157.044 103.594 157.086C103.323 157.133 103.078 157.156 102.859 157.156C101.203 157.156 100.375 156.284 100.375 154.539V149.445H99.1484V148.82L100.375 148.281L100.922 146.453H101.672V148.438H104.156V149.445H101.672V154.484C101.672 155 101.794 155.396 102.039 155.672C102.284 155.948 102.62 156.086 103.047 156.086ZM111.797 157V151.461C111.797 150.763 111.638 150.242 111.32 149.898C111.003 149.555 110.505 149.383 109.828 149.383C108.927 149.383 108.268 149.628 107.852 150.117C107.44 150.607 107.234 151.409 107.234 152.523V157H105.938V144.844H107.234V148.523C107.234 148.966 107.214 149.333 107.172 149.625H107.25C107.505 149.214 107.867 148.891 108.336 148.656C108.81 148.417 109.349 148.297 109.953 148.297C111 148.297 111.784 148.547 112.305 149.047C112.831 149.542 113.094 150.331 113.094 151.414V157H111.797ZM119.75 148.297C120.875 148.297 121.747 148.682 122.367 149.453C122.992 150.219 123.305 151.305 123.305 152.711C123.305 154.117 122.99 155.211 122.359 155.992C121.734 156.768 120.865 157.156 119.75 157.156C119.193 157.156 118.682 157.055 118.219 156.852C117.76 156.643 117.375 156.326 117.062 155.898H116.969L116.695 157H115.766V144.844H117.062V147.797C117.062 148.458 117.042 149.052 117 149.578H117.062C117.667 148.724 118.562 148.297 119.75 148.297ZM119.562 149.383C118.677 149.383 118.039 149.638 117.648 150.148C117.258 150.654 117.062 151.508 117.062 152.711C117.062 153.914 117.263 154.776 117.664 155.297C118.065 155.812 118.708 156.07 119.594 156.07C120.391 156.07 120.984 155.781 121.375 155.203C121.766 154.62 121.961 153.784 121.961 152.695C121.961 151.581 121.766 150.75 121.375 150.203C120.984 149.656 120.38 149.383 119.562 149.383ZM130.844 157L130.586 155.781H130.523C130.096 156.318 129.669 156.682 129.242 156.875C128.82 157.062 128.292 157.156 127.656 157.156C126.807 157.156 126.141 156.938 125.656 156.5C125.177 156.062 124.938 155.44 124.938 154.633C124.938 152.904 126.32 151.997 129.086 151.914L130.539 151.867V151.336C130.539 150.664 130.393 150.169 130.102 149.852C129.815 149.529 129.354 149.367 128.719 149.367C128.005 149.367 127.198 149.586 126.297 150.023L125.898 149.031C126.32 148.802 126.781 148.622 127.281 148.492C127.786 148.362 128.292 148.297 128.797 148.297C129.818 148.297 130.573 148.523 131.062 148.977C131.557 149.43 131.805 150.156 131.805 151.156V157H130.844ZM127.914 156.086C128.721 156.086 129.354 155.865 129.812 155.422C130.276 154.979 130.508 154.359 130.508 153.562V152.789L129.211 152.844C128.18 152.88 127.435 153.042 126.977 153.328C126.523 153.609 126.297 154.049 126.297 154.648C126.297 155.117 126.438 155.474 126.719 155.719C127.005 155.964 127.404 156.086 127.914 156.086ZM140.344 157V151.461C140.344 150.763 140.185 150.242 139.867 149.898C139.549 149.555 139.052 149.383 138.375 149.383C137.479 149.383 136.823 149.625 136.406 150.109C135.99 150.594 135.781 151.393 135.781 152.508V157H134.484V148.438H135.539L135.75 149.609H135.812C136.078 149.188 136.451 148.862 136.93 148.633C137.409 148.398 137.943 148.281 138.531 148.281C139.562 148.281 140.339 148.531 140.859 149.031C141.38 149.526 141.641 150.32 141.641 151.414V157H140.344ZM145.594 152.617C145.818 152.299 146.159 151.883 146.617 151.367L149.383 148.438H150.922L147.453 152.086L151.164 157H149.594L146.57 152.953L145.594 153.797V157H144.312V144.844H145.594V151.289C145.594 151.576 145.573 152.018 145.531 152.617H145.594ZM163.594 145.578H165.023L160.906 157H159.594L155.5 145.578H156.906L159.531 152.969C159.833 153.818 160.073 154.643 160.25 155.445C160.438 154.602 160.682 153.76 160.984 152.922L163.594 145.578ZM166.602 157V145.578H167.93V157H166.602ZM175.961 146.602C174.706 146.602 173.714 147.021 172.984 147.859C172.26 148.693 171.898 149.836 171.898 151.289C171.898 152.784 172.247 153.94 172.945 154.758C173.648 155.57 174.648 155.977 175.945 155.977C176.742 155.977 177.651 155.833 178.672 155.547V156.711C177.88 157.008 176.904 157.156 175.742 157.156C174.06 157.156 172.76 156.646 171.844 155.625C170.932 154.604 170.477 153.154 170.477 151.273C170.477 150.096 170.695 149.065 171.133 148.18C171.576 147.294 172.211 146.612 173.039 146.133C173.872 145.654 174.852 145.414 175.977 145.414C177.174 145.414 178.221 145.633 179.117 146.07L178.555 147.211C177.69 146.805 176.826 146.602 175.961 146.602ZM191.609 148.266C191.609 148.995 191.404 149.591 190.992 150.055C190.586 150.518 190.008 150.828 189.258 150.984V151.047C190.174 151.161 190.854 151.453 191.297 151.922C191.74 152.391 191.961 153.005 191.961 153.766C191.961 154.854 191.583 155.693 190.828 156.281C190.073 156.865 189 157.156 187.609 157.156C187.005 157.156 186.451 157.109 185.945 157.016C185.445 156.927 184.958 156.768 184.484 156.539V155.305C184.979 155.549 185.505 155.737 186.062 155.867C186.625 155.992 187.156 156.055 187.656 156.055C189.63 156.055 190.617 155.281 190.617 153.734C190.617 152.349 189.529 151.656 187.352 151.656H186.227V150.539H187.367C188.258 150.539 188.964 150.344 189.484 149.953C190.005 149.557 190.266 149.01 190.266 148.312C190.266 147.755 190.073 147.318 189.688 147C189.307 146.682 188.789 146.523 188.133 146.523C187.633 146.523 187.161 146.591 186.719 146.727C186.276 146.862 185.771 147.112 185.203 147.477L184.547 146.602C185.016 146.232 185.555 145.943 186.164 145.734C186.779 145.521 187.424 145.414 188.102 145.414C189.211 145.414 190.073 145.669 190.688 146.18C191.302 146.685 191.609 147.38 191.609 148.266ZM201.258 151.273C201.258 153.247 200.945 154.721 200.32 155.695C199.701 156.669 198.75 157.156 197.469 157.156C196.24 157.156 195.305 156.659 194.664 155.664C194.023 154.664 193.703 153.201 193.703 151.273C193.703 149.284 194.013 147.807 194.633 146.844C195.253 145.88 196.198 145.398 197.469 145.398C198.708 145.398 199.648 145.901 200.289 146.906C200.935 147.911 201.258 149.367 201.258 151.273ZM195.016 151.273C195.016 152.935 195.211 154.146 195.602 154.906C195.992 155.661 196.615 156.039 197.469 156.039C198.333 156.039 198.958 155.656 199.344 154.891C199.734 154.12 199.93 152.914 199.93 151.273C199.93 149.633 199.734 148.432 199.344 147.672C198.958 146.906 198.333 146.523 197.469 146.523C196.615 146.523 195.992 146.901 195.602 147.656C195.211 148.406 195.016 149.612 195.016 151.273ZM210.414 151.273C210.414 153.247 210.102 154.721 209.477 155.695C208.857 156.669 207.906 157.156 206.625 157.156C205.396 157.156 204.461 156.659 203.82 155.664C203.18 154.664 202.859 153.201 202.859 151.273C202.859 149.284 203.169 147.807 203.789 146.844C204.409 145.88 205.354 145.398 206.625 145.398C207.865 145.398 208.805 145.901 209.445 146.906C210.091 147.911 210.414 149.367 210.414 151.273ZM204.172 151.273C204.172 152.935 204.367 154.146 204.758 154.906C205.148 155.661 205.771 156.039 206.625 156.039C207.49 156.039 208.115 155.656 208.5 154.891C208.891 154.12 209.086 152.914 209.086 151.273C209.086 149.633 208.891 148.432 208.5 147.672C208.115 146.906 207.49 146.523 206.625 146.523C205.771 146.523 205.148 146.901 204.758 147.656C204.367 148.406 204.172 149.612 204.172 151.273ZM212.133 152.117C212.133 149.872 212.568 148.195 213.438 147.086C214.312 145.971 215.604 145.414 217.312 145.414C217.901 145.414 218.365 145.464 218.703 145.562V146.68C218.302 146.549 217.844 146.484 217.328 146.484C216.104 146.484 215.169 146.867 214.523 147.633C213.878 148.393 213.523 149.591 213.461 151.227H213.555C214.128 150.331 215.034 149.883 216.273 149.883C217.299 149.883 218.107 150.193 218.695 150.812C219.289 151.432 219.586 152.273 219.586 153.336C219.586 154.523 219.26 155.458 218.609 156.141C217.964 156.818 217.089 157.156 215.984 157.156C214.802 157.156 213.865 156.714 213.172 155.828C212.479 154.938 212.133 153.701 212.133 152.117ZM215.969 156.055C216.708 156.055 217.281 155.823 217.688 155.359C218.099 154.891 218.305 154.216 218.305 153.336C218.305 152.581 218.115 151.987 217.734 151.555C217.354 151.122 216.786 150.906 216.031 150.906C215.562 150.906 215.133 151.003 214.742 151.195C214.352 151.388 214.039 151.654 213.805 151.992C213.576 152.331 213.461 152.682 213.461 153.047C213.461 153.583 213.565 154.083 213.773 154.547C213.982 155.01 214.276 155.378 214.656 155.648C215.042 155.919 215.479 156.055 215.969 156.055Z" fill="#203060" fill-opacity="0.5"/>
<circle cx="145" cy="38" r="36.5" stroke="#2C4584" stroke-width="3"/>
<path d="M159.755 29.548C158.95 27.6797 157.783 25.9888 156.326 24.564C154.862 23.1337 153.131 22.0027 151.238 21.2266C147.245 19.5911 142.766 19.5911 138.773 21.2266C136.874 22.0027 135.149 23.1392 133.686 24.564C132.228 25.9777 131.061 27.6631 130.257 29.5258C129.419 31.4496 128.994 33.5286 129 35.6242C129.056 37.8861 129.614 40.1092 130.648 42.1327C131.681 44.1951 132.954 46.1354 134.445 47.8984C136.852 50.7812 139.594 53.3647 142.61 55.61C143.313 56.1034 144.151 56.364 145.011 56.3584C145.882 56.3695 146.731 56.1034 147.435 55.5989C150.445 53.3148 153.193 50.7092 155.622 47.8208C159.191 43.4965 161 39.394 161 35.6131C161 33.5286 160.581 31.4607 159.755 29.548ZM145.894 53.6308C145.352 53.9635 144.665 53.9635 144.123 53.6308C141.281 51.5075 138.695 49.0682 136.416 46.3517C133.228 42.482 131.535 38.7676 131.535 35.6242C131.547 32.4031 132.77 29.2985 134.964 26.9257C138.259 23.3056 143.274 21.7422 148.06 22.851C154.097 24.176 158.42 29.4649 158.476 35.6075C158.476 43.7294 147.988 52.0508 145.894 53.6308Z" fill="#50E6C5"/>
<circle cx="145" cy="34" r="4.8" stroke="#50E6C5" stroke-width="2.4"/>
</svg>
