<svg width="274" height="160" viewBox="0 0 274 160" fill="none" xmlns="http://www.w3.org/2000/svg">
<circle cx="4" cy="4" r="4" fill="#50E3C2" fill-opacity="0.5"/>
<circle cx="42" cy="4" r="4" fill="#50E3C2" fill-opacity="0.5"/>
<circle cx="80" cy="4" r="4" fill="#50E3C2" fill-opacity="0.5"/>
<circle cx="118" cy="4" r="4" fill="#50E3C2" fill-opacity="0.5"/>
<circle cx="156" cy="4" r="4" fill="#50E3C2" fill-opacity="0.5"/>
<circle cx="194" cy="4" r="4" fill="#50E3C2" fill-opacity="0.5"/>
<circle cx="4" cy="42" r="4" fill="#50E3C2" fill-opacity="0.5"/>
<circle cx="42" cy="42" r="4" fill="#50E3C2" fill-opacity="0.5"/>
<circle cx="80" cy="42" r="4" fill="#50E3C2" fill-opacity="0.5"/>
<circle cx="118" cy="42" r="4" fill="#50E3C2" fill-opacity="0.5"/>
<circle cx="156" cy="42" r="4" fill="#50E3C2" fill-opacity="0.5"/>
<circle cx="194" cy="42" r="4" fill="#50E3C2" fill-opacity="0.5"/>
<circle cx="4" cy="80" r="4" fill="#50E3C2" fill-opacity="0.5"/>
<circle cx="42" cy="80" r="4" fill="#50E3C2" fill-opacity="0.5"/>
<circle cx="80" cy="80" r="4" fill="#50E3C2" fill-opacity="0.5"/>
<circle cx="118" cy="80" r="4" fill="#50E3C2" fill-opacity="0.5"/>
<circle cx="156" cy="80" r="4" fill="#50E3C2" fill-opacity="0.5"/>
<circle cx="194" cy="80" r="4" fill="#50E3C2" fill-opacity="0.5"/>
<circle cx="4" cy="118" r="4" fill="#50E3C2" fill-opacity="0.5"/>
<circle cx="42" cy="118" r="4" fill="#50E3C2" fill-opacity="0.5"/>
<circle cx="80" cy="118" r="4" fill="#50E3C2" fill-opacity="0.5"/>
<circle cx="118" cy="118" r="4" fill="#50E3C2" fill-opacity="0.5"/>
<circle cx="156" cy="118" r="4" fill="#50E3C2" fill-opacity="0.5"/>
<circle cx="194" cy="118" r="4" fill="#50E3C2" fill-opacity="0.5"/>
<circle cx="232" cy="4" r="4" fill="#50E3C2" fill-opacity="0.5"/>
<circle cx="232" cy="42" r="4" fill="#50E3C2" fill-opacity="0.5"/>
<circle cx="232" cy="80" r="4" fill="#50E3C2" fill-opacity="0.5"/>
<circle cx="232" cy="118" r="4" fill="#50E3C2" fill-opacity="0.5"/>
<circle cx="270" cy="4" r="4" fill="#50E3C2" fill-opacity="0.5"/>
<circle cx="270" cy="42" r="4" fill="#50E3C2" fill-opacity="0.5"/>
<circle cx="270" cy="80" r="4" fill="#50E3C2" fill-opacity="0.5"/>
<circle cx="270" cy="118" r="4" fill="#50E3C2" fill-opacity="0.5"/>
<circle cx="4" cy="156" r="4" fill="#50E3C2" fill-opacity="0.5"/>
<circle cx="42" cy="156" r="4" fill="#50E3C2" fill-opacity="0.5"/>
<circle cx="80" cy="156" r="4" fill="#50E3C2" fill-opacity="0.5"/>
<circle cx="118" cy="156" r="4" fill="#50E3C2" fill-opacity="0.5"/>
<circle cx="156" cy="156" r="4" fill="#50E3C2" fill-opacity="0.5"/>
<circle cx="194" cy="156" r="4" fill="#50E3C2" fill-opacity="0.5"/>
<circle cx="232" cy="156" r="4" fill="#50E3C2" fill-opacity="0.5"/>
<circle cx="270" cy="156" r="4" fill="#50E3C2" fill-opacity="0.5"/>
</svg>
