<svg width="110" height="100" viewBox="0 0 110 100" fill="none" xmlns="http://www.w3.org/2000/svg">
<path d="M19.7736 98C26.7762 98 32.4529 92.3233 32.4529 85.3207C32.4529 78.3182 26.7762 72.6415 19.7736 72.6415C12.7711 72.6415 7.09436 78.3182 7.09436 85.3207C7.09436 92.3233 12.7711 98 19.7736 98Z" fill="#50E3C2"/>
<path d="M96.7547 98C103.757 98 109.434 92.3233 109.434 85.3207C109.434 78.3182 103.757 72.6415 96.7547 72.6415C89.7521 72.6415 84.0754 78.3182 84.0754 85.3207C84.0754 92.3233 89.7521 98 96.7547 98Z" fill="#50E3C2"/>
<path d="M85.8355 26.9057V31.2084C85.8355 38.0749 80.2328 43.6604 73.3452 43.6604H34.0753C27.1876 43.6604 21.585 38.0749 21.585 31.2084V14.452C21.585 7.58546 27.1876 2 34.0753 2H76.2236C82.6486 2 85.8868 5.17705 85.8868 11.6336" stroke="#2C4584" stroke-width="4" stroke-miterlimit="10" stroke-linecap="round"/>
<path d="M53.2831 43.6604V59.9623" stroke="#2C4584" stroke-width="4" stroke-miterlimit="10"/>
<path d="M14.7925 98C21.5449 98 27.0189 92.5261 27.0189 85.7736C27.0189 79.0211 21.5449 73.5472 14.7925 73.5472C8.03999 73.5472 2.56604 79.0211 2.56604 85.7736C2.56604 92.5261 8.03999 98 14.7925 98Z" stroke="#2C4584" stroke-width="4" stroke-miterlimit="10"/>
<path d="M91.7735 98C98.526 98 104 92.5261 104 85.7736C104 79.0211 98.526 73.5472 91.7735 73.5472C85.0211 73.5472 79.5471 79.0211 79.5471 85.7736C79.5471 92.5261 85.0211 98 91.7735 98Z" stroke="#2C4584" stroke-width="4" stroke-miterlimit="10"/>
<path d="M15.2452 73.5472V73.4928C15.2452 66.0483 20.9154 59.9623 27.9647 59.9623H79.5069C86.5051 59.9623 92.2264 65.994 92.2264 73.4928" stroke="#2C4584" stroke-width="4" stroke-miterlimit="10" stroke-linecap="round"/>
<path d="M45 23L50.5217 29L64 17" stroke="#50E3C2" stroke-width="4" stroke-linecap="round" stroke-linejoin="round"/>
<path d="M86 18V21" stroke="#2C4584" stroke-width="4" stroke-miterlimit="10" stroke-linecap="round"/>
</svg>
