<svg width="816" height="570" viewBox="0 0 816 570" fill="none" xmlns="http://www.w3.org/2000/svg">
<g filter="url(#filter0_dd)">
<path d="M59.8201 89.476H632.231V507.541H172.258C110.16 507.541 59.8201 457.2 59.8201 395.103V89.476Z" fill="white"/>
</g>
<g filter="url(#filter1_dd)">
<path d="M593.389 150H26.0887C23.8306 150 22 151.831 22 154.089V401.452C22 481.05 86.527 545.577 166.125 545.577H589.3C591.558 545.577 593.389 543.746 593.389 541.488V508" stroke="#50E3C2" stroke-width="2.04433"/>
</g>
<path d="M59 87.4493H619V496.449H169C108.249 496.449 59 447.201 59 386.449V87.4493Z" fill="white"/>
<circle cx="88.4407" cy="105.831" r="4.08865" stroke="#50E6C5" stroke-width="2.04433"/>
<circle cx="104.795" cy="105.831" r="4.08865" stroke="#50E6C5" stroke-width="2.04433"/>
<circle cx="121.15" cy="105.831" r="4.08865" stroke="#50E6C5" stroke-width="2.04433"/>
<path d="M451.309 507.541V447.233H511.616L451.309 507.541Z" fill="#2C4584"/>
<g filter="url(#filter2_dd)">
<path d="M569.456 387.948L512.638 444.765V387.948H569.456Z" stroke="#50E3C2" stroke-width="2.04433"/>
</g>
<path d="M572.946 389.393L629.764 446.211H572.946V389.393Z" stroke="#50E6C5" stroke-width="2.04433"/>
<circle cx="486.573" cy="356.772" r="30.1538" fill="#50E6C5"/>
<circle cx="481.462" cy="417.079" r="7.66622" fill="#2C4584"/>
<circle cx="550.97" cy="477.387" r="29.1316" fill="#50E3C2" stroke="#50E3C2" stroke-width="2.04433"/>
<rect x="571.924" y="326.618" width="60.3076" height="60.3076" fill="#2C4584"/>
<circle cx="349.526" cy="302.519" r="3.5" fill="#50E3C2"/>
<circle cx="349.526" cy="346.472" r="3.5" fill="#50E3C2"/>
<circle cx="349.526" cy="390.425" r="3.5" fill="#50E3C2"/>
<circle cx="349.526" cy="434.378" r="3.5" fill="#50E3C2"/>
<circle cx="349.526" cy="478.331" r="3.5" fill="#50E3C2"/>
<circle cx="389.39" cy="302.519" r="3.5" fill="#50E3C2"/>
<circle cx="389.39" cy="346.472" r="3.5" fill="#50E3C2"/>
<circle cx="389.39" cy="390.425" r="3.5" fill="#50E3C2"/>
<circle cx="389.39" cy="434.378" r="3.5" fill="#50E3C2"/>
<circle cx="389.39" cy="478.331" r="3.5" fill="#50E3C2"/>
<circle cx="429.255" cy="302.519" r="3.5" fill="#50E3C2"/>
<circle cx="429.255" cy="346.472" r="3.5" fill="#50E3C2"/>
<circle cx="429.255" cy="390.425" r="3.5" fill="#50E3C2"/>
<circle cx="429.255" cy="434.378" r="3.5" fill="#50E3C2"/>
<circle cx="429.255" cy="478.331" r="3.5" fill="#50E3C2"/>
<circle cx="469.119" cy="302.519" r="3.5" fill="#50E3C2"/>
<circle cx="508.983" cy="302.519" r="3.5" fill="#50E3C2"/>
<circle cx="548.848" cy="302.519" r="3.5" fill="#50E3C2"/>
<circle cx="548.848" cy="346.472" r="3.5" fill="#50E3C2"/>
<rect x="141.593" y="219.291" width="8.1773" height="39.8643" rx="4.08865" fill="#2C4584"/>
<rect x="161.014" y="208.047" width="8.1773" height="51.1081" rx="4.08865" fill="#2C4584"/>
<rect x="180.435" y="194.759" width="8.1773" height="64.3963" rx="4.08865" fill="#2C4584"/>
<rect x="199.856" y="230.534" width="8.1773" height="28.6206" rx="4.08865" fill="#2C4584"/>
<rect x="219.278" y="201.914" width="8.1773" height="57.2411" rx="4.08865" fill="#2C4584"/>
<rect x="238.698" y="230.534" width="8.1773" height="28.6206" rx="4.08865" fill="#2C4584"/>
<rect x="258.12" y="213.158" width="8.1773" height="45.9973" rx="4.08865" fill="#2C4584"/>
<path d="M203.861 196.97C204.258 196.97 204.654 196.97 205.051 196.97C207.962 197.227 209.947 199.026 209.947 201.595C209.947 202.494 210.741 203.265 211.667 203.265C212.593 203.265 213.122 202.494 213.122 201.595C213.122 197.613 211.138 194.529 205.845 193.887V191.318C205.845 190.419 205.448 189.648 204.522 189.648C203.596 189.648 203.199 190.419 203.199 191.318V193.887C199.23 194.658 195.922 198.126 195.922 202.237C195.922 206.476 198.965 209.174 203.861 209.431C204.258 209.431 204.522 209.431 205.184 209.431C207.433 209.559 209.947 210.33 209.947 213.413C209.947 216.111 207.83 218.423 205.051 218.68C204.654 218.68 204.258 218.68 203.861 218.68C200.95 218.423 198.965 216.625 198.965 214.056C198.965 213.156 198.171 212.386 197.245 212.386C196.319 212.386 195.79 213.156 195.79 214.056C195.79 218.038 199.098 221.121 203.067 221.763V224.332C203.067 225.232 203.464 226.002 204.39 226.002C205.316 226.002 205.713 225.232 205.713 224.332V221.763C209.682 220.992 212.99 217.524 212.99 213.413C212.99 209.174 209.947 206.476 205.051 206.219C204.654 206.219 204.39 206.219 203.728 206.219C201.479 206.091 198.965 205.32 198.965 202.237C198.965 199.539 201.082 197.227 203.861 196.97Z" fill="#50E6C5"/>
<g filter="url(#filter3_dd)">
<rect x="121.15" y="171.249" width="167.635" height="103.238" rx="2.04433" stroke="#50E3C2" stroke-width="2.04433"/>
</g>
<path d="M366.49 201.864L386.417 190.513C387.358 189.977 388.511 189.977 389.452 190.513L409.379 201.864C410.656 202.592 411.444 203.948 411.444 205.417V229.353C411.444 235.449 408.425 241.149 403.383 244.573L387.935 255.066L372.486 244.573C367.444 241.149 364.425 235.449 364.425 229.353V205.417C364.425 203.948 365.213 202.592 366.49 201.864Z" fill="#50E6C5"/>
<rect width="27.5984" height="8.1773" rx="4.08865" transform="matrix(-1 0 0 1 459.486 219.291)" fill="#2C4584"/>
<rect x="496.284" y="238.712" width="51.1081" height="8.1773" rx="4.08865" fill="#2C4584"/>
<rect x="431.887" y="238.712" width="60.3076" height="8.1773" rx="4.08865" fill="#2C4584"/>
<rect x="465.619" y="219.291" width="81.773" height="8.1773" rx="4.08865" fill="#2C4584"/>
<rect x="431.887" y="199.87" width="115.504" height="8.1773" rx="4.08865" fill="#2C4584"/>
<path d="M392.925 221.707H384.805L392.08 209.76C392.418 209.248 392.249 208.566 391.741 208.224C391.234 207.883 390.557 208.054 390.218 208.566L381.928 222.219C381.759 222.56 381.759 223.072 381.928 223.413C382.098 223.755 382.436 223.925 382.944 223.925H391.064L383.789 235.871C383.451 236.383 383.62 237.066 384.128 237.407C384.635 237.749 385.312 237.578 385.65 237.066L393.941 223.413C394.11 223.072 394.11 222.56 393.941 222.219C393.771 221.877 393.433 221.707 392.925 221.707Z" fill="#2C4584" stroke="#2C4584" stroke-width="1.53324" stroke-miterlimit="10"/>
<g filter="url(#filter4_dd)">
<rect x="342.959" y="171.249" width="233.053" height="103.238" rx="2.04433" stroke="#50E3C2" stroke-width="2.04433"/>
</g>
<path d="M59.8203 123.207H632.231" stroke="#50E3C2" stroke-width="2.04433"/>
<circle r="2.55541" transform="matrix(1 0 0 -1 567.324 256.6)" fill="#50E6C5"/>
<circle r="2.55541" transform="matrix(1 0 0 -1 567.324 246.378)" fill="#50E6C5"/>
<circle r="2.55541" transform="matrix(1 0 0 -1 567.324 266.821)" fill="#50E6C5"/>
<circle r="2.55541" transform="matrix(1 0 0 -1 556.08 266.821)" fill="#50E6C5"/>
<circle r="2.55541" transform="matrix(1 0 0 -1 556.08 256.6)" fill="#50E6C5"/>
<circle r="2.55541" transform="matrix(1 0 0 -1 544.837 266.821)" fill="#50E6C5"/>
<circle r="2.55541" transform="matrix(1 0 0 -1 268.853 178.915)" fill="#50E6C5"/>
<circle r="2.55541" transform="matrix(1 0 0 -1 279.074 178.915)" fill="#50E6C5"/>
<circle r="2.55541" transform="matrix(1 0 0 -1 279.074 189.137)" fill="#50E6C5"/>
<circle r="2.55541" transform="matrix(1 0 0 -1 279.074 199.359)" fill="#50E6C5"/>
<circle r="2.55541" transform="matrix(1 0 0 -1 268.853 189.137)" fill="#50E6C5"/>
<path d="M177.34 359.326H156.926V334.795C156.926 332.537 158.756 330.706 161.014 330.706H253.958C256.216 330.706 258.047 332.537 258.047 334.795V359.326H235.734" stroke="#50E6C5" stroke-width="2.04433"/>
<mask id="path-63-inside-1" fill="white">
<path d="M176.005 345.016H237.059V433.807C237.059 435.424 235.27 436.401 233.909 435.526L229.468 432.672C228.693 432.173 227.68 432.255 226.995 432.872L223.031 436.439C222.312 437.087 221.236 437.141 220.455 436.568L215.227 432.734C214.494 432.197 213.495 432.208 212.774 432.761L207.74 436.624C207.023 437.174 206.03 437.189 205.298 436.66L199.855 432.726C199.118 432.194 198.118 432.212 197.401 432.771L192.613 436.503C191.834 437.11 190.733 437.074 189.996 436.416L186.014 432.865C185.327 432.252 184.315 432.174 183.542 432.674L179.16 435.51C177.8 436.39 176.005 435.414 176.005 433.794V345.016Z"/>
</mask>
<path d="M176.005 345.016V342.972H173.961V345.016H176.005ZM237.059 345.016H239.103V342.972H237.059V345.016ZM229.468 432.672L230.574 430.952L229.468 432.672ZM226.995 432.872L228.363 434.391L226.995 432.872ZM215.227 432.734L216.436 431.086L215.227 432.734ZM212.774 432.761L214.018 434.383L212.774 432.761ZM220.455 436.568L221.664 434.92L220.455 436.568ZM223.031 436.439L221.664 434.92L223.031 436.439ZM183.542 432.674L184.653 434.39L183.542 432.674ZM199.855 432.726L198.658 434.383L199.855 432.726ZM197.401 432.771L196.144 431.159L197.401 432.771ZM192.613 436.503L193.87 438.115L192.613 436.503ZM189.996 436.416L188.635 437.942L189.996 436.416ZM205.298 436.66L204.101 438.317L205.298 436.66ZM207.74 436.624L208.985 438.246L207.74 436.624ZM179.16 435.51L178.049 433.794L179.16 435.51ZM176.005 347.06H237.059V342.972H176.005V347.06ZM235.015 345.016V433.807H239.103V345.016H235.015ZM178.049 433.794V345.016H173.961V433.794H178.049ZM206.495 435.003L201.052 431.069L198.658 434.383L204.101 438.317L206.495 435.003ZM196.144 431.159L191.357 434.891L193.87 438.115L198.658 434.383L196.144 431.159ZM191.357 434.891L187.375 431.339L184.653 434.39L188.635 437.942L191.357 434.891ZM182.432 430.958L178.049 433.794L180.27 437.226L184.653 434.39L182.432 430.958ZM221.664 434.92L216.436 431.086L214.018 434.383L219.246 438.217L221.664 434.92ZM211.529 431.139L206.495 435.003L208.985 438.246L214.018 434.383L211.529 431.139ZM235.015 433.807L230.574 430.952L228.363 434.391L232.804 437.246L235.015 433.807ZM225.628 431.352L221.664 434.92L224.399 437.959L228.363 434.391L225.628 431.352ZM230.574 430.952C229.023 429.955 226.998 430.119 225.628 431.352L228.363 434.391L230.574 430.952ZM216.436 431.086C214.97 430.011 212.971 430.033 211.529 431.139L214.018 434.383L216.436 431.086ZM219.246 438.217C220.808 439.362 222.959 439.254 224.399 437.959L221.664 434.92L219.246 438.217ZM187.375 431.339C186.001 430.114 183.977 429.958 182.432 430.958L184.653 434.39L187.375 431.339ZM201.052 431.069C199.578 430.004 197.578 430.041 196.144 431.159L198.658 434.383H198.658L201.052 431.069ZM191.357 434.891H191.357L188.635 437.942C190.109 439.257 192.312 439.33 193.87 438.115L191.357 434.891ZM204.101 438.317C205.565 439.375 207.551 439.346 208.985 438.246L206.495 435.003H206.495L204.101 438.317ZM173.961 433.794C173.961 437.034 177.55 438.987 180.27 437.226L178.049 433.794H178.049H173.961ZM235.015 433.807V433.807L232.804 437.246C235.525 438.995 239.103 437.042 239.103 433.807H235.015Z" fill="#50E6C5" mask="url(#path-63-inside-1)"/>
<path d="M167.752 346.302H245.024" stroke="#2C4584" stroke-width="6.13298" stroke-linecap="round" stroke-linejoin="round"/>
<circle cx="206.532" cy="386.991" r="15.2636" fill="#50E6C5"/>
<path d="M201.762 387.4L205.61 391.761L212.256 384.129" stroke="#2C4584" stroke-width="2.24876" stroke-linecap="round" stroke-linejoin="round"/>
<g filter="url(#filter5_dd)">
<path d="M120.128 307.197C120.128 306.068 121.043 305.152 122.172 305.152H285.718C286.847 305.152 287.762 306.068 287.762 307.197V460.521C287.762 461.65 286.847 462.565 285.718 462.565H172.258C143.467 462.565 120.128 439.226 120.128 410.435V307.197Z" stroke="#50E3C2" stroke-width="2.04433"/>
</g>
<circle r="2.55541" transform="matrix(1 0 0 -1 141.082 315.885)" fill="#50E6C5"/>
<circle r="2.55541" transform="matrix(1 0 0 -1 141.082 328.151)" fill="#50E6C5"/>
<circle r="2.55541" transform="matrix(1 0 0 -1 141.082 340.417)" fill="#50E6C5"/>
<circle r="2.55541" transform="matrix(1 0 0 -1 278.052 453.877)" fill="#50E6C5"/>
<circle r="2.55541" transform="matrix(1 0 0 -1 265.786 453.877)" fill="#50E6C5"/>
<circle r="2.55541" transform="matrix(1 0 0 -1 253.52 453.877)" fill="#50E6C5"/>
<circle r="2.55541" transform="matrix(1 0 0 -1 265.786 442.633)" fill="#50E6C5"/>
<circle r="2.55541" transform="matrix(1 0 0 -1 278.052 442.633)" fill="#50E6C5"/>
<circle r="2.55541" transform="matrix(1 0 0 -1 278.052 431.389)" fill="#50E6C5"/>
<circle r="2.55541" transform="matrix(1 0 0 -1 130.86 315.885)" fill="#50E6C5"/>
<circle r="2.55541" transform="matrix(1 0 0 -1 130.86 328.151)" fill="#50E6C5"/>
<circle r="2.55541" transform="matrix(1 0 0 -1 130.86 340.417)" fill="#50E6C5"/>
<circle cx="652.086" cy="25.5133" r="3.5" fill="#50E3C2"/>
<circle cx="652.086" cy="69.4663" r="3.5" fill="#50E3C2"/>
<circle cx="652.086" cy="113.419" r="3.5" fill="#50E3C2"/>
<circle cx="652.086" cy="157.372" r="3.5" fill="#50E3C2"/>
<circle cx="691.95" cy="25.5133" r="3.5" fill="#50E3C2"/>
<circle cx="572.357" cy="25.5133" r="3.5" fill="#50E3C2"/>
<circle cx="612.222" cy="25.5133" r="3.5" fill="#50E3C2"/>
<circle cx="691.95" cy="69.4663" r="3.5" fill="#50E3C2"/>
<circle cx="572.357" cy="69.4663" r="3.5" fill="#50E3C2"/>
<circle cx="612.222" cy="69.4663" r="3.5" fill="#50E3C2"/>
<circle cx="492.629" cy="25.5133" r="3.5" fill="#50E3C2"/>
<circle cx="532.493" cy="25.5133" r="3.5" fill="#50E3C2"/>
<circle cx="492.629" cy="69.4663" r="3.5" fill="#50E3C2"/>
<circle cx="532.493" cy="69.4663" r="3.5" fill="#50E3C2"/>
<circle cx="691.95" cy="113.419" r="3.5" fill="#50E3C2"/>
<circle cx="691.95" cy="157.372" r="3.5" fill="#50E3C2"/>
<circle cx="731.814" cy="25.5133" r="3.5" fill="#50E3C2"/>
<circle cx="731.814" cy="69.4663" r="3.5" fill="#50E3C2"/>
<circle cx="731.814" cy="113.419" r="3.5" fill="#50E3C2"/>
<circle cx="731.814" cy="157.372" r="3.5" fill="#50E3C2"/>
<circle cx="771.679" cy="25.5133" r="3.5" fill="#50E3C2"/>
<circle cx="771.679" cy="69.4663" r="3.5" fill="#50E3C2"/>
<circle cx="771.679" cy="113.419" r="3.5" fill="#50E3C2"/>
<circle cx="771.679" cy="157.372" r="3.5" fill="#50E3C2"/>
<circle cx="811.543" cy="25.5133" r="3.5" fill="#50E3C2"/>
<circle cx="811.543" cy="69.4663" r="3.5" fill="#50E3C2"/>
<circle cx="811.543" cy="113.419" r="3.5" fill="#50E3C2"/>
<circle cx="811.543" cy="157.372" r="3.5" fill="#50E3C2"/>
<defs>
<filter id="filter0_dd" x="31.1995" y="77.2101" width="633.741" height="463.04" filterUnits="userSpaceOnUse" color-interpolation-filters="sRGB">
<feFlood flood-opacity="0" result="BackgroundImageFix"/>
<feColorMatrix in="SourceAlpha" type="matrix" values="0 0 0 0 0 0 0 0 0 0 0 0 0 0 0 0 0 0 127 0"/>
<feOffset dx="12.266" dy="12.266"/>
<feGaussianBlur stdDeviation="10.2216"/>
<feColorMatrix type="matrix" values="0 0 0 0 0.934375 0 0 0 0 0.940365 0 0 0 0 0.958333 0 0 0 0.2 0"/>
<feBlend mode="normal" in2="BackgroundImageFix" result="effect1_dropShadow"/>
<feColorMatrix in="SourceAlpha" type="matrix" values="0 0 0 0 0 0 0 0 0 0 0 0 0 0 0 0 0 0 127 0"/>
<feOffset dx="-8.1773" dy="8.1773"/>
<feGaussianBlur stdDeviation="10.2216"/>
<feColorMatrix type="matrix" values="0 0 0 0 0.933333 0 0 0 0 0.941176 0 0 0 0 0.956863 0 0 0 1 0"/>
<feBlend mode="normal" in2="effect1_dropShadow" result="effect2_dropShadow"/>
<feBlend mode="normal" in="SourceGraphic" in2="effect2_dropShadow" result="shape"/>
</filter>
<filter id="filter1_dd" x="0.534531" y="120.357" width="614.32" height="448.729" filterUnits="userSpaceOnUse" color-interpolation-filters="sRGB">
<feFlood flood-opacity="0" result="BackgroundImageFix"/>
<feColorMatrix in="SourceAlpha" type="matrix" values="0 0 0 0 0 0 0 0 0 0 0 0 0 0 0 0 0 0 127 0"/>
<feOffset dy="-8.1773"/>
<feGaussianBlur stdDeviation="10.2216"/>
<feColorMatrix type="matrix" values="0 0 0 0 0.934375 0 0 0 0 0.940365 0 0 0 0 0.958333 0 0 0 0.2 0"/>
<feBlend mode="normal" in2="BackgroundImageFix" result="effect1_dropShadow"/>
<feColorMatrix in="SourceAlpha" type="matrix" values="0 0 0 0 0 0 0 0 0 0 0 0 0 0 0 0 0 0 127 0"/>
<feOffset dy="2.04433"/>
<feGaussianBlur stdDeviation="10.2216"/>
<feColorMatrix type="matrix" values="0 0 0 0 0.12549 0 0 0 0 0.188235 0 0 0 0 0.376471 0 0 0 0.09 0"/>
<feBlend mode="normal" in2="effect1_dropShadow" result="effect2_dropShadow"/>
<feBlend mode="normal" in="SourceGraphic" in2="effect2_dropShadow" result="shape"/>
</filter>
<filter id="filter2_dd" x="491.173" y="358.305" width="101.194" height="111.416" filterUnits="userSpaceOnUse" color-interpolation-filters="sRGB">
<feFlood flood-opacity="0" result="BackgroundImageFix"/>
<feColorMatrix in="SourceAlpha" type="matrix" values="0 0 0 0 0 0 0 0 0 0 0 0 0 0 0 0 0 0 127 0"/>
<feOffset dy="-8.1773"/>
<feGaussianBlur stdDeviation="10.2216"/>
<feColorMatrix type="matrix" values="0 0 0 0 0.934375 0 0 0 0 0.940365 0 0 0 0 0.958333 0 0 0 0.2 0"/>
<feBlend mode="normal" in2="BackgroundImageFix" result="effect1_dropShadow"/>
<feColorMatrix in="SourceAlpha" type="matrix" values="0 0 0 0 0 0 0 0 0 0 0 0 0 0 0 0 0 0 127 0"/>
<feOffset dy="2.04433"/>
<feGaussianBlur stdDeviation="10.2216"/>
<feColorMatrix type="matrix" values="0 0 0 0 0.12549 0 0 0 0 0.188235 0 0 0 0 0.376471 0 0 0 0.09 0"/>
<feBlend mode="normal" in2="effect1_dropShadow" result="effect2_dropShadow"/>
<feBlend mode="normal" in="SourceGraphic" in2="effect2_dropShadow" result="shape"/>
</filter>
<filter id="filter3_dd" x="99.6844" y="141.606" width="210.566" height="156.391" filterUnits="userSpaceOnUse" color-interpolation-filters="sRGB">
<feFlood flood-opacity="0" result="BackgroundImageFix"/>
<feColorMatrix in="SourceAlpha" type="matrix" values="0 0 0 0 0 0 0 0 0 0 0 0 0 0 0 0 0 0 127 0"/>
<feOffset dy="-8.1773"/>
<feGaussianBlur stdDeviation="10.2216"/>
<feColorMatrix type="matrix" values="0 0 0 0 0.934375 0 0 0 0 0.940365 0 0 0 0 0.958333 0 0 0 0.2 0"/>
<feBlend mode="normal" in2="BackgroundImageFix" result="effect1_dropShadow"/>
<feColorMatrix in="SourceAlpha" type="matrix" values="0 0 0 0 0 0 0 0 0 0 0 0 0 0 0 0 0 0 127 0"/>
<feOffset dy="2.04433"/>
<feGaussianBlur stdDeviation="10.2216"/>
<feColorMatrix type="matrix" values="0 0 0 0 0.12549 0 0 0 0 0.188235 0 0 0 0 0.376471 0 0 0 0.09 0"/>
<feBlend mode="normal" in2="effect1_dropShadow" result="effect2_dropShadow"/>
<feBlend mode="normal" in="SourceGraphic" in2="effect2_dropShadow" result="shape"/>
</filter>
<filter id="filter4_dd" x="321.494" y="141.606" width="275.984" height="156.391" filterUnits="userSpaceOnUse" color-interpolation-filters="sRGB">
<feFlood flood-opacity="0" result="BackgroundImageFix"/>
<feColorMatrix in="SourceAlpha" type="matrix" values="0 0 0 0 0 0 0 0 0 0 0 0 0 0 0 0 0 0 127 0"/>
<feOffset dy="-8.1773"/>
<feGaussianBlur stdDeviation="10.2216"/>
<feColorMatrix type="matrix" values="0 0 0 0 0.934375 0 0 0 0 0.940365 0 0 0 0 0.958333 0 0 0 0.2 0"/>
<feBlend mode="normal" in2="BackgroundImageFix" result="effect1_dropShadow"/>
<feColorMatrix in="SourceAlpha" type="matrix" values="0 0 0 0 0 0 0 0 0 0 0 0 0 0 0 0 0 0 127 0"/>
<feOffset dy="2.04433"/>
<feGaussianBlur stdDeviation="10.2216"/>
<feColorMatrix type="matrix" values="0 0 0 0 0.12549 0 0 0 0 0.188235 0 0 0 0 0.376471 0 0 0 0.09 0"/>
<feBlend mode="normal" in2="effect1_dropShadow" result="effect2_dropShadow"/>
<feBlend mode="normal" in="SourceGraphic" in2="effect2_dropShadow" result="shape"/>
</filter>
<filter id="filter5_dd" x="98.6622" y="275.51" width="210.566" height="210.566" filterUnits="userSpaceOnUse" color-interpolation-filters="sRGB">
<feFlood flood-opacity="0" result="BackgroundImageFix"/>
<feColorMatrix in="SourceAlpha" type="matrix" values="0 0 0 0 0 0 0 0 0 0 0 0 0 0 0 0 0 0 127 0"/>
<feOffset dy="-8.1773"/>
<feGaussianBlur stdDeviation="10.2216"/>
<feColorMatrix type="matrix" values="0 0 0 0 0.934375 0 0 0 0 0.940365 0 0 0 0 0.958333 0 0 0 0.2 0"/>
<feBlend mode="normal" in2="BackgroundImageFix" result="effect1_dropShadow"/>
<feColorMatrix in="SourceAlpha" type="matrix" values="0 0 0 0 0 0 0 0 0 0 0 0 0 0 0 0 0 0 127 0"/>
<feOffset dy="2.04433"/>
<feGaussianBlur stdDeviation="10.2216"/>
<feColorMatrix type="matrix" values="0 0 0 0 0.12549 0 0 0 0 0.188235 0 0 0 0 0.376471 0 0 0 0.09 0"/>
<feBlend mode="normal" in2="effect1_dropShadow" result="effect2_dropShadow"/>
<feBlend mode="normal" in="SourceGraphic" in2="effect2_dropShadow" result="shape"/>
</filter>
</defs>
</svg>
