<svg width="35" height="36" viewBox="0 0 35 36" fill="none" xmlns="http://www.w3.org/2000/svg">
<path d="M0 17.6572C0 7.90609 7.83569 0 17.5 0C27.1643 0 35 7.90609 35 17.6572C35 27.4084 27.1643 35.3145 17.5 35.3145C7.83569 35.3145 0 27.4084 0 17.6572ZM17.5 8.24234C14.9664 8.24234 14.646 8.25527 13.6505 8.29838C12.655 8.3458 11.98 8.5053 11.3861 8.73809C10.7623 8.97518 10.1984 9.34591 9.73267 9.82442C9.25842 10.2943 8.89099 10.8633 8.65601 11.4927C8.42529 12.0919 8.26721 12.7773 8.22021 13.7775C8.17749 14.7819 8.16467 15.1009 8.16467 17.6615C8.16467 20.2179 8.17749 20.5369 8.22021 21.5413C8.26721 22.5457 8.42529 23.2268 8.65601 23.826C8.89526 24.4468 9.2157 24.9684 9.73267 25.4943C10.2496 26.0203 10.7709 26.3393 11.3861 26.5807C11.98 26.8135 12.6593 26.973 13.6505 27.0204C14.646 27.0678 14.9622 27.0764 17.5 27.0764C20.0336 27.0764 20.3497 27.0635 21.3495 27.0204C22.3407 26.973 23.02 26.8135 23.6139 26.5807C24.2377 26.3436 24.8016 25.9729 25.2673 25.4943C25.7886 24.9727 26.1047 24.4468 26.344 23.826C26.5747 23.2268 26.7328 22.5414 26.7798 21.5413C26.8225 20.5369 26.8353 20.2179 26.8353 17.6572C26.8353 15.1009 26.8225 14.7776 26.7798 13.7732C26.7328 12.773 26.5747 12.0876 26.344 11.4884C26.109 10.859 25.7416 10.29 25.2673 9.82011C24.8016 9.3416 24.2377 8.97087 23.6139 8.73378C23.02 8.50099 22.3407 8.34149 21.3452 8.29407C20.3497 8.25096 20.0336 8.24234 17.5 8.24234ZM22.4817 11.5013C23.1012 11.5013 23.6011 12.0057 23.6011 12.6308C23.6011 13.2559 23.1012 13.7602 22.4817 13.7602C21.8622 13.7602 21.3623 13.2559 21.3623 12.6308C21.3623 12.0057 21.8622 11.5013 22.4817 11.5013ZM17.5 12.8205C20.1489 12.8205 22.2937 14.9845 22.2937 17.6572C22.2937 20.33 20.1489 22.494 17.5 22.494C14.8511 22.494 12.7063 20.33 12.7063 17.6572C12.7063 14.9888 14.8511 12.8205 17.5 12.8205ZM17.5 14.5189C15.7825 14.5189 14.3896 15.9243 14.3896 17.6572C14.3896 19.3902 15.7825 20.7955 17.5 20.7955C19.2175 20.7955 20.6104 19.3902 20.6104 17.6572C20.6146 15.9243 19.2175 14.5189 17.5 14.5189Z" fill="#C7C7C7"/>
</svg>
