<svg width="425" height="427" viewBox="0 0 425 427" fill="none" xmlns="http://www.w3.org/2000/svg">
<path d="M57.6475 264.622C-5.56883 113.509 84.6967 51.9887 132.81 39.0283C180.923 26.0677 377.537 45.888 402.416 144.763C427.295 243.639 308.093 345.032 245.382 383.369C209.144 406.751 120.864 415.736 57.6475 264.622Z" fill="#95F9DF" fill-opacity="0.3"/>
<g filter="url(#filter0_dd)">
<path d="M125.487 306.493C114.156 306.493 104.968 297.309 104.968 285.983V90.0004C104.968 88.3522 106.85 87.4115 108.168 88.4005L124.287 100.491C124.998 101.025 125.976 101.025 126.687 100.491L141.205 89.601C144.05 87.4672 147.961 87.4671 150.806 89.601L165.324 100.491C166.035 101.025 167.013 101.025 167.724 100.491L182.242 89.601C185.087 87.4672 188.999 87.4671 191.843 89.601L206.362 100.491C207.073 101.025 208.051 101.025 208.762 100.491L223.28 89.601C226.124 87.4672 230.036 87.4671 232.881 89.601L247.399 100.491C248.11 101.025 249.088 101.025 249.799 100.491L265.918 88.4005C267.236 87.4115 269.118 88.3522 269.118 90.0004V306.457H125.487V306.493Z" fill="white"/>
</g>
<path d="M130.607 221.011C130.607 218.536 132.614 216.529 135.089 216.529H141.524C143.999 216.529 146.006 218.536 146.006 221.011C146.006 223.486 143.999 225.492 141.524 225.492H135.089C132.614 225.492 130.607 223.486 130.607 221.011ZM130.607 247.852C130.607 245.386 132.607 243.387 135.073 243.387H141.54C144.006 243.387 146.006 245.386 146.006 247.852C146.006 250.319 144.006 252.318 141.54 252.318H135.073C132.607 252.318 130.607 250.319 130.607 247.852ZM130.607 167.343C130.607 164.877 132.607 162.878 135.073 162.878H162.059C164.525 162.878 166.524 164.877 166.524 167.343C166.524 169.81 164.525 171.809 162.059 171.809H135.073C132.607 171.809 130.607 169.81 130.607 167.343ZM130.607 194.169C130.607 191.703 132.607 189.703 135.073 189.703H141.54C144.006 189.703 146.006 191.703 146.006 194.169C146.006 196.635 144.006 198.635 141.54 198.635H135.073C132.607 198.635 130.607 196.635 130.607 194.169ZM130.607 140.486C130.607 138.02 132.607 136.02 135.073 136.02H187.698C190.164 136.02 192.164 138.02 192.164 140.486C192.164 142.952 190.164 144.952 187.698 144.952H135.073C132.607 144.952 130.607 142.952 130.607 140.486ZM210 140.486C210 138.02 212 136.02 214.466 136.02H239.013C241.479 136.02 243.479 138.02 243.479 140.486C243.479 142.952 241.479 144.952 239.013 144.952H214.466C212 144.952 210 142.952 210 140.486Z" fill="#50E6C5"/>
<g filter="url(#filter1_dd)">
<path d="M166.524 162.922C155.194 162.922 146.006 172.106 146.006 183.432V285.983C146.006 297.309 136.818 306.493 125.487 306.493H351.193V183.432C351.193 172.106 342.005 162.922 330.674 162.922H166.524Z" fill="white"/>
</g>
<g filter="url(#filter2_dd)">
<path d="M330.674 162.922H166.524C177.855 162.922 187.043 172.106 187.043 183.432V379.378C187.043 381.026 188.925 381.967 190.243 380.978L206.361 368.887C207.073 368.354 208.051 368.354 208.762 368.887L223.28 379.778C226.124 381.912 230.036 381.912 232.881 379.778L247.399 368.887C248.11 368.354 249.088 368.354 249.799 368.887L264.317 379.778C267.162 381.912 271.074 381.912 273.918 379.778L288.436 368.887C289.148 368.354 290.125 368.354 290.837 368.887L305.355 379.778C308.199 381.912 312.111 381.912 314.956 379.778L329.474 368.887C330.185 368.354 331.163 368.354 331.874 368.887L347.993 380.978C349.311 381.967 351.193 381.026 351.193 379.378V183.432C351.193 172.106 342.005 162.922 330.674 162.922Z" fill="white"/>
</g>
<g filter="url(#filter3_dd)">
<path d="M187.5 332C187.082 266 205 172.5 335 163H168.5L177.771 169.953C183.271 174.078 186.526 180.537 186.57 187.411L187.5 332Z" fill="white"/>
</g>
<g filter="url(#filter4_d)">
<path d="M246.083 244.965L266.562 233.785C267.458 233.296 268.542 233.296 269.438 233.785L289.917 244.965C291.201 245.666 292 247.013 292 248.476V271.617C292 277.706 288.922 283.381 283.82 286.703L268 297L252.18 286.703C247.078 283.381 244 277.706 244 271.617V248.476C244 247.013 244.799 245.666 246.083 244.965Z" fill="#50E6C5"/>
</g>
<rect x="289" y="196" width="35" height="7" rx="3.5" fill="#50E6C5"/>
<rect width="72" height="7" rx="3.5" transform="matrix(-1 0 0 1 324 222)" fill="#50E6C5"/>
<rect width="35" height="7" rx="3.5" transform="matrix(-1 0 0 1 247 222)" fill="#50E6C5"/>
<rect width="26" height="7" rx="3.5" transform="matrix(-1 0 0 1 238 265)" fill="#50E6C5"/>
<rect width="26" height="7" rx="3.5" transform="matrix(-1 0 0 1 324 265)" fill="#50E6C5"/>
<rect width="72" height="7" rx="3.5" transform="matrix(-1 0 0 1 324 328)" fill="#50E6C5"/>
<rect width="35" height="7" rx="3.5" transform="matrix(-1 0 0 1 247 328)" fill="#50E6C5"/>
<rect x="212" y="303" width="52" height="7" rx="3.5" fill="#50E6C5"/>
<rect x="271" y="303" width="53" height="7" rx="3.5" fill="#50E6C5"/>
<rect x="212" y="196" width="72" height="7" rx="3.5" fill="#50E6C5"/>
<path d="M272.883 263.024H264.938L272.055 252.508C272.386 252.058 272.221 251.457 271.724 251.156C271.228 250.856 270.566 251.006 270.234 251.457L262.124 263.474C261.959 263.775 261.959 264.225 262.124 264.526C262.29 264.826 262.621 264.976 263.117 264.976H271.062L263.945 275.492C263.614 275.942 263.779 276.543 264.276 276.844C264.772 277.144 265.434 276.994 265.766 276.543L273.876 264.526C274.041 264.225 274.041 263.775 273.876 263.474C273.71 263.174 273.379 263.024 272.883 263.024Z" fill="#2C4584" stroke="#2C4584" stroke-width="1.5" stroke-miterlimit="10"/>
<defs>
<filter id="filter0_dd" x="67.968" y="50.9968" width="236.15" height="290.496" filterUnits="userSpaceOnUse" color-interpolation-filters="sRGB">
<feFlood flood-opacity="0" result="BackgroundImageFix"/>
<feColorMatrix in="SourceAlpha" type="matrix" values="0 0 0 0 0 0 0 0 0 0 0 0 0 0 0 0 0 0 127 0"/>
<feOffset dx="-8" dy="-8"/>
<feGaussianBlur stdDeviation="14.5"/>
<feColorMatrix type="matrix" values="0 0 0 0 0.759863 0 0 0 0 0.809954 0 0 0 0 0.943532 0 0 0 0.109488 0"/>
<feBlend mode="normal" in2="BackgroundImageFix" result="effect1_dropShadow"/>
<feColorMatrix in="SourceAlpha" type="matrix" values="0 0 0 0 0 0 0 0 0 0 0 0 0 0 0 0 0 0 127 0"/>
<feOffset dx="6" dy="6"/>
<feGaussianBlur stdDeviation="14.5"/>
<feColorMatrix type="matrix" values="0 0 0 0 0.760784 0 0 0 0 0.811765 0 0 0 0 0.945098 0 0 0 0.220533 0"/>
<feBlend mode="normal" in2="effect1_dropShadow" result="effect2_dropShadow"/>
<feBlend mode="normal" in="SourceGraphic" in2="effect2_dropShadow" result="shape"/>
</filter>
<filter id="filter1_dd" x="88.4868" y="125.922" width="297.706" height="215.571" filterUnits="userSpaceOnUse" color-interpolation-filters="sRGB">
<feFlood flood-opacity="0" result="BackgroundImageFix"/>
<feColorMatrix in="SourceAlpha" type="matrix" values="0 0 0 0 0 0 0 0 0 0 0 0 0 0 0 0 0 0 127 0"/>
<feOffset dx="-8" dy="-8"/>
<feGaussianBlur stdDeviation="14.5"/>
<feColorMatrix type="matrix" values="0 0 0 0 0.759863 0 0 0 0 0.809954 0 0 0 0 0.943532 0 0 0 0.109488 0"/>
<feBlend mode="normal" in2="BackgroundImageFix" result="effect1_dropShadow"/>
<feColorMatrix in="SourceAlpha" type="matrix" values="0 0 0 0 0 0 0 0 0 0 0 0 0 0 0 0 0 0 127 0"/>
<feOffset dx="6" dy="6"/>
<feGaussianBlur stdDeviation="14.5"/>
<feColorMatrix type="matrix" values="0 0 0 0 0.760784 0 0 0 0 0.811765 0 0 0 0 0.945098 0 0 0 0.220533 0"/>
<feBlend mode="normal" in2="effect1_dropShadow" result="effect2_dropShadow"/>
<feBlend mode="normal" in="SourceGraphic" in2="effect2_dropShadow" result="shape"/>
</filter>
<filter id="filter2_dd" x="129.524" y="125.922" width="256.669" height="290.46" filterUnits="userSpaceOnUse" color-interpolation-filters="sRGB">
<feFlood flood-opacity="0" result="BackgroundImageFix"/>
<feColorMatrix in="SourceAlpha" type="matrix" values="0 0 0 0 0 0 0 0 0 0 0 0 0 0 0 0 0 0 127 0"/>
<feOffset dx="-8" dy="-8"/>
<feGaussianBlur stdDeviation="14.5"/>
<feColorMatrix type="matrix" values="0 0 0 0 0.759863 0 0 0 0 0.809954 0 0 0 0 0.943532 0 0 0 0.109488 0"/>
<feBlend mode="normal" in2="BackgroundImageFix" result="effect1_dropShadow"/>
<feColorMatrix in="SourceAlpha" type="matrix" values="0 0 0 0 0 0 0 0 0 0 0 0 0 0 0 0 0 0 127 0"/>
<feOffset dx="6" dy="6"/>
<feGaussianBlur stdDeviation="14.5"/>
<feColorMatrix type="matrix" values="0 0 0 0 0.760784 0 0 0 0 0.811765 0 0 0 0 0.945098 0 0 0 0.220533 0"/>
<feBlend mode="normal" in2="effect1_dropShadow" result="effect2_dropShadow"/>
<feBlend mode="normal" in="SourceGraphic" in2="effect2_dropShadow" result="shape"/>
</filter>
<filter id="filter3_dd" x="131.5" y="126" width="238.5" height="241" filterUnits="userSpaceOnUse" color-interpolation-filters="sRGB">
<feFlood flood-opacity="0" result="BackgroundImageFix"/>
<feColorMatrix in="SourceAlpha" type="matrix" values="0 0 0 0 0 0 0 0 0 0 0 0 0 0 0 0 0 0 127 0"/>
<feOffset dx="-8" dy="-8"/>
<feGaussianBlur stdDeviation="14.5"/>
<feColorMatrix type="matrix" values="0 0 0 0 0.759863 0 0 0 0 0.809954 0 0 0 0 0.943532 0 0 0 0.109488 0"/>
<feBlend mode="normal" in2="BackgroundImageFix" result="effect1_dropShadow"/>
<feColorMatrix in="SourceAlpha" type="matrix" values="0 0 0 0 0 0 0 0 0 0 0 0 0 0 0 0 0 0 127 0"/>
<feOffset dx="6" dy="6"/>
<feGaussianBlur stdDeviation="14.5"/>
<feColorMatrix type="matrix" values="0 0 0 0 0.760784 0 0 0 0 0.811765 0 0 0 0 0.945098 0 0 0 0.220533 0"/>
<feBlend mode="normal" in2="effect1_dropShadow" result="effect2_dropShadow"/>
<feBlend mode="normal" in="SourceGraphic" in2="effect2_dropShadow" result="shape"/>
</filter>
<filter id="filter4_d" x="240" y="231.418" width="56" height="71.5821" filterUnits="userSpaceOnUse" color-interpolation-filters="sRGB">
<feFlood flood-opacity="0" result="BackgroundImageFix"/>
<feColorMatrix in="SourceAlpha" type="matrix" values="0 0 0 0 0 0 0 0 0 0 0 0 0 0 0 0 0 0 127 0"/>
<feOffset dy="2"/>
<feGaussianBlur stdDeviation="2"/>
<feColorMatrix type="matrix" values="0 0 0 0 0.785556 0 0 0 0 0.933333 0 0 0 0 0.900822 0 0 0 1 0"/>
<feBlend mode="normal" in2="BackgroundImageFix" result="effect1_dropShadow"/>
<feBlend mode="normal" in="SourceGraphic" in2="effect1_dropShadow" result="shape"/>
</filter>
</defs>
</svg>
