<svg width="90" height="33" viewBox="0 0 90 33" fill="none" xmlns="http://www.w3.org/2000/svg">
<path d="M76.7439 6.62798C76.7439 5.66469 77.5248 4.88379 78.4881 4.88379H88.2555C89.2188 4.88379 89.9997 5.66469 89.9997 6.62798V6.62798C89.9997 7.59126 89.2188 8.37216 88.2555 8.37216H78.4881C77.5248 8.37216 76.7439 7.59126 76.7439 6.62798V6.62798Z" fill="white"/>
<path d="M83.372 0C84.3353 0 85.1162 0.780899 85.1162 1.74419V11.5116C85.1162 12.4749 84.3353 13.2558 83.372 13.2558V13.2558C82.4087 13.2558 81.6278 12.4749 81.6278 11.5116V1.74418C81.6278 0.780897 82.4087 0 83.372 0V0Z" fill="white"/>
<path fill-rule="evenodd" clip-rule="evenodd" d="M81.6279 4.88379L85.1163 4.88379V8.37216H81.6279L81.6279 4.88379Z" fill="#D2F0EA"/>
<path fill-rule="evenodd" clip-rule="evenodd" d="M4.01023 28.8238C3.93083 28.8225 3.85524 28.7899 3.80027 28.7331C3.74531 28.6764 3.71552 28.6003 3.71753 28.5217V28.5217V10.2701C3.71623 10.1057 3.58337 9.97202 3.41733 9.96802H0.300204C0.1336 9.97072 -2.23915e-05 10.1052 0 10.2701V32.2879C-2.23915e-05 32.4528 0.1336 32.5873 0.300204 32.59H15.7032C15.8688 32.586 16.001 32.4519 16.0009 32.2879V29.1209C16.0023 28.9564 15.8694 28.8216 15.7032 28.8188L4.01023 28.8238Z" fill="#2C4584"/>
<path fill-rule="evenodd" clip-rule="evenodd" d="M36.1776 9.96802C36.0092 9.968 35.8719 10.1025 35.8692 10.2701V28.5217C35.8692 28.6885 35.7333 28.8238 35.5658 28.8238H24.5932C24.4261 28.8252 24.2889 28.6929 24.2848 28.5266V10.2701C24.2821 10.1025 24.1448 9.968 23.9764 9.96802H20.7234C20.555 9.968 20.4178 10.1025 20.415 10.2701V32.2879C20.415 32.368 20.447 32.4449 20.5039 32.5015C20.5608 32.5582 20.638 32.59 20.7185 32.59H39.4181C39.5851 32.5914 39.7224 32.4591 39.7265 32.2929V10.2701C39.7238 10.1025 39.5865 9.968 39.4181 9.96802H36.1776Z" fill="#2C4584"/>
<path fill-rule="evenodd" clip-rule="evenodd" d="M80.2984 32.311C80.3855 32.4646 80.5425 32.5655 80.7182 32.5807H84.2199C84.2669 32.587 84.3144 32.5739 84.3516 32.5446C84.3888 32.5152 84.4126 32.472 84.4175 32.4248C84.4219 32.3852 84.4132 32.3452 84.3928 32.311L74.268 10.2427C74.1822 10.0881 74.0263 9.98549 73.8506 9.96802H70.1662C69.9905 9.98549 69.8346 10.0881 69.7488 10.2427L59.624 32.311C59.5957 32.349 59.5841 32.3969 59.592 32.4437C59.6 32.4905 59.6267 32.5319 59.666 32.5584C59.7027 32.584 59.7477 32.5947 59.7919 32.5881H63.2887C63.467 32.5808 63.6275 32.4777 63.7085 32.3184L71.8726 14.5188C71.9417 14.3678 72.0553 14.3678 72.1195 14.5188L80.2984 32.311Z" fill="#2C4584"/>
<path fill-rule="evenodd" clip-rule="evenodd" d="M63.6349 13.552C63.8132 13.542 63.9722 13.4371 64.0514 13.2775L65.442 10.0443C65.4683 10.005 65.4779 9.95678 65.4686 9.91037C65.4593 9.86396 65.4319 9.82315 65.3924 9.79695C65.3562 9.77212 65.3117 9.76235 65.2684 9.76974H44.2461C44.083 9.77508 43.9535 9.90865 43.9536 10.0715V32.0875C43.9548 32.2499 44.0835 32.3827 44.2461 32.3893H55.0956C55.2728 32.3803 55.4316 32.2774 55.5121 32.1197L56.9745 28.8865C57 28.846 57.008 28.7969 56.9968 28.7504C56.9857 28.7039 56.9562 28.6638 56.915 28.6392C56.8834 28.619 56.8458 28.6102 56.8084 28.6144H47.9072C47.7456 28.6066 47.6183 28.4741 47.6172 28.3126V13.8538C47.6171 13.6919 47.7451 13.5587 47.9072 13.552H63.6349Z" fill="#2C4584"/>
</svg>
