<svg width="129" height="47" viewBox="0 0 129 47" fill="none" xmlns="http://www.w3.org/2000/svg">
<path d="M110 9.5C110 8.11929 111.119 7 112.5 7H126.5C127.881 7 129 8.11929 129 9.5V9.5C129 10.8807 127.881 12 126.5 12H112.5C111.119 12 110 10.8807 110 9.5V9.5Z" fill="#50E3C2"/>
<path d="M119.5 0C120.881 0 122 1.11929 122 2.5V16.5C122 17.8807 120.881 19 119.5 19V19C118.119 19 117 17.8807 117 16.5V2.5C117 1.11929 118.119 0 119.5 0V0Z" fill="#50E3C2"/>
<path fill-rule="evenodd" clip-rule="evenodd" d="M117 7L122 7V12H117L117 7Z" fill="#3AC5A6"/>
<path fill-rule="evenodd" clip-rule="evenodd" d="M5.748 41.3142C5.63419 41.3123 5.52585 41.2656 5.44706 41.1843C5.36828 41.1029 5.32558 40.9938 5.32846 40.8812V40.8812V14.7206C5.3266 14.485 5.13616 14.2933 4.89817 14.2876H0.430293C0.191493 14.2915 -3.20946e-05 14.4842 0 14.7206V46.2794C-3.20946e-05 46.5158 0.191493 46.7086 0.430293 46.7124H22.5079C22.7453 46.7067 22.9347 46.5145 22.9346 46.2794V41.7401C22.9366 41.5043 22.7461 41.311 22.5079 41.3071L5.748 41.3142Z" fill="#203060"/>
<path fill-rule="evenodd" clip-rule="evenodd" d="M51.8544 14.2876C51.6131 14.2876 51.4163 14.4803 51.4124 14.7206V40.8812C51.4124 41.1203 51.2177 41.3142 50.9775 41.3142H35.2501C35.0107 41.3162 34.8139 41.1266 34.8081 40.8883V14.7206C34.8042 14.4803 34.6075 14.2876 34.3661 14.2876H29.7035C29.4621 14.2876 29.2654 14.4803 29.2615 14.7206V46.2794C29.2615 46.3943 29.3073 46.5044 29.3889 46.5856C29.4704 46.6668 29.581 46.7124 29.6964 46.7124H56.4992C56.7386 46.7144 56.9354 46.5248 56.9412 46.2865V14.7206C56.9373 14.4803 56.7406 14.2876 56.4992 14.2876H51.8544Z" fill="#203060"/>
<path fill-rule="evenodd" clip-rule="evenodd" d="M115.094 46.3125C115.219 46.5327 115.444 46.6773 115.696 46.6991H120.715C120.782 46.7081 120.85 46.6894 120.904 46.6473C120.957 46.6052 120.991 46.5433 120.998 46.4756C121.005 46.4188 120.992 46.3615 120.963 46.3125L106.451 14.6813C106.328 14.4597 106.104 14.3126 105.852 14.2876H100.571C100.32 14.3126 100.096 14.4597 99.9732 14.6813L85.4609 46.3125C85.4203 46.3669 85.4038 46.4357 85.4151 46.5027C85.4265 46.5698 85.4648 46.6292 85.5211 46.6672C85.5737 46.7039 85.6383 46.7191 85.7016 46.7097H90.7137C90.9692 46.6992 91.1993 46.5514 91.3154 46.3231L103.017 20.8103C103.116 20.594 103.279 20.594 103.371 20.8103L115.094 46.3125Z" fill="#203060"/>
<path fill-rule="evenodd" clip-rule="evenodd" d="M91.2099 19.4247C91.4654 19.4104 91.6933 19.26 91.8068 19.0312L93.8 14.397C93.8378 14.3406 93.8515 14.2715 93.8382 14.205C93.8248 14.1385 93.7855 14.08 93.7289 14.0425C93.677 14.0069 93.6133 13.9929 93.5513 14.0035H63.4192C63.1854 14.0111 62.9999 14.2026 63 14.436V45.9923C63.0017 46.225 63.1862 46.4154 63.4192 46.4248H78.9702C79.2241 46.4119 79.4517 46.2645 79.5671 46.0384L81.6633 41.4042C81.6998 41.3461 81.7113 41.2757 81.6953 41.209C81.6793 41.1423 81.637 41.0849 81.578 41.0496C81.5327 41.0207 81.4788 41.0081 81.4253 41.0142H68.6669C68.4352 41.0029 68.2528 40.813 68.2512 40.5816V19.8573C68.251 19.6252 68.4344 19.4343 68.6669 19.4247H91.2099Z" fill="#203060"/>
</svg>
