<svg width="58" height="25" viewBox="0 0 58 25" fill="none" xmlns="http://www.w3.org/2000/svg">
<path d="M28.3043 7.32699L25.6232 15.0513L22.7045 7.04546C22.2633 5.77861 21.1094 5.84899 21.1094 5.84899H18.615L23.5699 18.412C23.5699 18.3944 23.5699 18.3944 23.553 18.3768C23.553 18.3768 23.5699 18.412 23.5699 18.4296C23.5869 18.4472 23.5869 18.4824 23.5869 18.4824L23.5699 18.412C23.7396 18.9222 23.6887 19.2038 23.536 19.6964L23.4342 20.0131C22.8572 21.4911 22.0427 21.8958 20.3288 21.8079V21.8255L21.5336 24.8518C23.7566 24.799 25.4195 24.06 26.5395 21.1744L32.4956 5.84899H30.2727C30.2727 5.84899 30.2727 5.84899 30.2557 5.84899C30.103 5.84899 28.8473 5.88418 28.3043 7.32699ZM34.8034 12.3944C34.8034 10.1598 36.1779 8.61144 37.8748 8.61144C39.5717 8.61144 40.9462 10.1598 40.9462 12.3944C40.9462 14.5762 39.5717 16.0894 37.8748 16.0894C36.1949 16.0718 34.8034 14.5762 34.8034 12.3944ZM31.6132 12.3592C31.6132 16.2302 34.4131 19.1158 37.8748 19.1158C41.3365 19.1158 44.1703 16.2302 44.1703 12.3592C44.1703 8.48827 41.3365 5.54987 37.8748 5.54987C34.4301 5.56746 31.6132 8.50587 31.6132 12.3592ZM9.58748 7.39737C8.68812 6.27127 7.31363 5.56746 5.61673 5.56746C2.20597 5.56746 0 8.04839 0 11.3387V18.8167H1.03511C1.74781 18.7639 3.13926 18.412 3.19017 16.2654V11.2683C3.19017 9.80791 4.17437 8.80499 5.61673 8.80499C7.72089 8.80499 7.94149 10.5293 7.94149 11.2683V18.8167H8.97659C9.68929 18.7639 11.0638 18.412 11.1317 16.283V11.2683C11.1317 9.80791 12.1498 8.80499 13.5582 8.80499C15.6624 8.80499 15.8999 10.5293 15.8999 11.2683V18.8167H16.935C17.6477 18.7639 19.0562 18.412 19.0901 16.2302V11.3387C19.0901 7.94282 17.0369 5.56746 13.5413 5.56746C11.9292 5.56746 10.5208 6.27127 9.58748 7.39737ZM48.4295 12.3944C48.4295 10.3358 49.8549 8.68182 51.6197 8.68182C53.3844 8.68182 54.8098 10.283 54.8098 12.3944C54.8098 14.4531 53.3844 16.0366 51.6197 16.0366C49.8549 16.0366 48.4295 14.4003 48.4295 12.3944ZM47.7677 0.148132C45.5957 0.148132 45.2393 1.66132 45.2054 2.40032V18.8167H46.7496C47.9883 18.8343 48.2768 18.0249 48.2768 17.5674V17.5146V17.4442C49.244 18.5 50.5676 19.0982 52.0778 19.0982C55.3528 19.0982 58 16.195 58 12.3768C58 8.54106 55.3359 5.62025 52.0778 5.62025C50.6524 5.62025 49.3628 6.1657 48.4295 7.13344V0.148132H47.7677Z" fill="url(#paint0_linear)"/>
<defs>
<linearGradient id="paint0_linear" x1="0" y1="12.5" x2="58" y2="12.5" gradientUnits="userSpaceOnUse">
<stop offset="0.36" stop-color="#6100A5"/>
<stop offset="0.4557" stop-color="#7001A0"/>
<stop offset="0.6409" stop-color="#980293"/>
<stop offset="0.8947" stop-color="#D9057E"/>
<stop offset="0.97" stop-color="#ED0677"/>
</linearGradient>
</defs>
</svg>
