<svg width="189" height="185" viewBox="0 0 189 185" fill="none" xmlns="http://www.w3.org/2000/svg">
<path d="M25.244 113.949C-4.25833 46.4954 35.9255 18.2517 57.4831 12.1053C79.0408 5.95876 167.646 13.5351 179.532 57.7818C191.419 102.028 138.494 148.378 110.546 166.022C94.4047 176.77 54.7463 181.402 25.244 113.949Z" fill="#95F9DF" fill-opacity="0.3"/>
<g filter="url(#filter0_dd)">
<path d="M36.2253 36.5312H147.145C151.864 36.5312 155.694 40.1731 155.694 44.6594V130.797C155.694 137.5 149.976 142.936 142.926 142.936H36.2253C31.5065 142.936 27.6759 139.294 27.6759 134.861V44.6066C27.6759 40.1203 31.5065 36.5312 36.2253 36.5312Z" fill="white"/>
</g>
<g filter="url(#filter1_dd)">
<path d="M27.1218 44.5674C36.1293 85.3512 11.9253 137.657 100.985 142.936H133.804C121.435 143.528 110.556 143.504 100.985 142.936H34.259C30.3172 142.936 27.1218 139.741 27.1218 135.799V44.5674Z" fill="white"/>
</g>
<g filter="url(#filter2_d)">
<rect x="60.4278" y="26.6455" width="9.04039" height="27.1212" rx="4.52019" fill="#2C4584"/>
</g>
<g filter="url(#filter3_d)">
<rect x="111.339" y="26.6455" width="9.04039" height="27.1212" rx="4.52019" fill="#2C4584"/>
</g>
<path d="M83.5386 44.5116C83.5386 48.9452 87.1408 52.492 91.519 52.492C95.9525 52.492 99.4993 48.9452 99.4993 44.5116C99.4993 40.0781 95.9525 36.5312 91.519 36.5312C87.1408 36.5312 83.5386 40.0781 83.5386 44.5116Z" fill="white"/>
<path d="M77.4454 88.7363H83.8186C85.2595 88.7363 85.9245 89.4568 85.9245 90.8423V97.2709C85.9245 98.7118 85.204 99.3768 83.8186 99.3768H77.4454C76.0045 99.3768 75.3394 98.6564 75.3394 97.2709V90.8977C75.284 89.4568 76.0045 88.7363 77.4454 88.7363Z" fill="#50E6C5"/>
<path d="M77.4454 64.7949H83.8186C85.2595 64.7949 85.9245 65.5154 85.9245 66.9008V73.2741C85.9245 74.715 85.204 75.38 83.8186 75.38H77.4454C76.0045 75.38 75.3394 74.6595 75.3394 73.2741V66.9008C75.284 65.5154 76.0045 64.7949 77.4454 64.7949Z" fill="#50E6C5"/>
<path d="M104.047 88.7363H110.42C111.861 88.7363 112.526 89.4568 112.526 90.8423V97.2709C112.526 98.7118 111.805 99.3768 110.42 99.3768H104.047C102.606 99.3768 101.941 98.6564 101.941 97.2709V90.8977C101.885 89.4568 102.606 88.7363 104.047 88.7363Z" fill="#50E6C5"/>
<path d="M104.047 64.7949H110.42C111.861 64.7949 112.526 65.5154 112.526 66.9008V73.2741C112.526 74.715 111.805 75.38 110.42 75.38H104.047C102.606 75.38 101.941 74.6595 101.941 73.2741V66.9008C101.885 65.5154 102.606 64.7949 104.047 64.7949Z" fill="#50E6C5"/>
<path d="M130.648 64.7949H137.021C138.462 64.7949 139.127 65.5154 139.127 66.9008V73.2741C139.127 74.715 138.407 75.38 137.021 75.38H130.648C129.207 75.38 128.542 74.6595 128.542 73.2741V66.9008C128.542 65.5154 129.207 64.7949 130.648 64.7949Z" fill="#50E6C5"/>
<path d="M50.8441 110.017H57.2173C58.6582 110.017 59.3233 110.738 59.3233 112.123V118.496C59.3233 119.937 58.6028 120.602 57.2173 120.602H50.8441C49.4032 120.602 48.7382 119.882 48.7382 118.496V112.123C48.6828 110.738 49.4032 110.017 50.8441 110.017Z" fill="#50E6C5"/>
<path d="M50.8441 88.7363H57.2173C58.6582 88.7363 59.3233 89.4568 59.3233 90.8423V97.2709C59.3233 98.7118 58.6028 99.3768 57.2173 99.3768H50.8441C49.4032 99.3768 48.7382 98.6564 48.7382 97.2709V90.8977C48.6828 89.4568 49.4032 88.7363 50.8441 88.7363Z" fill="#50E6C5"/>
<path d="M77.4455 110.017H83.8187C85.2596 110.017 85.9246 110.738 85.9246 112.123V118.496C85.9246 119.937 85.2042 120.602 83.8187 120.602H77.4455C76.0046 120.602 75.3395 119.882 75.3395 118.496V112.123C75.2841 110.738 76.0046 110.017 77.4455 110.017Z" fill="#50E6C5"/>
<g filter="url(#filter4_d)">
<path d="M119.118 126.976C119.118 134.568 123.163 141.607 129.758 145.43C136.353 149.254 144.444 149.254 151.039 145.43C157.634 141.607 161.68 134.624 161.68 126.976C161.68 119.383 157.634 112.345 151.039 108.521C144.444 104.697 136.353 104.697 129.758 108.521C123.163 112.345 119.118 119.383 119.118 126.976Z" fill="#50E6C5"/>
</g>
<path d="M138.792 120.215V130.744C141.563 130.744 147.104 130.744 147.104 130.744" stroke="#2C4584" stroke-width="2.85486" stroke-linecap="round" stroke-linejoin="round"/>
<defs>
<filter id="filter0_dd" x="10.0709" y="18.9263" width="162.277" height="140.663" filterUnits="userSpaceOnUse" color-interpolation-filters="sRGB">
<feFlood flood-opacity="0" result="BackgroundImageFix"/>
<feColorMatrix in="SourceAlpha" type="matrix" values="0 0 0 0 0 0 0 0 0 0 0 0 0 0 0 0 0 0 127 0"/>
<feOffset dx="-3.80648" dy="-3.80648"/>
<feGaussianBlur stdDeviation="6.89924"/>
<feColorMatrix type="matrix" values="0 0 0 0 0.759863 0 0 0 0 0.809954 0 0 0 0 0.943532 0 0 0 0.109488 0"/>
<feBlend mode="normal" in2="BackgroundImageFix" result="effect1_dropShadow"/>
<feColorMatrix in="SourceAlpha" type="matrix" values="0 0 0 0 0 0 0 0 0 0 0 0 0 0 0 0 0 0 127 0"/>
<feOffset dx="2.85486" dy="2.85486"/>
<feGaussianBlur stdDeviation="6.89924"/>
<feColorMatrix type="matrix" values="0 0 0 0 0.760784 0 0 0 0 0.811765 0 0 0 0 0.945098 0 0 0 0.220533 0"/>
<feBlend mode="normal" in2="effect1_dropShadow" result="effect2_dropShadow"/>
<feBlend mode="normal" in="SourceGraphic" in2="effect2_dropShadow" result="shape"/>
</filter>
<filter id="filter1_dd" x="9.51684" y="26.9624" width="140.94" height="133.062" filterUnits="userSpaceOnUse" color-interpolation-filters="sRGB">
<feFlood flood-opacity="0" result="BackgroundImageFix"/>
<feColorMatrix in="SourceAlpha" type="matrix" values="0 0 0 0 0 0 0 0 0 0 0 0 0 0 0 0 0 0 127 0"/>
<feOffset dx="-3.80648" dy="-3.80648"/>
<feGaussianBlur stdDeviation="6.89924"/>
<feColorMatrix type="matrix" values="0 0 0 0 0.759863 0 0 0 0 0.809954 0 0 0 0 0.943532 0 0 0 0.109488 0"/>
<feBlend mode="normal" in2="BackgroundImageFix" result="effect1_dropShadow"/>
<feColorMatrix in="SourceAlpha" type="matrix" values="0 0 0 0 0 0 0 0 0 0 0 0 0 0 0 0 0 0 127 0"/>
<feOffset dx="2.85486" dy="2.85486"/>
<feGaussianBlur stdDeviation="6.89924"/>
<feColorMatrix type="matrix" values="0 0 0 0 0.760784 0 0 0 0 0.811765 0 0 0 0 0.945098 0 0 0 0.220533 0"/>
<feBlend mode="normal" in2="effect1_dropShadow" result="effect2_dropShadow"/>
<feBlend mode="normal" in="SourceGraphic" in2="effect2_dropShadow" result="shape"/>
</filter>
<filter id="filter2_d" x="58.0487" y="25.2181" width="13.7985" height="31.8793" filterUnits="userSpaceOnUse" color-interpolation-filters="sRGB">
<feFlood flood-opacity="0" result="BackgroundImageFix"/>
<feColorMatrix in="SourceAlpha" type="matrix" values="0 0 0 0 0 0 0 0 0 0 0 0 0 0 0 0 0 0 127 0"/>
<feOffset dy="0.95162"/>
<feGaussianBlur stdDeviation="1.18952"/>
<feColorMatrix type="matrix" values="0 0 0 0 0.777344 0 0 0 0 0.791477 0 0 0 0 0.829167 0 0 0 1 0"/>
<feBlend mode="normal" in2="BackgroundImageFix" result="effect1_dropShadow"/>
<feBlend mode="normal" in="SourceGraphic" in2="effect1_dropShadow" result="shape"/>
</filter>
<filter id="filter3_d" x="108.96" y="25.2181" width="13.7985" height="31.8793" filterUnits="userSpaceOnUse" color-interpolation-filters="sRGB">
<feFlood flood-opacity="0" result="BackgroundImageFix"/>
<feColorMatrix in="SourceAlpha" type="matrix" values="0 0 0 0 0 0 0 0 0 0 0 0 0 0 0 0 0 0 127 0"/>
<feOffset dy="0.95162"/>
<feGaussianBlur stdDeviation="1.18952"/>
<feColorMatrix type="matrix" values="0 0 0 0 0.777344 0 0 0 0 0.791477 0 0 0 0 0.829167 0 0 0 1 0"/>
<feBlend mode="normal" in2="BackgroundImageFix" result="effect1_dropShadow"/>
<feBlend mode="normal" in="SourceGraphic" in2="effect1_dropShadow" result="shape"/>
</filter>
<filter id="filter4_d" x="116.739" y="104.226" width="47.32" height="47.4032" filterUnits="userSpaceOnUse" color-interpolation-filters="sRGB">
<feFlood flood-opacity="0" result="BackgroundImageFix"/>
<feColorMatrix in="SourceAlpha" type="matrix" values="0 0 0 0 0 0 0 0 0 0 0 0 0 0 0 0 0 0 127 0"/>
<feOffset dy="0.95162"/>
<feGaussianBlur stdDeviation="1.18952"/>
<feColorMatrix type="matrix" values="0 0 0 0 0.0558333 0 0 0 0 0.8375 0 0 0 0 0.665533 0 0 0 0.4 0"/>
<feBlend mode="normal" in2="BackgroundImageFix" result="effect1_dropShadow"/>
<feBlend mode="normal" in="SourceGraphic" in2="effect1_dropShadow" result="shape"/>
</filter>
</defs>
</svg>
