<svg width="408" height="399" viewBox="0 0 408 399" fill="none" xmlns="http://www.w3.org/2000/svg">
<path d="M52.0451 253.413C-19.4757 106.049 67.2294 39.6048 114.547 23.9893C161.866 8.37353 359.278 17.2308 389.616 114.57C419.954 211.909 306.574 319.773 246.092 361.538C211.21 386.899 123.566 400.778 52.0451 253.413Z" fill="#95F9DF" fill-opacity="0.3"/>
<g filter="url(#filter0_dd)">
<path d="M65.3916 76.0618C65.3916 73.3003 67.6302 71.0618 70.3916 71.0618H338.392C341.153 71.0618 343.392 73.3003 343.392 76.0618V306.062C343.392 314.346 336.676 321.062 328.392 321.062H80.3916C72.1073 321.062 65.3916 314.346 65.3916 306.062V76.0618Z" fill="white"/>
</g>
<path d="M65.3916 76.0618C65.3916 73.3003 67.6302 71.0618 70.3916 71.0618H338.392C341.153 71.0618 343.392 73.3003 343.392 76.0618V109.062H65.3916V76.0618Z" fill="#50E6C5"/>
<rect x="104.392" y="212.062" width="131" height="11" rx="5.5" fill="#50E6C5"/>
<rect width="45" height="11" rx="5.5" transform="matrix(0.730748 -0.682647 0.682646 0.73075 161.392 174.781)" fill="#50E6C5"/>
<rect width="45" height="11" rx="5.5" transform="matrix(0.710613 -0.703583 0.703582 0.710614 208.392 174.723)" fill="#50E6C5"/>
<rect width="45" height="11" rx="5.5" transform="matrix(0.710613 -0.703583 0.703582 0.710614 257.392 174.723)" fill="#50E6C5"/>
<rect x="104.392" y="244.062" width="131" height="11" rx="5.5" fill="#50E6C5"/>
<g filter="url(#filter1_d)">
<path d="M265.789 253.786L249.587 200.028C249.104 198.425 250.686 196.974 252.241 197.592L306.486 219.163C308.304 219.886 308.11 222.52 306.206 222.968L291.484 226.436C289.99 226.787 289.433 228.621 290.478 229.745L309.475 250.165C310.23 250.976 310.181 252.246 309.367 252.997L299.951 261.683C299.129 262.441 297.846 262.378 297.102 261.545L277.942 240.072C276.942 238.952 275.111 239.292 274.579 240.696L269.574 253.917C268.897 255.704 266.34 255.616 265.789 253.786Z" fill="#2C4584"/>
</g>
<circle cx="92.8916" cy="91.5618" r="5.5" fill="white"/>
<circle cx="109.892" cy="91.5618" r="5.5" fill="white"/>
<circle cx="126.892" cy="91.5618" r="5.5" fill="white"/>
<circle cx="122.459" cy="163.129" r="24.0674" fill="#50E6C5"/>
<path d="M113.938 163.774L120.004 170.65L130.484 158.617" stroke="#2C4584" stroke-width="4" stroke-linecap="round" stroke-linejoin="round"/>
<defs>
<filter id="filter0_dd" x="28.3916" y="34.0618" width="350" height="322" filterUnits="userSpaceOnUse" color-interpolation-filters="sRGB">
<feFlood flood-opacity="0" result="BackgroundImageFix"/>
<feColorMatrix in="SourceAlpha" type="matrix" values="0 0 0 0 0 0 0 0 0 0 0 0 0 0 0 0 0 0 127 0"/>
<feOffset dx="-8" dy="-8"/>
<feGaussianBlur stdDeviation="14.5"/>
<feColorMatrix type="matrix" values="0 0 0 0 0.759863 0 0 0 0 0.809954 0 0 0 0 0.943532 0 0 0 0.109488 0"/>
<feBlend mode="normal" in2="BackgroundImageFix" result="effect1_dropShadow"/>
<feColorMatrix in="SourceAlpha" type="matrix" values="0 0 0 0 0 0 0 0 0 0 0 0 0 0 0 0 0 0 127 0"/>
<feOffset dx="6" dy="6"/>
<feGaussianBlur stdDeviation="14.5"/>
<feColorMatrix type="matrix" values="0 0 0 0 0.760784 0 0 0 0 0.811765 0 0 0 0 0.945098 0 0 0 0.220533 0"/>
<feBlend mode="normal" in2="effect1_dropShadow" result="effect2_dropShadow"/>
<feBlend mode="normal" in="SourceGraphic" in2="effect2_dropShadow" result="shape"/>
</filter>
<filter id="filter1_d" x="244.499" y="194.447" width="70.5123" height="74.7664" filterUnits="userSpaceOnUse" color-interpolation-filters="sRGB">
<feFlood flood-opacity="0" result="BackgroundImageFix"/>
<feColorMatrix in="SourceAlpha" type="matrix" values="0 0 0 0 0 0 0 0 0 0 0 0 0 0 0 0 0 0 127 0"/>
<feOffset dy="2"/>
<feGaussianBlur stdDeviation="2.5"/>
<feColorMatrix type="matrix" values="0 0 0 0 0.777344 0 0 0 0 0.791477 0 0 0 0 0.829167 0 0 0 1 0"/>
<feBlend mode="normal" in2="BackgroundImageFix" result="effect1_dropShadow"/>
<feBlend mode="normal" in="SourceGraphic" in2="effect1_dropShadow" result="shape"/>
</filter>
</defs>
</svg>
