<svg width="219" height="308" viewBox="0 0 219 308" fill="none" xmlns="http://www.w3.org/2000/svg">
<path d="M21.8203 133.289L24.8672 127.578H26.3047L22.4922 134.57V139H21.1484V134.633L17.3438 127.578H18.7969L21.8203 133.289ZM35.0781 134.711C35.0781 136.107 34.7266 137.198 34.0234 137.984C33.3203 138.766 32.349 139.156 31.1094 139.156C30.3438 139.156 29.6641 138.977 29.0703 138.617C28.4766 138.258 28.0182 137.742 27.6953 137.07C27.3724 136.398 27.2109 135.612 27.2109 134.711C27.2109 133.315 27.5599 132.229 28.2578 131.453C28.9557 130.672 29.9245 130.281 31.1641 130.281C32.362 130.281 33.3125 130.68 34.0156 131.477C34.724 132.273 35.0781 133.352 35.0781 134.711ZM28.5547 134.711C28.5547 135.805 28.7734 136.638 29.2109 137.211C29.6484 137.784 30.2917 138.07 31.1406 138.07C31.9896 138.07 32.6328 137.786 33.0703 137.219C33.513 136.646 33.7344 135.81 33.7344 134.711C33.7344 133.622 33.513 132.797 33.0703 132.234C32.6328 131.667 31.9844 131.383 31.125 131.383C30.276 131.383 29.6354 131.661 29.2031 132.219C28.7708 132.776 28.5547 133.607 28.5547 134.711ZM38.5781 130.438V135.992C38.5781 136.69 38.737 137.211 39.0547 137.555C39.3724 137.898 39.8698 138.07 40.5469 138.07C41.4427 138.07 42.0964 137.826 42.5078 137.336C42.9245 136.846 43.1328 136.047 43.1328 134.938V130.438H44.4297V139H43.3594L43.1719 137.852H43.1016C42.8359 138.273 42.4661 138.596 41.9922 138.82C41.5234 139.044 40.987 139.156 40.3828 139.156C39.3411 139.156 38.5599 138.909 38.0391 138.414C37.5234 137.919 37.2656 137.128 37.2656 136.039V130.438H38.5781ZM56.8672 136.664C56.8672 137.461 56.5703 138.076 55.9766 138.508C55.3828 138.94 54.5495 139.156 53.4766 139.156C52.3411 139.156 51.4557 138.977 50.8203 138.617V137.414C51.2318 137.622 51.6719 137.786 52.1406 137.906C52.6146 138.026 53.0703 138.086 53.5078 138.086C54.1849 138.086 54.7057 137.979 55.0703 137.766C55.4349 137.547 55.6172 137.216 55.6172 136.773C55.6172 136.44 55.4714 136.156 55.1797 135.922C54.8932 135.682 54.3307 135.401 53.4922 135.078C52.6953 134.781 52.1276 134.523 51.7891 134.305C51.4557 134.081 51.2057 133.828 51.0391 133.547C50.8776 133.266 50.7969 132.93 50.7969 132.539C50.7969 131.841 51.0807 131.292 51.6484 130.891C52.2161 130.484 52.9948 130.281 53.9844 130.281C54.9062 130.281 55.8073 130.469 56.6875 130.844L56.2266 131.898C55.3672 131.544 54.5885 131.367 53.8906 131.367C53.276 131.367 52.8125 131.464 52.5 131.656C52.1875 131.849 52.0312 132.115 52.0312 132.453C52.0312 132.682 52.0885 132.878 52.2031 133.039C52.3229 133.201 52.513 133.354 52.7734 133.5C53.0339 133.646 53.5339 133.857 54.2734 134.133C55.2891 134.503 55.974 134.875 56.3281 135.25C56.6875 135.625 56.8672 136.096 56.8672 136.664ZM62.6016 139.156C61.3359 139.156 60.3359 138.771 59.6016 138C58.8724 137.229 58.5078 136.159 58.5078 134.789C58.5078 133.409 58.8464 132.312 59.5234 131.5C60.2057 130.688 61.1198 130.281 62.2656 130.281C63.3385 130.281 64.1875 130.635 64.8125 131.344C65.4375 132.047 65.75 132.977 65.75 134.133V134.953H59.8516C59.8776 135.958 60.1302 136.721 60.6094 137.242C61.0938 137.763 61.7734 138.023 62.6484 138.023C63.5703 138.023 64.4818 137.831 65.3828 137.445V138.602C64.9245 138.799 64.4896 138.94 64.0781 139.023C63.6719 139.112 63.1797 139.156 62.6016 139.156ZM62.25 131.367C61.5625 131.367 61.013 131.591 60.6016 132.039C60.1953 132.487 59.9557 133.107 59.8828 133.898H64.3594C64.3594 133.081 64.1771 132.456 63.8125 132.023C63.4479 131.586 62.9271 131.367 62.25 131.367ZM73.8281 139V133.461C73.8281 132.763 73.6693 132.242 73.3516 131.898C73.0339 131.555 72.5365 131.383 71.8594 131.383C70.9635 131.383 70.3073 131.625 69.8906 132.109C69.474 132.594 69.2656 133.393 69.2656 134.508V139H67.9688V130.438H69.0234L69.2344 131.609H69.2969C69.5625 131.188 69.9349 130.862 70.4141 130.633C70.8932 130.398 71.4271 130.281 72.0156 130.281C73.0469 130.281 73.8229 130.531 74.3438 131.031C74.8646 131.526 75.125 132.32 75.125 133.414V139H73.8281ZM83.625 137.852H83.5547C82.9557 138.721 82.0599 139.156 80.8672 139.156C79.7474 139.156 78.875 138.773 78.25 138.008C77.6302 137.242 77.3203 136.154 77.3203 134.742C77.3203 133.331 77.6328 132.234 78.2578 131.453C78.8828 130.672 79.7526 130.281 80.8672 130.281C82.0286 130.281 82.9193 130.703 83.5391 131.547H83.6406L83.5859 130.93L83.5547 130.328V126.844H84.8516V139H83.7969L83.625 137.852ZM81.0312 138.07C81.9167 138.07 82.5573 137.831 82.9531 137.352C83.3542 136.867 83.5547 136.089 83.5547 135.016V134.742C83.5547 133.529 83.3516 132.664 82.9453 132.148C82.5443 131.628 81.901 131.367 81.0156 131.367C80.2552 131.367 79.6719 131.664 79.2656 132.258C78.8646 132.846 78.6641 133.68 78.6641 134.758C78.6641 135.852 78.8646 136.677 79.2656 137.234C79.6667 137.792 80.2552 138.07 81.0312 138.07ZM91.9453 127.578L87.6875 139H86.3906L90.6484 127.578H91.9453ZM97.3906 130.281C97.7708 130.281 98.112 130.312 98.4141 130.375L98.2344 131.578C97.8802 131.5 97.5677 131.461 97.2969 131.461C96.6042 131.461 96.0104 131.742 95.5156 132.305C95.026 132.867 94.7812 133.568 94.7812 134.406V139H93.4844V130.438H94.5547L94.7031 132.023H94.7656C95.0833 131.466 95.4661 131.036 95.9141 130.734C96.362 130.432 96.8542 130.281 97.3906 130.281ZM103.633 139.156C102.367 139.156 101.367 138.771 100.633 138C99.9036 137.229 99.5391 136.159 99.5391 134.789C99.5391 133.409 99.8776 132.312 100.555 131.5C101.237 130.688 102.151 130.281 103.297 130.281C104.37 130.281 105.219 130.635 105.844 131.344C106.469 132.047 106.781 132.977 106.781 134.133V134.953H100.883C100.909 135.958 101.161 136.721 101.641 137.242C102.125 137.763 102.805 138.023 103.68 138.023C104.602 138.023 105.513 137.831 106.414 137.445V138.602C105.956 138.799 105.521 138.94 105.109 139.023C104.703 139.112 104.211 139.156 103.633 139.156ZM103.281 131.367C102.594 131.367 102.044 131.591 101.633 132.039C101.227 132.487 100.987 133.107 100.914 133.898H105.391C105.391 133.081 105.208 132.456 104.844 132.023C104.479 131.586 103.958 131.367 103.281 131.367ZM112.422 139.156C111.182 139.156 110.221 138.776 109.539 138.016C108.862 137.25 108.523 136.169 108.523 134.773C108.523 133.341 108.867 132.234 109.555 131.453C110.247 130.672 111.232 130.281 112.508 130.281C112.919 130.281 113.331 130.326 113.742 130.414C114.154 130.503 114.477 130.607 114.711 130.727L114.312 131.828C114.026 131.714 113.714 131.62 113.375 131.547C113.036 131.469 112.737 131.43 112.477 131.43C110.737 131.43 109.867 132.539 109.867 134.758C109.867 135.81 110.078 136.617 110.5 137.18C110.927 137.742 111.557 138.023 112.391 138.023C113.104 138.023 113.836 137.87 114.586 137.562V138.711C114.013 139.008 113.292 139.156 112.422 139.156ZM120.242 139.156C118.977 139.156 117.977 138.771 117.242 138C116.513 137.229 116.148 136.159 116.148 134.789C116.148 133.409 116.487 132.312 117.164 131.5C117.846 130.688 118.76 130.281 119.906 130.281C120.979 130.281 121.828 130.635 122.453 131.344C123.078 132.047 123.391 132.977 123.391 134.133V134.953H117.492C117.518 135.958 117.771 136.721 118.25 137.242C118.734 137.763 119.414 138.023 120.289 138.023C121.211 138.023 122.122 137.831 123.023 137.445V138.602C122.565 138.799 122.13 138.94 121.719 139.023C121.312 139.112 120.82 139.156 120.242 139.156ZM119.891 131.367C119.203 131.367 118.654 131.591 118.242 132.039C117.836 132.487 117.596 133.107 117.523 133.898H122C122 133.081 121.818 132.456 121.453 132.023C121.089 131.586 120.568 131.367 119.891 131.367ZM126.906 139H125.609V130.438H126.906V139ZM125.5 128.117C125.5 127.82 125.573 127.604 125.719 127.469C125.865 127.328 126.047 127.258 126.266 127.258C126.474 127.258 126.654 127.328 126.805 127.469C126.956 127.609 127.031 127.826 127.031 128.117C127.031 128.409 126.956 128.628 126.805 128.773C126.654 128.914 126.474 128.984 126.266 128.984C126.047 128.984 125.865 128.914 125.719 128.773C125.573 128.628 125.5 128.409 125.5 128.117ZM131.531 139L128.281 130.438H129.672L131.516 135.516C131.932 136.703 132.177 137.474 132.25 137.828H132.312C132.37 137.552 132.549 136.982 132.852 136.117C133.159 135.247 133.844 133.354 134.906 130.438H136.297L133.047 139H131.531ZM141.289 139.156C140.023 139.156 139.023 138.771 138.289 138C137.56 137.229 137.195 136.159 137.195 134.789C137.195 133.409 137.534 132.312 138.211 131.5C138.893 130.688 139.807 130.281 140.953 130.281C142.026 130.281 142.875 130.635 143.5 131.344C144.125 132.047 144.438 132.977 144.438 134.133V134.953H138.539C138.565 135.958 138.818 136.721 139.297 137.242C139.781 137.763 140.461 138.023 141.336 138.023C142.258 138.023 143.169 137.831 144.07 137.445V138.602C143.612 138.799 143.177 138.94 142.766 139.023C142.359 139.112 141.867 139.156 141.289 139.156ZM140.938 131.367C140.25 131.367 139.701 131.591 139.289 132.039C138.883 132.487 138.643 133.107 138.57 133.898H143.047C143.047 133.081 142.865 132.456 142.5 132.023C142.135 131.586 141.615 131.367 140.938 131.367ZM152.109 139H150.812V130.438H152.109V139ZM150.703 128.117C150.703 127.82 150.776 127.604 150.922 127.469C151.068 127.328 151.25 127.258 151.469 127.258C151.677 127.258 151.857 127.328 152.008 127.469C152.159 127.609 152.234 127.826 152.234 128.117C152.234 128.409 152.159 128.628 152.008 128.773C151.857 128.914 151.677 128.984 151.469 128.984C151.25 128.984 151.068 128.914 150.922 128.773C150.776 128.628 150.703 128.409 150.703 128.117ZM160.719 139V133.461C160.719 132.763 160.56 132.242 160.242 131.898C159.924 131.555 159.427 131.383 158.75 131.383C157.854 131.383 157.198 131.625 156.781 132.109C156.365 132.594 156.156 133.393 156.156 134.508V139H154.859V130.438H155.914L156.125 131.609H156.188C156.453 131.188 156.826 130.862 157.305 130.633C157.784 130.398 158.318 130.281 158.906 130.281C159.938 130.281 160.714 130.531 161.234 131.031C161.755 131.526 162.016 132.32 162.016 133.414V139H160.719ZM166.562 139L163.312 130.438H164.703L166.547 135.516C166.964 136.703 167.208 137.474 167.281 137.828H167.344C167.401 137.552 167.581 136.982 167.883 136.117C168.19 135.247 168.875 133.354 169.938 130.438H171.328L168.078 139H166.562ZM180.094 134.711C180.094 136.107 179.742 137.198 179.039 137.984C178.336 138.766 177.365 139.156 176.125 139.156C175.359 139.156 174.68 138.977 174.086 138.617C173.492 138.258 173.034 137.742 172.711 137.07C172.388 136.398 172.227 135.612 172.227 134.711C172.227 133.315 172.576 132.229 173.273 131.453C173.971 130.672 174.94 130.281 176.18 130.281C177.378 130.281 178.328 130.68 179.031 131.477C179.74 132.273 180.094 133.352 180.094 134.711ZM173.57 134.711C173.57 135.805 173.789 136.638 174.227 137.211C174.664 137.784 175.307 138.07 176.156 138.07C177.005 138.07 177.648 137.786 178.086 137.219C178.529 136.646 178.75 135.81 178.75 134.711C178.75 133.622 178.529 132.797 178.086 132.234C177.648 131.667 177 131.383 176.141 131.383C175.292 131.383 174.651 131.661 174.219 132.219C173.786 132.776 173.57 133.607 173.57 134.711ZM183.672 139H182.375V130.438H183.672V139ZM182.266 128.117C182.266 127.82 182.339 127.604 182.484 127.469C182.63 127.328 182.812 127.258 183.031 127.258C183.24 127.258 183.419 127.328 183.57 127.469C183.721 127.609 183.797 127.826 183.797 128.117C183.797 128.409 183.721 128.628 183.57 128.773C183.419 128.914 183.24 128.984 183.031 128.984C182.812 128.984 182.63 128.914 182.484 128.773C182.339 128.628 182.266 128.409 182.266 128.117ZM189.844 139.156C188.604 139.156 187.643 138.776 186.961 138.016C186.284 137.25 185.945 136.169 185.945 134.773C185.945 133.341 186.289 132.234 186.977 131.453C187.669 130.672 188.654 130.281 189.93 130.281C190.341 130.281 190.753 130.326 191.164 130.414C191.576 130.503 191.898 130.607 192.133 130.727L191.734 131.828C191.448 131.714 191.135 131.62 190.797 131.547C190.458 131.469 190.159 131.43 189.898 131.43C188.159 131.43 187.289 132.539 187.289 134.758C187.289 135.81 187.5 136.617 187.922 137.18C188.349 137.742 188.979 138.023 189.812 138.023C190.526 138.023 191.258 137.87 192.008 137.562V138.711C191.435 139.008 190.714 139.156 189.844 139.156ZM197.664 139.156C196.398 139.156 195.398 138.771 194.664 138C193.935 137.229 193.57 136.159 193.57 134.789C193.57 133.409 193.909 132.312 194.586 131.5C195.268 130.688 196.182 130.281 197.328 130.281C198.401 130.281 199.25 130.635 199.875 131.344C200.5 132.047 200.812 132.977 200.812 134.133V134.953H194.914C194.94 135.958 195.193 136.721 195.672 137.242C196.156 137.763 196.836 138.023 197.711 138.023C198.633 138.023 199.544 137.831 200.445 137.445V138.602C199.987 138.799 199.552 138.94 199.141 139.023C198.734 139.112 198.242 139.156 197.664 139.156ZM197.312 131.367C196.625 131.367 196.076 131.591 195.664 132.039C195.258 132.487 195.018 133.107 194.945 133.898H199.422C199.422 133.081 199.24 132.456 198.875 132.023C198.51 131.586 197.99 131.367 197.312 131.367ZM21.7031 162.086C21.9323 162.086 22.1536 162.07 22.3672 162.039C22.5807 162.003 22.75 161.966 22.875 161.93V162.922C22.7344 162.99 22.526 163.044 22.25 163.086C21.9792 163.133 21.7344 163.156 21.5156 163.156C19.8594 163.156 19.0312 162.284 19.0312 160.539V155.445H17.8047V154.82L19.0312 154.281L19.5781 152.453H20.3281V154.438H22.8125V155.445H20.3281V160.484C20.3281 161 20.4505 161.396 20.6953 161.672C20.9401 161.948 21.276 162.086 21.7031 162.086ZM30.4531 163V157.461C30.4531 156.763 30.2943 156.242 29.9766 155.898C29.6589 155.555 29.1615 155.383 28.4844 155.383C27.5833 155.383 26.9245 155.628 26.5078 156.117C26.0964 156.607 25.8906 157.409 25.8906 158.523V163H24.5938V150.844H25.8906V154.523C25.8906 154.966 25.8698 155.333 25.8281 155.625H25.9062C26.1615 155.214 26.5234 154.891 26.9922 154.656C27.4661 154.417 28.0052 154.297 28.6094 154.297C29.6562 154.297 30.4401 154.547 30.9609 155.047C31.487 155.542 31.75 156.331 31.75 157.414V163H30.4531ZM38.3281 154.281C38.7083 154.281 39.0495 154.312 39.3516 154.375L39.1719 155.578C38.8177 155.5 38.5052 155.461 38.2344 155.461C37.5417 155.461 36.9479 155.742 36.4531 156.305C35.9635 156.867 35.7188 157.568 35.7188 158.406V163H34.4219V154.438H35.4922L35.6406 156.023H35.7031C36.0208 155.466 36.4036 155.036 36.8516 154.734C37.2995 154.432 37.7917 154.281 38.3281 154.281ZM48.3438 158.711C48.3438 160.107 47.9922 161.198 47.2891 161.984C46.5859 162.766 45.6146 163.156 44.375 163.156C43.6094 163.156 42.9297 162.977 42.3359 162.617C41.7422 162.258 41.2839 161.742 40.9609 161.07C40.638 160.398 40.4766 159.612 40.4766 158.711C40.4766 157.315 40.8255 156.229 41.5234 155.453C42.2214 154.672 43.1901 154.281 44.4297 154.281C45.6276 154.281 46.5781 154.68 47.2812 155.477C47.9896 156.273 48.3438 157.352 48.3438 158.711ZM41.8203 158.711C41.8203 159.805 42.0391 160.638 42.4766 161.211C42.9141 161.784 43.5573 162.07 44.4062 162.07C45.2552 162.07 45.8984 161.786 46.3359 161.219C46.7786 160.646 47 159.81 47 158.711C47 157.622 46.7786 156.797 46.3359 156.234C45.8984 155.667 45.25 155.383 44.3906 155.383C43.5417 155.383 42.901 155.661 42.4688 156.219C42.0365 156.776 41.8203 157.607 41.8203 158.711ZM51.8438 154.438V159.992C51.8438 160.69 52.0026 161.211 52.3203 161.555C52.638 161.898 53.1354 162.07 53.8125 162.07C54.7083 162.07 55.362 161.826 55.7734 161.336C56.1901 160.846 56.3984 160.047 56.3984 158.938V154.438H57.6953V163H56.625L56.4375 161.852H56.3672C56.1016 162.273 55.7318 162.596 55.2578 162.82C54.7891 163.044 54.2526 163.156 53.6484 163.156C52.6068 163.156 51.8255 162.909 51.3047 162.414C50.7891 161.919 50.5312 161.128 50.5312 160.039V154.438H51.8438ZM67.4609 154.438V155.258L65.875 155.445C66.0208 155.628 66.151 155.867 66.2656 156.164C66.3802 156.456 66.4375 156.786 66.4375 157.156C66.4375 157.995 66.151 158.664 65.5781 159.164C65.0052 159.664 64.2188 159.914 63.2188 159.914C62.9635 159.914 62.724 159.893 62.5 159.852C61.9479 160.143 61.6719 160.51 61.6719 160.953C61.6719 161.188 61.7682 161.362 61.9609 161.477C62.1536 161.586 62.4844 161.641 62.9531 161.641H64.4688C65.3958 161.641 66.1068 161.836 66.6016 162.227C67.1016 162.617 67.3516 163.185 67.3516 163.93C67.3516 164.878 66.9714 165.599 66.2109 166.094C65.4505 166.594 64.3411 166.844 62.8828 166.844C61.763 166.844 60.8984 166.635 60.2891 166.219C59.6849 165.802 59.3828 165.214 59.3828 164.453C59.3828 163.932 59.5495 163.482 59.8828 163.102C60.2161 162.721 60.6849 162.464 61.2891 162.328C61.0703 162.229 60.8854 162.076 60.7344 161.867C60.5885 161.659 60.5156 161.417 60.5156 161.141C60.5156 160.828 60.599 160.555 60.7656 160.32C60.9323 160.086 61.1953 159.859 61.5547 159.641C61.112 159.458 60.75 159.148 60.4688 158.711C60.1927 158.273 60.0547 157.773 60.0547 157.211C60.0547 156.273 60.3359 155.552 60.8984 155.047C61.4609 154.536 62.2578 154.281 63.2891 154.281C63.737 154.281 64.1406 154.333 64.5 154.438H67.4609ZM60.6328 164.438C60.6328 164.901 60.8281 165.253 61.2188 165.492C61.6094 165.732 62.1693 165.852 62.8984 165.852C63.987 165.852 64.7917 165.688 65.3125 165.359C65.8385 165.036 66.1016 164.596 66.1016 164.039C66.1016 163.576 65.9583 163.253 65.6719 163.07C65.3854 162.893 64.8464 162.805 64.0547 162.805H62.5C61.9115 162.805 61.4531 162.945 61.125 163.227C60.7969 163.508 60.6328 163.911 60.6328 164.438ZM61.3359 157.18C61.3359 157.779 61.5052 158.232 61.8438 158.539C62.1823 158.846 62.6536 159 63.2578 159C64.5234 159 65.1562 158.385 65.1562 157.156C65.1562 155.87 64.5156 155.227 63.2344 155.227C62.625 155.227 62.1562 155.391 61.8281 155.719C61.5 156.047 61.3359 156.534 61.3359 157.18ZM75.0781 163V157.461C75.0781 156.763 74.9193 156.242 74.6016 155.898C74.2839 155.555 73.7865 155.383 73.1094 155.383C72.2083 155.383 71.5495 155.628 71.1328 156.117C70.7214 156.607 70.5156 157.409 70.5156 158.523V163H69.2188V150.844H70.5156V154.523C70.5156 154.966 70.4948 155.333 70.4531 155.625H70.5312C70.7865 155.214 71.1484 154.891 71.6172 154.656C72.0911 154.417 72.6302 154.297 73.2344 154.297C74.2812 154.297 75.0651 154.547 75.5859 155.047C76.112 155.542 76.375 156.331 76.375 157.414V163H75.0781ZM86.8203 163.156C85.5547 163.156 84.5547 162.771 83.8203 162C83.0911 161.229 82.7266 160.159 82.7266 158.789C82.7266 157.409 83.0651 156.312 83.7422 155.5C84.4245 154.688 85.3385 154.281 86.4844 154.281C87.5573 154.281 88.4062 154.635 89.0312 155.344C89.6562 156.047 89.9688 156.977 89.9688 158.133V158.953H84.0703C84.0964 159.958 84.349 160.721 84.8281 161.242C85.3125 161.763 85.9922 162.023 86.8672 162.023C87.7891 162.023 88.7005 161.831 89.6016 161.445V162.602C89.1432 162.799 88.7083 162.94 88.2969 163.023C87.8906 163.112 87.3984 163.156 86.8203 163.156ZM86.4688 155.367C85.7812 155.367 85.2318 155.591 84.8203 156.039C84.4141 156.487 84.1745 157.107 84.1016 157.898H88.5781C88.5781 157.081 88.3958 156.456 88.0312 156.023C87.6667 155.586 87.1458 155.367 86.4688 155.367ZM103.102 163V157.43C103.102 156.747 102.956 156.237 102.664 155.898C102.372 155.555 101.919 155.383 101.305 155.383C100.497 155.383 99.901 155.615 99.5156 156.078C99.1302 156.542 98.9375 157.255 98.9375 158.219V163H97.6406V157.43C97.6406 156.747 97.4948 156.237 97.2031 155.898C96.9115 155.555 96.4557 155.383 95.8359 155.383C95.0234 155.383 94.4271 155.628 94.0469 156.117C93.6719 156.602 93.4844 157.398 93.4844 158.508V163H92.1875V154.438H93.2422L93.4531 155.609H93.5156C93.7604 155.193 94.1042 154.867 94.5469 154.633C94.9948 154.398 95.4948 154.281 96.0469 154.281C97.3854 154.281 98.2604 154.766 98.6719 155.734H98.7344C98.9896 155.286 99.3594 154.932 99.8438 154.672C100.328 154.411 100.88 154.281 101.5 154.281C102.469 154.281 103.193 154.531 103.672 155.031C104.156 155.526 104.398 156.32 104.398 157.414V163H103.102ZM112.344 163L112.086 161.781H112.023C111.596 162.318 111.169 162.682 110.742 162.875C110.32 163.062 109.792 163.156 109.156 163.156C108.307 163.156 107.641 162.938 107.156 162.5C106.677 162.062 106.438 161.44 106.438 160.633C106.438 158.904 107.82 157.997 110.586 157.914L112.039 157.867V157.336C112.039 156.664 111.893 156.169 111.602 155.852C111.315 155.529 110.854 155.367 110.219 155.367C109.505 155.367 108.698 155.586 107.797 156.023L107.398 155.031C107.82 154.802 108.281 154.622 108.781 154.492C109.286 154.362 109.792 154.297 110.297 154.297C111.318 154.297 112.073 154.523 112.562 154.977C113.057 155.43 113.305 156.156 113.305 157.156V163H112.344ZM109.414 162.086C110.221 162.086 110.854 161.865 111.312 161.422C111.776 160.979 112.008 160.359 112.008 159.562V158.789L110.711 158.844C109.68 158.88 108.935 159.042 108.477 159.328C108.023 159.609 107.797 160.049 107.797 160.648C107.797 161.117 107.938 161.474 108.219 161.719C108.505 161.964 108.904 162.086 109.414 162.086ZM117.281 163H115.984V154.438H117.281V163ZM115.875 152.117C115.875 151.82 115.948 151.604 116.094 151.469C116.24 151.328 116.422 151.258 116.641 151.258C116.849 151.258 117.029 151.328 117.18 151.469C117.331 151.609 117.406 151.826 117.406 152.117C117.406 152.409 117.331 152.628 117.18 152.773C117.029 152.914 116.849 152.984 116.641 152.984C116.422 152.984 116.24 152.914 116.094 152.773C115.948 152.628 115.875 152.409 115.875 152.117ZM121.328 163H120.031V150.844H121.328V163ZM133.5 163L133.242 161.781H133.18C132.753 162.318 132.326 162.682 131.898 162.875C131.477 163.062 130.948 163.156 130.312 163.156C129.464 163.156 128.797 162.938 128.312 162.5C127.833 162.062 127.594 161.44 127.594 160.633C127.594 158.904 128.977 157.997 131.742 157.914L133.195 157.867V157.336C133.195 156.664 133.049 156.169 132.758 155.852C132.471 155.529 132.01 155.367 131.375 155.367C130.661 155.367 129.854 155.586 128.953 156.023L128.555 155.031C128.977 154.802 129.438 154.622 129.938 154.492C130.443 154.362 130.948 154.297 131.453 154.297C132.474 154.297 133.229 154.523 133.719 154.977C134.214 155.43 134.461 156.156 134.461 157.156V163H133.5ZM130.57 162.086C131.378 162.086 132.01 161.865 132.469 161.422C132.932 160.979 133.164 160.359 133.164 159.562V158.789L131.867 158.844C130.836 158.88 130.091 159.042 129.633 159.328C129.18 159.609 128.953 160.049 128.953 160.648C128.953 161.117 129.094 161.474 129.375 161.719C129.661 161.964 130.06 162.086 130.57 162.086ZM142.664 160.664C142.664 161.461 142.367 162.076 141.773 162.508C141.18 162.94 140.346 163.156 139.273 163.156C138.138 163.156 137.253 162.977 136.617 162.617V161.414C137.029 161.622 137.469 161.786 137.938 161.906C138.411 162.026 138.867 162.086 139.305 162.086C139.982 162.086 140.503 161.979 140.867 161.766C141.232 161.547 141.414 161.216 141.414 160.773C141.414 160.44 141.268 160.156 140.977 159.922C140.69 159.682 140.128 159.401 139.289 159.078C138.492 158.781 137.924 158.523 137.586 158.305C137.253 158.081 137.003 157.828 136.836 157.547C136.674 157.266 136.594 156.93 136.594 156.539C136.594 155.841 136.878 155.292 137.445 154.891C138.013 154.484 138.792 154.281 139.781 154.281C140.703 154.281 141.604 154.469 142.484 154.844L142.023 155.898C141.164 155.544 140.385 155.367 139.688 155.367C139.073 155.367 138.609 155.464 138.297 155.656C137.984 155.849 137.828 156.115 137.828 156.453C137.828 156.682 137.885 156.878 138 157.039C138.12 157.201 138.31 157.354 138.57 157.5C138.831 157.646 139.331 157.857 140.07 158.133C141.086 158.503 141.771 158.875 142.125 159.25C142.484 159.625 142.664 160.096 142.664 160.664ZM154.797 163V157.461C154.797 156.763 154.638 156.242 154.32 155.898C154.003 155.555 153.505 155.383 152.828 155.383C151.932 155.383 151.276 155.625 150.859 156.109C150.443 156.594 150.234 157.393 150.234 158.508V163H148.938V154.438H149.992L150.203 155.609H150.266C150.531 155.188 150.904 154.862 151.383 154.633C151.862 154.398 152.396 154.281 152.984 154.281C154.016 154.281 154.792 154.531 155.312 155.031C155.833 155.526 156.094 156.32 156.094 157.414V163H154.797ZM166.156 158.711C166.156 160.107 165.805 161.198 165.102 161.984C164.398 162.766 163.427 163.156 162.188 163.156C161.422 163.156 160.742 162.977 160.148 162.617C159.555 162.258 159.096 161.742 158.773 161.07C158.451 160.398 158.289 159.612 158.289 158.711C158.289 157.315 158.638 156.229 159.336 155.453C160.034 154.672 161.003 154.281 162.242 154.281C163.44 154.281 164.391 154.68 165.094 155.477C165.802 156.273 166.156 157.352 166.156 158.711ZM159.633 158.711C159.633 159.805 159.852 160.638 160.289 161.211C160.727 161.784 161.37 162.07 162.219 162.07C163.068 162.07 163.711 161.786 164.148 161.219C164.591 160.646 164.812 159.81 164.812 158.711C164.812 157.622 164.591 156.797 164.148 156.234C163.711 155.667 163.062 155.383 162.203 155.383C161.354 155.383 160.714 155.661 160.281 156.219C159.849 156.776 159.633 157.607 159.633 158.711ZM172.344 154.281C172.724 154.281 173.065 154.312 173.367 154.375L173.188 155.578C172.833 155.5 172.521 155.461 172.25 155.461C171.557 155.461 170.964 155.742 170.469 156.305C169.979 156.867 169.734 157.568 169.734 158.406V163H168.438V154.438H169.508L169.656 156.023H169.719C170.036 155.466 170.419 155.036 170.867 154.734C171.315 154.432 171.807 154.281 172.344 154.281ZM185.883 163V157.43C185.883 156.747 185.737 156.237 185.445 155.898C185.154 155.555 184.701 155.383 184.086 155.383C183.279 155.383 182.682 155.615 182.297 156.078C181.911 156.542 181.719 157.255 181.719 158.219V163H180.422V157.43C180.422 156.747 180.276 156.237 179.984 155.898C179.693 155.555 179.237 155.383 178.617 155.383C177.805 155.383 177.208 155.628 176.828 156.117C176.453 156.602 176.266 157.398 176.266 158.508V163H174.969V154.438H176.023L176.234 155.609H176.297C176.542 155.193 176.885 154.867 177.328 154.633C177.776 154.398 178.276 154.281 178.828 154.281C180.167 154.281 181.042 154.766 181.453 155.734H181.516C181.771 155.286 182.141 154.932 182.625 154.672C183.109 154.411 183.661 154.281 184.281 154.281C185.25 154.281 185.974 154.531 186.453 155.031C186.938 155.526 187.18 156.32 187.18 157.414V163H185.883ZM195.125 163L194.867 161.781H194.805C194.378 162.318 193.951 162.682 193.523 162.875C193.102 163.062 192.573 163.156 191.938 163.156C191.089 163.156 190.422 162.938 189.938 162.5C189.458 162.062 189.219 161.44 189.219 160.633C189.219 158.904 190.602 157.997 193.367 157.914L194.82 157.867V157.336C194.82 156.664 194.674 156.169 194.383 155.852C194.096 155.529 193.635 155.367 193 155.367C192.286 155.367 191.479 155.586 190.578 156.023L190.18 155.031C190.602 154.802 191.062 154.622 191.562 154.492C192.068 154.362 192.573 154.297 193.078 154.297C194.099 154.297 194.854 154.523 195.344 154.977C195.839 155.43 196.086 156.156 196.086 157.156V163H195.125ZM192.195 162.086C193.003 162.086 193.635 161.865 194.094 161.422C194.557 160.979 194.789 160.359 194.789 159.562V158.789L193.492 158.844C192.461 158.88 191.716 159.042 191.258 159.328C190.805 159.609 190.578 160.049 190.578 160.648C190.578 161.117 190.719 161.474 191 161.719C191.286 161.964 191.685 162.086 192.195 162.086ZM200.062 163H198.766V150.844H200.062V163Z" fill="#1F3161"/>
<path d="M62 52.8931C62 52.4241 62.3802 52.0439 62.8491 52.0439H153.151C153.62 52.0439 154 52.4241 154 52.8931V89.4617C154 96.4962 148.297 102.199 141.263 102.199H74.7371C67.7026 102.199 62 96.4962 62 89.4617V52.8931Z" stroke="#2C4584" stroke-width="3.39657" stroke-miterlimit="10" stroke-linecap="round" stroke-linejoin="round"/>
<rect x="69.8537" y="58.7758" width="76.2927" height="36.6915" fill="url(#paint0_linear)"/>
<path d="M78.1758 49.5165V2.84915C78.1758 2.38018 78.556 2 79.025 2H135.964C136.433 2 136.813 2.38017 136.813 2.84914V49.5165" stroke="#2C4584" stroke-width="3.39657" stroke-miterlimit="10" stroke-linecap="round" stroke-linejoin="round"/>
<path d="M62 53.1656L107.365 73.2063C107.587 73.3045 107.841 73.3028 108.062 73.2015L151.756 53.1656" stroke="#2C4584" stroke-width="3.39657" stroke-miterlimit="10" stroke-linecap="round" stroke-linejoin="round"/>
<path d="M88.9268 17.4854H97.9024" stroke="#2C4584" stroke-width="3.36585" stroke-miterlimit="10" stroke-linecap="round" stroke-linejoin="round"/>
<path d="M103.608 17.4854L125.471 17.4854" stroke="#50E6C5" stroke-width="3.36585" stroke-miterlimit="10" stroke-linecap="round" stroke-linejoin="round"/>
<path d="M125.686 27.5829H116.71" stroke="#2C4584" stroke-width="3.36585" stroke-miterlimit="10" stroke-linecap="round" stroke-linejoin="round"/>
<path d="M110.789 27.5829L88.9268 27.5829" stroke="#50E6C5" stroke-width="3.36585" stroke-miterlimit="10" stroke-linecap="round" stroke-linejoin="round"/>
<path d="M125.686 36.5586L88.6613 36.5586" stroke="#50E6C5" stroke-width="3.36585" stroke-miterlimit="10" stroke-linecap="round" stroke-linejoin="round"/>
<defs>
<linearGradient id="paint0_linear" x1="108" y1="58.7758" x2="107.999" y2="95.4204" gradientUnits="userSpaceOnUse">
<stop stop-color="#50E6C5"/>
<stop offset="1" stop-color="#00DDAC" stop-opacity="0"/>
</linearGradient>
</defs>
</svg>
