<svg width="277" height="300" viewBox="0 0 277 300" fill="none" xmlns="http://www.w3.org/2000/svg">
<path d="M5.64062 128V116.578H6.96875V126.797H12.0078V128H5.64062ZM14.9766 119.438V124.992C14.9766 125.69 15.1354 126.211 15.4531 126.555C15.7708 126.898 16.2682 127.07 16.9453 127.07C17.8411 127.07 18.4948 126.826 18.9062 126.336C19.3229 125.846 19.5312 125.047 19.5312 123.938V119.438H20.8281V128H19.7578L19.5703 126.852H19.5C19.2344 127.273 18.8646 127.596 18.3906 127.82C17.9219 128.044 17.3854 128.156 16.7812 128.156C15.7396 128.156 14.9583 127.909 14.4375 127.414C13.9219 126.919 13.6641 126.128 13.6641 125.039V119.438H14.9766ZM27.0078 128.156C25.7682 128.156 24.8073 127.776 24.125 127.016C23.4479 126.25 23.1094 125.169 23.1094 123.773C23.1094 122.341 23.4531 121.234 24.1406 120.453C24.8333 119.672 25.8177 119.281 27.0938 119.281C27.5052 119.281 27.9167 119.326 28.3281 119.414C28.7396 119.503 29.0625 119.607 29.2969 119.727L28.8984 120.828C28.612 120.714 28.2995 120.62 27.9609 120.547C27.6224 120.469 27.3229 120.43 27.0625 120.43C25.3229 120.43 24.4531 121.539 24.4531 123.758C24.4531 124.81 24.6641 125.617 25.0859 126.18C25.513 126.742 26.1432 127.023 26.9766 127.023C27.6901 127.023 28.4219 126.87 29.1719 126.562V127.711C28.599 128.008 27.8776 128.156 27.0078 128.156ZM36.4766 128L36.2188 126.781H36.1562C35.7292 127.318 35.3021 127.682 34.875 127.875C34.4531 128.062 33.9245 128.156 33.2891 128.156C32.4401 128.156 31.7734 127.938 31.2891 127.5C30.8099 127.062 30.5703 126.44 30.5703 125.633C30.5703 123.904 31.9531 122.997 34.7188 122.914L36.1719 122.867V122.336C36.1719 121.664 36.026 121.169 35.7344 120.852C35.4479 120.529 34.987 120.367 34.3516 120.367C33.638 120.367 32.8307 120.586 31.9297 121.023L31.5312 120.031C31.9531 119.802 32.4141 119.622 32.9141 119.492C33.4193 119.362 33.9245 119.297 34.4297 119.297C35.4505 119.297 36.2057 119.523 36.6953 119.977C37.1901 120.43 37.4375 121.156 37.4375 122.156V128H36.4766ZM33.5469 127.086C34.3542 127.086 34.987 126.865 35.4453 126.422C35.9089 125.979 36.1406 125.359 36.1406 124.562V123.789L34.8438 123.844C33.8125 123.88 33.0677 124.042 32.6094 124.328C32.1562 124.609 31.9297 125.049 31.9297 125.648C31.9297 126.117 32.0703 126.474 32.3516 126.719C32.638 126.964 33.0365 127.086 33.5469 127.086ZM47.5547 119.906C47.5547 121.062 47.1589 121.953 46.3672 122.578C45.5807 123.198 44.4531 123.508 42.9844 123.508H41.6406V128H40.3125V116.578H43.2734C46.1276 116.578 47.5547 117.688 47.5547 119.906ZM41.6406 122.367H42.8359C44.013 122.367 44.8646 122.177 45.3906 121.797C45.9167 121.417 46.1797 120.807 46.1797 119.969C46.1797 119.214 45.9323 118.651 45.4375 118.281C44.9427 117.911 44.1719 117.727 43.125 117.727H41.6406V122.367ZM51.0547 128H49.7578V115.844H51.0547V128ZM55.0234 119.438V124.992C55.0234 125.69 55.1823 126.211 55.5 126.555C55.8177 126.898 56.3151 127.07 56.9922 127.07C57.888 127.07 58.5417 126.826 58.9531 126.336C59.3698 125.846 59.5781 125.047 59.5781 123.938V119.438H60.875V128H59.8047L59.6172 126.852H59.5469C59.2812 127.273 58.9115 127.596 58.4375 127.82C57.9688 128.044 57.4323 128.156 56.8281 128.156C55.7865 128.156 55.0052 127.909 54.4844 127.414C53.9688 126.919 53.7109 126.128 53.7109 125.039V119.438H55.0234ZM69.1562 125.664C69.1562 126.461 68.8594 127.076 68.2656 127.508C67.6719 127.94 66.8385 128.156 65.7656 128.156C64.6302 128.156 63.7448 127.977 63.1094 127.617V126.414C63.5208 126.622 63.9609 126.786 64.4297 126.906C64.9036 127.026 65.3594 127.086 65.7969 127.086C66.474 127.086 66.9948 126.979 67.3594 126.766C67.724 126.547 67.9062 126.216 67.9062 125.773C67.9062 125.44 67.7604 125.156 67.4688 124.922C67.1823 124.682 66.6198 124.401 65.7812 124.078C64.9844 123.781 64.4167 123.523 64.0781 123.305C63.7448 123.081 63.4948 122.828 63.3281 122.547C63.1667 122.266 63.0859 121.93 63.0859 121.539C63.0859 120.841 63.3698 120.292 63.9375 119.891C64.5052 119.484 65.2839 119.281 66.2734 119.281C67.1953 119.281 68.0964 119.469 68.9766 119.844L68.5156 120.898C67.6562 120.544 66.8776 120.367 66.1797 120.367C65.5651 120.367 65.1016 120.464 64.7891 120.656C64.4766 120.849 64.3203 121.115 64.3203 121.453C64.3203 121.682 64.3776 121.878 64.4922 122.039C64.612 122.201 64.8021 122.354 65.0625 122.5C65.3229 122.646 65.8229 122.857 66.5625 123.133C67.5781 123.503 68.263 123.875 68.6172 124.25C68.9766 124.625 69.1562 125.096 69.1562 125.664ZM76.6484 119.438V124.992C76.6484 125.69 76.8073 126.211 77.125 126.555C77.4427 126.898 77.9401 127.07 78.6172 127.07C79.513 127.07 80.1667 126.826 80.5781 126.336C80.9948 125.846 81.2031 125.047 81.2031 123.938V119.438H82.5V128H81.4297L81.2422 126.852H81.1719C80.9062 127.273 80.5365 127.596 80.0625 127.82C79.5938 128.044 79.0573 128.156 78.4531 128.156C77.4115 128.156 76.6302 127.909 76.1094 127.414C75.5938 126.919 75.3359 126.128 75.3359 125.039V119.438H76.6484ZM89.2422 128.156C88.6849 128.156 88.1745 128.055 87.7109 127.852C87.2526 127.643 86.8672 127.326 86.5547 126.898H86.4609C86.5234 127.398 86.5547 127.872 86.5547 128.32V131.844H85.2578V119.438H86.3125L86.4922 120.609H86.5547C86.888 120.141 87.276 119.802 87.7188 119.594C88.1615 119.385 88.6693 119.281 89.2422 119.281C90.3776 119.281 91.2526 119.669 91.8672 120.445C92.487 121.221 92.7969 122.31 92.7969 123.711C92.7969 125.117 92.4818 126.211 91.8516 126.992C91.2266 127.768 90.3568 128.156 89.2422 128.156ZM89.0547 120.383C88.1797 120.383 87.5469 120.625 87.1562 121.109C86.7656 121.594 86.5651 122.365 86.5547 123.422V123.711C86.5547 124.914 86.7552 125.776 87.1562 126.297C87.5573 126.812 88.2005 127.07 89.0859 127.07C89.8255 127.07 90.4036 126.771 90.8203 126.172C91.2422 125.573 91.4531 124.747 91.4531 123.695C91.4531 122.628 91.2422 121.81 90.8203 121.242C90.4036 120.669 89.8151 120.383 89.0547 120.383ZM100.898 126.852H100.828C100.229 127.721 99.3333 128.156 98.1406 128.156C97.0208 128.156 96.1484 127.773 95.5234 127.008C94.9036 126.242 94.5938 125.154 94.5938 123.742C94.5938 122.331 94.9062 121.234 95.5312 120.453C96.1562 119.672 97.026 119.281 98.1406 119.281C99.3021 119.281 100.193 119.703 100.812 120.547H100.914L100.859 119.93L100.828 119.328V115.844H102.125V128H101.07L100.898 126.852ZM98.3047 127.07C99.1901 127.07 99.8307 126.831 100.227 126.352C100.628 125.867 100.828 125.089 100.828 124.016V123.742C100.828 122.529 100.625 121.664 100.219 121.148C99.8177 120.628 99.1745 120.367 98.2891 120.367C97.5286 120.367 96.9453 120.664 96.5391 121.258C96.138 121.846 95.9375 122.68 95.9375 123.758C95.9375 124.852 96.138 125.677 96.5391 126.234C96.9401 126.792 97.5286 127.07 98.3047 127.07ZM110.148 128L109.891 126.781H109.828C109.401 127.318 108.974 127.682 108.547 127.875C108.125 128.062 107.596 128.156 106.961 128.156C106.112 128.156 105.445 127.938 104.961 127.5C104.482 127.062 104.242 126.44 104.242 125.633C104.242 123.904 105.625 122.997 108.391 122.914L109.844 122.867V122.336C109.844 121.664 109.698 121.169 109.406 120.852C109.12 120.529 108.659 120.367 108.023 120.367C107.31 120.367 106.503 120.586 105.602 121.023L105.203 120.031C105.625 119.802 106.086 119.622 106.586 119.492C107.091 119.362 107.596 119.297 108.102 119.297C109.122 119.297 109.878 119.523 110.367 119.977C110.862 120.43 111.109 121.156 111.109 122.156V128H110.148ZM107.219 127.086C108.026 127.086 108.659 126.865 109.117 126.422C109.581 125.979 109.812 125.359 109.812 124.562V123.789L108.516 123.844C107.484 123.88 106.74 124.042 106.281 124.328C105.828 124.609 105.602 125.049 105.602 125.648C105.602 126.117 105.742 126.474 106.023 126.719C106.31 126.964 106.708 127.086 107.219 127.086ZM116.555 127.086C116.784 127.086 117.005 127.07 117.219 127.039C117.432 127.003 117.602 126.966 117.727 126.93V127.922C117.586 127.99 117.378 128.044 117.102 128.086C116.831 128.133 116.586 128.156 116.367 128.156C114.711 128.156 113.883 127.284 113.883 125.539V120.445H112.656V119.82L113.883 119.281L114.43 117.453H115.18V119.438H117.664V120.445H115.18V125.484C115.18 126 115.302 126.396 115.547 126.672C115.792 126.948 116.128 127.086 116.555 127.086ZM123.062 128.156C121.797 128.156 120.797 127.771 120.062 127C119.333 126.229 118.969 125.159 118.969 123.789C118.969 122.409 119.307 121.312 119.984 120.5C120.667 119.688 121.581 119.281 122.727 119.281C123.799 119.281 124.648 119.635 125.273 120.344C125.898 121.047 126.211 121.977 126.211 123.133V123.953H120.312C120.339 124.958 120.591 125.721 121.07 126.242C121.555 126.763 122.234 127.023 123.109 127.023C124.031 127.023 124.943 126.831 125.844 126.445V127.602C125.385 127.799 124.951 127.94 124.539 128.023C124.133 128.112 123.641 128.156 123.062 128.156ZM122.711 120.367C122.023 120.367 121.474 120.591 121.062 121.039C120.656 121.487 120.417 122.107 120.344 122.898H124.82C124.82 122.081 124.638 121.456 124.273 121.023C123.909 120.586 123.388 120.367 122.711 120.367ZM133.953 125.664C133.953 126.461 133.656 127.076 133.062 127.508C132.469 127.94 131.635 128.156 130.562 128.156C129.427 128.156 128.542 127.977 127.906 127.617V126.414C128.318 126.622 128.758 126.786 129.227 126.906C129.701 127.026 130.156 127.086 130.594 127.086C131.271 127.086 131.792 126.979 132.156 126.766C132.521 126.547 132.703 126.216 132.703 125.773C132.703 125.44 132.557 125.156 132.266 124.922C131.979 124.682 131.417 124.401 130.578 124.078C129.781 123.781 129.214 123.523 128.875 123.305C128.542 123.081 128.292 122.828 128.125 122.547C127.964 122.266 127.883 121.93 127.883 121.539C127.883 120.841 128.167 120.292 128.734 119.891C129.302 119.484 130.081 119.281 131.07 119.281C131.992 119.281 132.893 119.469 133.773 119.844L133.312 120.898C132.453 120.544 131.674 120.367 130.977 120.367C130.362 120.367 129.898 120.464 129.586 120.656C129.273 120.849 129.117 121.115 129.117 121.453C129.117 121.682 129.174 121.878 129.289 122.039C129.409 122.201 129.599 122.354 129.859 122.5C130.12 122.646 130.62 122.857 131.359 123.133C132.375 123.503 133.06 123.875 133.414 124.25C133.773 124.625 133.953 125.096 133.953 125.664ZM145.492 128L145.234 126.781H145.172C144.745 127.318 144.318 127.682 143.891 127.875C143.469 128.062 142.94 128.156 142.305 128.156C141.456 128.156 140.789 127.938 140.305 127.5C139.826 127.062 139.586 126.44 139.586 125.633C139.586 123.904 140.969 122.997 143.734 122.914L145.188 122.867V122.336C145.188 121.664 145.042 121.169 144.75 120.852C144.464 120.529 144.003 120.367 143.367 120.367C142.654 120.367 141.846 120.586 140.945 121.023L140.547 120.031C140.969 119.802 141.43 119.622 141.93 119.492C142.435 119.362 142.94 119.297 143.445 119.297C144.466 119.297 145.221 119.523 145.711 119.977C146.206 120.43 146.453 121.156 146.453 122.156V128H145.492ZM142.562 127.086C143.37 127.086 144.003 126.865 144.461 126.422C144.924 125.979 145.156 125.359 145.156 124.562V123.789L143.859 123.844C142.828 123.88 142.083 124.042 141.625 124.328C141.172 124.609 140.945 125.049 140.945 125.648C140.945 126.117 141.086 126.474 141.367 126.719C141.654 126.964 142.052 127.086 142.562 127.086ZM150.43 128H149.133V115.844H150.43V128ZM154.477 128H153.18V115.844H154.477V128ZM164.148 127.086C164.378 127.086 164.599 127.07 164.812 127.039C165.026 127.003 165.195 126.966 165.32 126.93V127.922C165.18 127.99 164.971 128.044 164.695 128.086C164.424 128.133 164.18 128.156 163.961 128.156C162.305 128.156 161.477 127.284 161.477 125.539V120.445H160.25V119.82L161.477 119.281L162.023 117.453H162.773V119.438H165.258V120.445H162.773V125.484C162.773 126 162.896 126.396 163.141 126.672C163.385 126.948 163.721 127.086 164.148 127.086ZM172.898 128V122.461C172.898 121.763 172.74 121.242 172.422 120.898C172.104 120.555 171.607 120.383 170.93 120.383C170.029 120.383 169.37 120.628 168.953 121.117C168.542 121.607 168.336 122.409 168.336 123.523V128H167.039V115.844H168.336V119.523C168.336 119.966 168.315 120.333 168.273 120.625H168.352C168.607 120.214 168.969 119.891 169.438 119.656C169.911 119.417 170.451 119.297 171.055 119.297C172.102 119.297 172.885 119.547 173.406 120.047C173.932 120.542 174.195 121.331 174.195 122.414V128H172.898ZM180.484 128.156C179.219 128.156 178.219 127.771 177.484 127C176.755 126.229 176.391 125.159 176.391 123.789C176.391 122.409 176.729 121.312 177.406 120.5C178.089 119.688 179.003 119.281 180.148 119.281C181.221 119.281 182.07 119.635 182.695 120.344C183.32 121.047 183.633 121.977 183.633 123.133V123.953H177.734C177.76 124.958 178.013 125.721 178.492 126.242C178.977 126.763 179.656 127.023 180.531 127.023C181.453 127.023 182.365 126.831 183.266 126.445V127.602C182.807 127.799 182.372 127.94 181.961 128.023C181.555 128.112 181.062 128.156 180.484 128.156ZM180.133 120.367C179.445 120.367 178.896 120.591 178.484 121.039C178.078 121.487 177.839 122.107 177.766 122.898H182.242C182.242 122.081 182.06 121.456 181.695 121.023C181.331 120.586 180.81 120.367 180.133 120.367ZM192.773 127.086C193.003 127.086 193.224 127.07 193.438 127.039C193.651 127.003 193.82 126.966 193.945 126.93V127.922C193.805 127.99 193.596 128.044 193.32 128.086C193.049 128.133 192.805 128.156 192.586 128.156C190.93 128.156 190.102 127.284 190.102 125.539V120.445H188.875V119.82L190.102 119.281L190.648 117.453H191.398V119.438H193.883V120.445H191.398V125.484C191.398 126 191.521 126.396 191.766 126.672C192.01 126.948 192.346 127.086 192.773 127.086ZM199.57 119.281C199.951 119.281 200.292 119.312 200.594 119.375L200.414 120.578C200.06 120.5 199.747 120.461 199.477 120.461C198.784 120.461 198.19 120.742 197.695 121.305C197.206 121.867 196.961 122.568 196.961 123.406V128H195.664V119.438H196.734L196.883 121.023H196.945C197.263 120.466 197.646 120.036 198.094 119.734C198.542 119.432 199.034 119.281 199.57 119.281ZM207.461 128L207.203 126.781H207.141C206.714 127.318 206.286 127.682 205.859 127.875C205.438 128.062 204.909 128.156 204.273 128.156C203.424 128.156 202.758 127.938 202.273 127.5C201.794 127.062 201.555 126.44 201.555 125.633C201.555 123.904 202.938 122.997 205.703 122.914L207.156 122.867V122.336C207.156 121.664 207.01 121.169 206.719 120.852C206.432 120.529 205.971 120.367 205.336 120.367C204.622 120.367 203.815 120.586 202.914 121.023L202.516 120.031C202.938 119.802 203.398 119.622 203.898 119.492C204.404 119.362 204.909 119.297 205.414 119.297C206.435 119.297 207.19 119.523 207.68 119.977C208.174 120.43 208.422 121.156 208.422 122.156V128H207.461ZM204.531 127.086C205.339 127.086 205.971 126.865 206.43 126.422C206.893 125.979 207.125 125.359 207.125 124.562V123.789L205.828 123.844C204.797 123.88 204.052 124.042 203.594 124.328C203.141 124.609 202.914 125.049 202.914 125.648C202.914 126.117 203.055 126.474 203.336 126.719C203.622 126.964 204.021 127.086 204.531 127.086ZM216.961 128V122.461C216.961 121.763 216.802 121.242 216.484 120.898C216.167 120.555 215.669 120.383 214.992 120.383C214.096 120.383 213.44 120.625 213.023 121.109C212.607 121.594 212.398 122.393 212.398 123.508V128H211.102V119.438H212.156L212.367 120.609H212.43C212.695 120.188 213.068 119.862 213.547 119.633C214.026 119.398 214.56 119.281 215.148 119.281C216.18 119.281 216.956 119.531 217.477 120.031C217.997 120.526 218.258 121.32 218.258 122.414V128H216.961ZM226.453 125.664C226.453 126.461 226.156 127.076 225.562 127.508C224.969 127.94 224.135 128.156 223.062 128.156C221.927 128.156 221.042 127.977 220.406 127.617V126.414C220.818 126.622 221.258 126.786 221.727 126.906C222.201 127.026 222.656 127.086 223.094 127.086C223.771 127.086 224.292 126.979 224.656 126.766C225.021 126.547 225.203 126.216 225.203 125.773C225.203 125.44 225.057 125.156 224.766 124.922C224.479 124.682 223.917 124.401 223.078 124.078C222.281 123.781 221.714 123.523 221.375 123.305C221.042 123.081 220.792 122.828 220.625 122.547C220.464 122.266 220.383 121.93 220.383 121.539C220.383 120.841 220.667 120.292 221.234 119.891C221.802 119.484 222.581 119.281 223.57 119.281C224.492 119.281 225.393 119.469 226.273 119.844L225.812 120.898C224.953 120.544 224.174 120.367 223.477 120.367C222.862 120.367 222.398 120.464 222.086 120.656C221.773 120.849 221.617 121.115 221.617 121.453C221.617 121.682 221.674 121.878 221.789 122.039C221.909 122.201 222.099 122.354 222.359 122.5C222.62 122.646 223.12 122.857 223.859 123.133C224.875 123.503 225.56 123.875 225.914 124.25C226.273 124.625 226.453 125.096 226.453 125.664ZM233.836 128L233.578 126.781H233.516C233.089 127.318 232.661 127.682 232.234 127.875C231.812 128.062 231.284 128.156 230.648 128.156C229.799 128.156 229.133 127.938 228.648 127.5C228.169 127.062 227.93 126.44 227.93 125.633C227.93 123.904 229.312 122.997 232.078 122.914L233.531 122.867V122.336C233.531 121.664 233.385 121.169 233.094 120.852C232.807 120.529 232.346 120.367 231.711 120.367C230.997 120.367 230.19 120.586 229.289 121.023L228.891 120.031C229.312 119.802 229.773 119.622 230.273 119.492C230.779 119.362 231.284 119.297 231.789 119.297C232.81 119.297 233.565 119.523 234.055 119.977C234.549 120.43 234.797 121.156 234.797 122.156V128H233.836ZM230.906 127.086C231.714 127.086 232.346 126.865 232.805 126.422C233.268 125.979 233.5 125.359 233.5 124.562V123.789L232.203 123.844C231.172 123.88 230.427 124.042 229.969 124.328C229.516 124.609 229.289 125.049 229.289 125.648C229.289 126.117 229.43 126.474 229.711 126.719C229.997 126.964 230.396 127.086 230.906 127.086ZM240.898 128.156C239.659 128.156 238.698 127.776 238.016 127.016C237.339 126.25 237 125.169 237 123.773C237 122.341 237.344 121.234 238.031 120.453C238.724 119.672 239.708 119.281 240.984 119.281C241.396 119.281 241.807 119.326 242.219 119.414C242.63 119.503 242.953 119.607 243.188 119.727L242.789 120.828C242.503 120.714 242.19 120.62 241.852 120.547C241.513 120.469 241.214 120.43 240.953 120.43C239.214 120.43 238.344 121.539 238.344 123.758C238.344 124.81 238.555 125.617 238.977 126.18C239.404 126.742 240.034 127.023 240.867 127.023C241.581 127.023 242.312 126.87 243.062 126.562V127.711C242.49 128.008 241.768 128.156 240.898 128.156ZM247.867 127.086C248.096 127.086 248.318 127.07 248.531 127.039C248.745 127.003 248.914 126.966 249.039 126.93V127.922C248.898 127.99 248.69 128.044 248.414 128.086C248.143 128.133 247.898 128.156 247.68 128.156C246.023 128.156 245.195 127.284 245.195 125.539V120.445H243.969V119.82L245.195 119.281L245.742 117.453H246.492V119.438H248.977V120.445H246.492V125.484C246.492 126 246.615 126.396 246.859 126.672C247.104 126.948 247.44 127.086 247.867 127.086ZM252.055 128H250.758V119.438H252.055V128ZM250.648 117.117C250.648 116.82 250.721 116.604 250.867 116.469C251.013 116.328 251.195 116.258 251.414 116.258C251.622 116.258 251.802 116.328 251.953 116.469C252.104 116.609 252.18 116.826 252.18 117.117C252.18 117.409 252.104 117.628 251.953 117.773C251.802 117.914 251.622 117.984 251.414 117.984C251.195 117.984 251.013 117.914 250.867 117.773C250.721 117.628 250.648 117.409 250.648 117.117ZM262.195 123.711C262.195 125.107 261.844 126.198 261.141 126.984C260.438 127.766 259.466 128.156 258.227 128.156C257.461 128.156 256.781 127.977 256.188 127.617C255.594 127.258 255.135 126.742 254.812 126.07C254.49 125.398 254.328 124.612 254.328 123.711C254.328 122.315 254.677 121.229 255.375 120.453C256.073 119.672 257.042 119.281 258.281 119.281C259.479 119.281 260.43 119.68 261.133 120.477C261.841 121.273 262.195 122.352 262.195 123.711ZM255.672 123.711C255.672 124.805 255.891 125.638 256.328 126.211C256.766 126.784 257.409 127.07 258.258 127.07C259.107 127.07 259.75 126.786 260.188 126.219C260.63 125.646 260.852 124.81 260.852 123.711C260.852 122.622 260.63 121.797 260.188 121.234C259.75 120.667 259.102 120.383 258.242 120.383C257.393 120.383 256.753 120.661 256.32 121.219C255.888 121.776 255.672 122.607 255.672 123.711ZM270.336 128V122.461C270.336 121.763 270.177 121.242 269.859 120.898C269.542 120.555 269.044 120.383 268.367 120.383C267.471 120.383 266.815 120.625 266.398 121.109C265.982 121.594 265.773 122.393 265.773 123.508V128H264.477V119.438H265.531L265.742 120.609H265.805C266.07 120.188 266.443 119.862 266.922 119.633C267.401 119.398 267.935 119.281 268.523 119.281C269.555 119.281 270.331 119.531 270.852 120.031C271.372 120.526 271.633 121.32 271.633 122.414V128H270.336ZM40.4688 150.852H40.3984C39.7995 151.721 38.9036 152.156 37.7109 152.156C36.5911 152.156 35.7188 151.773 35.0938 151.008C34.474 150.242 34.1641 149.154 34.1641 147.742C34.1641 146.331 34.4766 145.234 35.1016 144.453C35.7266 143.672 36.5964 143.281 37.7109 143.281C38.8724 143.281 39.763 143.703 40.3828 144.547H40.4844L40.4297 143.93L40.3984 143.328V139.844H41.6953V152H40.6406L40.4688 150.852ZM37.875 151.07C38.7604 151.07 39.401 150.831 39.7969 150.352C40.1979 149.867 40.3984 149.089 40.3984 148.016V147.742C40.3984 146.529 40.1953 145.664 39.7891 145.148C39.388 144.628 38.7448 144.367 37.8594 144.367C37.099 144.367 36.5156 144.664 36.1094 145.258C35.7083 145.846 35.5078 146.68 35.5078 147.758C35.5078 148.852 35.7083 149.677 36.1094 150.234C36.5104 150.792 37.099 151.07 37.875 151.07ZM48.0703 152.156C46.8047 152.156 45.8047 151.771 45.0703 151C44.3411 150.229 43.9766 149.159 43.9766 147.789C43.9766 146.409 44.3151 145.312 44.9922 144.5C45.6745 143.688 46.5885 143.281 47.7344 143.281C48.8073 143.281 49.6562 143.635 50.2812 144.344C50.9062 145.047 51.2188 145.977 51.2188 147.133V147.953H45.3203C45.3464 148.958 45.599 149.721 46.0781 150.242C46.5625 150.763 47.2422 151.023 48.1172 151.023C49.0391 151.023 49.9505 150.831 50.8516 150.445V151.602C50.3932 151.799 49.9583 151.94 49.5469 152.023C49.1406 152.112 48.6484 152.156 48.0703 152.156ZM47.7188 144.367C47.0312 144.367 46.4818 144.591 46.0703 145.039C45.6641 145.487 45.4245 146.107 45.3516 146.898H49.8281C49.8281 146.081 49.6458 145.456 49.2812 145.023C48.9167 144.586 48.3958 144.367 47.7188 144.367ZM56.2031 151.086C56.4323 151.086 56.6536 151.07 56.8672 151.039C57.0807 151.003 57.25 150.966 57.375 150.93V151.922C57.2344 151.99 57.026 152.044 56.75 152.086C56.4792 152.133 56.2344 152.156 56.0156 152.156C54.3594 152.156 53.5312 151.284 53.5312 149.539V144.445H52.3047V143.82L53.5312 143.281L54.0781 141.453H54.8281V143.438H57.3125V144.445H54.8281V149.484C54.8281 150 54.9505 150.396 55.1953 150.672C55.4401 150.948 55.776 151.086 56.2031 151.086ZM64.3594 152L64.1016 150.781H64.0391C63.612 151.318 63.1849 151.682 62.7578 151.875C62.3359 152.062 61.8073 152.156 61.1719 152.156C60.3229 152.156 59.6562 151.938 59.1719 151.5C58.6927 151.062 58.4531 150.44 58.4531 149.633C58.4531 147.904 59.8359 146.997 62.6016 146.914L64.0547 146.867V146.336C64.0547 145.664 63.9089 145.169 63.6172 144.852C63.3307 144.529 62.8698 144.367 62.2344 144.367C61.5208 144.367 60.7135 144.586 59.8125 145.023L59.4141 144.031C59.8359 143.802 60.2969 143.622 60.7969 143.492C61.3021 143.362 61.8073 143.297 62.3125 143.297C63.3333 143.297 64.0885 143.523 64.5781 143.977C65.0729 144.43 65.3203 145.156 65.3203 146.156V152H64.3594ZM61.4297 151.086C62.237 151.086 62.8698 150.865 63.3281 150.422C63.7917 149.979 64.0234 149.359 64.0234 148.562V147.789L62.7266 147.844C61.6953 147.88 60.9505 148.042 60.4922 148.328C60.0391 148.609 59.8125 149.049 59.8125 149.648C59.8125 150.117 59.9531 150.474 60.2344 150.719C60.5208 150.964 60.9193 151.086 61.4297 151.086ZM69.2969 152H68V143.438H69.2969V152ZM67.8906 141.117C67.8906 140.82 67.9635 140.604 68.1094 140.469C68.2552 140.328 68.4375 140.258 68.6562 140.258C68.8646 140.258 69.0443 140.328 69.1953 140.469C69.3464 140.609 69.4219 140.826 69.4219 141.117C69.4219 141.409 69.3464 141.628 69.1953 141.773C69.0443 141.914 68.8646 141.984 68.6562 141.984C68.4375 141.984 68.2552 141.914 68.1094 141.773C67.9635 141.628 67.8906 141.409 67.8906 141.117ZM73.3438 152H72.0469V139.844H73.3438V152ZM81.6172 149.664C81.6172 150.461 81.3203 151.076 80.7266 151.508C80.1328 151.94 79.2995 152.156 78.2266 152.156C77.0911 152.156 76.2057 151.977 75.5703 151.617V150.414C75.9818 150.622 76.4219 150.786 76.8906 150.906C77.3646 151.026 77.8203 151.086 78.2578 151.086C78.9349 151.086 79.4557 150.979 79.8203 150.766C80.1849 150.547 80.3672 150.216 80.3672 149.773C80.3672 149.44 80.2214 149.156 79.9297 148.922C79.6432 148.682 79.0807 148.401 78.2422 148.078C77.4453 147.781 76.8776 147.523 76.5391 147.305C76.2057 147.081 75.9557 146.828 75.7891 146.547C75.6276 146.266 75.5469 145.93 75.5469 145.539C75.5469 144.841 75.8307 144.292 76.3984 143.891C76.9661 143.484 77.7448 143.281 78.7344 143.281C79.6562 143.281 80.5573 143.469 81.4375 143.844L80.9766 144.898C80.1172 144.544 79.3385 144.367 78.6406 144.367C78.026 144.367 77.5625 144.464 77.25 144.656C76.9375 144.849 76.7812 145.115 76.7812 145.453C76.7812 145.682 76.8385 145.878 76.9531 146.039C77.0729 146.201 77.263 146.354 77.5234 146.5C77.7839 146.646 78.2839 146.857 79.0234 147.133C80.0391 147.503 80.724 147.875 81.0781 148.25C81.4375 148.625 81.6172 149.096 81.6172 149.664ZM93.1562 152L92.8984 150.781H92.8359C92.4089 151.318 91.9818 151.682 91.5547 151.875C91.1328 152.062 90.6042 152.156 89.9688 152.156C89.1198 152.156 88.4531 151.938 87.9688 151.5C87.4896 151.062 87.25 150.44 87.25 149.633C87.25 147.904 88.6328 146.997 91.3984 146.914L92.8516 146.867V146.336C92.8516 145.664 92.7057 145.169 92.4141 144.852C92.1276 144.529 91.6667 144.367 91.0312 144.367C90.3177 144.367 89.5104 144.586 88.6094 145.023L88.2109 144.031C88.6328 143.802 89.0938 143.622 89.5938 143.492C90.099 143.362 90.6042 143.297 91.1094 143.297C92.1302 143.297 92.8854 143.523 93.375 143.977C93.8698 144.43 94.1172 145.156 94.1172 146.156V152H93.1562ZM90.2266 151.086C91.0339 151.086 91.6667 150.865 92.125 150.422C92.5885 149.979 92.8203 149.359 92.8203 148.562V147.789L91.5234 147.844C90.4922 147.88 89.7474 148.042 89.2891 148.328C88.8359 148.609 88.6094 149.049 88.6094 149.648C88.6094 150.117 88.75 150.474 89.0312 150.719C89.3177 150.964 89.7161 151.086 90.2266 151.086ZM98.0156 143.438V148.992C98.0156 149.69 98.1745 150.211 98.4922 150.555C98.8099 150.898 99.3073 151.07 99.9844 151.07C100.88 151.07 101.534 150.826 101.945 150.336C102.362 149.846 102.57 149.047 102.57 147.938V143.438H103.867V152H102.797L102.609 150.852H102.539C102.273 151.273 101.904 151.596 101.43 151.82C100.961 152.044 100.424 152.156 99.8203 152.156C98.7786 152.156 97.9974 151.909 97.4766 151.414C96.9609 150.919 96.7031 150.128 96.7031 149.039V143.438H98.0156ZM109.391 151.086C109.62 151.086 109.841 151.07 110.055 151.039C110.268 151.003 110.438 150.966 110.562 150.93V151.922C110.422 151.99 110.214 152.044 109.938 152.086C109.667 152.133 109.422 152.156 109.203 152.156C107.547 152.156 106.719 151.284 106.719 149.539V144.445H105.492V143.82L106.719 143.281L107.266 141.453H108.016V143.438H110.5V144.445H108.016V149.484C108.016 150 108.138 150.396 108.383 150.672C108.628 150.948 108.964 151.086 109.391 151.086ZM119.672 147.711C119.672 149.107 119.32 150.198 118.617 150.984C117.914 151.766 116.943 152.156 115.703 152.156C114.938 152.156 114.258 151.977 113.664 151.617C113.07 151.258 112.612 150.742 112.289 150.07C111.966 149.398 111.805 148.612 111.805 147.711C111.805 146.315 112.154 145.229 112.852 144.453C113.549 143.672 114.518 143.281 115.758 143.281C116.956 143.281 117.906 143.68 118.609 144.477C119.318 145.273 119.672 146.352 119.672 147.711ZM113.148 147.711C113.148 148.805 113.367 149.638 113.805 150.211C114.242 150.784 114.885 151.07 115.734 151.07C116.583 151.07 117.227 150.786 117.664 150.219C118.107 149.646 118.328 148.81 118.328 147.711C118.328 146.622 118.107 145.797 117.664 145.234C117.227 144.667 116.578 144.383 115.719 144.383C114.87 144.383 114.229 144.661 113.797 145.219C113.365 145.776 113.148 146.607 113.148 147.711ZM132.867 152V146.43C132.867 145.747 132.721 145.237 132.43 144.898C132.138 144.555 131.685 144.383 131.07 144.383C130.263 144.383 129.667 144.615 129.281 145.078C128.896 145.542 128.703 146.255 128.703 147.219V152H127.406V146.43C127.406 145.747 127.26 145.237 126.969 144.898C126.677 144.555 126.221 144.383 125.602 144.383C124.789 144.383 124.193 144.628 123.812 145.117C123.438 145.602 123.25 146.398 123.25 147.508V152H121.953V143.438H123.008L123.219 144.609H123.281C123.526 144.193 123.87 143.867 124.312 143.633C124.76 143.398 125.26 143.281 125.812 143.281C127.151 143.281 128.026 143.766 128.438 144.734H128.5C128.755 144.286 129.125 143.932 129.609 143.672C130.094 143.411 130.646 143.281 131.266 143.281C132.234 143.281 132.958 143.531 133.438 144.031C133.922 144.526 134.164 145.32 134.164 146.414V152H132.867ZM142.109 152L141.852 150.781H141.789C141.362 151.318 140.935 151.682 140.508 151.875C140.086 152.062 139.557 152.156 138.922 152.156C138.073 152.156 137.406 151.938 136.922 151.5C136.443 151.062 136.203 150.44 136.203 149.633C136.203 147.904 137.586 146.997 140.352 146.914L141.805 146.867V146.336C141.805 145.664 141.659 145.169 141.367 144.852C141.081 144.529 140.62 144.367 139.984 144.367C139.271 144.367 138.464 144.586 137.562 145.023L137.164 144.031C137.586 143.802 138.047 143.622 138.547 143.492C139.052 143.362 139.557 143.297 140.062 143.297C141.083 143.297 141.839 143.523 142.328 143.977C142.823 144.43 143.07 145.156 143.07 146.156V152H142.109ZM139.18 151.086C139.987 151.086 140.62 150.865 141.078 150.422C141.542 149.979 141.773 149.359 141.773 148.562V147.789L140.477 147.844C139.445 147.88 138.701 148.042 138.242 148.328C137.789 148.609 137.562 149.049 137.562 149.648C137.562 150.117 137.703 150.474 137.984 150.719C138.271 150.964 138.669 151.086 139.18 151.086ZM148.516 151.086C148.745 151.086 148.966 151.07 149.18 151.039C149.393 151.003 149.562 150.966 149.688 150.93V151.922C149.547 151.99 149.339 152.044 149.062 152.086C148.792 152.133 148.547 152.156 148.328 152.156C146.672 152.156 145.844 151.284 145.844 149.539V144.445H144.617V143.82L145.844 143.281L146.391 141.453H147.141V143.438H149.625V144.445H147.141V149.484C147.141 150 147.263 150.396 147.508 150.672C147.753 150.948 148.089 151.086 148.516 151.086ZM152.703 152H151.406V143.438H152.703V152ZM151.297 141.117C151.297 140.82 151.37 140.604 151.516 140.469C151.661 140.328 151.844 140.258 152.062 140.258C152.271 140.258 152.451 140.328 152.602 140.469C152.753 140.609 152.828 140.826 152.828 141.117C152.828 141.409 152.753 141.628 152.602 141.773C152.451 141.914 152.271 141.984 152.062 141.984C151.844 141.984 151.661 141.914 151.516 141.773C151.37 141.628 151.297 141.409 151.297 141.117ZM158.875 152.156C157.635 152.156 156.674 151.776 155.992 151.016C155.315 150.25 154.977 149.169 154.977 147.773C154.977 146.341 155.32 145.234 156.008 144.453C156.701 143.672 157.685 143.281 158.961 143.281C159.372 143.281 159.784 143.326 160.195 143.414C160.607 143.503 160.93 143.607 161.164 143.727L160.766 144.828C160.479 144.714 160.167 144.62 159.828 144.547C159.49 144.469 159.19 144.43 158.93 144.43C157.19 144.43 156.32 145.539 156.32 147.758C156.32 148.81 156.531 149.617 156.953 150.18C157.38 150.742 158.01 151.023 158.844 151.023C159.557 151.023 160.289 150.87 161.039 150.562V151.711C160.466 152.008 159.745 152.156 158.875 152.156ZM168.344 152L168.086 150.781H168.023C167.596 151.318 167.169 151.682 166.742 151.875C166.32 152.062 165.792 152.156 165.156 152.156C164.307 152.156 163.641 151.938 163.156 151.5C162.677 151.062 162.438 150.44 162.438 149.633C162.438 147.904 163.82 146.997 166.586 146.914L168.039 146.867V146.336C168.039 145.664 167.893 145.169 167.602 144.852C167.315 144.529 166.854 144.367 166.219 144.367C165.505 144.367 164.698 144.586 163.797 145.023L163.398 144.031C163.82 143.802 164.281 143.622 164.781 143.492C165.286 143.362 165.792 143.297 166.297 143.297C167.318 143.297 168.073 143.523 168.562 143.977C169.057 144.43 169.305 145.156 169.305 146.156V152H168.344ZM165.414 151.086C166.221 151.086 166.854 150.865 167.312 150.422C167.776 149.979 168.008 149.359 168.008 148.562V147.789L166.711 147.844C165.68 147.88 164.935 148.042 164.477 148.328C164.023 148.609 163.797 149.049 163.797 149.648C163.797 150.117 163.938 150.474 164.219 150.719C164.505 150.964 164.904 151.086 165.414 151.086ZM173.281 152H171.984V139.844H173.281V152ZM177.328 152H176.031V139.844H177.328V152ZM178.719 143.438H180.109L181.984 148.32C182.396 149.435 182.651 150.24 182.75 150.734H182.812C182.88 150.469 183.021 150.016 183.234 149.375C183.453 148.729 184.161 146.75 185.359 143.438H186.75L183.07 153.188C182.706 154.151 182.279 154.833 181.789 155.234C181.305 155.641 180.708 155.844 180 155.844C179.604 155.844 179.214 155.799 178.828 155.711V154.672C179.115 154.734 179.435 154.766 179.789 154.766C180.68 154.766 181.315 154.266 181.695 153.266L182.172 152.047L178.719 143.438ZM197.562 152L197.305 150.781H197.242C196.815 151.318 196.388 151.682 195.961 151.875C195.539 152.062 195.01 152.156 194.375 152.156C193.526 152.156 192.859 151.938 192.375 151.5C191.896 151.062 191.656 150.44 191.656 149.633C191.656 147.904 193.039 146.997 195.805 146.914L197.258 146.867V146.336C197.258 145.664 197.112 145.169 196.82 144.852C196.534 144.529 196.073 144.367 195.438 144.367C194.724 144.367 193.917 144.586 193.016 145.023L192.617 144.031C193.039 143.802 193.5 143.622 194 143.492C194.505 143.362 195.01 143.297 195.516 143.297C196.536 143.297 197.292 143.523 197.781 143.977C198.276 144.43 198.523 145.156 198.523 146.156V152H197.562ZM194.633 151.086C195.44 151.086 196.073 150.865 196.531 150.422C196.995 149.979 197.227 149.359 197.227 148.562V147.789L195.93 147.844C194.898 147.88 194.154 148.042 193.695 148.328C193.242 148.609 193.016 149.049 193.016 149.648C193.016 150.117 193.156 150.474 193.438 150.719C193.724 150.964 194.122 151.086 194.633 151.086ZM203.969 151.086C204.198 151.086 204.419 151.07 204.633 151.039C204.846 151.003 205.016 150.966 205.141 150.93V151.922C205 151.99 204.792 152.044 204.516 152.086C204.245 152.133 204 152.156 203.781 152.156C202.125 152.156 201.297 151.284 201.297 149.539V144.445H200.07V143.82L201.297 143.281L201.844 141.453H202.594V143.438H205.078V144.445H202.594V149.484C202.594 150 202.716 150.396 202.961 150.672C203.206 150.948 203.542 151.086 203.969 151.086ZM209.656 143.438H211.047L212.922 148.32C213.333 149.435 213.589 150.24 213.688 150.734H213.75C213.818 150.469 213.958 150.016 214.172 149.375C214.391 148.729 215.099 146.75 216.297 143.438H217.688L214.008 153.188C213.643 154.151 213.216 154.833 212.727 155.234C212.242 155.641 211.646 155.844 210.938 155.844C210.542 155.844 210.151 155.799 209.766 155.711V154.672C210.052 154.734 210.372 154.766 210.727 154.766C211.617 154.766 212.253 154.266 212.633 153.266L213.109 152.047L209.656 143.438ZM226.469 147.711C226.469 149.107 226.117 150.198 225.414 150.984C224.711 151.766 223.74 152.156 222.5 152.156C221.734 152.156 221.055 151.977 220.461 151.617C219.867 151.258 219.409 150.742 219.086 150.07C218.763 149.398 218.602 148.612 218.602 147.711C218.602 146.315 218.951 145.229 219.648 144.453C220.346 143.672 221.315 143.281 222.555 143.281C223.753 143.281 224.703 143.68 225.406 144.477C226.115 145.273 226.469 146.352 226.469 147.711ZM219.945 147.711C219.945 148.805 220.164 149.638 220.602 150.211C221.039 150.784 221.682 151.07 222.531 151.07C223.38 151.07 224.023 150.786 224.461 150.219C224.904 149.646 225.125 148.81 225.125 147.711C225.125 146.622 224.904 145.797 224.461 145.234C224.023 144.667 223.375 144.383 222.516 144.383C221.667 144.383 221.026 144.661 220.594 145.219C220.161 145.776 219.945 146.607 219.945 147.711ZM229.969 143.438V148.992C229.969 149.69 230.128 150.211 230.445 150.555C230.763 150.898 231.26 151.07 231.938 151.07C232.833 151.07 233.487 150.826 233.898 150.336C234.315 149.846 234.523 149.047 234.523 147.938V143.438H235.82V152H234.75L234.562 150.852H234.492C234.227 151.273 233.857 151.596 233.383 151.82C232.914 152.044 232.378 152.156 231.773 152.156C230.732 152.156 229.951 151.909 229.43 151.414C228.914 150.919 228.656 150.128 228.656 149.039V143.438H229.969ZM242.484 143.281C242.865 143.281 243.206 143.312 243.508 143.375L243.328 144.578C242.974 144.5 242.661 144.461 242.391 144.461C241.698 144.461 241.104 144.742 240.609 145.305C240.12 145.867 239.875 146.568 239.875 147.406V152H238.578V143.438H239.648L239.797 145.023H239.859C240.177 144.466 240.56 144.036 241.008 143.734C241.456 143.432 241.948 143.281 242.484 143.281ZM65.8828 176L65.625 174.781H65.5625C65.1354 175.318 64.7083 175.682 64.2812 175.875C63.8594 176.062 63.3307 176.156 62.6953 176.156C61.8464 176.156 61.1797 175.938 60.6953 175.5C60.2161 175.062 59.9766 174.44 59.9766 173.633C59.9766 171.904 61.3594 170.997 64.125 170.914L65.5781 170.867V170.336C65.5781 169.664 65.4323 169.169 65.1406 168.852C64.8542 168.529 64.3932 168.367 63.7578 168.367C63.0443 168.367 62.237 168.586 61.3359 169.023L60.9375 168.031C61.3594 167.802 61.8203 167.622 62.3203 167.492C62.8255 167.362 63.3307 167.297 63.8359 167.297C64.8568 167.297 65.612 167.523 66.1016 167.977C66.5964 168.43 66.8438 169.156 66.8438 170.156V176H65.8828ZM62.9531 175.086C63.7604 175.086 64.3932 174.865 64.8516 174.422C65.3151 173.979 65.5469 173.359 65.5469 172.562V171.789L64.25 171.844C63.2188 171.88 62.474 172.042 62.0156 172.328C61.5625 172.609 61.3359 173.049 61.3359 173.648C61.3359 174.117 61.4766 174.474 61.7578 174.719C62.0443 174.964 62.4427 175.086 62.9531 175.086ZM72.9453 176.156C71.7057 176.156 70.7448 175.776 70.0625 175.016C69.3854 174.25 69.0469 173.169 69.0469 171.773C69.0469 170.341 69.3906 169.234 70.0781 168.453C70.7708 167.672 71.7552 167.281 73.0312 167.281C73.4427 167.281 73.8542 167.326 74.2656 167.414C74.6771 167.503 75 167.607 75.2344 167.727L74.8359 168.828C74.5495 168.714 74.237 168.62 73.8984 168.547C73.5599 168.469 73.2604 168.43 73 168.43C71.2604 168.43 70.3906 169.539 70.3906 171.758C70.3906 172.81 70.6016 173.617 71.0234 174.18C71.4505 174.742 72.0807 175.023 72.9141 175.023C73.6276 175.023 74.3594 174.87 75.1094 174.562V175.711C74.5365 176.008 73.8151 176.156 72.9453 176.156ZM80.5703 176.156C79.3307 176.156 78.3698 175.776 77.6875 175.016C77.0104 174.25 76.6719 173.169 76.6719 171.773C76.6719 170.341 77.0156 169.234 77.7031 168.453C78.3958 167.672 79.3802 167.281 80.6562 167.281C81.0677 167.281 81.4792 167.326 81.8906 167.414C82.3021 167.503 82.625 167.607 82.8594 167.727L82.4609 168.828C82.1745 168.714 81.862 168.62 81.5234 168.547C81.1849 168.469 80.8854 168.43 80.625 168.43C78.8854 168.43 78.0156 169.539 78.0156 171.758C78.0156 172.81 78.2266 173.617 78.6484 174.18C79.0755 174.742 79.7057 175.023 80.5391 175.023C81.2526 175.023 81.9844 174.87 82.7344 174.562V175.711C82.1615 176.008 81.4401 176.156 80.5703 176.156ZM92.1641 171.711C92.1641 173.107 91.8125 174.198 91.1094 174.984C90.4062 175.766 89.4349 176.156 88.1953 176.156C87.4297 176.156 86.75 175.977 86.1562 175.617C85.5625 175.258 85.1042 174.742 84.7812 174.07C84.4583 173.398 84.2969 172.612 84.2969 171.711C84.2969 170.315 84.6458 169.229 85.3438 168.453C86.0417 167.672 87.0104 167.281 88.25 167.281C89.4479 167.281 90.3984 167.68 91.1016 168.477C91.8099 169.273 92.1641 170.352 92.1641 171.711ZM85.6406 171.711C85.6406 172.805 85.8594 173.638 86.2969 174.211C86.7344 174.784 87.3776 175.07 88.2266 175.07C89.0755 175.07 89.7188 174.786 90.1562 174.219C90.599 173.646 90.8203 172.81 90.8203 171.711C90.8203 170.622 90.599 169.797 90.1562 169.234C89.7188 168.667 89.0703 168.383 88.2109 168.383C87.362 168.383 86.7214 168.661 86.2891 169.219C85.8568 169.776 85.6406 170.607 85.6406 171.711ZM95.6641 167.438V172.992C95.6641 173.69 95.8229 174.211 96.1406 174.555C96.4583 174.898 96.9557 175.07 97.6328 175.07C98.5286 175.07 99.1823 174.826 99.5938 174.336C100.01 173.846 100.219 173.047 100.219 171.938V167.438H101.516V176H100.445L100.258 174.852H100.188C99.9219 175.273 99.5521 175.596 99.0781 175.82C98.6094 176.044 98.0729 176.156 97.4688 176.156C96.4271 176.156 95.6458 175.909 95.125 175.414C94.6094 174.919 94.3516 174.128 94.3516 173.039V167.438H95.6641ZM110.133 176V170.461C110.133 169.763 109.974 169.242 109.656 168.898C109.339 168.555 108.841 168.383 108.164 168.383C107.268 168.383 106.612 168.625 106.195 169.109C105.779 169.594 105.57 170.393 105.57 171.508V176H104.273V167.438H105.328L105.539 168.609H105.602C105.867 168.188 106.24 167.862 106.719 167.633C107.198 167.398 107.732 167.281 108.32 167.281C109.352 167.281 110.128 167.531 110.648 168.031C111.169 168.526 111.43 169.32 111.43 170.414V176H110.133ZM116.867 175.086C117.096 175.086 117.318 175.07 117.531 175.039C117.745 175.003 117.914 174.966 118.039 174.93V175.922C117.898 175.99 117.69 176.044 117.414 176.086C117.143 176.133 116.898 176.156 116.68 176.156C115.023 176.156 114.195 175.284 114.195 173.539V168.445H112.969V167.82L114.195 167.281L114.742 165.453H115.492V167.438H117.977V168.445H115.492V173.484C115.492 174 115.615 174.396 115.859 174.672C116.104 174.948 116.44 175.086 116.867 175.086ZM121.055 176H119.758V167.438H121.055V176ZM119.648 165.117C119.648 164.82 119.721 164.604 119.867 164.469C120.013 164.328 120.195 164.258 120.414 164.258C120.622 164.258 120.802 164.328 120.953 164.469C121.104 164.609 121.18 164.826 121.18 165.117C121.18 165.409 121.104 165.628 120.953 165.773C120.802 165.914 120.622 165.984 120.414 165.984C120.195 165.984 120.013 165.914 119.867 165.773C119.721 165.628 119.648 165.409 119.648 165.117ZM129.664 176V170.461C129.664 169.763 129.505 169.242 129.188 168.898C128.87 168.555 128.372 168.383 127.695 168.383C126.799 168.383 126.143 168.625 125.727 169.109C125.31 169.594 125.102 170.393 125.102 171.508V176H123.805V167.438H124.859L125.07 168.609H125.133C125.398 168.188 125.771 167.862 126.25 167.633C126.729 167.398 127.263 167.281 127.852 167.281C128.883 167.281 129.659 167.531 130.18 168.031C130.701 168.526 130.961 169.32 130.961 170.414V176H129.664ZM140.641 167.438V168.258L139.055 168.445C139.201 168.628 139.331 168.867 139.445 169.164C139.56 169.456 139.617 169.786 139.617 170.156C139.617 170.995 139.331 171.664 138.758 172.164C138.185 172.664 137.398 172.914 136.398 172.914C136.143 172.914 135.904 172.893 135.68 172.852C135.128 173.143 134.852 173.51 134.852 173.953C134.852 174.188 134.948 174.362 135.141 174.477C135.333 174.586 135.664 174.641 136.133 174.641H137.648C138.576 174.641 139.286 174.836 139.781 175.227C140.281 175.617 140.531 176.185 140.531 176.93C140.531 177.878 140.151 178.599 139.391 179.094C138.63 179.594 137.521 179.844 136.062 179.844C134.943 179.844 134.078 179.635 133.469 179.219C132.865 178.802 132.562 178.214 132.562 177.453C132.562 176.932 132.729 176.482 133.062 176.102C133.396 175.721 133.865 175.464 134.469 175.328C134.25 175.229 134.065 175.076 133.914 174.867C133.768 174.659 133.695 174.417 133.695 174.141C133.695 173.828 133.779 173.555 133.945 173.32C134.112 173.086 134.375 172.859 134.734 172.641C134.292 172.458 133.93 172.148 133.648 171.711C133.372 171.273 133.234 170.773 133.234 170.211C133.234 169.273 133.516 168.552 134.078 168.047C134.641 167.536 135.438 167.281 136.469 167.281C136.917 167.281 137.32 167.333 137.68 167.438H140.641ZM133.812 177.438C133.812 177.901 134.008 178.253 134.398 178.492C134.789 178.732 135.349 178.852 136.078 178.852C137.167 178.852 137.971 178.688 138.492 178.359C139.018 178.036 139.281 177.596 139.281 177.039C139.281 176.576 139.138 176.253 138.852 176.07C138.565 175.893 138.026 175.805 137.234 175.805H135.68C135.091 175.805 134.633 175.945 134.305 176.227C133.977 176.508 133.812 176.911 133.812 177.438ZM134.516 170.18C134.516 170.779 134.685 171.232 135.023 171.539C135.362 171.846 135.833 172 136.438 172C137.703 172 138.336 171.385 138.336 170.156C138.336 168.87 137.695 168.227 136.414 168.227C135.805 168.227 135.336 168.391 135.008 168.719C134.68 169.047 134.516 169.534 134.516 170.18ZM150.539 176.156C149.982 176.156 149.471 176.055 149.008 175.852C148.549 175.643 148.164 175.326 147.852 174.898H147.758C147.82 175.398 147.852 175.872 147.852 176.32V179.844H146.555V167.438H147.609L147.789 168.609H147.852C148.185 168.141 148.573 167.802 149.016 167.594C149.458 167.385 149.966 167.281 150.539 167.281C151.674 167.281 152.549 167.669 153.164 168.445C153.784 169.221 154.094 170.31 154.094 171.711C154.094 173.117 153.779 174.211 153.148 174.992C152.523 175.768 151.654 176.156 150.539 176.156ZM150.352 168.383C149.477 168.383 148.844 168.625 148.453 169.109C148.062 169.594 147.862 170.365 147.852 171.422V171.711C147.852 172.914 148.052 173.776 148.453 174.297C148.854 174.812 149.497 175.07 150.383 175.07C151.122 175.07 151.701 174.771 152.117 174.172C152.539 173.573 152.75 172.747 152.75 171.695C152.75 170.628 152.539 169.81 152.117 169.242C151.701 168.669 151.112 168.383 150.352 168.383ZM157.664 176H156.367V163.844H157.664V176ZM165.68 176L165.422 174.781H165.359C164.932 175.318 164.505 175.682 164.078 175.875C163.656 176.062 163.128 176.156 162.492 176.156C161.643 176.156 160.977 175.938 160.492 175.5C160.013 175.062 159.773 174.44 159.773 173.633C159.773 171.904 161.156 170.997 163.922 170.914L165.375 170.867V170.336C165.375 169.664 165.229 169.169 164.938 168.852C164.651 168.529 164.19 168.367 163.555 168.367C162.841 168.367 162.034 168.586 161.133 169.023L160.734 168.031C161.156 167.802 161.617 167.622 162.117 167.492C162.622 167.362 163.128 167.297 163.633 167.297C164.654 167.297 165.409 167.523 165.898 167.977C166.393 168.43 166.641 169.156 166.641 170.156V176H165.68ZM162.75 175.086C163.557 175.086 164.19 174.865 164.648 174.422C165.112 173.979 165.344 173.359 165.344 172.562V171.789L164.047 171.844C163.016 171.88 162.271 172.042 161.812 172.328C161.359 172.609 161.133 173.049 161.133 173.648C161.133 174.117 161.273 174.474 161.555 174.719C161.841 174.964 162.24 175.086 162.75 175.086ZM172.086 175.086C172.315 175.086 172.536 175.07 172.75 175.039C172.964 175.003 173.133 174.966 173.258 174.93V175.922C173.117 175.99 172.909 176.044 172.633 176.086C172.362 176.133 172.117 176.156 171.898 176.156C170.242 176.156 169.414 175.284 169.414 173.539V168.445H168.188V167.82L169.414 167.281L169.961 165.453H170.711V167.438H173.195V168.445H170.711V173.484C170.711 174 170.833 174.396 171.078 174.672C171.323 174.948 171.659 175.086 172.086 175.086ZM178.836 168.445H176.656V176H175.359V168.445H173.828V167.859L175.359 167.391V166.914C175.359 164.81 176.279 163.758 178.117 163.758C178.57 163.758 179.102 163.849 179.711 164.031L179.375 165.07C178.875 164.909 178.448 164.828 178.094 164.828C177.604 164.828 177.242 164.992 177.008 165.32C176.773 165.643 176.656 166.164 176.656 166.883V167.438H178.836V168.445ZM187.789 171.711C187.789 173.107 187.438 174.198 186.734 174.984C186.031 175.766 185.06 176.156 183.82 176.156C183.055 176.156 182.375 175.977 181.781 175.617C181.188 175.258 180.729 174.742 180.406 174.07C180.083 173.398 179.922 172.612 179.922 171.711C179.922 170.315 180.271 169.229 180.969 168.453C181.667 167.672 182.635 167.281 183.875 167.281C185.073 167.281 186.023 167.68 186.727 168.477C187.435 169.273 187.789 170.352 187.789 171.711ZM181.266 171.711C181.266 172.805 181.484 173.638 181.922 174.211C182.359 174.784 183.003 175.07 183.852 175.07C184.701 175.07 185.344 174.786 185.781 174.219C186.224 173.646 186.445 172.81 186.445 171.711C186.445 170.622 186.224 169.797 185.781 169.234C185.344 168.667 184.695 168.383 183.836 168.383C182.987 168.383 182.346 168.661 181.914 169.219C181.482 169.776 181.266 170.607 181.266 171.711ZM193.977 167.281C194.357 167.281 194.698 167.312 195 167.375L194.82 168.578C194.466 168.5 194.154 168.461 193.883 168.461C193.19 168.461 192.596 168.742 192.102 169.305C191.612 169.867 191.367 170.568 191.367 171.406V176H190.07V167.438H191.141L191.289 169.023H191.352C191.669 168.466 192.052 168.036 192.5 167.734C192.948 167.432 193.44 167.281 193.977 167.281ZM207.516 176V170.43C207.516 169.747 207.37 169.237 207.078 168.898C206.786 168.555 206.333 168.383 205.719 168.383C204.911 168.383 204.315 168.615 203.93 169.078C203.544 169.542 203.352 170.255 203.352 171.219V176H202.055V170.43C202.055 169.747 201.909 169.237 201.617 168.898C201.326 168.555 200.87 168.383 200.25 168.383C199.438 168.383 198.841 168.628 198.461 169.117C198.086 169.602 197.898 170.398 197.898 171.508V176H196.602V167.438H197.656L197.867 168.609H197.93C198.174 168.193 198.518 167.867 198.961 167.633C199.409 167.398 199.909 167.281 200.461 167.281C201.799 167.281 202.674 167.766 203.086 168.734H203.148C203.404 168.286 203.773 167.932 204.258 167.672C204.742 167.411 205.294 167.281 205.914 167.281C206.883 167.281 207.607 167.531 208.086 168.031C208.57 168.526 208.812 169.32 208.812 170.414V176H207.516ZM217.016 173.664C217.016 174.461 216.719 175.076 216.125 175.508C215.531 175.94 214.698 176.156 213.625 176.156C212.49 176.156 211.604 175.977 210.969 175.617V174.414C211.38 174.622 211.82 174.786 212.289 174.906C212.763 175.026 213.219 175.086 213.656 175.086C214.333 175.086 214.854 174.979 215.219 174.766C215.583 174.547 215.766 174.216 215.766 173.773C215.766 173.44 215.62 173.156 215.328 172.922C215.042 172.682 214.479 172.401 213.641 172.078C212.844 171.781 212.276 171.523 211.938 171.305C211.604 171.081 211.354 170.828 211.188 170.547C211.026 170.266 210.945 169.93 210.945 169.539C210.945 168.841 211.229 168.292 211.797 167.891C212.365 167.484 213.143 167.281 214.133 167.281C215.055 167.281 215.956 167.469 216.836 167.844L216.375 168.898C215.516 168.544 214.737 168.367 214.039 168.367C213.424 168.367 212.961 168.464 212.648 168.656C212.336 168.849 212.18 169.115 212.18 169.453C212.18 169.682 212.237 169.878 212.352 170.039C212.471 170.201 212.661 170.354 212.922 170.5C213.182 170.646 213.682 170.857 214.422 171.133C215.438 171.503 216.122 171.875 216.477 172.25C216.836 172.625 217.016 173.096 217.016 173.664Z" fill="#1F3161"/>
<path d="M144.247 80.2796H172.329C180.432 80.2796 187 73.7113 187 65.609V16.0623C187 15.6122 186.635 15.2473 186.185 15.2473H75.815C75.3649 15.2473 75 15.6122 75 16.0623V65.609C75 73.7113 81.5682 80.2796 89.6706 80.2796H115.946" stroke="#2C4584" stroke-width="3.26013" stroke-miterlimit="10" stroke-linecap="round" stroke-linejoin="round"/>
<path d="M75 15.4552V2.81503C75 2.3649 75.3649 2 75.815 2H186.185C186.635 2 187 2.3649 187 2.81503V21.3053" stroke="#2C4584" stroke-width="3.26013" stroke-miterlimit="10" stroke-linecap="round" stroke-linejoin="round"/>
<rect x="87.043" y="24.8816" width="87.914" height="45.7634" fill="url(#paint0_linear)"/>
<circle cx="85.6258" cy="8.62359" r="1.80645" fill="#50E6C5"/>
<circle cx="92.8516" cy="8.62359" r="1.80645" fill="#50E6C5"/>
<circle cx="100.077" cy="8.62359" r="1.80645" fill="#50E6C5"/>
<path d="M130.398 82.6883V45.355" stroke="#2C4584" stroke-width="3.26013" stroke-miterlimit="10" stroke-linecap="round" stroke-linejoin="round"/>
<path d="M116.548 58.6022L129.809 44.7647C130.13 44.4299 130.665 44.4299 130.986 44.7647L144.247 58.6022" stroke="#2C4584" stroke-width="3.26013" stroke-miterlimit="10" stroke-linecap="round" stroke-linejoin="round"/>
<defs>
<linearGradient id="paint0_linear" x1="131" y1="24.8816" x2="130.998" y2="70.5866" gradientUnits="userSpaceOnUse">
<stop stop-color="#50E6C5"/>
<stop offset="1" stop-color="#00DDAC" stop-opacity="0"/>
</linearGradient>
</defs>
</svg>
