<svg width="122" height="79" viewBox="0 0 122 79" fill="none" xmlns="http://www.w3.org/2000/svg">
<path d="M24.0585 29.9695C11.3877 29.9695 1 40.4186 1 53.1642C1 65.9099 11.3877 76.359 24.0585 76.359" fill="#50E3C2"/>
<path d="M24.0585 29.9695C11.3877 29.9695 1 40.4186 1 53.1642C1 65.9099 11.3877 76.359 24.0585 76.359" stroke="white" stroke-miterlimit="10"/>
<path d="M98.3889 29.5102C96.7908 20.6686 90.2842 0 65.0569 0C44.8521 0 35.6059 18.8314 33.2087 24.6875C23.0493 26.0654 6.61157 33.2994 6.61157 52.4753C6.61157 71.1919 21.6795 78.5407 34.6927 79H76.2436C77.7276 79 78.9833 77.7369 78.9833 76.2442C78.9833 74.7514 77.7276 73.4884 76.2436 73.4884H34.921C31.154 73.3735 12.205 71.5363 12.205 52.4753C12.205 32.1512 34.5786 30.0843 35.4918 29.9695C36.6333 29.8546 37.5465 29.1657 37.8889 28.0174C38.2314 27.0988 45.3087 5.51163 65.0569 5.51163C87.2021 5.51163 92.1106 24.1134 93.138 32.1512V32.4956C93.3663 33.7587 94.3936 34.7921 95.7635 34.7921C96.5625 34.7921 116.425 36.0552 116.425 55.4607C116.425 63.4985 111.06 69.6991 101.928 72.2253C100.9 72.4549 100.215 73.2587 99.8729 74.1773C99.6446 75.0959 99.8729 76.2442 100.558 76.9331C101.243 77.6221 102.27 77.8517 103.297 77.6221C116.996 73.9477 121.79 63.7282 121.79 55.5756C122.018 37.3183 107.635 30.7733 98.3889 29.5102Z" fill="#2C4584"/>
<path d="M44.9413 44.0675C44.2879 45.1133 44.568 46.5394 45.5947 47.2999L51.2886 51.1029C51.8487 51.4831 52.5021 51.5782 53.1555 51.3881C53.8089 51.1979 54.2756 50.7226 54.5556 50.1521L57.3559 44.0675C57.9159 42.9266 57.3559 41.5005 56.2358 41.0251C55.1157 40.4547 53.7155 41.0251 53.2488 42.166L53.0621 42.5463C53.0621 42.3561 53.0621 42.0709 53.0621 41.8808C53.0621 37.6976 55.3023 33.7996 58.8494 31.8031C62.3964 29.7114 66.7835 29.8065 70.3305 31.8981C71.3572 32.5636 72.7574 32.1833 73.4108 31.1375C74.0642 30.0917 73.6908 28.6656 72.664 28.0001C67.7169 25.0529 61.6496 24.9578 56.6091 27.9051C51.662 30.7572 48.5817 36.1764 48.5817 41.9759C48.5817 42.6414 48.5817 43.3069 48.675 43.9724L48.115 43.5921C47.6483 43.2118 46.9949 43.1167 46.4348 43.3069C45.7814 43.2118 45.3147 43.5921 44.9413 44.0675Z" fill="#50E3C2" stroke="#F8F8F8" stroke-miterlimit="10"/>
<path d="M58.2195 58.5743C63.2975 61.1309 69.3337 60.9415 74.2201 58.0061C79.1065 55.0708 82.0767 49.8629 82.0767 44.1815C82.0767 43.5187 82.0767 42.8559 81.9809 42.1931L82.5558 42.5718C83.2265 43.0453 84.1846 43.1399 84.8553 42.7612C85.6218 42.3824 86.1008 41.6249 86.1008 40.8674C86.1008 40.0152 85.7176 39.2577 85.0469 38.7842L79.2024 34.9967C78.6275 34.6179 77.9568 34.5232 77.2861 34.7126C76.6154 34.902 76.1364 35.3754 75.8489 35.9436L72.9746 42.0037C72.5913 42.7612 72.6871 43.6134 73.1662 44.2762C73.6452 44.939 74.4117 45.3178 75.2741 45.2231C76.1364 45.1284 76.807 44.655 77.1903 43.8975L77.3819 43.424C77.3819 43.6134 77.3819 43.8975 77.3819 44.0868C77.3819 50.5257 72.1123 55.6389 65.6928 55.6389C63.7766 55.6389 61.9562 55.1655 60.3274 54.3133C59.1776 53.7451 57.8363 54.2186 57.2614 55.3548C56.5907 56.5858 57.0698 58.0061 58.2195 58.5743Z" fill="#50E3C2" stroke="#F8F8F8" stroke-miterlimit="10"/>
<path d="M84.4292 76H91.4292" stroke="#2C4584" stroke-width="6" stroke-miterlimit="10" stroke-linecap="round"/>
</svg>
